<svg width="100" height="100" viewBox="0 0 100 100" fill="none" xmlns="http://www.w3.org/2000/svg">
<path fill-rule="evenodd" clip-rule="evenodd" d="M45.8333 13.3C45.8333 12.8582 46.1915 12.5 46.6333 12.5H53.3667C53.8085 12.5 54.1667 12.8582 54.1667 13.3V86.7C54.1667 87.1418 53.8085 87.5 53.3667 87.5H46.6333C46.1915 87.5 45.8333 87.1418 45.8333 86.7V13.3ZM58.3334 17.4201C58.333 16.9638 58.7332 16.6046 59.1839 16.6757C67.2871 17.9539 73.7689 24.3987 74.9569 32.6885C75.2869 34.9913 73.6907 37.1262 71.3916 37.4567C69.0925 37.7873 66.9611 36.1884 66.6311 33.8856C66.0373 29.742 63.0506 26.4234 59.17 25.2895C59.0339 25.2497 58.8267 25.1983 58.6532 25.1567C58.4696 25.1127 58.3389 24.9493 58.3387 24.7605L58.3334 17.4201ZM41.0765 54.0929C41.2685 54.1205 41.461 54.1451 41.654 54.1667L41.6667 45.6683C36.8707 44.6947 33.3273 40.4099 33.3273 35.3658C33.3273 30.6211 36.4627 26.5482 40.8266 25.2712C40.9646 25.2308 41.1754 25.1787 41.3512 25.1367C41.5348 25.093 41.6656 24.9294 41.6655 24.7407L41.6614 17.3994C41.6611 16.9569 41.2703 16.6067 40.8331 16.6754C31.7753 18.0997 25 26.003 25 35.3658C25 44.8123 31.897 52.7731 41.0765 54.0929ZM40.8162 83.3244C32.713 82.0461 26.2312 75.6014 25.0432 67.3116C24.7132 65.0087 26.3094 62.8739 28.6085 62.5433C30.9076 62.2127 33.039 63.8116 33.369 66.1145C33.9628 70.258 36.9495 73.5766 40.8301 74.7106C40.8879 74.7274 40.9553 74.7459 41.0323 74.7659L41.032 74.7669C41.4026 74.8633 41.6613 75.1977 41.6616 75.5807L41.6667 82.597C41.667 83.0034 41.3378 83.3331 40.9314 83.3334C40.8928 83.3334 40.8543 83.3304 40.8162 83.3244ZM58.9234 45.9071C58.7315 45.8795 58.539 45.8549 58.346 45.8333L58.3333 54.3317C63.1293 55.3053 66.6727 59.5901 66.6727 64.6342C66.6727 69.379 63.5373 73.4519 59.1734 74.7289C59.1138 74.7463 59.0441 74.7654 58.9643 74.7861C58.5929 74.8823 58.3336 75.2175 58.3338 75.6012L58.3387 82.6169C58.3387 82.654 58.3416 82.6911 58.3474 82.7278C58.4089 83.1189 58.7758 83.3861 59.1668 83.3246C68.2247 81.9003 75 73.997 75 64.6342C75 55.1877 68.103 47.2269 58.9234 45.9071Z" fill="url(#paint0_linear)"/>
<defs>
<linearGradient id="paint0_linear" x1="75.0001" y1="22.1852" x2="-8.76557" y2="52.0152" gradientUnits="userSpaceOnUse">
<stop stop-color="#006EAE"/>
<stop offset="1" stop-color="#006EAE" stop-opacity="0.65"/>
</linearGradient>
</defs>
</svg>
