<svg width="100" height="100" viewBox="0 0 100 100" fill="none" xmlns="http://www.w3.org/2000/svg">
<path fill-rule="evenodd" clip-rule="evenodd" d="M83.3101 75.0016V79.1677C83.3101 83.7695 79.5806 87.5 74.9799 87.5H24.9988C20.3982 87.5 16.6686 83.7695 16.6686 79.1677V75.0016C16.6686 72.6463 17.6456 70.5193 19.2164 69.0038C17.1862 66.569 15.8322 63.5358 15.4591 60.1773L12.536 36.0653C12.1804 32.8638 14.4999 29.9766 17.7007 29.6209C18.297 29.5547 18.8624 29.5842 19.4507 29.7019L35.4327 32.8453L44.9892 15.332C46.6461 12.5698 50.228 11.675 52.9895 13.3323C53.8102 13.8249 54.4971 14.511 54.9895 15.332L64.546 32.8453L80.5106 29.7019C83.6685 29.0702 86.751 31.1187 87.3826 34.2774C87.5003 34.8658 87.5322 35.4689 87.466 36.0653L84.5197 60.1773C84.1466 63.5358 82.7926 66.569 80.7624 69.0038C82.3331 70.5193 83.3101 72.6463 83.3101 75.0016ZM41.6667 70.8259C41.6667 68.525 43.5319 66.6598 45.8328 66.6598H54.1672C56.4681 66.6598 58.3333 68.525 58.3333 70.8259C58.3333 73.1268 56.4681 74.9921 54.1672 74.9921H45.8328C43.5319 74.9921 41.6667 73.1268 41.6667 70.8259ZM78.8032 38.5428L76.2501 59.2572C75.7814 63.4769 72.2058 66.6693 67.9611 66.6693H66.6497C64.3493 66.6693 62.4846 68.5346 62.4846 70.8355C62.4846 73.1364 64.3493 75.0016 66.6497 75.0016H74.5799C74.8008 75.0016 74.9799 75.1807 74.9799 75.4016V78.7677C74.9799 78.9887 74.8008 79.1677 74.5798 79.1677H25.3987C25.1778 79.1677 24.9987 78.9887 24.9987 78.7677V75.4016C24.9987 75.1807 25.1778 75.0016 25.3987 75.0016H33.3226C35.6229 75.0016 37.4877 73.1364 37.4877 70.8355C37.4877 68.5346 35.6229 66.6693 33.3226 66.6693H32.0175C27.7728 66.6693 24.2184 63.4769 23.7497 59.2572L21.1996 38.5428L35.5259 41.3613C37.9423 41.8447 40.4017 40.7565 41.6696 38.6428L49.9893 23.2061L58.309 38.6428C59.5769 40.7565 62.0362 41.8447 64.4527 41.3613L78.8032 38.5428Z" fill="url(#paint0_linear)"/>
<defs>
<linearGradient id="paint0_linear" x1="87.5" y1="22.1852" x2="-22.6522" y2="81.025" gradientUnits="userSpaceOnUse">
<stop stop-color="#006EAE"/>
<stop offset="1" stop-color="#006EAE" stop-opacity="0.65"/>
</linearGradient>
</defs>
</svg>
