<svg width="100" height="100" viewBox="0 0 100 100" fill="none" xmlns="http://www.w3.org/2000/svg">
<path fill-rule="evenodd" clip-rule="evenodd" d="M81.9255 37.5L72.0516 22.6887C71.2788 21.5296 69.9864 20.8333 68.5933 20.8333H58.3433L65.0186 37.5H81.9255ZM41.5933 20.8333H31.4266C30.0334 20.8333 28.741 21.5296 27.9683 22.6887L18.0944 37.5H35.0012L41.5933 20.8333ZM50.0099 20.8333L43.4213 37.5H56.5985L50.0099 20.8333ZM80.4173 45.8333H43.0046L50.005 69.3308L54.8141 53.1882C55.4523 51.0461 57.6963 49.8173 59.8449 50.4334C61.9651 51.0413 63.191 53.253 62.5831 55.3732C62.5793 55.3863 57.4132 72.7272 57.4132 72.7272L53.0831 77.7916C52.9464 77.942 52.8013 78.0801 52.649 78.206L52.651 78.2125C52.8061 78.0849 52.9539 77.9446 53.093 77.7917L80.4173 45.8333ZM19.6025 45.8333H34.5846L42.5967 72.7272L19.6025 45.8333ZM31.4265 12.5H68.5932C72.7726 12.5 76.6915 14.5888 79.0099 18.0662L89.5932 33.9417C92.7749 38.7142 92.2849 45.0397 88.4265 49.2839L59.2591 83.375C54.6153 88.4832 46.7097 88.8938 41.6015 84.25C41.3342 84.007 41.0776 83.7242 40.8323 83.454L40.8322 83.4538L40.7606 83.375L11.5932 49.2839C7.73485 45.0397 7.24486 38.7142 10.4265 33.9417L21.0099 18.0662C23.3282 14.5888 27.2471 12.5 31.4265 12.5Z" fill="url(#paint0_linear)"/>
<defs>
<linearGradient id="paint0_linear" x1="91.6864" y1="22.1833" x2="-24.6485" y2="91.2601" gradientUnits="userSpaceOnUse">
<stop stop-color="#006EAE"/>
<stop offset="1" stop-color="#006EAE" stop-opacity="0.65"/>
</linearGradient>
</defs>
</svg>
