<svg width="100" height="100" viewBox="0 0 100 100" fill="none" xmlns="http://www.w3.org/2000/svg">
<path fill-rule="evenodd" clip-rule="evenodd" d="M28.2647 65.2828C26.7297 63.5684 26.8751 60.9343 28.5895 59.3992C30.3039 57.8642 32.9381 58.0097 34.4731 59.7241C38.4044 64.1148 43.9916 66.6666 50 66.6666C56.0072 66.6666 61.5933 64.1158 65.5245 59.7267C67.0598 58.0126 69.694 57.8676 71.4082 59.4029C73.1223 60.9382 73.2673 63.5724 71.732 65.2865C66.2362 71.4225 58.4017 75 50 75C41.5966 75 33.7606 71.421 28.2647 65.2828ZM50 91.6666C26.9882 91.6666 8.33337 73.0118 8.33337 49.9999C8.33337 26.9881 26.9882 8.33325 50 8.33325C73.0119 8.33325 91.6667 26.9881 91.6667 49.9999C91.6667 73.0118 73.0119 91.6666 50 91.6666ZM50 83.3332C68.4095 83.3332 83.3334 68.4094 83.3334 49.9999C83.3334 31.5904 68.4095 16.6666 50 16.6666C31.5905 16.6666 16.6667 31.5904 16.6667 49.9999C16.6667 68.4094 31.5905 83.3332 50 83.3332ZM45.8334 41.6666V43.7499C45.8334 49.5029 41.1697 54.1666 35.4167 54.1666C29.6637 54.1666 25 49.5029 25 43.7499V41.6666C25 39.3654 26.8655 37.4999 29.1667 37.4999C31.4679 37.4999 33.3334 39.3654 33.3334 41.6666V43.7499C33.3334 44.9005 34.2661 45.8333 35.4167 45.8333C36.5673 45.8333 37.5 44.9005 37.5 43.7499V41.6666C37.5 39.3654 39.3655 37.4999 41.6667 37.4999C43.9679 37.4999 45.8334 39.3654 45.8334 41.6666ZM75 41.6666V43.7499C75 49.5029 70.3363 54.1666 64.5834 54.1666C58.8304 54.1666 54.1667 49.5029 54.1667 43.7499V41.6666C54.1667 39.3654 56.0322 37.4999 58.3334 37.4999C60.6346 37.4999 62.5 39.3654 62.5 41.6666V43.7499C62.5 44.9005 63.4328 45.8333 64.5834 45.8333C65.734 45.8333 66.6667 44.9005 66.6667 43.7499V41.6666C66.6667 39.3654 68.5322 37.4999 70.8334 37.4999C73.1346 37.4999 75 39.3654 75 41.6666Z" fill="url(#paint0_linear)"/>
<defs>
<linearGradient id="paint0_linear" x1="91.6667" y1="19.0946" x2="-30.7246" y2="84.4721" gradientUnits="userSpaceOnUse">
<stop stop-color="#006EAE"/>
<stop offset="1" stop-color="#006EAE" stop-opacity="0.65"/>
</linearGradient>
</defs>
</svg>
