<svg width="100" height="100" viewBox="0 0 100 100" fill="none" xmlns="http://www.w3.org/2000/svg">
<path fill-rule="evenodd" clip-rule="evenodd" d="M66.6667 70.8333C66.6667 63.9298 61.0703 58.3333 54.1667 58.3333H45.8334C38.9298 58.3333 33.3334 63.9298 33.3334 70.8333V87.5C28.731 87.5 25 83.769 25 79.1667H16.6667C12.0643 79.1667 8.33337 75.4357 8.33337 70.8333V62.5C8.33337 54.4498 12.8994 47.466 19.5828 43.9971C16.4802 40.6518 14.5834 36.1724 14.5834 31.25C14.5834 20.8947 22.978 12.5 33.3334 12.5C39.7177 12.5 45.524 15.7214 48.946 20.8625C49.2949 20.8431 49.6463 20.8333 50 20.8333C50.3538 20.8333 50.7052 20.8431 51.0541 20.8625C54.477 15.7201 60.2836 12.5 66.6667 12.5C77.022 12.5 85.4167 20.8947 85.4167 31.25C85.4167 36.1724 83.5199 40.6518 80.4172 43.9971C87.1007 47.466 91.6667 54.4498 91.6667 62.5V70.8333C91.6667 75.4357 87.9358 79.1667 83.3334 79.1667H75C75 83.769 71.2691 87.5 66.6667 87.5V70.8333ZM37.5 80.3667C37.5 79.7039 38.0373 79.1667 38.7 79.1667H61.3C61.9628 79.1667 62.5 79.7039 62.5 80.3667V86.3C62.5 86.9627 61.9628 87.5 61.3 87.5H38.7C38.0373 87.5 37.5 86.9627 37.5 86.3V80.3667ZM83.3333 70.8333H75C75 62.7831 70.434 55.7993 63.7505 52.3304C64.4237 51.6047 65.04 50.8255 65.5926 50H70.8333C77.7369 50 83.3333 55.5964 83.3333 62.5V70.8333ZM77.0833 31.25C77.0833 25.497 72.4196 20.8333 66.6667 20.8333C64.0195 20.8333 61.5521 21.8287 59.6795 23.5217C65.1155 26.8048 68.75 32.7696 68.75 39.5833C68.75 40.2225 68.718 40.8543 68.6556 41.477C73.4572 40.5487 77.0833 36.3228 77.0833 31.25ZM60.4167 39.5833C60.4167 40.3421 60.3356 41.0819 60.1789 41.8065C59.1605 46.4913 54.99 50 50 50C44.2471 50 39.5834 45.3363 39.5834 39.5833C39.5834 33.8304 44.2471 29.1667 50 29.1667C55.753 29.1667 60.4167 33.8304 60.4167 39.5833ZM25 70.8333C25 62.7831 29.566 55.7993 36.2495 52.3304C35.5764 51.6047 34.96 50.8255 34.4074 50H29.1667C22.2631 50 16.6667 55.5964 16.6667 62.5V70.8333H25ZM22.9167 31.25C22.9167 25.497 27.5804 20.8333 33.3334 20.8333C35.9809 20.8333 38.4482 21.829 40.3206 23.5217C34.8845 26.8048 31.25 32.7696 31.25 39.5833C31.25 40.2225 31.282 40.8543 31.3445 41.477C26.5428 40.5487 22.9167 36.3228 22.9167 31.25Z" fill="url(#paint0_linear)"/>
<defs>
<linearGradient id="paint0_linear" x1="91.6667" y1="22.1852" x2="-24.6668" y2="91.2315" gradientUnits="userSpaceOnUse">
<stop stop-color="#006EAE"/>
<stop offset="1" stop-color="#006EAE" stop-opacity="0.65"/>
</linearGradient>
</defs>
</svg>
