<svg width="100" height="100" viewBox="0 0 100 100" fill="none" xmlns="http://www.w3.org/2000/svg">
<path fill-rule="evenodd" clip-rule="evenodd" d="M18.75 41.6667H25C27.3012 41.6667 29.1667 43.5322 29.1667 45.8334V79.1667C29.1667 81.4679 27.3012 83.3334 25 83.3334H18.75C12.9971 83.3334 8.33337 78.6697 8.33337 72.9167V52.0834C8.33337 46.3304 12.9971 41.6667 18.75 41.6667ZM20.8334 75.0001V50.0001H18.75C17.5994 50.0001 16.6667 50.9328 16.6667 52.0834V72.9167C16.6667 74.0673 17.5994 75.0001 18.75 75.0001H20.8334ZM50.0001 26.7083C50.0001 32.6914 47.6233 39.162 43.3926 43.3927C42.2875 44.4977 41.6667 45.9965 41.6667 47.5593L41.6667 74.2001C41.6667 74.642 42.0249 75.0001 42.4667 75.0001L74.033 75.0001C75.873 75.0001 77.4952 73.7932 78.0239 72.0307L83.1248 55.236C83.2386 54.8568 83.3334 54.4631 83.3334 54.0673C83.3334 51.8211 81.413 50.0001 79.1667 50.0001H75.0001C65.7953 50.0001 58.3334 42.5382 58.3334 33.3334V30.5001C58.3334 28.5628 56.9328 26.902 55.0218 26.5835L50.9454 25.907C50.4504 25.8248 50.0001 26.2066 50.0001 26.7083ZM37.5001 37.5001C40.168 34.8322 41.6668 31.2138 41.6668 27.4409V20.8334C41.6668 18.5322 43.5322 16.6667 45.8334 16.6667C46.0629 16.6667 46.292 16.6707 46.5184 16.7085L56.3918 18.375C62.321 19.3632 66.6668 24.4891 66.6668 30.5001V33.3334C66.6668 37.9358 70.3977 41.6667 75.0001 41.6667H79.1668C86.0154 41.6667 91.6668 47.3181 91.6668 54.1667C91.6668 55.3736 91.4719 56.5523 91.1251 57.7083L86.0059 74.4253C84.4197 79.7126 79.5531 83.3334 74.033 83.3334L37.3334 83.3334C35.1243 83.3334 33.3334 81.5426 33.3334 79.3334L33.3334 47.5593C33.3334 43.7864 34.8322 40.168 37.5001 37.5001Z" fill="url(#paint0_linear)"/>
<defs>
<linearGradient id="paint0_linear" x1="91.6667" y1="25.2758" x2="-17.1382" y2="97.9258" gradientUnits="userSpaceOnUse">
<stop stop-color="#006EAE"/>
<stop offset="1" stop-color="#006EAE" stop-opacity="0.65"/>
</linearGradient>
</defs>
</svg>
