<svg width="514" height="403" viewBox="0 0 514 403" fill="none" xmlns="http://www.w3.org/2000/svg">
<path d="M152.232 287.387C104.276 287.387 57.1525 264.475 27.6313 226.335L28.6939 225.498C59.6617 265.517 110.191 288.571 160.554 285.791L160.63 287.155C157.822 287.31 155.023 287.387 152.232 287.387Z" fill="#A6D3FF"/>
<path d="M34.9926 234.096C28.559 231.033 23.4341 225.748 20.552 219.203C19.8607 217.607 19.2719 215.74 20.0912 214.183C20.2913 213.747 20.6415 213.4 21.0769 213.204C21.4518 213.125 21.8397 213.131 22.2119 213.222C22.5842 213.314 22.9313 213.488 23.2276 213.732C26.5945 215.998 28.566 219.834 30.0254 223.631C31.4848 227.428 33.0979 230.067 34.9926 234.096Z" fill="#A6D3FF"/>
<path d="M45.2339 244.202C40.5258 238.83 37.8911 231.936 37.8088 224.776C37.8088 223.038 38.0393 221.094 39.3707 219.987C39.7179 219.659 40.1749 219.476 40.6508 219.472C41.0285 219.542 41.3844 219.701 41.6892 219.936C41.9941 220.171 42.2392 220.475 42.4047 220.823C44.6194 224.235 44.965 228.548 44.7474 232.616C44.5298 236.684 45.0163 239.761 45.1827 244.202" fill="#A6D3FF"/>
<path d="M59.5723 256.159C54.2506 251.402 50.8104 244.877 49.8812 237.778C49.6508 236.054 49.6636 234.097 50.8414 232.836C51.1675 232.459 51.6264 232.223 52.1216 232.179C52.5014 232.209 52.8698 232.324 53.1998 232.516C53.5298 232.707 53.8131 232.971 54.0291 233.286C56.5895 236.414 57.4344 240.649 57.78 244.716C58.1257 248.784 58.9194 251.77 59.6235 256.159" fill="#A6D3FF"/>
<path d="M74.9346 265.968C69.6176 261.201 66.1787 254.674 65.2437 247.573C65.026 245.861 65.026 243.905 66.2166 242.631C66.3759 242.441 66.5711 242.285 66.7909 242.173C67.0108 242.06 67.2507 241.993 67.4968 241.974C67.8793 241.999 68.2508 242.113 68.5819 242.308C68.913 242.502 69.1945 242.771 69.4042 243.094C71.9646 246.209 72.8223 250.457 73.168 254.511C73.5136 258.566 74.2946 261.578 74.9987 265.968" fill="#A6D3FF"/>
<path d="M96.8767 276.047C91.1007 271.864 87.0118 265.734 85.3551 258.773C84.9582 257.074 84.7534 255.13 85.8031 253.753C86.0714 253.351 86.4845 253.069 86.9553 252.967C87.3382 252.95 87.7199 253.023 88.0692 253.182C88.4185 253.341 88.7255 253.581 88.9652 253.881C91.8712 256.713 93.113 260.845 93.8811 264.848C94.6492 268.852 95.7374 271.748 96.8895 276.047" fill="#FFD0C7"/>
<path d="M113.494 281.839C107.754 277.983 103.417 272.353 101.14 265.801C100.564 264.166 100.116 262.261 100.833 260.806C100.914 260.606 101.034 260.425 101.185 260.273C101.337 260.12 101.517 259.999 101.716 259.918C102.06 259.879 102.409 259.924 102.732 260.05C103.055 260.175 103.344 260.377 103.572 260.639C106.478 263.213 108.117 267.165 109.333 271.052C110.549 274.94 111.894 277.707 113.494 281.839Z" fill="#FFD0C7"/>
<path d="M50.1754 248.528C43.3471 251.513 35.7005 252.022 28.5402 249.97C26.7864 249.468 24.8789 248.683 24.1236 247.048C23.8874 246.62 23.8276 246.116 23.9571 245.645C24.1403 245.301 24.4015 245.005 24.7195 244.781C25.0376 244.558 25.4036 244.412 25.7878 244.358C29.8332 243.225 34.2627 244.216 38.3465 245.568C42.4303 246.919 45.6307 247.408 50.1754 248.554" fill="#A6D3FF"/>
<path d="M61.5435 257.447C55.62 261.975 48.3179 264.299 40.8812 264.023C39.0505 263.958 37.0406 263.637 35.8884 262.247C35.5687 261.895 35.3908 261.436 35.3892 260.96C35.3892 260.188 36.1701 259.673 36.8614 259.248C40.5227 257.176 45.0674 257.073 49.3432 257.408C53.6191 257.743 56.858 257.408 61.5435 257.472" fill="#A6D3FF"/>
<path d="M77.5718 267.112C72.6706 272.747 65.9793 276.497 58.6378 277.725C56.8327 278.034 54.7972 278.124 53.4018 276.991C53.0072 276.703 52.737 276.274 52.6465 275.793C52.66 275.4 52.7671 275.016 52.9587 274.673C53.1502 274.33 53.4207 274.038 53.7474 273.822C56.9223 271.053 61.3518 270.036 65.6148 269.508C69.8778 268.98 72.9887 268.027 77.5718 267.112Z" fill="#A6D3FF"/>
<path d="M99.181 277.462C93.1585 281.858 85.8079 284.023 78.3779 283.588C76.5472 283.472 74.5373 283.112 73.4363 281.696C73.1238 281.342 72.9548 280.883 72.9627 280.409C73.0523 279.65 73.7692 279.123 74.4733 278.737C78.1859 276.755 82.7177 276.755 86.9936 277.179C91.2694 277.604 94.5083 277.385 99.181 277.514" fill="#FFD0C7"/>
<path d="M115.747 282.303C112.329 288.952 106.73 294.209 99.8979 297.182C98.2209 297.916 96.2494 298.469 94.6364 297.736C94.1864 297.553 93.8241 297.202 93.625 296.757C93.5466 296.374 93.5591 295.977 93.6614 295.599C93.7637 295.221 93.953 294.873 94.2139 294.582C96.6463 291.133 100.692 289.073 104.699 287.516C108.706 285.958 111.509 284.298 115.747 282.303Z" fill="#FFD0C7"/>
<path d="M156.866 338.052C115.657 308.768 60.6473 301.405 13.2802 318.744L12.8193 317.456C60.5961 299.912 116.08 307.339 157.622 336.855L156.866 338.052Z" fill="#5CAFFF"/>
<path d="M23.1635 314.884C16.0899 314.044 8.95144 315.788 3.0517 319.798C1.61789 320.776 0.171274 322.075 0.0176519 323.799C-0.046939 324.278 0.0670674 324.763 0.337699 325.163C0.61379 325.429 0.945688 325.629 1.30901 325.749C1.67233 325.87 2.05784 325.906 2.43721 325.857C6.4826 325.729 10.1823 323.529 13.4212 321.098C16.6601 318.666 19.4253 317.238 23.1635 314.884Z" fill="#5CAFFF"/>
<path d="M37.1688 311.768C30.3452 313.823 24.4811 318.272 20.6417 324.304C19.7199 325.772 18.9006 327.548 19.4383 329.196C19.5723 329.658 19.8678 330.055 20.2704 330.315C20.6279 330.456 21.0133 330.511 21.3957 330.475C21.7781 330.44 22.1468 330.314 22.4723 330.109C26.1464 328.385 28.6556 324.897 30.6783 321.357C32.701 317.817 34.6725 315.449 37.1688 311.768Z" fill="#5CAFFF"/>
<path d="M55.6163 309.258C48.5958 310.462 42.2371 314.156 37.6936 319.671C37.0733 320.279 36.5917 321.015 36.2823 321.828C35.9728 322.642 35.8428 323.513 35.9014 324.382C35.9749 324.857 36.2212 325.288 36.5927 325.592C36.9294 325.774 37.3038 325.875 37.686 325.886C38.0683 325.897 38.4479 325.818 38.7946 325.656C42.6352 324.369 45.5796 321.241 48.012 317.933C50.4443 314.625 52.6975 312.553 55.6163 309.206" fill="#5CAFFF"/>
<path d="M73.8075 309.232C66.7854 310.432 60.4253 314.128 55.8849 319.645C54.7839 320.933 53.7598 322.644 54.0926 324.343C54.1678 324.822 54.4135 325.257 54.7839 325.566C55.1207 325.748 55.4951 325.849 55.8773 325.86C56.2596 325.871 56.6392 325.793 56.9859 325.631C60.8264 324.343 63.7708 321.216 66.2032 317.908C68.6355 314.6 70.8887 312.54 73.8075 309.194" fill="#5CAFFF"/>
<path d="M97.7474 312.308C90.6404 312.763 83.9334 315.774 78.8518 320.79C77.5716 322.013 76.4195 323.557 76.5859 325.282C76.6051 325.764 76.8011 326.223 77.1364 326.569C77.4561 326.779 77.8187 326.915 78.1975 326.966C78.5764 327.018 78.9618 326.983 79.3255 326.865C83.2941 326.015 86.5202 323.171 89.2854 320.185C92.0506 317.199 94.4958 315.32 97.7474 312.308Z" fill="#5CAFFF"/>
<path d="M114.889 316.285C107.989 316.488 101.342 318.947 95.9552 323.288C94.5982 324.369 93.2156 325.747 93.0491 327.356C92.9789 327.785 93.0801 328.224 93.3308 328.579C93.6025 328.796 93.9229 328.944 94.2642 329.009C94.6055 329.074 94.9574 329.054 95.2895 328.952C99.1301 328.347 102.587 325.862 105.672 323.211C108.757 320.559 111.343 318.937 114.889 316.285Z" fill="#FFD0C7"/>
<path d="M43.6338 310.737C39.4194 304.566 33.2079 300.054 26.0567 297.969C24.3029 297.454 22.2161 297.133 20.7695 298.085C20.3485 298.331 20.0336 298.725 19.8862 299.192C19.8623 299.582 19.9271 299.973 20.0757 300.334C20.2243 300.695 20.4528 301.018 20.7439 301.277C23.5859 304.392 27.8618 305.923 32.0352 306.953C36.2087 307.983 39.1915 309.283 43.6338 310.737Z" fill="#5CAFFF"/>
<path d="M57.9846 309.241C55.3403 302.234 50.3645 296.363 43.9025 292.626C42.3151 291.712 40.4204 290.901 38.7818 291.48C38.3152 291.608 37.916 291.912 37.668 292.33C37.5459 292.704 37.5135 293.102 37.5736 293.491C37.6336 293.88 37.7845 294.25 38.0137 294.569C40.0236 298.276 43.8129 300.786 47.6151 302.78C51.4173 304.775 54.016 306.757 57.9974 309.216" fill="#5CAFFF"/>
<path d="M76.6752 309.604C75.4855 302.214 71.7902 295.464 66.216 290.501C64.8462 289.278 63.1563 288.106 61.3897 288.338C61.1463 288.351 60.9078 288.412 60.688 288.518C60.4683 288.624 60.2717 288.773 60.1095 288.956C59.9159 289.296 59.8045 289.677 59.7845 290.069C59.7645 290.46 59.8364 290.851 59.9943 291.209C61.2745 295.238 64.4493 298.469 67.7778 301.185C71.1063 303.902 73.2571 306.335 76.6624 309.604" fill="#5CAFFF"/>
<path d="M100.449 312.307C97.6605 305.368 92.5725 299.611 86.0464 296.011C84.4462 295.136 82.5259 294.363 80.8616 294.981C80.3967 295.12 80.0027 295.434 79.7606 295.856C79.645 296.232 79.6195 296.629 79.6862 297.016C79.753 297.404 79.9101 297.769 80.1447 298.083C82.2442 301.752 86.0848 304.172 89.9382 306.09C93.7916 308.008 96.416 309.952 100.449 312.307Z" fill="#5CAFFF"/>
<path d="M117.04 317.096C117.657 309.636 115.69 302.192 111.471 296.024C110.434 294.505 109.064 292.96 107.298 292.742C106.816 292.666 106.324 292.772 105.915 293.038C105.645 293.321 105.447 293.665 105.335 294.041C105.224 294.417 105.203 294.814 105.275 295.2C105.505 299.422 107.835 303.323 110.396 306.785C112.956 310.248 114.467 313.144 117.002 317.083" fill="#FFD0C7"/>
<path d="M403.316 329.043L403.086 327.756C442.08 320.831 477.862 299.141 501.251 268.248L502.326 269.071C478.732 300.197 442.644 322.079 403.316 329.043Z" fill="#5CAFFF"/>
<path d="M495.042 276.87C501.445 273.739 506.515 268.399 509.329 261.823C510.007 260.227 510.532 258.347 509.726 256.803C509.525 256.364 509.169 256.015 508.727 255.825C508.351 255.752 507.964 255.766 507.594 255.864C507.224 255.962 506.881 256.142 506.589 256.391C503.248 258.682 501.328 262.544 499.894 266.354C498.46 270.164 496.898 272.79 495.042 276.87Z" fill="#5CAFFF"/>
<path d="M484.916 287.079C489.552 281.646 492.1 274.723 492.097 267.564C492.183 266.698 492.084 265.824 491.806 265C491.528 264.176 491.077 263.422 490.484 262.788C490.128 262.478 489.675 262.305 489.204 262.299C488.829 262.375 488.476 262.538 488.174 262.775C487.872 263.012 487.628 263.316 487.463 263.663C485.3 267.1 485.056 271.387 485.248 275.494C485.44 279.6 485.056 282.638 484.941 287.079" fill="#5CAFFF"/>
<path d="M470.731 299.206C475.993 294.379 479.363 287.817 480.23 280.708C480.422 278.983 480.409 277.039 479.206 275.777C478.875 275.408 478.418 275.178 477.926 275.134C477.544 275.161 477.174 275.278 476.845 275.475C476.516 275.671 476.237 275.942 476.031 276.267C473.47 279.42 472.69 283.668 472.395 287.736C472.101 291.804 471.333 294.803 470.68 299.206" fill="#5CAFFF"/>
<path d="M455.42 309.102C460.691 304.282 464.063 297.717 464.919 290.605C465.114 289.759 465.125 288.88 464.95 288.029C464.775 287.178 464.42 286.375 463.908 285.675C463.577 285.306 463.12 285.076 462.627 285.032C462.245 285.058 461.875 285.175 461.546 285.371C461.217 285.568 460.938 285.84 460.733 286.164C458.172 289.318 457.391 293.566 457.097 297.633C456.803 301.701 456.034 304.7 455.369 309.102" fill="#5CAFFF"/>
<path d="M433.605 319.478C439.324 315.225 443.336 309.05 444.909 302.075C445.294 300.389 445.473 298.445 444.41 297.068C444.13 296.674 443.715 296.399 443.245 296.295C442.863 296.282 442.484 296.359 442.137 296.52C441.79 296.681 441.486 296.922 441.248 297.222C438.368 300.093 437.164 304.237 436.447 308.253C435.731 312.27 434.668 315.179 433.554 319.478" fill="#FFD0C7"/>
<path d="M417.052 325.451C422.756 321.539 427.035 315.862 429.24 309.284C429.95 307.707 430.042 305.918 429.496 304.276C429.412 304.079 429.289 303.902 429.135 303.753C428.981 303.605 428.799 303.49 428.6 303.414C428.256 303.376 427.909 303.424 427.588 303.551C427.267 303.679 426.981 303.884 426.756 304.148C423.876 306.722 422.276 310.713 421.098 314.613C419.92 318.513 418.602 321.293 417.052 325.451Z" fill="#FFD0C7"/>
<path d="M480.012 291.467C486.874 294.37 494.524 294.793 501.66 292.664C503.414 292.149 505.309 291.377 506.051 289.704C506.278 289.269 506.333 288.763 506.205 288.289C506.02 287.944 505.757 287.648 505.436 287.424C505.116 287.2 504.748 287.056 504.362 287.002C500.303 285.921 495.874 287.002 491.816 288.353C487.758 289.704 484.544 290.27 480.012 291.467Z" fill="#5CAFFF"/>
<path d="M468.747 300.504C474.721 304.969 482.05 307.216 489.486 306.862C491.304 306.785 493.326 306.438 494.44 305.035C494.759 304.684 494.933 304.223 494.926 303.748C494.85 302.975 494.133 302.46 493.441 302.049C489.755 300.028 485.223 299.963 480.947 300.35C476.671 300.736 473.419 300.465 468.747 300.543" fill="#5CAFFF"/>
<path d="M452.808 310.337C457.775 315.911 464.504 319.589 471.858 320.749C473.663 321.032 475.698 321.096 477.094 319.951C477.483 319.658 477.745 319.224 477.823 318.741C477.805 318.35 477.695 317.968 477.501 317.628C477.308 317.288 477.036 316.999 476.71 316.785C473.496 314.057 469.028 313.092 464.804 312.602C460.579 312.113 457.417 311.2 452.808 310.337Z" fill="#5CAFFF"/>
<path d="M431.314 320.919C437.383 325.249 444.757 327.332 452.181 326.813C454.012 326.697 456.022 326.299 457.11 324.883C457.412 324.524 457.572 324.066 457.558 323.596C457.468 322.824 456.751 322.309 456.047 321.936C452.309 319.98 447.777 320.031 443.501 320.508C439.226 320.984 435.987 320.791 431.314 320.971" fill="#FFD0C7"/>
<path d="M414.812 325.94C418.3 332.55 423.96 337.739 430.827 340.624C432.504 341.332 434.489 341.911 436.089 341.126C436.537 340.932 436.895 340.573 437.088 340.122C437.164 339.739 437.148 339.342 437.041 338.966C436.934 338.59 436.739 338.245 436.473 337.96C434.015 334.537 429.944 332.516 425.924 331.011C421.905 329.505 419.075 327.87 414.825 325.863" fill="#FFD0C7"/>
<path d="M220.223 60.5408C220.223 60.5408 211.556 62.2914 209.636 49.3294C207.716 36.3675 218.815 32.7247 213.861 22.7491C208.906 12.7734 206.18 5.57803 211.902 1.44616C217.625 -2.6857 230.631 2.51453 224.87 10.9842C218.854 19.8272 220.671 19.2222 224.474 25.2977C228.276 31.3732 240.335 58.2882 220.223 60.5408Z" fill="#544D61"/>
<path d="M264.121 184.422L240.565 187.808L217.035 191.193L217.189 199.869L241.782 196.342L266.374 192.815L264.121 184.422Z" fill="#D5D4D5"/>
<path d="M242.217 85.3491L226.688 90.0988L210.468 89.9058C210.468 89.9058 205.258 141.766 217.035 191.194L240.578 187.822L264.121 184.436C261.65 133.67 242.217 85.3491 242.217 85.3491Z" fill="#005C91"/>
<path d="M232.249 66.0764L214.366 68.6191L215.76 78.5337L233.643 75.9909L232.249 66.0764Z" fill="#1A82E7"/>
<path d="M232.756 75.7446L224.819 76.8903L216.882 78.0231L210.481 89.9045C210.481 89.9045 215.205 91.7581 226.701 90.0976C238.197 88.437 242.23 85.3476 242.23 85.3476L232.756 75.7446Z" fill="#E6E6E6"/>
<path d="M437.561 73.3242C437.561 73.3242 445.627 80.7 453.589 71.4449C461.552 62.1897 456.764 57.2854 464.266 50.1541C471.358 43.3833 475.48 37.5779 473.458 30.8458C471.038 22.9422 457.199 21.4619 457.891 31.3349C458.62 41.6327 457.391 40.191 451.234 42.9199C445.076 45.6489 421.777 60.5421 437.561 73.3242Z" fill="#594A5F"/>
<path d="M392.588 197.168L372.412 184.516L352.236 171.863L346.796 178.607L367.88 191.827L388.952 205.046L392.588 197.168Z" fill="#D5D4D5"/>
<path d="M429.108 76.2024L423.838 84.6992L439.165 94.3102L444.435 85.8133L429.108 76.2024Z" fill="#006EAE"/>
<path d="M439.289 107.178L424.362 100.742L412.073 90.0835C412.073 90.0835 374.883 126.396 352.236 171.834L372.412 184.488L392.588 197.141C423.21 156.735 439.289 107.178 439.289 107.178Z" fill="#005C91"/>
<path d="M438.188 93.7004L431.391 89.4397L424.58 85.166L412.073 90.109C412.073 90.109 414.505 94.5886 424.362 100.767C434.22 106.946 439.289 107.204 439.289 107.204L438.188 93.7004Z" fill="#E6E6E6"/>
<path d="M402.663 89.2727L397.542 88.8736L392.422 88.4746C392.422 88.4746 389.042 114.605 388.786 135.689C388.53 156.773 383.588 217.336 382.91 226.153C382.959 227.158 383.371 228.11 384.069 228.831C384.766 229.551 385.701 229.992 386.698 230.069C387.695 230.147 388.687 229.856 389.486 229.251C390.285 228.646 390.837 227.769 391.039 226.784C391.718 217.967 396.16 157.365 399.066 136.487C401.972 115.609 402.663 89.2727 402.663 89.2727Z" fill="#0F576F"/>
<path d="M396.633 41.7876C396.633 41.7876 394.188 31.7603 396.211 27.1135C398.234 22.4667 403.393 14.486 402.881 10.2383C402.881 10.2383 413.378 21.231 405.684 42.4183C404.326 43.3558 402.693 43.8037 401.05 43.6892C399.406 43.5747 397.85 42.9045 396.633 41.7876Z" fill="#8C8079"/>
<path d="M396.633 41.7876C396.633 41.7876 394.188 31.7603 396.211 27.1135C398.234 22.4667 403.393 14.486 402.881 10.2383C402.881 10.2383 412.981 20.9607 405.684 42.4183C404.326 43.3558 402.693 43.8037 401.05 43.6892C399.406 43.5747 397.85 42.9045 396.633 41.7876Z" fill="#72B9FF"/>
<path d="M398.234 43.73C398.157 43.3954 395.597 35.389 396.326 30.6134C396.621 28.7212 397.888 26.4043 398.887 23.7655C400.5 19.7108 402.727 14.9868 402.42 11.5757H402.971C403.316 15.1284 401.473 19.788 399.834 23.9071C398.859 26.1303 398.092 28.4401 397.542 30.8065C396.826 35.479 398.707 43.5756 398.733 43.6785L398.234 43.73Z" stroke="#006EAE" stroke-miterlimit="10"/>
<path d="M400.487 44.2969C400.397 43.9236 398.49 35.0549 399.206 31.2062C399.525 29.8327 399.923 28.4789 400.397 27.1515C401.972 22.3374 404.353 15.0519 402.42 9.78732L402.945 9.59424C404.929 15.0519 403.226 22.4662 401.664 27.3832C401.206 28.6873 400.817 30.015 400.499 31.3606C399.821 35.1064 401.063 44.091 401.088 44.2326L400.487 44.2969Z" stroke="#006EAE" stroke-miterlimit="10"/>
<path d="M402.868 44.0909C402.778 43.7305 401.524 35.1835 402.765 30.807C405.326 21.7966 405.07 13.9061 403.406 10.2891L403.892 11.2545C405.608 15.0002 406.58 21.9125 404.007 31.013C402.804 35.2607 403.38 43.885 403.406 43.9751L402.868 44.0909Z" stroke="#006EAE" stroke-miterlimit="10"/>
<path d="M404.686 43.626H404.135C407.976 25.4899 406.273 19.3372 405.416 14.0213L405.966 13.9312C409.32 26.6741 404.776 42.7507 404.686 43.626Z" stroke="#006EAE" stroke-miterlimit="10"/>
<path d="M401.767 82.6045C403.585 82.1411 403.342 80.6865 403.342 80.6865L405.684 42.4822C404.302 43.4605 401.076 43.203 401.076 43.203C401.076 43.203 397.862 42.9585 396.633 41.7871L393.1 79.8885C393.045 80.1133 393.034 80.3469 393.068 80.576C393.102 80.805 393.181 81.0251 393.3 81.2235C393.419 81.4219 393.575 81.5949 393.761 81.7324C393.946 81.87 394.157 81.9695 394.38 82.0252C394.38 82.0252 392.946 81.6777 392.844 83.1065C392.742 84.5353 392.434 88.4741 392.434 88.4741L397.555 88.8732L402.676 89.2722C402.676 89.2722 402.983 85.4106 403.098 83.9045C403.214 82.3985 401.767 82.6045 401.767 82.6045Z" fill="#E6E6E6"/>
<path d="M483.059 71.8575C483.059 71.8575 494.581 53.8359 495.861 53.1923C497.141 52.5486 513.502 70.4029 511.62 75.346C509.738 80.2891 501.788 87.3561 501.788 87.3561L483.059 71.8575Z" fill="#8C8079"/>
<path d="M483.059 71.8575C483.059 71.8575 494.581 53.8359 495.861 53.1923C497.141 52.5486 513.502 70.4029 511.62 75.346C509.738 80.2891 501.788 87.3561 501.788 87.3561L483.059 71.8575Z" fill="#72B9FF"/>
<path d="M483.571 74.0584C483.674 73.9168 493.89 60.0916 497.244 52.8442L497.897 53.1403C494.504 60.452 484.237 74.3416 484.135 74.4832L483.571 74.0584Z" stroke="#006EAE" stroke-miterlimit="10"/>
<path d="M486.746 74.8794C486.836 74.7507 495.618 62.4856 499.369 54.7637L500.009 55.0597C496.245 62.8589 487.425 75.1754 487.335 75.2912L486.746 74.8794Z" stroke="#006EAE" stroke-miterlimit="10"/>
<path d="M490.049 76.8517C490.151 76.723 499.625 63.4259 502.198 57.1313L502.876 57.4017C500.316 63.7735 491.022 76.7101 490.638 77.2765L490.049 76.8517Z" stroke="#006EAE" stroke-miterlimit="10"/>
<path d="M492.532 78.9087C492.635 78.7671 502.774 64.8271 504.221 60.2319L504.912 60.425C503.427 65.1618 493.557 78.7543 493.109 79.3206L492.532 78.9087Z" stroke="#006EAE" stroke-miterlimit="10"/>
<path d="M495.759 81.5625L495.221 81.0862C495.323 80.9704 505.539 69.1663 507.306 62.7944L507.997 62.9618C506.192 69.5139 496.181 81.0734 495.759 81.5625Z" stroke="#006EAE" stroke-miterlimit="10"/>
<path d="M497.743 84.0176L497.218 83.5284C497.321 83.4254 506.487 73.2301 509.751 66.356L510.404 66.652C507.088 73.6935 497.845 83.9146 497.743 84.0176Z" stroke="#006EAE" stroke-miterlimit="10"/>
<path d="M500.022 85.9374L499.535 85.4097C499.65 85.3067 510.148 75.3962 511.927 70.2993L512.606 70.5181C510.775 75.7952 500.457 85.5255 500.022 85.9374Z" stroke="#006EAE" stroke-miterlimit="10"/>
<path d="M465.956 125.662L459.35 120.191L452.732 114.721C452.732 114.721 431.992 139.692 416.246 161.961C400.5 184.23 371.695 222.061 371.695 222.061C371.19 222.749 370.967 223.606 371.07 224.455C371.174 225.304 371.597 226.081 372.252 226.626C372.907 227.171 373.746 227.443 374.594 227.387C375.443 227.33 376.238 226.949 376.816 226.321C376.816 226.321 408.181 190.627 426.872 170.778C445.562 150.93 465.956 125.662 465.956 125.662Z" fill="#0F576F"/>
<path d="M472.895 117.192C481.254 108.928 501.788 87.3545 501.788 87.3545C499.868 84.3682 493.326 78.4985 493.326 78.4985C493.326 78.4985 486.337 73.1823 483.085 71.8564C483.085 71.8564 465.982 96.3135 459.542 106.122C459.583 106.466 459.554 106.816 459.457 107.148C459.36 107.481 459.198 107.791 458.979 108.059C458.76 108.327 458.49 108.548 458.184 108.708C457.878 108.869 457.543 108.965 457.2 108.993L452.591 114.631L459.273 120.153L465.943 125.675L470.565 120.05C470.526 119.707 470.556 119.361 470.652 119.03C470.749 118.699 470.911 118.392 471.128 118.125C471.346 117.859 471.614 117.639 471.917 117.479C472.221 117.318 472.553 117.221 472.895 117.192Z" fill="#E6E6E6"/>
<path d="M96.8895 102.852C88.0049 106.984 82.9482 99.4792 80.0806 91.6659C77.2129 83.8525 61.3642 67.8138 46.8724 85.5902C30.6908 105.426 35.6451 182.131 78.2883 218.637C120.931 255.142 178.425 241.098 197.346 198.762C216.267 156.426 198.357 94.2789 172.536 65.9988C146.715 37.7188 119.011 35.6335 107.848 42.43C96.6846 49.2265 110.434 96.5444 96.8895 102.852Z" fill="#F9B253"/>
<path d="M63.2975 118.364C71.9772 115.558 81.6938 121.62 84.9839 131.917C88.274 142.215 83.9213 152.847 75.2545 155.653C66.5876 158.459 56.8581 152.396 53.5681 142.099C50.278 131.802 54.6178 121.17 63.2975 118.364Z" fill="#36384D"/>
<path d="M82.4876 171.487C90.1688 166.506 101.089 169.827 106.926 178.914C112.764 188.002 111.305 199.393 103.649 204.375C95.9936 209.356 85.0608 206.035 79.2103 196.948C73.3599 187.86 74.8321 176.469 82.4876 171.487Z" fill="#0F576F"/>
<path d="M164.33 106.354C157.404 112.301 146.113 110.46 139.136 102.235C132.159 94.0095 132.108 82.5019 139.047 76.4906C145.985 70.4793 157.264 72.3844 164.253 80.6225C171.243 88.8607 171.269 100.446 164.33 106.354Z" fill="#FF595F"/>
<path d="M89.4393 211.776C86.7837 210.097 84.4112 208.002 82.411 205.572C79.9915 202.303 79.0313 198.184 78.4808 194.168C78.1352 191.722 78.3784 188.53 80.7084 187.732C81.6491 187.507 82.6357 187.574 83.5376 187.925C90.0666 189.972 94.4448 195.957 98.8231 201.234C101.832 204.864 105.096 208.404 107.004 212.729C107.693 214.155 108.035 215.726 108.002 217.311C107.976 218.105 107.757 218.88 107.364 219.568C106.971 220.257 106.417 220.839 105.749 221.263C102.651 223 98.8103 220.156 96.7108 218.019C94.4845 215.716 92.0502 213.626 89.4393 211.776Z" fill="#5CAFFF"/>
<path d="M117.77 240.713C113.084 240.044 98.1445 246.274 93.4462 246.196C89.3328 246.102 85.2787 245.189 81.5172 243.513C77.7558 241.836 74.3614 239.428 71.5294 236.426C64.7572 229.18 61.7615 219.036 55.079 211.712C52.0065 208.34 48.2427 205.662 45.2855 202.187C42.3283 198.711 40.1647 194.026 41.4449 189.611C43.1348 183.252 51.1616 180.382 57.4601 182.196C63.7586 184.011 68.521 189.122 72.5536 194.296C76.5861 199.471 80.3755 205.096 85.8675 208.661C94.8289 214.454 106.607 213.9 115.67 219.435C119.14 221.559 117.322 234.663 120.036 237.714C123.108 241.189 127.115 245.772 128.485 250.213C130.405 256.43 137.446 253.109 128.882 252.208C123.07 251.59 124.478 241.665 117.77 240.713Z" fill="#1A82E7"/>
<path d="M122.224 243.84L121.828 244.098C115.698 234.791 106.441 228.015 95.7501 225.008C94.5723 224.687 93.3562 224.403 92.1784 224.12C88.7773 223.515 85.4905 222.382 82.4361 220.761C78.0195 218.083 75.1518 213.591 72.3738 209.24C71.6569 208.108 70.9016 206.936 70.1463 205.816C64.2702 197.218 56.7939 191.657 49.0615 190.125L49.1511 189.662C56.9987 191.207 64.5902 196.845 70.5303 205.546C71.2985 206.679 72.041 207.85 72.7707 208.996C75.5103 213.295 78.3523 217.736 82.6794 220.349C85.6908 221.946 88.9294 223.066 92.2808 223.67C93.4714 223.94 94.6876 224.236 95.8781 224.558C106.678 227.596 116.03 234.441 122.224 243.84Z" fill="#B6DBFF"/>
<path d="M68.7254 203.871C64.6576 203.351 60.5463 203.269 56.4612 203.627V203.163C60.58 202.793 64.7267 202.875 68.8278 203.408L68.7254 203.871Z" fill="#B6DBFF"/>
<path d="M87.442 222.445L86.994 222.535C86.6995 221.158 86.3283 219.473 85.957 217.787C85.5858 216.101 85.2145 214.415 84.9329 213.025L85.3937 212.935C85.6754 214.312 86.0466 215.998 86.4179 217.684C86.7891 219.37 87.1604 221.055 87.442 222.445Z" fill="#B6DBFF"/>
<path d="M108.885 231.136C106.465 230.518 104.084 231.87 101.78 233.195L101.165 233.543C97.7377 235.485 94.0264 236.871 90.1686 237.649L90.0662 237.185C93.8772 236.418 97.5448 235.055 100.935 233.144L101.549 232.796C103.828 231.509 106.401 230.029 109 230.685L108.885 231.136Z" fill="#FF6764"/>
<path d="M75.6001 214.041C72.0094 214.007 68.4251 213.727 64.8721 213.205V212.741C68.404 213.259 71.9669 213.534 75.5361 213.565L75.6001 214.041Z" fill="#B6DBFF"/>
<path d="M59.6349 188.268L59.1829 188.41L61.6898 196.467L62.1418 196.325L59.6349 188.268Z" fill="#B6DBFF"/>
<path d="M99.9106 225.835L99.4754 226.003C98.4688 223.368 97.614 220.678 96.915 217.944L97.3631 217.829C98.0655 220.543 98.916 223.216 99.9106 225.835Z" fill="#FF6764"/>
<path d="M457.827 233.12C459.652 230.551 461.873 228.292 464.407 226.427C467.799 224.2 471.934 223.479 475.928 223.17C478.374 222.977 481.536 223.402 482.15 225.745C482.326 226.703 482.2 227.693 481.792 228.576C479.372 235.012 473.176 239.041 467.71 243.122C463.869 245.928 460.22 249.004 455.804 250.639C454.349 251.255 452.769 251.511 451.195 251.386C450.4 251.318 449.634 251.055 448.965 250.619C448.295 250.184 447.742 249.589 447.355 248.888C445.818 245.67 448.878 241.976 451.118 240.007C453.56 237.923 455.805 235.618 457.827 233.12Z" fill="#5CAFFF"/>
<path d="M427.409 259.829C428.357 255.169 423.057 239.8 423.415 235.076C423.757 230.954 424.904 226.94 426.791 223.264C428.678 219.589 431.268 216.324 434.412 213.657C442.016 207.298 452.271 204.891 459.939 198.622C463.472 195.739 466.34 192.109 469.976 189.355C473.612 186.6 478.387 184.772 482.688 186.214C488.91 188.299 491.265 196.511 489.089 202.729C486.913 208.946 481.549 213.412 476.172 217.158C470.795 220.904 464.983 224.366 461.117 229.67C454.844 238.268 454.716 250.175 448.648 258.928C446.331 262.3 433.439 259.687 430.239 262.223C426.616 265.106 421.828 268.852 417.334 269.946C411.036 271.503 413.916 278.725 415.325 270.216C416.297 264.501 426.065 266.509 427.409 259.829Z" fill="#1A82E7"/>
<path d="M424.03 264.114L423.799 263.702C433.402 258.108 440.675 249.219 444.282 238.666C444.679 237.507 445.025 236.297 445.37 235.126C446.177 231.752 447.503 228.525 449.301 225.562C452.219 221.276 456.841 218.663 461.322 216.14C462.499 215.483 463.716 214.852 464.868 214.106C473.752 208.725 479.731 201.543 481.689 193.884L482.15 194C480.153 201.723 474.098 209.06 465.111 214.505C463.946 215.213 462.73 215.895 461.552 216.552C457.123 219.049 452.591 221.636 449.685 225.819C447.931 228.748 446.636 231.93 445.844 235.255C445.498 236.439 445.14 237.649 444.756 238.82C441.098 249.483 433.739 258.464 424.03 264.114Z" fill="#B6DBFF"/>
<path d="M466.903 212.806C467.667 208.751 467.993 204.626 467.876 200.501H468.35C468.462 204.656 468.132 208.812 467.364 212.896L466.903 212.806Z" fill="#B6DBFF"/>
<path d="M447.355 230.481L447.278 230.018L452.066 229.271C453.768 228.988 455.458 228.718 456.854 228.512L456.918 228.988C455.535 229.181 453.832 229.464 452.143 229.734L447.355 230.481Z" fill="#B6DBFF"/>
<path d="M437.446 251.486C438.201 249.092 436.998 246.621 435.833 244.226L435.513 243.583C433.796 240.027 432.647 236.222 432.108 232.307L432.569 232.243C433.107 236.108 434.243 239.865 435.936 243.377L436.256 244.021C437.408 246.376 438.713 249.053 437.894 251.628L437.446 251.486Z" fill="#FF6764"/>
<path d="M456.431 219.086C456.675 215.488 457.162 211.91 457.891 208.379L458.351 208.469C457.623 211.983 457.135 215.543 456.892 219.125L456.431 219.086Z" fill="#B6DBFF"/>
<path d="M482.827 204.086L474.677 206.123L474.792 206.585L482.942 204.549L482.827 204.086Z" fill="#B6DBFF"/>
<path d="M443.245 242.798L443.104 242.36C445.797 241.491 448.537 240.778 451.311 240.224L451.4 240.687C448.646 241.24 445.923 241.945 443.245 242.798Z" fill="#B6DBFF"/>
<path d="M453.436 173.045C455.265 170.475 457.491 168.216 460.029 166.351C463.408 164.137 467.543 163.403 471.55 163.094C473.995 162.901 477.157 163.326 477.772 165.669C477.946 166.626 477.825 167.614 477.426 168.501C474.994 174.937 468.798 178.967 463.344 183.047C459.504 185.854 455.855 188.93 451.451 190.578C449.989 191.184 448.406 191.436 446.83 191.312C446.035 191.245 445.268 190.982 444.598 190.547C443.929 190.111 443.376 189.516 442.989 188.814C441.44 185.596 444.5 181.914 446.74 179.932C449.183 177.854 451.425 175.548 453.436 173.045Z" fill="#5CAFFF"/>
<path d="M423.031 199.755C423.966 195.095 418.679 179.726 419.037 175.001C419.373 170.878 420.517 166.862 422.405 163.186C424.292 159.509 426.885 156.245 430.034 153.582C437.625 147.223 447.88 144.816 455.561 138.547C459.081 135.664 461.962 132.034 465.598 129.292C469.233 126.55 473.996 124.696 478.31 126.138C484.519 128.223 486.887 136.436 484.711 142.653C482.534 148.871 477.183 153.337 471.794 157.083C466.404 160.829 460.618 164.292 456.739 169.595C450.466 178.194 450.338 190.101 444.282 198.854C441.965 202.226 429.061 199.626 425.873 202.149C422.237 205.033 417.45 208.778 412.969 209.873C406.67 211.43 409.551 218.651 410.959 210.143C411.906 204.428 421.687 206.436 423.031 199.755Z" fill="#1A82E7"/>
<path d="M419.651 204.041L419.421 203.629C429.024 198.036 436.297 189.146 439.904 178.593C440.301 177.434 440.659 176.224 441.005 175.053C441.814 171.679 443.14 168.453 444.935 165.489C447.841 161.203 452.475 158.589 456.956 156.067C458.121 155.41 459.337 154.779 460.489 154.033C469.387 148.652 475.353 141.469 477.324 133.811L477.772 133.926C475.775 141.714 469.732 149 460.733 154.432C459.568 155.14 458.364 155.822 457.187 156.478C452.744 158.976 448.161 161.563 445.319 165.746C443.56 168.677 442.264 171.864 441.479 175.195C441.133 176.366 440.775 177.576 440.378 178.747C436.716 189.409 429.359 198.388 419.651 204.041Z" fill="#B5DBFF"/>
<path d="M462.525 152.689C463.283 148.636 463.609 144.512 463.498 140.389H463.959C464.077 144.542 463.75 148.696 462.986 152.779L462.525 152.689Z" fill="#B5DBFF"/>
<path d="M442.964 170.406L442.9 169.942L447.675 169.196C449.377 168.913 451.08 168.642 452.475 168.437V168.913C451.08 169.106 449.39 169.389 447.687 169.659L442.964 170.406Z" fill="#B5DBFF"/>
<path d="M433.068 191.412C433.823 189.018 432.62 186.546 431.442 184.165L431.135 183.508C429.417 179.952 428.264 176.147 427.717 172.232L428.19 172.167C428.723 176.034 429.859 179.792 431.557 183.302L431.864 183.946C433.017 186.302 434.322 188.979 433.516 191.554L433.068 191.412Z" fill="#FF6764"/>
<path d="M452.014 159.01C452.264 155.413 452.752 151.836 453.474 148.304L453.935 148.394C453.216 151.909 452.733 155.468 452.488 159.048L452.014 159.01Z" fill="#B5DBFF"/>
<path d="M478.439 144.016L470.289 146.053L470.403 146.515L478.553 144.478L478.439 144.016Z" fill="#B5DBFF"/>
<path d="M438.867 182.711L438.726 182.273C441.398 181.408 444.116 180.694 446.868 180.137L446.958 180.6C444.225 181.157 441.524 181.861 438.867 182.711Z" fill="#FF6764"/>
<path d="M192.418 87.1623C191.065 84.3188 190.171 81.2774 189.768 78.1517C189.473 74.097 190.843 70.1066 192.52 66.3994C193.544 64.1597 195.439 61.5852 197.82 62.1902C198.734 62.5099 199.532 63.0972 200.112 63.8765C204.528 69.1283 205.04 76.5298 205.924 83.3521C206.538 88.0376 207.421 92.7746 206.717 97.5115C206.547 99.0896 206.002 100.604 205.13 101.927C204.685 102.583 204.087 103.119 203.389 103.489C202.69 103.859 201.912 104.052 201.123 104.051C197.577 103.845 195.849 99.3651 195.208 96.4431C194.564 93.2697 193.63 90.1629 192.418 87.1623Z" fill="#5CAFFF"/>
<path d="M200.931 126.833C197.346 123.757 181.408 120.976 177.465 118.376C174.039 116.084 171.098 113.134 168.81 109.694C166.523 106.254 164.935 102.394 164.138 98.3342C162.282 88.5771 165.15 78.3824 163.409 68.5995C162.602 64.1071 160.848 59.8078 160.208 55.2897C159.568 50.7716 160.208 45.6613 163.613 42.572C168.44 38.1182 176.735 39.9976 181.088 44.9276C185.441 49.8576 186.746 56.7314 187.399 63.2833C188.052 69.8352 188.27 76.606 191.009 82.5915C195.452 92.2714 205.732 98.1669 210.443 107.718C212.248 111.387 203.735 121.478 204.4 125.52C205.156 130.103 206.103 136.127 204.887 140.619C203.197 146.914 210.891 147.879 204.17 142.511C199.625 138.882 206.103 131.261 200.931 126.833Z" fill="#1A82E7"/>
<path d="M203.03 131.88H202.569C202.347 120.72 198.134 110.013 190.702 101.721C189.87 100.82 188.999 99.9186 188.142 99.0433C185.605 96.6982 183.445 93.9711 181.741 90.9596C179.423 86.3256 179.398 80.9837 179.372 75.822C179.372 74.5348 179.372 73.0803 179.308 71.7287C178.924 61.3023 175.57 52.575 169.848 47.1301L170.168 46.7954C175.98 52.3175 179.385 61.1607 179.769 71.7029C179.769 73.0674 179.769 74.4704 179.769 75.822C179.769 80.9708 179.833 86.2098 182.099 90.7537C183.791 93.7215 185.929 96.409 188.436 98.7215C189.294 99.5839 190.177 100.485 190.996 101.412C198.524 109.781 202.796 120.599 203.03 131.88Z" fill="#B6DBFF"/>
<path d="M179.116 69.3339C175.956 66.7 172.523 64.4171 168.875 62.5251L169.092 62.1133C172.764 64.0186 176.22 66.3188 179.398 68.9735L179.116 69.3339Z" fill="#B6DBFF"/>
<path d="M185.031 95.0894L184.596 94.9221C185.095 93.6352 185.671 91.988 186.26 90.3537C186.849 88.7193 187.425 87.1107 187.924 85.7852L188.359 85.9524C187.86 87.2393 187.284 88.8994 186.695 90.5209C186.106 92.1424 185.543 93.7768 185.031 95.0894Z" fill="#B6DBFF"/>
<path d="M198.537 113.974C196.821 112.146 194.082 112.017 191.444 111.889H190.728C186.782 111.685 182.894 110.855 179.206 109.43L179.372 108.993C183 110.391 186.822 111.212 190.702 111.425H191.406C193.966 111.554 196.975 111.696 198.818 113.665L198.537 113.974Z" fill="#FF6764"/>
<path d="M179.513 81.6141C176.498 79.6704 173.619 77.5206 170.897 75.1797L171.192 74.8193C173.905 77.1536 176.771 79.3032 179.769 81.2537L179.513 81.6141Z" fill="#B6DBFF"/>
<path d="M179.289 51.149L177.116 59.3071L177.574 59.4303L179.746 51.2722L179.289 51.149Z" fill="#B6DBFF"/>
<path d="M193.774 104.656L193.313 104.566C193.857 101.795 194.553 99.0578 195.4 96.3657L195.848 96.5073C195.01 99.1835 194.318 101.904 193.774 104.656Z" fill="#B6DBFF"/>
<path d="M321.205 346.365H219.43V373.901H321.205V346.365Z" fill="#1C1C1C"/>
<path d="M435.231 100.137H106.453C99.8136 100.137 94.4316 105.549 94.4316 112.224V343.28C94.4316 349.956 99.8136 355.367 106.453 355.367H435.231C441.87 355.367 447.252 349.956 447.252 343.28V112.224C447.252 105.549 441.87 100.137 435.231 100.137Z" fill="#333333"/>
<path d="M428.946 109.431H111.676C107.596 109.431 104.289 112.756 104.289 116.858V323.429C104.289 327.531 107.596 330.857 111.676 330.857H428.946C433.025 330.857 436.332 327.531 436.332 323.429V116.858C436.332 112.756 433.025 109.431 428.946 109.431Z" fill="white"/>
<path d="M185.043 371.507H355.565C358.05 371.507 360.434 372.5 362.191 374.267C363.948 376.035 364.936 378.432 364.936 380.931V388.861H175.672V380.931C175.672 378.432 176.66 376.035 178.417 374.267C180.174 372.5 182.558 371.507 185.043 371.507Z" fill="#333333"/>
<path d="M406.171 119.458H135.616C128.439 119.458 122.622 125.307 122.622 132.523V306.81C122.622 314.026 128.439 319.875 135.616 319.875H406.171C413.347 319.875 419.165 314.026 419.165 306.81V132.523C419.165 125.307 413.347 119.458 406.171 119.458Z" fill="#A2A7F4"/>
<path d="M215.192 272.65H206.32V281.565H215.192V272.65Z" fill="#FF6764"/>
<path d="M215.192 288.274H206.32V297.197H215.192V288.274Z" fill="#594A5F"/>
<path d="M245.763 292.137H217.637V297.208H245.763V292.137Z" fill="white"/>
<path d="M245.763 276.498H217.637V281.569H245.763V276.498Z" fill="white"/>
<path d="M267.373 272.65H258.501V281.565H267.373V272.65Z" fill="#2F3349"/>
<path d="M267.372 288.274H258.501V297.197H267.372V288.274Z" fill="#594A5F"/>
<path d="M297.931 292.137H269.805V297.208H297.931V292.137Z" fill="white"/>
<path d="M297.931 276.498H269.805V281.569H297.931V276.498Z" fill="white"/>
<path d="M314.343 272.65H305.471V281.565H314.343V272.65Z" fill="#2F3349"/>
<path d="M314.343 288.274H305.471V297.197H314.343V288.274Z" fill="#594A5F"/>
<path d="M335.286 292.137H316.788V297.208H335.286V292.137Z" fill="white"/>
<path d="M335.286 276.498H316.788V281.569H335.286V276.498Z" fill="white"/>
<path d="M334.685 178.335H207.383V180.665H334.685V178.335Z" fill="white"/>
<path d="M399.066 149.771H143.552V155.099H399.066V149.771Z" fill="white"/>
<path d="M334.698 185.57H207.011V187.899H334.698V185.57Z" fill="white"/>
<path d="M334.698 171.101H207.011V173.431H334.698V171.101Z" fill="white"/>
<path d="M334.698 192.804H207.011V195.133H334.698V192.804Z" fill="white"/>
<path d="M334.698 200.05H207.011V202.38H334.698V200.05Z" fill="white"/>
<path d="M334.698 207.287H207.011V209.617H334.698V207.287Z" fill="white"/>
<path d="M334.698 214.518H207.011V216.849H334.698V214.518Z" fill="white"/>
<path d="M334.698 221.752H207.011V224.082H334.698V221.752Z" fill="white"/>
<path d="M276.027 229H207.011V231.33H276.027V229Z" fill="white"/>
<path d="M406.171 119.47H135.628C133.921 119.469 132.231 119.805 130.654 120.461C129.076 121.117 127.643 122.08 126.436 123.294C125.229 124.507 124.272 125.948 123.62 127.534C122.968 129.12 122.633 130.82 122.634 132.537V143.968H419.165V132.537C419.166 130.82 418.831 129.12 418.179 127.534C417.527 125.948 416.57 124.507 415.363 123.294C414.156 122.08 412.723 121.117 411.145 120.461C409.568 119.805 407.878 119.469 406.171 119.47Z" fill="#594A5F"/>
<path d="M383.588 132.163C383.591 132.909 383.373 133.64 382.962 134.262C382.552 134.883 381.967 135.369 381.282 135.656C380.597 135.944 379.842 136.02 379.113 135.876C378.385 135.732 377.715 135.374 377.19 134.847C376.664 134.32 376.305 133.648 376.159 132.916C376.014 132.184 376.087 131.425 376.371 130.735C376.654 130.045 377.135 129.455 377.752 129.04C378.369 128.625 379.095 128.404 379.837 128.404C380.83 128.404 381.782 128.799 382.485 129.504C383.188 130.208 383.585 131.165 383.588 132.163Z" fill="white"/>
<path d="M398.823 132.163C398.825 132.909 398.607 133.64 398.197 134.262C397.786 134.883 397.201 135.369 396.516 135.656C395.831 135.944 395.076 136.02 394.348 135.876C393.619 135.732 392.95 135.374 392.424 134.847C391.898 134.32 391.539 133.648 391.394 132.916C391.248 132.184 391.321 131.425 391.605 130.735C391.889 130.045 392.369 129.455 392.986 129.04C393.603 128.625 394.329 128.404 395.072 128.404C396.064 128.404 397.016 128.799 397.719 129.504C398.423 130.208 398.819 131.165 398.823 132.163Z" fill="white"/>
<path d="M414.185 132.163C414.187 132.909 413.97 133.64 413.559 134.262C413.148 134.883 412.563 135.369 411.878 135.656C411.193 135.944 410.439 136.02 409.71 135.876C408.982 135.732 408.312 135.374 407.786 134.847C407.26 134.32 406.902 133.648 406.756 132.916C406.61 132.184 406.684 131.425 406.967 130.735C407.251 130.045 407.732 129.455 408.349 129.04C408.966 128.625 409.692 128.404 410.434 128.404C411.427 128.404 412.379 128.799 413.082 129.504C413.785 130.208 414.182 131.165 414.185 132.163Z" fill="white"/>
<path d="M201.481 171.012H143.668V297.493H201.481V171.012Z" fill="white" stroke="#005C91" stroke-width="0.5" stroke-miterlimit="10"/>
<path d="M147.944 177.563C148.615 177.563 149.16 177.016 149.16 176.34C149.16 175.665 148.615 175.118 147.944 175.118C147.272 175.118 146.728 175.665 146.728 176.34C146.728 177.016 147.272 177.563 147.944 177.563Z" fill="white" stroke="#005C91" stroke-width="0.5" stroke-miterlimit="10"/>
<path d="M195.503 177.563C196.174 177.563 196.719 177.016 196.719 176.34C196.719 175.665 196.174 175.118 195.503 175.118C194.831 175.118 194.287 175.665 194.287 176.34C194.287 177.016 194.831 177.563 195.503 177.563Z" fill="white" stroke="#005C91" stroke-width="0.5" stroke-miterlimit="10"/>
<path d="M147.944 294.237C148.615 294.237 149.16 293.69 149.16 293.014C149.16 292.339 148.615 291.792 147.944 291.792C147.272 291.792 146.728 292.339 146.728 293.014C146.728 293.69 147.272 294.237 147.944 294.237Z" fill="white" stroke="#005C91" stroke-width="0.5" stroke-miterlimit="10"/>
<path d="M195.503 294.237C196.174 294.237 196.719 293.69 196.719 293.014C196.719 292.339 196.174 291.792 195.503 291.792C194.831 291.792 194.287 292.339 194.287 293.014C194.287 293.69 194.831 294.237 195.503 294.237Z" fill="white" stroke="#FF9C90" stroke-width="0.5" stroke-miterlimit="10"/>
<path d="M145.422 170.482H142.823V173.095H145.422V170.482Z" fill="white" stroke="#005C91" stroke-width="0.5" stroke-miterlimit="10"/>
<path d="M202.723 170.482H200.124V173.095H202.723V170.482Z" fill="white" stroke="#005C91" stroke-width="0.5" stroke-miterlimit="10"/>
<path d="M173.227 170.482H170.629V173.095H173.227V170.482Z" fill="white" stroke="#005C91" stroke-width="0.5" stroke-miterlimit="10"/>
<path d="M173.227 295.844H170.629V298.457H173.227V295.844Z" fill="white" stroke="#FF9C90" stroke-width="0.5" stroke-miterlimit="10"/>
<path d="M145.422 295.844H142.823V298.457H145.422V295.844Z" fill="white" stroke="#005C91" stroke-width="0.5" stroke-miterlimit="10"/>
<path d="M145.422 232.604H142.823V235.216H145.422V232.604Z" fill="white" stroke="#005C91" stroke-width="0.5" stroke-miterlimit="10"/>
<path d="M202.723 295.844H200.124V298.457H202.723V295.844Z" fill="white" stroke="#FF9C90" stroke-width="0.5" stroke-miterlimit="10"/>
<path d="M202.723 232.604H200.124V235.216H202.723V232.604Z" fill="white" stroke="#005C91" stroke-width="0.5" stroke-miterlimit="10"/>
<path d="M172.408 233.429H170.629V235.218H172.408V233.429Z" fill="#005C91"/>
<path d="M399.463 171.012H341.649V297.493H399.463V171.012Z" fill="white" stroke="#005C91" stroke-width="0.5" stroke-miterlimit="10"/>
<path d="M342.216 204.434C342.888 204.434 343.432 203.887 343.432 203.212C343.432 202.536 342.888 201.989 342.216 201.989C341.545 201.989 341 202.536 341 203.212C341 203.887 341.545 204.434 342.216 204.434Z" fill="white" stroke="#005C91" stroke-width="0.5" stroke-miterlimit="10"/>
<path d="M370.216 204.434C370.888 204.434 371.432 203.887 371.432 203.212C371.432 202.536 370.888 201.989 370.216 201.989C369.544 201.989 369 202.536 369 203.212C369 203.887 369.544 204.434 370.216 204.434Z" fill="white" stroke="#005C91" stroke-width="0.5" stroke-miterlimit="10"/>
<path d="M345.938 294.237C346.61 294.237 347.154 293.69 347.154 293.014C347.154 292.339 346.61 291.792 345.938 291.792C345.266 291.792 344.722 292.339 344.722 293.014C344.722 293.69 345.266 294.237 345.938 294.237Z" fill="white" stroke="#FF9C90" stroke-width="0.5" stroke-miterlimit="10"/>
<path d="M393.497 294.237C394.169 294.237 394.713 293.69 394.713 293.014C394.713 292.339 394.169 291.792 393.497 291.792C392.825 291.792 392.281 292.339 392.281 293.014C392.281 293.69 392.825 294.237 393.497 294.237Z" fill="white" stroke="#005C91" stroke-width="0.5" stroke-miterlimit="10"/>
<path d="M343.416 170.817H340.817V173.43H343.416V170.817Z" fill="white" stroke="#005C91" stroke-width="0.5" stroke-miterlimit="10"/>
<path d="M398.599 170.817H396V173.43H398.599V170.817Z" fill="white" stroke="#005C91" stroke-width="0.5" stroke-miterlimit="10"/>
<path d="M370.599 170.817H368V173.43H370.599V170.817Z" fill="white" stroke="#005C91" stroke-width="0.5" stroke-miterlimit="10"/>
<path d="M371.209 295.844H368.61V298.457H371.209V295.844Z" fill="white" stroke="#005C91" stroke-width="0.5" stroke-miterlimit="10"/>
<path d="M343.416 295.844H340.817V298.457H343.416V295.844Z" fill="white" stroke="#FF9C90" stroke-width="0.5" stroke-miterlimit="10"/>
<path d="M343.416 232.151H340.817V234.764H343.416V232.151Z" fill="white" stroke="#005C91" stroke-width="0.5" stroke-miterlimit="10"/>
<path d="M400.717 295.844H398.118V298.457H400.717V295.844Z" fill="white" stroke="#005C91" stroke-width="0.5" stroke-miterlimit="10"/>
<path d="M400.717 232.604H398.118V235.216H400.717V232.604Z" fill="white" stroke="#005C91" stroke-width="0.5" stroke-miterlimit="10"/>
<path d="M369.779 233.157H368V234.946H369.779V233.157Z" fill="#005C91"/>
<path d="M117.705 385.035L117.539 390.081C117.539 390.081 120.33 390.827 121.264 389.746C121.264 388.729 121.264 385.035 121.264 385.035H117.705Z" fill="#F9CBC2"/>
<path d="M93.0365 385.099L92.1147 390.08C92.1147 390.08 94.7519 391.238 95.8529 390.311C95.9681 389.295 96.557 385.639 96.557 385.639L93.0365 385.099Z" fill="#F9CBC2"/>
<path d="M129.663 320.662C129.202 311.162 127.102 301.843 125.592 292.459L105.403 293.386L93.3692 293.72C93.3692 293.72 88.0308 305.962 88.5941 314.509C89.1574 323.056 94.5214 343.382 94.5854 343.575C94.4318 350.641 94.1246 357.734 93.5997 365.148L91.8458 386.169L97.6707 387.121C97.6707 387.121 101.729 367.324 101.883 366.642C105.275 351.813 110.165 337.396 110.844 322.142C113.609 336.392 116.041 350.616 116.361 365.432L117.117 386.027L122.238 386.452C122.238 386.452 124.708 366.886 124.798 366.191C126.833 350.925 130.418 336.031 129.663 320.662Z" fill="#F9B253"/>
<path d="M96.4543 231.857C96.4543 231.857 94.3548 225.241 86.456 227.725C80.1446 229.707 75.4719 236.735 73.8973 242.914C72.9305 246.756 73.1765 250.804 74.6014 254.499C75.8816 258.142 78.0579 261.54 75.5359 265.286C73.3724 268.504 68.879 269.443 66.9075 272.816C64.2319 277.36 68.6613 283.114 72.7451 284.825C77.8659 287.065 84.1772 285.482 89.0676 283.268C90.0149 282.843 90.9879 282.393 91.884 281.878C108.68 272.108 96.1598 251.976 93.0362 246.724C89.9125 241.472 92.14 233.376 95.1741 234.187C96.6975 234.238 96.4543 231.857 96.4543 231.857Z" fill="#FF595F"/>
<path d="M144.743 203.113C144.282 200.539 143.053 204.4 143.053 204.4C142.766 202.782 142.701 201.132 142.861 199.496C143.169 197.231 142.183 197.72 142.183 197.72C141.054 199.127 140.299 200.8 139.99 202.581C139.681 204.362 139.828 206.193 140.416 207.902C140.416 207.966 140.493 208.005 140.519 208.056L135.961 222.988L133.67 230.48L132.517 234.225L131.954 236.105L131.698 236.735L131.378 237.392C130.298 239.353 129.01 241.192 127.537 242.875C126.014 244.69 124.337 246.467 122.583 248.179C120.829 249.891 118.986 251.577 117.104 253.199C116.169 254.01 115.209 254.821 114.249 255.606C113.289 256.391 112.29 257.189 111.407 257.833C111.407 257.833 107.426 264.501 112.137 268.259C113.478 269.33 115.11 269.964 116.819 270.079C118.527 270.194 120.229 269.784 121.7 268.903C122.698 267.757 123.518 266.753 124.401 265.672C125.284 264.591 126.091 263.523 126.961 262.428C128.613 260.253 130.213 258.026 131.749 255.722C133.286 253.418 134.745 251.049 136.076 248.526C137.524 245.896 138.662 243.106 139.469 240.211L139.738 239.001L139.942 237.714L140.122 235.757L140.48 231.831L141.197 224.005L142.592 208.558H142.656C142.656 208.558 145.204 205.675 144.743 203.113Z" fill="#FFE1BD"/>
<path d="M109.871 255.142C109.871 255.142 122.365 245.978 126.18 242.811C128.536 243.429 135.295 246.274 136.627 248.977C135.5 251.976 128.945 264.423 124.234 266.199C119.523 267.976 110.78 260.265 109.871 255.142Z" fill="#0F576F"/>
<path d="M106.222 254.897C106.222 254.897 97.5552 254.138 93.7658 259.441C89.9765 264.744 97.6064 278.402 95.7757 284.722C93.9451 291.042 91.5767 296.861 91.103 299.873C92.8825 301.649 110.434 309.694 127.332 302.37C127.422 295.161 124.682 288.506 124.9 283.203C125.079 279.02 126.488 275.016 126.411 270.794C126.142 258.887 114.62 254.897 106.222 254.897Z" fill="#0F576F"/>
<path d="M108.219 257.06C107.976 255.773 106.632 253.327 107.246 250.74C106.632 249.453 104.212 249.324 102.753 250.74C103.607 252.728 103.9 254.915 103.598 257.06C104.419 258.776 105.588 260.301 107.03 261.535C108.472 262.77 110.155 263.688 111.97 264.23C117.975 265.968 115.824 259.815 108.219 257.06Z" fill="#FFE1BD"/>
<path d="M158.633 275.198C158.344 274.783 157.905 274.499 157.41 274.405C156.915 274.312 156.403 274.416 155.983 274.696C154.703 275.352 152.604 276.678 152.604 276.678L153.218 275.507C153.845 274.335 153.589 273.46 152.719 274.219C151.937 275.099 151.246 276.057 150.658 277.077V277.141C145.985 277.515 140.032 277.528 135.295 277.515C134.13 277.515 132.965 277.515 131.8 277.515C130.635 277.515 129.47 277.437 128.331 277.334C126.09 277.215 123.858 276.957 121.648 276.562C121.136 276.446 120.586 276.369 120.112 276.24C119.639 276.112 119.178 275.983 118.755 275.828L117.616 275.288L116.451 274.593C114.795 273.443 113.259 272.128 111.868 270.667C110.388 269.098 109.007 267.439 107.733 265.698C107.08 264.823 106.453 263.909 105.864 262.995C105.556 262.545 105.275 262.081 104.98 261.605C104.271 260.393 103.22 259.42 101.959 258.812C100.898 258.247 99.7012 257.99 98.5031 258.07C97.3049 258.149 96.1524 258.562 95.1741 259.262C94.1354 260.058 93.3317 261.123 92.8491 262.343C92.3664 263.563 92.2231 264.892 92.4345 266.187C92.7033 269.174 95.1613 271.336 97.3504 273.035C99.9108 275.095 102.471 277.154 105.249 278.969C107.528 280.522 109.971 281.817 112.533 282.831L114.633 283.513C115.376 283.706 116.156 283.848 116.899 284.002C117.641 284.157 118.32 284.131 119.024 284.208C119.728 284.285 120.304 284.208 121.021 284.208C123.531 284.178 126.036 283.993 128.523 283.655C130.955 283.346 133.354 282.99 135.718 282.586C140.403 281.775 146.241 281.003 150.862 280.012C152.27 280.202 153.7 280.141 155.087 279.832C156.132 279.614 157.065 279.027 157.716 278.177C158.367 277.326 158.692 276.269 158.633 275.198Z" fill="#FFE1BD"/>
<path d="M116.003 272.403C116.003 272.403 113.097 280.551 108.885 282.546C104.842 280.798 101.018 278.577 97.4915 275.93C93.8301 273.163 89.1702 269.263 90.4504 264.088C91.321 260.587 94.291 256.816 98.1316 256.88C102.535 256.88 105.646 260.034 108.207 263.96C110.479 267.062 113.095 269.895 116.003 272.403Z" fill="#0F576F"/>
<path d="M110.204 251.694C111.096 250.216 111.59 248.53 111.637 246.802C111.97 244.318 112.239 241.216 111.023 238.937C108.77 234.651 102.522 232.643 99.3987 236.916C97.0176 240.173 97.4144 244.704 99.5267 248.051C101.332 250.883 106.465 254.693 109.832 252.054C109.971 251.951 110.096 251.83 110.204 251.694Z" fill="#FFE1BD"/>
<path d="M118.359 389.18C118.359 389.18 117.552 387.506 116.361 388.562C115.171 389.617 116.477 394.599 116.477 394.599H132.082C132.082 394.599 132.569 393.312 130.866 392.488C129.163 391.664 124.644 391.6 122.57 388.999C122.455 388.803 122.285 388.643 122.083 388.54C121.88 388.437 121.652 388.394 121.425 388.417C121.199 388.44 120.984 388.528 120.806 388.67C120.628 388.812 120.494 389.002 120.42 389.218C120.061 390.068 118.359 389.18 118.359 389.18Z" fill="#0F576F"/>
<path d="M116.476 394.598H132.082C132.188 394.285 132.188 393.946 132.082 393.633H116.259C116.374 394.212 116.476 394.598 116.476 394.598Z" fill="#0F576F"/>
<path d="M92.857 389.142C92.857 389.142 92.4729 387.327 91.0647 388.061C89.6565 388.794 89.7845 393.942 89.7845 393.942L104.916 397.803C104.916 397.803 105.697 396.722 104.251 395.448C102.804 394.174 98.4259 393.067 97.0561 390.043C96.9882 389.825 96.8603 389.63 96.6872 389.482C96.514 389.334 96.3027 389.238 96.0776 389.206C95.8526 389.174 95.623 389.206 95.4156 389.3C95.2081 389.393 95.0312 389.544 94.9053 389.734C94.3036 390.429 92.857 389.142 92.857 389.142Z" fill="#0F576F"/>
<path d="M89.7335 393.942L104.865 397.803C105.032 397.52 105.1 397.189 105.057 396.863L89.6951 393.003C89.7335 393.543 89.7335 393.942 89.7335 393.942Z" fill="#0F576F"/>
<path d="M99.0019 230.645C99.9749 231.61 99.6164 233.541 98.2082 234.956C96.8 236.372 94.8669 236.733 93.9067 235.767C92.9466 234.802 93.2923 232.858 94.7005 231.443C96.1087 230.027 98.0418 229.666 99.0019 230.645Z" fill="#0F576F"/>
<path d="M113.66 238.59C111.1 229.927 102.919 229.579 98.477 232.63C94.0347 235.681 93.9195 241.937 95.1741 245.657C96.4287 249.377 99.7188 250.304 101.229 249.673C100.09 245.94 100.781 245.812 101.742 246.314C102.702 246.816 103.559 248.026 103.367 246.7C102.827 245.165 101.952 243.771 100.807 242.619C100.609 241.775 100.578 240.9 100.717 240.045C100.723 239.985 100.745 239.927 100.781 239.879C100.817 239.831 100.866 239.794 100.922 239.773C100.978 239.751 101.039 239.746 101.098 239.758C101.157 239.769 101.211 239.797 101.255 239.839C101.722 240.258 102.151 240.719 102.535 241.216C102.576 241.273 102.636 241.313 102.704 241.33C102.772 241.346 102.844 241.338 102.906 241.306C106.268 240.052 109.789 239.28 113.366 239.015C113.416 239.013 113.465 239 113.509 238.976C113.553 238.952 113.591 238.918 113.62 238.877C113.648 238.836 113.667 238.788 113.674 238.738C113.681 238.689 113.676 238.638 113.66 238.59Z" fill="#FF595F"/>
<path d="M101.524 245.99C100.615 244.703 98.9634 243.841 97.6832 245.141C96.0061 246.942 99.7955 249.593 100.896 249.838C102.804 250.262 102.407 247.856 101.959 246.788C101.846 246.506 101.7 246.238 101.524 245.99Z" fill="#FFE1BD"/>
<path d="M164.01 383.825L161.334 388.781C161.334 388.781 163.152 391.485 164.765 390.88C165.431 389.734 167.812 385.37 167.812 385.37L164.01 383.825Z" fill="#F9CBC2"/>
<path d="M216.703 388.716L217.624 394.276C217.624 394.276 220.71 395.292 221.619 393.812C221.439 392.526 220.658 387.597 220.658 387.597L216.703 388.716Z" fill="#F9CBC2"/>
<path d="M260.229 240.75C260.908 237.648 257.746 241.342 257.746 241.342C258.183 239.376 258.885 237.479 259.833 235.704C261.241 233.284 259.833 233.361 259.833 233.361C257.963 234.398 256.373 235.878 255.202 237.672C254.031 239.467 253.313 241.522 253.111 243.659C248.592 247.624 243.958 251.512 239.26 255.245C236.802 257.176 234.318 259.107 231.809 260.832C229.428 262.579 226.92 264.145 224.307 265.517L223.411 265.968L222.63 266.238C222.101 266.427 221.557 266.569 221.004 266.663C219.683 266.903 218.349 267.07 217.01 267.165C214.155 267.371 211.134 267.41 208.049 267.371C204.963 267.332 201.853 267.191 198.755 266.998C196.066 266.83 193.199 265.813 190.958 267.847C189.92 268.897 189.195 270.217 188.865 271.66C188.534 273.102 188.612 274.609 189.089 276.009C192.213 285.02 202.339 281.402 209.06 280.27C212.312 279.716 215.563 279.098 218.905 278.223C220.642 277.765 222.352 277.206 224.026 276.549C224.978 276.202 225.899 275.771 226.778 275.262L228.058 274.464L229.159 273.64C231.825 271.561 234.336 269.289 236.674 266.843C238.953 264.513 241.142 262.158 243.254 259.75C247.235 255.258 251.05 250.739 254.776 246.002C254.891 246.016 255.007 246.016 255.121 246.002C255.121 246.002 259.564 243.852 260.229 240.75Z" fill="#F9CBC2"/>
<path d="M180.768 304.752C177.953 309.775 176.254 315.352 175.788 321.099C175.16 330.29 176.249 349.649 176.249 349.649L175.749 350.936L174.725 353.601L172.677 358.93L168.593 369.575L162.551 384.687L167.454 387.866L176.044 373.449L181.984 363.77L184.954 358.93L186.439 356.51L187.181 355.3C187.425 354.875 187.642 354.605 188.039 353.807C188.611 352.593 189.061 351.326 189.383 350.023L190.164 347.294L191.752 341.823L194.901 330.908L201.225 309.025L180.768 304.752Z" fill="#594A5F"/>
<path d="M163.165 388.47C162.845 387.582 162.512 386.667 161.706 386.719C160.029 386.822 157.865 391.869 157.865 391.869L170.949 402.079C170.949 402.079 172.229 401.358 171.307 399.504C170.385 397.65 166.66 394.689 166.609 391.148C166.634 390.907 166.592 390.664 166.486 390.447C166.38 390.229 166.215 390.046 166.011 389.918C165.806 389.791 165.57 389.724 165.33 389.725C165.089 389.726 164.853 389.795 164.65 389.925C163.818 390.401 163.511 389.461 163.165 388.47Z" fill="#0F576F"/>
<path d="M201.673 304.752L209.623 326.055L213.592 336.701L215.576 342.03L216.562 344.681C217.086 345.924 217.48 347.218 217.739 348.543C217.836 349.11 217.905 349.681 217.944 350.255L218.072 351.671L218.316 354.503L218.828 360.166L219.826 371.494L221.439 389.296L216.05 390.184L211.582 372.807L208.522 361.814L206.986 356.331L206.231 353.576C204.771 348.35 200.969 344.063 197.82 339.777C194.35 335.053 190.612 330.522 187.284 325.682L179.82 314.869L201.673 304.752Z" fill="#594A5F"/>
<path d="M218.777 393.235C217.957 392.772 217.112 392.296 216.524 392.862C215.32 394.046 216.972 399.296 216.972 399.296L233.512 398.46C233.512 398.46 233.973 397.173 232.129 396.285C230.286 395.397 225.472 395.667 223.168 393.029C223.031 392.826 222.839 392.667 222.615 392.57C222.391 392.473 222.144 392.442 221.904 392.481C221.663 392.521 221.438 392.628 221.256 392.791C221.074 392.954 220.942 393.167 220.876 393.402C220.518 394.278 219.673 393.763 218.777 393.235Z" fill="#0F576F"/>
<path d="M208.829 266.071C206.384 265.994 203.952 265.827 201.456 265.711C198.409 265.569 193.249 264.848 190.587 266.805C187.45 269.122 187.028 274.297 188.718 277.592C190.407 280.887 193.979 283.771 203.734 282.265C213.489 280.759 225.766 278.068 228.442 276.099C231.118 274.129 249.296 255.786 252.881 250.071C251.67 248.553 250.216 247.248 248.579 246.209C248.579 246.209 228.967 263.136 222.694 265.145C220.348 265.666 217.953 265.938 215.55 265.955C213.314 266.13 211.07 266.169 208.829 266.071Z" fill="#FF6764"/>
<path d="M216.818 265.854L215.538 265.944C213.315 266.121 211.083 266.164 208.855 266.072H208.087C210.436 270.688 211.427 275.882 210.942 281.043C213.784 280.503 216.587 279.911 219.109 279.293C219.216 274.706 218.438 270.142 216.818 265.854Z" fill="#FF9C90"/>
<path d="M187.361 246.66C188.22 249.301 188.344 252.128 187.719 254.834C187.719 254.834 191.112 257.203 193.621 255.375C193.467 253.637 192.034 250.419 193.109 247.175C192.482 245.527 189.384 245.025 187.361 246.66Z" fill="#FFE1BD"/>
<path d="M210.955 318.396C209.457 311.394 209.969 295.999 209.969 295.999C210.929 286.113 210.801 274.206 207.806 265.479C206.642 262.205 204.627 259.304 201.97 257.079C199.314 254.853 196.112 253.385 192.699 252.826C188.641 252.053 186.631 252.401 183.61 255.477C181.544 257.568 179.984 260.11 179.052 262.905C178.143 265.659 178.771 267.423 179.052 270.139C179.404 275.152 179.404 280.185 179.052 285.199C178.758 291.931 177.286 298.624 176.249 305.408C175.826 306.901 175.365 308.394 174.879 309.862C174.495 311.02 174.111 312.166 173.599 313.299C172.972 314.882 172.319 316.221 174.136 317.057C175.526 317.659 176.971 318.12 178.451 318.434C182.233 319.387 186.19 319.387 189.972 318.434C197.065 316.439 205.719 318.512 209.726 319.477C209.882 319.529 210.05 319.54 210.212 319.507C210.373 319.474 210.524 319.399 210.648 319.29C210.772 319.181 210.866 319.041 210.919 318.884C210.973 318.727 210.985 318.559 210.955 318.396Z" fill="#F9B253"/>
<path d="M186.157 253.881C186.157 253.881 186.042 251.668 186.682 251.192C187.322 250.716 189.921 251.668 192.558 251.527C193.457 251.574 194.334 251.823 195.124 252.255C195.915 252.687 196.6 253.291 197.129 254.023C197.129 254.023 189.857 257.536 186.157 253.881Z" fill="#FF9C90"/>
<path d="M217.036 399.26L233.576 398.424C233.674 398.123 233.674 397.798 233.576 397.497L216.818 398.321C216.857 398.887 217.036 399.26 217.036 399.26Z" fill="#0F576F"/>
<path d="M158.351 390.828C158.07 391.407 157.891 391.806 157.891 391.806L170.949 402.074C171.184 401.909 171.37 401.682 171.486 401.418L158.351 390.828Z" fill="#0F576F"/>
<path d="M198.153 248.5C199.497 246.865 199.74 244.226 200.009 242.205C200.419 239.026 200.764 235.036 199.215 232.101C196.309 226.592 188.282 224.017 184.263 229.527C181.203 233.71 181.702 239.528 184.442 243.827C186.759 247.47 193.403 252.374 197.692 248.976C197.865 248.838 198.02 248.678 198.153 248.5Z" fill="#FFE1BD"/>
<path d="M200.304 234.701C201.202 234.442 202.004 233.921 202.608 233.204C203.212 232.487 203.59 231.606 203.696 230.672C203.685 230.201 203.571 229.738 203.363 229.316C203.154 228.894 202.857 228.523 202.491 228.229C202.125 227.934 201.7 227.724 201.244 227.613C200.789 227.501 200.315 227.491 199.855 227.583C201.417 224.687 199.356 220.723 196.015 219.86C194.363 219.483 192.631 219.717 191.136 220.518C189.641 221.319 188.483 222.635 187.873 224.224C185.901 223.886 183.875 224.324 182.214 225.447C181.836 225.72 181.516 226.068 181.274 226.469C181.032 226.869 180.874 227.315 180.808 227.78C180.742 228.244 180.77 228.717 180.891 229.169C181.012 229.622 181.222 230.046 181.51 230.415C180.276 230.976 179.176 231.797 178.284 232.822C177.859 233.323 177.614 233.954 177.588 234.612C177.563 235.27 177.758 235.918 178.143 236.451C178.63 237.018 179.424 237.352 179.846 237.97C180.576 239.026 180.012 240.416 179.846 241.664C179.651 243.302 180.05 244.956 180.97 246.322C181.889 247.688 183.267 248.676 184.852 249.104C185.45 249.327 186.097 249.385 186.725 249.272C187.353 249.159 187.939 248.879 188.423 248.46C189.857 246.851 188.091 244.599 187.668 242.514C187.348 240.969 188.295 237.687 190.548 239.167C191.066 239.542 191.502 240.019 191.829 240.57C192.226 241.137 192.917 242.269 193.659 242.437C193.855 242.469 194.055 242.461 194.248 242.414C194.441 242.366 194.622 242.279 194.78 242.159C194.938 242.038 195.07 241.887 195.168 241.713C195.266 241.539 195.328 241.348 195.349 241.149C195.343 240.851 195.291 240.556 195.196 240.274C194.799 238.82 193.992 235.821 195.912 235.126C197.321 234.675 198.921 235.19 200.304 234.701Z" fill="#0F576F"/>
<path d="M187.745 238.215C185.684 239.503 186.298 241.743 187.566 243.12C187.821 243.403 188.114 243.65 188.436 243.854C189.64 244.626 192.571 245.617 192.648 243.159C192.712 241.73 190.561 236.477 187.745 238.215Z" fill="#FFE1BD"/>
<path d="M258.732 243.442L250.935 232.5L126.987 321.962C126.987 321.962 127.499 327.111 132.697 334.409C137.894 341.708 142.593 343.819 142.593 343.819L266.541 254.383L258.732 243.442Z" fill="#90CABC"/>
<path d="M258.732 243.442L250.935 232.5L126.987 321.962C126.987 321.962 127.499 327.111 132.697 334.409C137.894 341.708 142.593 343.819 142.593 343.819L266.541 254.383L258.732 243.442Z" fill="#0F576F"/>
<path d="M254.84 237.984L251.87 240.121L129.227 328.632C130.229 330.648 131.39 332.58 132.697 334.411C133.997 336.247 135.448 337.97 137.036 339.56L259.666 251.05L262.226 248.475L258.667 243.494L254.84 237.984Z" fill="#126A87"/>
<path d="M275.835 231.098L250.935 232.514L251.87 240.109L258.731 243.443L259.666 251.038L266.541 254.372L275.835 231.098Z" fill="#EBC7B0"/>
<path d="M265.708 231.536L272.173 240.598L276.027 230.957L265.708 231.536Z" fill="#0F576F"/>
<path d="M132.696 334.41C130.082 330.63 128.149 326.416 126.987 321.962C126.987 321.962 124.209 326.468 130.827 335.748C137.446 345.029 142.592 343.819 142.592 343.819C138.766 341.296 135.415 338.11 132.696 334.41Z" fill="#126A87"/>
<path d="M431.237 258.36C430.303 257.575 429.227 256.584 428.229 255.657C427.23 254.73 426.219 253.752 425.233 252.774C423.249 250.817 421.328 248.822 419.498 246.775C417.667 244.729 415.926 242.63 414.377 240.494C412.872 238.492 411.585 236.334 410.536 234.058L410.229 233.311L409.999 232.59L409.499 230.453L408.488 226.206L406.504 217.697L402.535 200.796L402.74 200.526C403.562 198.569 403.876 196.434 403.652 194.322C403.428 192.21 402.674 190.19 401.46 188.452C401.46 188.452 400.333 187.808 400.525 190.485C400.584 192.409 400.382 194.332 399.924 196.201C399.924 196.201 398.771 191.683 398.042 194.643C397.312 197.604 400.064 201.079 400.064 201.079H400.167L400.589 218.379L400.807 227.158L400.922 231.548V233.736L401.063 235.165L401.281 236.529C401.962 239.813 403.023 243.006 404.443 246.042C405.723 248.963 407.208 251.705 408.731 254.396C410.255 257.086 411.893 259.673 413.57 262.222C414.415 263.509 415.273 264.796 416.131 266.019C416.988 267.242 417.859 268.478 418.896 269.816C420.469 270.908 422.336 271.492 424.247 271.492C426.159 271.492 428.025 270.908 429.598 269.816C435.18 266.071 431.237 258.36 431.237 258.36Z" fill="#FFE1BD"/>
<path d="M399.156 207.874C399.156 207.874 399.245 205.003 399.373 204.566C399.501 204.128 403.099 203.588 404.033 203.691C404.968 203.793 405.134 208.182 405.134 208.182C405.134 208.182 400.103 208.865 399.156 207.874Z" fill="#FF6764"/>
<path d="M423.479 249.068C425.936 251.84 428.539 254.478 431.275 256.971C434.181 259.391 435.641 268.337 429.918 271.131C424.196 273.924 419.523 274.825 412.879 262.982C406.849 253.444 399.783 243.031 399.578 231.33C399.258 220.375 398.861 209.743 398.631 208.16C398.4 206.576 404.545 205.856 405.454 206.872C406.363 207.889 405.736 209.228 405.953 210.58C406.171 211.931 409.679 228.408 411.074 231.613C412.469 234.818 416.745 241.512 423.479 249.068Z" fill="#0F576F"/>
<path d="M426.078 386.644L427.051 394.005L430.507 393.478L429.905 385.911L426.078 386.644Z" fill="#F9CBC2"/>
<path d="M458.07 383.502L460.425 390.529L463.715 389.345L461.68 382.035L458.07 383.502Z" fill="#F9CBC2"/>
<path d="M459.542 369.821C457.058 357.515 456.521 345.222 456.469 332.697C456.469 329.531 453.563 295.368 454.229 295.368L432.735 298.831L418.755 297.827C418.755 297.827 413.276 318.422 418.947 351.323C418.947 352.057 418.947 352.804 419.075 353.538V354.078L419.139 354.451L419.267 355.185L419.805 358.107L421.93 369.808L425.771 389.322L430.763 388.846L430.955 368.946C430.955 361.493 430.789 354.04 432.236 346.702C432.859 343.536 433.464 340.361 434.053 337.177C434.642 333.993 435.248 330.749 435.871 327.446C437.323 334.874 439.466 342.149 442.272 349.174C442.437 349.87 442.651 350.554 442.912 351.221L443.54 352.662L445.934 358.159L450.734 369.151L458.774 386.606L463.037 384.881C461.629 378.188 460.886 376.489 459.542 369.821Z" fill="#F9B253"/>
<path d="M462.563 388.524C462.563 388.524 462.73 386.671 464.215 387.237C465.7 387.804 466.25 392.912 466.25 392.912L451.695 398.549C451.695 398.549 450.786 397.558 452.066 396.129C453.346 394.701 457.558 393.054 458.569 389.888C458.608 389.663 458.709 389.454 458.862 389.285C459.015 389.116 459.213 388.994 459.432 388.935C459.652 388.875 459.884 388.88 460.101 388.949C460.317 389.017 460.51 389.147 460.656 389.322C461.296 389.965 462.563 388.524 462.563 388.524Z" fill="#0F576F"/>
<path d="M429.419 392.115C429.419 392.115 430.226 390.455 431.404 391.51C432.581 392.566 431.288 397.548 431.288 397.548H415.696C415.696 397.548 415.196 396.261 416.899 395.424C418.602 394.587 423.133 394.548 425.195 391.935C425.313 391.739 425.485 391.582 425.689 391.48C425.894 391.379 426.123 391.338 426.349 391.362C426.576 391.386 426.791 391.475 426.97 391.617C427.148 391.76 427.283 391.95 427.358 392.167C427.717 393.042 429.419 392.115 429.419 392.115Z" fill="#0F576F"/>
<path d="M451.694 398.549L466.25 392.925C466.25 392.925 466.25 392.617 466.148 392.153L451.426 397.97C451.476 398.179 451.567 398.376 451.694 398.549Z" fill="#FF6764"/>
<path d="M431.416 397.045H415.632C415.623 397.223 415.644 397.402 415.696 397.573H431.288L431.416 397.045Z" fill="#FF6764"/>
<path d="M456.162 287.851C455.868 287.774 456.687 277.27 456.879 276.266C457.862 272.294 457.906 268.146 457.007 264.154C455.932 260.228 453.167 256.61 449.441 255.465C444.859 254.041 440.078 253.367 435.283 253.47C429.906 253.586 424.401 254.667 421.008 259.326C417.168 264.475 415.888 270.796 415.824 277.232C415.747 284.234 416.758 291.159 415.824 298.11C415.184 303.014 414.966 308.009 414.543 312.939C417.68 315.05 422.225 315.513 425.924 315.629C430.943 315.796 435.513 313.943 440.544 314.805C445.575 315.668 451.643 318.371 456.239 315.114C455.766 311.368 456.162 287.851 456.162 287.851Z" fill="#0F576F"/>
<path d="M440.109 248.282C439.254 250.271 438.962 252.457 439.264 254.602C439.264 254.602 436.46 256.198 434.642 254.602C434.886 253.315 436.217 250.869 435.615 248.282C436.217 247.034 438.649 246.867 440.109 248.282Z" fill="#FFE1BD"/>
<path d="M441.492 253.881C439.432 253.63 437.357 253.527 435.283 253.572C434.297 253.572 433.298 253.649 432.313 253.752C431.698 255.309 431.57 257.729 436.307 258.115C440.967 257.832 441.773 255.67 441.492 253.881Z" fill="#FFE1BD"/>
<path d="M457.404 273.317C443.689 274.953 429.808 274.519 416.22 272.029C415.978 273.809 415.846 275.601 415.824 277.397C415.824 280.667 415.99 283.924 416.118 287.168C429.509 291.325 448.276 289.497 456.15 288.455V287.85C455.855 287.773 456.674 277.268 456.866 276.264C457.059 275.26 457.263 274.346 457.404 273.317Z" fill="#006EAE"/>
<path d="M442.157 253.958L441.018 253.829C441.036 254.495 440.862 255.152 440.516 255.721C440.171 256.29 439.669 256.746 439.072 257.034C436.614 258.321 433.119 257.42 432.607 255.837C432.482 255.127 432.534 254.397 432.76 253.713C432.325 253.713 431.89 253.791 431.48 253.855C430.571 258.81 434.437 258.797 436.601 258.9C442.349 259.068 442.349 255 442.157 253.958Z" fill="#FF6764"/>
<path d="M452.463 258.592C451.11 257.879 449.579 257.578 448.059 257.724C446.538 257.87 445.092 258.458 443.898 259.416C442.775 260.235 441.891 261.342 441.338 262.621L441.235 262.853C440.979 263.432 440.711 264.024 440.416 264.604C439.853 265.775 439.264 266.933 438.624 268.066C437.37 270.29 435.99 272.439 434.489 274.502C433.065 276.432 431.452 278.213 429.675 279.818L428.395 280.81L427.115 281.621C426.628 281.865 426.078 282.071 425.566 282.303C425.054 282.534 424.388 282.715 423.812 282.921C421.267 283.717 418.676 284.357 416.054 284.839C414.71 285.122 413.34 285.341 411.983 285.572C410.626 285.804 409.256 285.984 407.874 286.152C402.356 286.885 396.762 287.439 391.231 287.645V287.722L391.142 287.606C390.236 286.405 389.206 285.305 388.069 284.324C386.789 283.436 386.661 284.581 387.634 285.971L388.607 287.349C388.607 287.349 385.688 286.061 384.011 285.392C383.436 285.103 382.772 285.053 382.161 285.253C381.55 285.453 381.042 285.887 380.746 286.46C380.854 287.826 381.445 289.108 382.413 290.072C383.381 291.036 384.662 291.618 386.021 291.712C390.361 291.931 391.922 291.069 391.922 291.069C397.351 291.545 402.766 291.931 408.245 292.176C411.1 292.291 413.967 292.356 416.873 292.356C419.867 292.374 422.86 292.215 425.835 291.88C426.616 291.764 427.371 291.699 428.177 291.545C428.984 291.39 429.816 291.197 430.661 290.979C431.506 290.76 432.402 290.399 433.221 290.078L435.603 288.945C438.466 287.363 441.153 285.477 443.617 283.32C445.993 281.314 448.246 279.165 450.363 276.884C451.413 275.751 452.463 274.631 453.474 273.46C453.986 272.868 454.485 272.275 454.985 271.67C456.186 270.229 456.831 268.402 456.803 266.522C456.876 264.926 456.51 263.341 455.744 261.942C454.978 260.542 453.843 259.383 452.463 258.592Z" fill="#FFE1BD"/>
<path d="M397.901 286.437C396.955 286.538 396.015 286.688 395.085 286.887C394.662 287.055 394.406 290.748 394.572 291.623C394.739 292.498 399.13 292.369 399.13 292.369C399.13 292.369 398.963 287.261 397.901 286.437Z" fill="#FF6764"/>
<path d="M396.979 286.433C396.979 286.433 396.979 284.927 399.681 285.3C402.382 285.674 417.066 284.67 423.761 281.323C430.456 277.976 436.563 268.258 441.031 260.92C445.499 253.583 454.46 256.582 456.201 259.44C457.942 262.298 459.542 268.386 456.201 272.312C452.86 276.238 440.16 291.183 427.089 292.316C414.019 293.448 400.295 293.449 399.066 293.449C397.837 293.449 395.878 291.428 396.979 286.433Z" fill="#0F576F"/>
<path d="M432.108 250.044C431.058 248.757 430.827 246.723 430.661 245.153C430.341 242.669 430.072 239.567 431.288 237.288C433.541 233.002 439.776 230.994 442.912 235.268C445.294 238.524 444.897 243.055 442.772 246.401C440.967 249.233 435.846 253.043 432.466 250.404C432.334 250.297 432.214 250.176 432.108 250.044Z" fill="#FFE1BD"/>
<path d="M447.47 237.341C445.882 230.596 440.685 230.3 440.685 230.3C440.685 230.3 441.466 226.233 440.083 225.859C438.701 225.486 436.332 228.936 436.332 228.936C436.332 228.936 435.961 225.074 433.605 225.242C431.25 225.409 430.815 229.309 430.815 229.309C430.815 229.309 429.829 226.349 428.702 226.966C427.576 227.584 425.668 234.239 428.702 237.341C431.736 240.443 438.035 236.826 439.264 237.341C440.083 237.689 440.224 238.873 440.16 239.645C440.16 239.813 440.16 239.98 440.096 240.147C439.85 241.255 439.674 242.377 439.571 243.507C439.571 243.97 439.84 244.15 440.083 243.713C440.774 242.49 442.81 241.383 441.479 244.292C441.005 245.309 439.494 247.317 440.442 248.437C441.082 249.17 443.092 248.218 443.783 247.845C444.813 247.284 445.692 246.48 446.343 245.502C447.08 244.293 447.56 242.944 447.754 241.54C447.948 240.136 447.851 238.706 447.47 237.341Z" fill="#0F576F"/>
<path d="M440.902 243.12C441.76 241.949 443.348 241.086 444.513 242.322C446.113 244.021 442.515 246.544 441.466 246.775C439.648 247.187 440.045 244.883 440.454 243.879C440.572 243.609 440.722 243.353 440.902 243.12Z" fill="#FFE1BD"/>
<path d="M364.257 329.388C363.464 326.333 363.161 323.169 363.361 320.017C363.835 315.976 365.922 312.294 368.29 309.012C369.711 307.004 372.054 304.841 374.269 305.884C375.116 306.362 375.792 307.096 376.202 307.982C379.556 313.968 378.66 321.33 378.25 328.204C377.968 332.915 377.93 337.742 376.368 342.209C375.903 343.729 375.077 345.111 373.961 346.238C373.4 346.792 372.711 347.198 371.957 347.423C371.203 347.647 370.405 347.682 369.634 347.525C366.191 346.65 365.346 341.926 365.269 338.927C365.221 335.723 364.883 332.53 364.257 329.388Z" fill="#5CAFFF"/>
<path d="M374.32 363.501C376.163 364.041 378.16 364.788 379.018 366.461C377.855 368.196 376.516 369.805 375.024 371.263C372.796 373.426 369.903 375.37 366.728 375.048C363.553 374.726 361.134 372.267 358.74 370.233C356.666 368.457 353.619 367.324 351.686 365.496C349.126 362.921 352.569 362.509 354.976 362.162C361.446 361.244 368.036 361.7 374.32 363.501Z" fill="#FFE1BD"/>
<path d="M365.09 369.976C362.133 366.268 347.014 360.502 343.634 357.194C340.704 354.29 338.374 350.832 336.779 347.019C335.184 343.206 334.355 339.113 334.34 334.976C334.34 325.039 339.089 315.578 339.23 305.64C339.294 301.071 338.372 296.514 338.59 291.957C338.807 287.4 340.485 282.522 344.351 280.128C349.92 276.665 357.716 280.128 361.057 285.779C364.398 291.429 364.386 298.432 363.784 304.984C363.182 311.536 362.12 318.242 363.694 324.627C366.255 334.925 375.216 342.738 378.033 353.01C379.108 356.949 368.854 365.239 368.738 369.332C368.61 373.979 368.406 380.067 366.383 384.251C363.528 390.108 370.889 392.515 365.307 385.976C361.531 381.561 369.378 375.305 365.09 369.976Z" fill="#1A82E7"/>
<path d="M366.191 375.381L365.73 375.304C367.618 364.306 365.505 352.992 359.777 343.432C359.137 342.377 358.497 341.334 357.767 340.317C355.714 337.527 354.099 334.436 352.979 331.152C351.584 326.158 352.556 320.855 353.504 315.835C353.76 314.547 354.016 313.131 354.221 311.793C355.808 301.495 354.221 292.279 349.574 285.843L349.958 285.572C354.618 292.098 356.295 301.444 354.682 311.87C354.477 313.222 354.221 314.586 353.965 315.925C353.03 320.945 352.057 326.132 353.44 331.024C354.544 334.254 356.137 337.293 358.164 340.034C358.829 341.051 359.534 342.107 360.174 343.162C365.973 352.822 368.11 364.263 366.191 375.381Z" fill="#B6DBFF"/>
<path d="M354.515 309.36C351.914 306.169 348.973 303.272 345.746 300.723L346.04 300.35C349.283 302.928 352.244 305.845 354.874 309.051L354.515 309.36Z" fill="#B6DBFF"/>
<path d="M355.475 335.784L355.078 335.527C355.808 334.33 356.692 332.85 357.575 331.357C358.458 329.864 359.329 328.397 360.135 327.188L360.532 327.432C359.79 328.642 358.919 330.122 357.972 331.602L355.475 335.784Z" fill="#B6DBFF"/>
<path d="M365.153 356.881C363.873 354.77 361.159 354.114 358.586 353.483L357.895 353.316C354.076 352.358 350.43 350.803 347.09 348.709L347.333 348.31C350.628 350.378 354.227 351.911 357.997 352.853L358.701 353.033C361.262 353.651 364.104 354.32 365.55 356.636L365.153 356.881Z" fill="#B6DBFF"/>
<path d="M352.582 321.5C349.995 318.993 347.575 316.318 345.336 313.493L345.707 313.209C347.929 316.014 350.332 318.667 352.902 321.152L352.582 321.5Z" fill="#B6DBFF"/>
<path d="M358.1 291.511L354.429 299.105L354.855 299.313L358.526 291.719L358.1 291.511Z" fill="#B6DBFF"/>
<path d="M362.235 346.829L361.8 346.662C362.86 344.044 364.065 341.487 365.41 339.005L365.819 339.237C364.483 341.698 363.287 344.232 362.235 346.829Z" fill="#B6DBFF"/>
<path d="M379.133 366.537C369.684 369.222 359.587 368.357 350.726 364.104L355.744 395.654H371.273L379.133 366.537Z" fill="#F9B253"/>
<path d="M374.499 383.748L375.152 381.315L373.974 381.65C371.58 382.181 369.125 382.38 366.677 382.242C362.724 382.172 358.808 381.464 355.078 380.144C354.424 379.9 353.783 379.62 353.158 379.308L353.581 381.882L354.298 382.191C360.699 384.816 368.098 386.168 374.499 383.748Z" fill="white"/>
<path d="M193.992 259.121C193.01 258.045 191.723 257.299 190.305 256.984C188.651 256.608 186.93 256.646 185.294 257.095C183.658 257.544 182.157 258.39 180.922 259.559C176.902 263.253 173.074 266.973 169.285 270.95C166.968 273.396 164.689 275.906 162.5 278.673C161.34 280.127 160.267 281.649 159.286 283.23C158.734 284.114 158.259 285.044 157.865 286.01L157.264 287.478L156.867 288.829C155.958 292.161 155.295 295.556 154.883 298.985C154.434 302.293 154.102 305.563 153.833 308.819C153.295 315.358 152.962 321.846 152.783 328.359L152.578 328.488C151.281 329.892 150.394 331.629 150.018 333.508C149.16 337.022 152.245 338.502 154.831 338.09C157.417 337.678 156.675 334.924 156.675 334.924C157.01 334.666 157.276 334.329 157.45 333.943C157.625 333.556 157.701 333.133 157.673 332.71C157.284 331.318 156.608 330.024 155.689 328.913C155.619 328.809 155.542 328.71 155.459 328.617C156.739 322.335 158.237 316.066 159.888 309.901C160.707 306.799 161.591 303.735 162.551 300.749C163.433 297.858 164.524 295.036 165.815 292.305L166.276 291.391L166.737 290.696C167.052 290.235 167.407 289.804 167.8 289.409C168.732 288.398 169.72 287.44 170.757 286.538C172.959 284.607 175.391 282.677 177.875 280.887C181.869 277.978 186.106 275.134 190.318 272.469C191.588 271.678 192.674 270.621 193.503 269.371C194.331 268.12 194.882 266.706 195.119 265.222C195.392 264.185 195.433 263.099 195.238 262.044C195.043 260.989 194.618 259.991 193.992 259.121Z" fill="#FFE1BD"/>
<path d="M170.526 268.182C170.526 268.182 179.168 258.399 183.418 256.7C187.668 255.001 192.571 255.812 194.94 259.494C197.308 263.175 196.821 269.586 188.423 274.451C185.351 276.588 171.934 285.303 167.646 290.799C163.716 297.416 157.532 320.985 156.892 325.285C156.892 325.285 153.474 325.478 152.015 324.499C152.104 321.449 153.769 297.081 155.228 291.289C156.687 285.496 158.582 280.257 170.526 268.182Z" fill="#F9B253"/>
<path d="M175.25 263.2C172.613 265.774 170.527 268.181 170.527 268.181L169.451 269.288C172.164 273.656 175.801 277.37 180.102 280.165C183.136 278.003 185.914 276.136 187.54 275.016C182.284 272.513 177.973 268.368 175.25 263.2Z" fill="#F9B253"/>
<g opacity="0.22">
<path opacity="0.22" d="M61.0827 84.1756C60.9419 83.9826 60.9034 83.9826 60.9547 84.1756C60.9124 83.9687 60.8107 83.7787 60.6622 83.6292C60.5138 83.4797 60.325 83.3773 60.1192 83.3344C59.9134 83.2916 59.6997 83.3104 59.5044 83.3883C59.3091 83.4663 59.1408 83.6001 59.0203 83.7732C58.8998 83.9462 58.8324 84.151 58.8264 84.3622C58.8203 84.5734 58.876 84.7817 58.9864 84.9614C59.0969 85.1411 59.2573 85.2844 59.4478 85.3735C59.6383 85.4626 59.8506 85.4936 60.0585 85.4627C59.8537 85.4627 59.8537 85.5013 60.0585 85.5785C60.2258 85.6259 60.4034 85.6218 60.5683 85.5668C60.7333 85.5119 60.8781 85.4085 60.9842 85.2701C61.0902 85.1316 61.1526 84.9644 61.1633 84.79C61.174 84.6156 61.1326 84.442 61.0443 84.2915L61.0827 84.1756Z" fill="#333333"/>
</g>
<g opacity="0.22">
<path opacity="0.22" d="M53.4913 109.726C53.9063 109.342 54.1699 108.821 54.2338 108.258C54.2433 108.139 54.2221 108.02 54.1721 107.911C54.1222 107.802 54.0452 107.709 53.9486 107.639C53.8521 107.569 53.7392 107.525 53.621 107.512C53.5027 107.499 53.3831 107.517 53.2737 107.563C52.7615 107.793 52.3482 108.199 52.1087 108.709C51.9887 108.894 51.9438 109.118 51.9832 109.335C52.0226 109.552 52.1434 109.746 52.3206 109.876C52.4978 110.007 52.718 110.064 52.9358 110.036C53.1536 110.008 53.3524 109.897 53.4913 109.726Z" fill="#333333"/>
</g>
<g opacity="0.22">
<path opacity="0.22" d="M68.1495 106.521C68.3301 106.634 68.5466 106.675 68.7555 106.634C68.9645 106.594 69.1506 106.476 69.2768 106.303C69.4029 106.131 69.4597 105.917 69.4358 105.705C69.412 105.492 69.3092 105.296 69.1481 105.157C68.9675 105.044 68.751 105.003 68.5421 105.044C68.3331 105.084 68.147 105.202 68.0208 105.374C67.8947 105.547 67.8379 105.76 67.8618 105.973C67.8856 106.186 67.9884 106.381 68.1495 106.521Z" fill="#333333"/>
</g>
<g opacity="0.22">
<path opacity="0.22" d="M504.106 143.684C504.398 143.729 504.696 143.729 504.989 143.684C505.18 143.623 505.348 143.502 505.466 143.338C505.585 143.175 505.648 142.979 505.648 142.776C505.648 142.574 505.585 142.378 505.466 142.215C505.348 142.051 505.18 141.93 504.989 141.869C504.696 141.824 504.398 141.824 504.106 141.869C503.878 141.896 503.669 142.006 503.517 142.178C503.364 142.35 503.28 142.572 503.28 142.802C503.28 143.032 503.364 143.255 503.517 143.427C503.669 143.599 503.878 143.708 504.106 143.735V143.684Z" fill="#333333"/>
</g>
<g opacity="0.22">
<path opacity="0.22" d="M486.311 168.46C486.532 168.46 486.743 168.372 486.899 168.215C487.055 168.058 487.143 167.846 487.143 167.624C487.143 167.402 487.055 167.189 486.899 167.032C486.743 166.875 486.532 166.787 486.311 166.787C486.09 166.787 485.879 166.875 485.723 167.032C485.567 167.189 485.479 167.402 485.479 167.624C485.479 167.846 485.567 168.058 485.723 168.215C485.879 168.372 486.09 168.46 486.311 168.46Z" fill="#333333"/>
</g>
<g opacity="0.22">
<path opacity="0.22" d="M139.481 193.601C139.129 193.4 138.734 193.285 138.329 193.267C138.251 193.265 138.174 193.279 138.102 193.308C138.03 193.337 137.964 193.381 137.909 193.436C137.854 193.492 137.811 193.558 137.782 193.63C137.753 193.703 137.739 193.781 137.74 193.859C137.759 194.266 137.873 194.663 138.073 195.017C138.944 196.484 140.941 194.477 139.481 193.601Z" fill="#333333"/>
</g>
<g opacity="0.22">
<path opacity="0.22" d="M130.072 186.019H130.495C130.758 185.99 131.001 185.864 131.178 185.666C131.355 185.467 131.453 185.21 131.453 184.944C131.453 184.678 131.355 184.421 131.178 184.222C131.001 184.024 130.758 183.898 130.495 183.869H130.072C128.651 183.753 128.651 186.199 130.072 186.083V186.019Z" fill="#333333"/>
</g>
<g opacity="0.22">
<path opacity="0.22" d="M137.549 126.305C137.783 126.278 137.998 126.165 138.155 125.989C138.312 125.812 138.398 125.583 138.398 125.347C138.398 125.11 138.312 124.881 138.155 124.705C137.998 124.528 137.783 124.415 137.549 124.388C137.315 124.415 137.099 124.528 136.942 124.705C136.786 124.881 136.699 125.11 136.699 125.347C136.699 125.583 136.786 125.812 136.942 125.989C137.099 126.165 137.315 126.278 137.549 126.305Z" fill="#333333"/>
</g>
<g opacity="0.22">
<path opacity="0.22" d="M140.096 133.977C140.351 133.977 140.595 133.875 140.775 133.694C140.955 133.513 141.057 133.268 141.057 133.012C141.057 132.756 140.955 132.51 140.775 132.329C140.595 132.148 140.351 132.046 140.096 132.046C139.842 132.046 139.598 132.148 139.417 132.329C139.237 132.51 139.136 132.756 139.136 133.012C139.136 133.268 139.237 133.513 139.417 133.694C139.598 133.875 139.842 133.977 140.096 133.977Z" fill="#333333"/>
</g>
<g opacity="0.22">
<path opacity="0.22" d="M427.166 310.815C427.387 310.788 427.591 310.681 427.738 310.514C427.886 310.347 427.968 310.131 427.968 309.907C427.968 309.684 427.886 309.468 427.738 309.301C427.591 309.133 427.387 309.026 427.166 309C426.945 309.026 426.742 309.133 426.594 309.301C426.447 309.468 426.365 309.684 426.365 309.907C426.365 310.131 426.447 310.347 426.594 310.514C426.742 310.681 426.945 310.788 427.166 310.815Z" fill="#333333"/>
</g>
<g opacity="0.22">
<path opacity="0.22" d="M437.971 308.922C437.723 308.9 437.474 308.945 437.25 309.051C437.025 309.157 436.832 309.321 436.691 309.527C436.622 309.641 436.585 309.773 436.585 309.906C436.585 310.04 436.622 310.172 436.691 310.286C436.832 310.492 437.025 310.656 437.25 310.762C437.474 310.868 437.723 310.913 437.971 310.891C438.211 310.863 438.433 310.748 438.594 310.566C438.755 310.385 438.844 310.15 438.844 309.906C438.844 309.663 438.755 309.428 438.594 309.247C438.433 309.065 438.211 308.95 437.971 308.922Z" fill="#333333"/>
</g>
<g opacity="0.22">
<path opacity="0.22" d="M432.287 301.571C432.075 301.353 431.843 301.155 431.595 300.979C431.421 300.833 431.199 300.758 430.972 300.768C430.746 300.778 430.531 300.873 430.371 301.035C430.21 301.196 430.116 301.412 430.105 301.64C430.095 301.868 430.17 302.091 430.315 302.266C430.482 302.518 430.675 302.751 430.891 302.961C431.749 303.824 433.093 302.485 432.236 301.674L432.287 301.571Z" fill="#333333"/>
</g>
<g opacity="0.22">
<path opacity="0.22" d="M437.331 296.05C437.551 296.05 437.763 295.962 437.919 295.805C438.075 295.648 438.163 295.435 438.163 295.213C438.163 294.991 438.075 294.778 437.919 294.621C437.763 294.465 437.551 294.376 437.331 294.376C437.11 294.376 436.898 294.465 436.742 294.621C436.586 294.778 436.499 294.991 436.499 295.213C436.499 295.435 436.586 295.648 436.742 295.805C436.898 295.962 437.11 296.05 437.331 296.05Z" fill="#333333"/>
</g>
<path d="M470.897 356.24C471.447 356.24 471.975 356.02 472.364 355.629C472.753 355.238 472.971 354.708 472.971 354.155C472.971 353.602 472.753 353.072 472.364 352.681C471.975 352.29 471.447 352.07 470.897 352.07C470.347 352.07 469.82 352.29 469.431 352.681C469.042 353.072 468.823 353.602 468.823 354.155C468.823 354.708 469.042 355.238 469.431 355.629C469.82 356.02 470.347 356.24 470.897 356.24Z" fill="#FFECE8"/>
<path d="M472.562 332.646L472.485 333.058C472.418 333.304 472.409 333.562 472.458 333.813C472.507 334.063 472.613 334.299 472.767 334.501C472.921 334.704 473.12 334.868 473.347 334.981C473.575 335.094 473.825 335.153 474.079 335.153C474.332 335.153 474.583 335.094 474.81 334.981C475.038 334.868 475.236 334.704 475.39 334.501C475.545 334.299 475.65 334.063 475.699 333.813C475.748 333.562 475.739 333.304 475.673 333.058L475.596 332.646C475.496 332.32 475.295 332.035 475.021 331.832C474.748 331.629 474.418 331.52 474.079 331.52C473.739 331.52 473.409 331.629 473.136 331.832C472.863 332.035 472.662 332.32 472.562 332.646Z" fill="#FFECE8"/>
<path d="M483.61 354.785C484.119 354.785 484.607 354.582 484.968 354.22C485.328 353.858 485.53 353.367 485.53 352.855C485.53 352.343 485.328 351.852 484.968 351.49C484.607 351.128 484.119 350.925 483.61 350.925C483.1 350.925 482.612 351.128 482.252 351.49C481.892 351.852 481.689 352.343 481.689 352.855C481.689 353.367 481.892 353.858 482.252 354.22C482.612 354.582 483.1 354.785 483.61 354.785Z" fill="#FFECE8"/>
<path d="M55.2576 348.798L55.6417 348.939C55.96 349.031 56.2952 349.048 56.6209 348.987C56.9466 348.927 57.2538 348.791 57.5184 348.591C57.783 348.39 57.9977 348.131 58.1455 347.833C58.2933 347.535 58.3703 347.207 58.3703 346.874C58.3703 346.541 58.2933 346.212 58.1455 345.914C57.9977 345.616 57.783 345.357 57.5184 345.157C57.2538 344.956 56.9466 344.82 56.6209 344.76C56.2952 344.699 55.96 344.716 55.6417 344.808L55.2576 344.962C54.8403 345.082 54.4732 345.335 54.2118 345.684C53.9505 346.032 53.8091 346.457 53.8091 346.893C53.8091 347.329 53.9505 347.754 54.2118 348.102C54.4732 348.45 54.8403 348.704 55.2576 348.824V348.798Z" fill="#FFECE8"/>
<path d="M76.1249 350.447C76.7293 350.447 77.3089 350.205 77.7362 349.776C78.1636 349.346 78.4037 348.763 78.4037 348.156C78.4037 347.548 78.1636 346.965 77.7362 346.536C77.3089 346.106 76.7293 345.865 76.1249 345.865C75.5206 345.865 74.941 346.106 74.5136 346.536C74.0863 346.965 73.8462 347.548 73.8462 348.156C73.8462 348.763 74.0863 349.346 74.5136 349.776C74.941 350.205 75.5206 350.447 76.1249 350.447Z" fill="#FFECE8"/>
<path d="M68.5334 328.32C68.8102 328.25 69.0559 328.089 69.2315 327.863C69.407 327.637 69.5024 327.358 69.5024 327.071C69.5024 326.784 69.407 326.506 69.2315 326.279C69.0559 326.053 68.8102 325.893 68.5334 325.823C68.2566 325.893 68.0109 326.053 67.8354 326.279C67.6598 326.506 67.5645 326.784 67.5645 327.071C67.5645 327.358 67.6598 327.637 67.8354 327.863C68.0109 328.089 68.2566 328.25 68.5334 328.32Z" fill="#FFECE8"/>
</svg>
