<svg width="530" height="382" viewBox="0 0 530 382" fill="none" xmlns="http://www.w3.org/2000/svg">
<path d="M51.4252 264.422L48.3867 307.161H88.9386L86.1464 264.339L51.4252 264.422Z" fill="#D7D7FF"/>
<path d="M59.473 268.17C59.5064 267.832 59.6684 267.519 59.9254 267.297C60.1825 267.076 60.5146 266.963 60.8527 266.981C61.0245 266.952 61.2004 266.962 61.3684 267.008C61.5363 267.054 61.6922 267.137 61.8252 267.25C61.9581 267.363 62.0649 267.504 62.1382 267.663C62.2114 267.822 62.2494 267.995 62.2494 268.17C62.2494 268.345 62.2114 268.518 62.1382 268.677C62.0649 268.836 61.9581 268.977 61.8252 269.09C61.6922 269.203 61.5363 269.286 61.3684 269.333C61.2004 269.379 61.0245 269.388 60.8527 269.359C60.5137 269.382 60.1792 269.27 59.9213 269.048C59.6633 268.826 59.5024 268.511 59.473 268.17ZM60.8527 267.444C60.6335 267.42 60.4137 267.482 60.2392 267.618C60.0647 267.753 59.9491 267.951 59.9165 268.17C59.9491 268.389 60.0647 268.587 60.2392 268.723C60.4137 268.858 60.6335 268.921 60.8527 268.897C60.9656 268.931 61.085 268.939 61.2014 268.919C61.3177 268.899 61.4277 268.851 61.5226 268.781C61.6175 268.71 61.6946 268.618 61.7477 268.512C61.8008 268.406 61.8285 268.289 61.8285 268.17C61.8285 268.052 61.8008 267.935 61.7477 267.829C61.6946 267.723 61.6175 267.631 61.5226 267.56C61.4277 267.489 61.3177 267.442 61.2014 267.422C61.085 267.402 60.9656 267.409 60.8527 267.444Z" fill="#EAE6FF"/>
<path d="M73.3024 268.138C73.3072 267.854 73.4187 267.582 73.6144 267.378C73.9027 267.105 74.2861 266.957 74.682 266.965C75.0211 266.938 75.3575 267.045 75.6186 267.264C75.8797 267.484 76.0448 267.797 76.0781 268.138C76.0768 268.304 76.0377 268.468 75.9637 268.617C75.8896 268.766 75.7827 268.895 75.651 268.996C75.3825 269.216 75.0449 269.333 74.6985 269.327C74.3567 269.354 74.0181 269.244 73.7565 269.022C73.4949 268.799 73.3317 268.481 73.3024 268.138ZM74.682 267.411C74.4084 267.403 74.1427 267.504 73.9429 267.692C73.8821 267.749 73.8333 267.818 73.7995 267.895C73.7656 267.971 73.7474 268.054 73.7458 268.138C73.7746 268.36 73.8886 268.562 74.0635 268.701C74.2385 268.84 74.4604 268.904 74.682 268.881C74.9318 268.871 75.1727 268.785 75.3719 268.633C75.45 268.576 75.5143 268.501 75.5598 268.416C75.6053 268.33 75.6309 268.235 75.6347 268.138C75.5982 267.917 75.4792 267.719 75.302 267.584C75.1249 267.449 74.9031 267.387 74.682 267.411Z" fill="#EAE6FF"/>
<path d="M67.4062 276.759H67.8003C68.88 276.795 69.9547 276.596 70.9501 276.174C71.9455 275.752 72.8378 275.117 73.5653 274.314C74.898 272.527 75.487 270.288 75.2077 268.072C75.1903 267.953 75.1269 267.847 75.0314 267.776C74.9359 267.705 74.8162 267.674 74.6986 267.692C74.581 267.709 74.4751 267.773 74.4043 267.869C74.3334 267.965 74.3034 268.086 74.3208 268.204C74.5591 270.166 74.0549 272.147 72.9083 273.753C72.2559 274.451 71.4626 275.001 70.5816 275.365C69.7007 275.73 68.7524 275.901 67.8003 275.867C66.9085 275.978 66.0032 275.888 65.1507 275.602C64.2982 275.316 63.5199 274.842 62.873 274.215C61.6524 272.511 61.1238 270.402 61.3948 268.319C61.4088 268.199 61.3754 268.078 61.3017 267.982C61.228 267.887 61.1199 267.824 61.0007 267.807C60.8835 267.793 60.7654 267.824 60.6706 267.895C60.5758 267.966 60.5117 268.07 60.4915 268.187C60.1664 270.52 60.7553 272.889 62.1339 274.793C62.8193 275.484 63.6455 276.018 64.5557 276.357C65.4659 276.697 66.4383 276.833 67.4062 276.759Z" fill="#EAE6FF"/>
<path d="M70.4939 276.395L65.6487 308.185L109.682 308.086L105.231 276.312L70.4939 276.395Z" fill="#BDC6F9"/>
<path d="M54.2665 330.067C52.4994 330.067 50.7719 330.594 49.3026 331.581C47.8333 332.568 46.6881 333.971 46.0118 335.613C45.3355 337.254 45.1586 339.061 45.5033 340.804C45.8481 342.546 46.6991 344.147 47.9487 345.403C49.1982 346.66 50.7903 347.516 52.5235 347.862C54.2567 348.209 56.0531 348.031 57.6858 347.351C59.3184 346.671 60.7138 345.519 61.6956 344.042C62.6774 342.565 63.2014 340.828 63.2014 339.051C63.1971 336.669 62.2543 334.387 60.5797 332.703C58.905 331.019 56.6349 330.071 54.2665 330.067ZM54.2665 343.279C53.4454 343.275 52.6436 343.027 51.9624 342.566C51.2812 342.105 50.7512 341.452 50.4392 340.688C50.1272 339.924 50.0473 339.085 50.2095 338.275C50.3717 337.466 50.7687 336.723 51.3505 336.14C51.9323 335.557 52.6727 335.161 53.4783 335.001C54.2839 334.841 55.1186 334.925 55.877 335.242C56.6353 335.559 57.2833 336.094 57.7391 336.781C58.195 337.468 58.4383 338.275 58.4384 339.1C58.4341 339.647 58.3227 340.187 58.1107 340.691C57.8988 341.194 57.5903 341.65 57.2029 342.033C56.8155 342.417 56.3568 342.72 55.853 342.925C55.3492 343.13 54.8101 343.233 54.2665 343.229V343.279Z" fill="#8784EF"/>
<path d="M52.7227 330.067C50.9555 330.067 49.228 330.594 47.7587 331.581C46.2893 332.568 45.1441 333.971 44.4679 335.613C43.7916 337.254 43.6146 339.061 43.9594 340.804C44.3042 342.546 45.1552 344.147 46.4047 345.403C47.6543 346.66 49.2464 347.516 50.9796 347.862C52.7128 348.209 54.5092 348.031 56.1419 347.351C57.7745 346.671 59.17 345.519 60.1518 344.042C61.1336 342.565 61.6576 340.828 61.6576 339.051C61.6533 336.669 60.7105 334.387 59.0358 332.703C57.3611 331.019 55.091 330.071 52.7227 330.067ZM52.7227 343.279C51.9008 343.279 51.0974 343.034 50.4141 342.574C49.7307 342.115 49.1981 341.463 48.8836 340.699C48.5691 339.936 48.4868 339.096 48.6471 338.285C48.8074 337.475 49.2032 336.73 49.7844 336.146C50.3655 335.562 51.1059 335.164 51.912 335.002C52.718 334.841 53.5536 334.924 54.3129 335.24C55.0722 335.556 55.7211 336.092 56.1777 336.779C56.6343 337.466 56.8781 338.274 56.8781 339.1C56.8651 340.2 56.4216 341.25 55.6437 342.023C54.8658 342.796 53.8163 343.229 52.7227 343.229V343.279Z" fill="#9AA3F4"/>
<path d="M104.657 330.067C102.889 330.067 101.162 330.594 99.6926 331.581C98.2233 332.568 97.0781 333.971 96.4018 335.613C95.7256 337.254 95.5486 339.061 95.8934 340.804C96.2381 342.546 97.0891 344.147 98.3387 345.403C99.5882 346.66 101.18 347.516 102.913 347.862C104.647 348.209 106.443 348.031 108.076 347.351C109.708 346.671 111.104 345.519 112.086 344.042C113.067 342.565 113.591 340.828 113.591 339.051C113.591 336.668 112.65 334.383 110.974 332.698C109.299 331.013 107.026 330.067 104.657 330.067ZM104.657 343.279C103.835 343.279 103.031 343.034 102.348 342.574C101.665 342.115 101.132 341.463 100.818 340.699C100.503 339.936 100.421 339.096 100.581 338.285C100.741 337.475 101.137 336.73 101.718 336.146C102.299 335.562 103.04 335.164 103.846 335.002C104.652 334.841 105.487 334.924 106.247 335.24C107.006 335.556 107.655 336.092 108.112 336.779C108.568 337.466 108.812 338.274 108.812 339.1C108.799 340.2 108.355 341.25 107.578 342.023C106.8 342.796 105.75 343.229 104.657 343.229V343.279Z" fill="#8784EF"/>
<path d="M103.178 330.067C101.411 330.067 99.6837 330.594 98.2144 331.581C96.745 332.568 95.5998 333.971 94.9235 335.613C94.2473 337.254 94.0703 339.061 94.4151 340.804C94.7598 342.546 95.6109 344.147 96.8604 345.403C98.11 346.66 99.702 347.516 101.435 347.862C103.168 348.209 104.965 348.031 106.598 347.351C108.23 346.671 109.626 345.519 110.607 344.042C111.589 342.565 112.113 340.828 112.113 339.051C112.109 336.669 111.166 334.387 109.492 332.703C107.817 331.019 105.547 330.071 103.178 330.067ZM103.178 343.279C102.357 343.275 101.555 343.027 100.874 342.566C100.193 342.105 99.663 341.452 99.351 340.688C99.039 339.924 98.9591 339.085 99.1212 338.275C99.2834 337.466 99.6805 336.723 100.262 336.14C100.844 335.557 101.584 335.161 102.39 335.001C103.196 334.841 104.03 334.925 104.789 335.242C105.547 335.559 106.195 336.094 106.651 336.781C107.107 337.468 107.35 338.275 107.35 339.1C107.346 339.647 107.235 340.187 107.023 340.691C106.811 341.194 106.502 341.65 106.115 342.033C105.727 342.417 105.269 342.72 104.765 342.925C104.261 343.13 103.722 343.233 103.178 343.229V343.279Z" fill="#9AA3F4"/>
<path d="M172.063 229.263H145.225C143.838 229.268 142.475 229.627 141.263 230.306C140.05 230.984 139.029 231.961 138.294 233.144L122.067 259.319" stroke="#9AA3F4" stroke-width="1.5" stroke-miterlimit="10"/>
<path d="M49.9633 307.459H109.929C111.471 307.446 112.96 306.887 114.134 305.882C115.308 304.877 116.093 303.488 116.351 301.959L122.559 263.034C122.698 262.101 122.636 261.149 122.378 260.242C122.12 259.335 121.671 258.494 121.063 257.776C120.454 257.058 119.7 256.479 118.85 256.078C118.001 255.678 117.076 255.465 116.137 255.454H43.7549C42.8166 255.465 41.8916 255.678 41.042 256.078C40.1924 256.479 39.438 257.058 38.8295 257.776C38.2211 258.494 37.7727 259.335 37.5146 260.242C37.2564 261.149 37.1944 262.101 37.3329 263.034L43.5413 301.959C43.7996 303.488 44.5845 304.877 45.7586 305.882C46.9327 306.887 48.4212 307.446 49.9633 307.459Z" stroke="#9AA3F4" stroke-width="1.5" stroke-miterlimit="10"/>
<path d="M79.9379 255.454V307.459" stroke="#9AA3F4" stroke-width="1.5" stroke-miterlimit="10"/>
<path d="M119.619 281.464H40.2728" stroke="#9AA3F4" stroke-width="1.5" stroke-miterlimit="10"/>
<path d="M103.622 255.454L98.4976 307.459" stroke="#9AA3F4" stroke-width="1.5" stroke-miterlimit="10"/>
<path d="M57.4364 255.454L62.1831 307.459" stroke="#9AA3F4" stroke-width="1.5" stroke-miterlimit="10"/>
<path d="M114.938 305.097L124.645 319.629C125.245 320.526 125.591 321.569 125.645 322.648C125.699 323.727 125.46 324.8 124.954 325.753C124.447 326.705 123.692 327.501 122.77 328.054C121.847 328.608 120.792 328.898 119.718 328.894H40.2728" stroke="#9AA3F4" stroke-width="1.5" stroke-miterlimit="10"/>
<path d="M323.775 311.983H241.505V334.228H323.775V311.983Z" fill="#005C91"/>
<path d="M410.25 112.951H155.901C147.383 112.951 140.478 119.893 140.478 128.458V303.743C140.478 312.307 147.383 319.25 155.901 319.25H410.25C418.767 319.25 425.672 312.307 425.672 303.743V128.458C425.672 119.893 418.767 112.951 410.25 112.951Z" fill="#006EAE"/>
<path d="M407.359 120.481H157.921C152.687 120.481 148.444 124.747 148.444 130.01V289.936C148.444 295.199 152.687 299.465 157.921 299.465H407.359C412.593 299.465 416.836 295.199 416.836 289.936V130.01C416.836 124.747 412.593 120.481 407.359 120.481Z" fill="#9CC0E4"/>
<path d="M218.166 332.329H347.097C350.286 332.329 353.344 333.603 355.599 335.87C357.853 338.137 359.12 341.212 359.12 344.418V346.35H206.143V344.418C206.143 341.212 207.41 338.137 209.664 335.87C211.919 333.603 214.977 332.329 218.166 332.329Z" fill="#006EAE"/>
<g opacity="0.75">
<path d="M392.1 132.834H220.761C216.216 132.834 212.532 136.538 212.532 141.108V251.474C212.532 256.044 216.216 259.748 220.761 259.748H392.1C396.645 259.748 400.329 256.044 400.329 251.474V141.108C400.329 136.538 396.645 132.834 392.1 132.834Z" fill="white"/>
</g>
<g style="mix-blend-mode:multiply" opacity="0.25">
<g style="mix-blend-mode:multiply" opacity="0.25">
<path d="M238.565 225.563H230.385V246.207H238.565V225.563Z" fill="#FCA70C"/>
</g>
<g style="mix-blend-mode:multiply" opacity="0.25">
<path d="M256.993 207.43H248.814V246.206H256.993V207.43Z" fill="#B1AFFD"/>
</g>
<g style="mix-blend-mode:multiply" opacity="0.25">
<path d="M275.438 211.443H267.259V246.206H275.438V211.443Z" fill="#FCA70C"/>
</g>
<g style="mix-blend-mode:multiply" opacity="0.25">
<path d="M293.866 191.808H285.687V246.206H293.866V191.808Z" fill="#B1AFFD"/>
</g>
<g style="mix-blend-mode:multiply" opacity="0.15">
<g style="mix-blend-mode:multiply" opacity="0.26">
<path d="M252.575 207.43H248.814V246.206H252.575V207.43Z" fill="black"/>
</g>
</g>
<g style="mix-blend-mode:multiply" opacity="0.15">
<g style="mix-blend-mode:multiply" opacity="0.26">
<path d="M234.147 225.563H230.385V246.207H234.147V225.563Z" fill="black"/>
</g>
</g>
<g style="mix-blend-mode:multiply" opacity="0.62">
<g style="mix-blend-mode:multiply" opacity="0.26">
<path d="M289.448 191.808H285.687V246.206H289.448V191.808Z" fill="black"/>
</g>
</g>
<g style="mix-blend-mode:multiply" opacity="0.15">
<g style="mix-blend-mode:multiply" opacity="0.26">
<path d="M271.02 211.443H267.259V246.206H271.02V211.443Z" fill="black"/>
</g>
</g>
<g style="mix-blend-mode:multiply" opacity="0.25">
<path d="M298.202 251.888H224.982V173.51H226.099V250.765H298.202V251.888Z" fill="#D5DBDA"/>
</g>
<g style="mix-blend-mode:multiply" opacity="0.25">
<path d="M232.504 215.886L231.765 215.044L250.916 197.753L268.654 201.634L287.854 180.132L288.692 180.892L269.049 202.872L251.228 198.975L232.504 215.886Z" fill="#D5DBDA"/>
</g>
<g style="mix-blend-mode:multiply" opacity="0.25">
<path d="M290.187 184.062L284.783 178.843L291.764 176.961L290.187 184.062Z" fill="#D5DBDA"/>
</g>
<g style="mix-blend-mode:multiply" opacity="0.25">
<path d="M310.75 224.093H305.133V229.741H310.75V224.093Z" fill="#B1AFFD"/>
</g>
<g style="mix-blend-mode:multiply" opacity="0.25">
<path d="M310.75 233.985H305.133V239.633H310.75V233.985Z" fill="#FCA70C"/>
</g>
<g style="mix-blend-mode:multiply" opacity="0.25">
<path d="M330.098 236.43H312.294V239.633H330.098V236.43Z" fill="#EFEFEF"/>
</g>
<g style="mix-blend-mode:multiply" opacity="0.25">
<path d="M330.098 226.538H312.294V229.741H330.098V226.538Z" fill="#EFEFEF"/>
</g>
<g style="mix-blend-mode:multiply" opacity="0.25">
<path d="M343.78 224.093H338.163V229.741H343.78V224.093Z" fill="#B1AFFD"/>
</g>
<g style="mix-blend-mode:multiply" opacity="0.25">
<path d="M343.78 233.985H338.163V239.633H343.78V233.985Z" fill="#FCA70C"/>
</g>
<g style="mix-blend-mode:multiply" opacity="0.25">
<path d="M363.128 236.43H345.324V239.633H363.128V236.43Z" fill="#EFEFEF"/>
</g>
<g style="mix-blend-mode:multiply" opacity="0.25">
<path d="M363.128 226.538H345.324V229.741H363.128V226.538Z" fill="#EFEFEF"/>
</g>
<g style="mix-blend-mode:multiply" opacity="0.25">
<path d="M373.524 224.093H367.907V229.741H373.524V224.093Z" fill="#B1AFFD"/>
</g>
<g style="mix-blend-mode:multiply" opacity="0.25">
<path d="M373.524 233.985H367.907V239.633H373.524V233.985Z" fill="#FCA70C"/>
</g>
<g style="mix-blend-mode:multiply" opacity="0.25">
<path d="M386.795 236.43H375.085V239.633H386.795V236.43Z" fill="#EFEFEF"/>
</g>
<g style="mix-blend-mode:multiply" opacity="0.25">
<path d="M386.795 226.538H375.085V229.741H386.795V226.538Z" fill="#EFEFEF"/>
</g>
<g style="mix-blend-mode:multiply" opacity="0.25">
<path d="M386.795 170.124H306.184V171.594H386.795V170.124Z" fill="#EFEFEF"/>
</g>
<g style="mix-blend-mode:multiply" opacity="0.25">
<path d="M386.795 152.041H224.982V155.409H386.795V152.041Z" fill="#EFEFEF"/>
</g>
<g style="mix-blend-mode:multiply" opacity="0.25">
<path d="M386.795 174.699H305.938V176.168H386.795V174.699Z" fill="#EFEFEF"/>
</g>
<g style="mix-blend-mode:multiply" opacity="0.25">
<path d="M386.795 165.533H305.938V167.002H386.795V165.533Z" fill="#EFEFEF"/>
</g>
<g style="mix-blend-mode:multiply" opacity="0.25">
<path d="M386.795 179.29H305.938V180.759H386.795V179.29Z" fill="#EFEFEF"/>
</g>
<g style="mix-blend-mode:multiply" opacity="0.25">
<path d="M386.795 183.88H305.938V185.35H386.795V183.88Z" fill="#EFEFEF"/>
</g>
<g style="mix-blend-mode:multiply" opacity="0.25">
<path d="M386.795 188.455H305.938V189.924H386.795V188.455Z" fill="#EFEFEF"/>
</g>
<g style="mix-blend-mode:multiply" opacity="0.25">
<path d="M386.795 193.046H305.938V194.516H386.795V193.046Z" fill="#EFEFEF"/>
</g>
<g style="mix-blend-mode:multiply" opacity="0.25">
<path d="M386.795 197.621H305.938V199.09H386.795V197.621Z" fill="#EFEFEF"/>
</g>
<g style="mix-blend-mode:multiply" opacity="0.25">
<path d="M386.795 202.212H305.938V203.682H386.795V202.212Z" fill="#EFEFEF"/>
</g>
<g style="mix-blend-mode:multiply" opacity="0.25">
<path d="M386.795 206.786H315.842V208.256H386.795V206.786Z" fill="#EFEFEF"/>
</g>
<g style="mix-blend-mode:multiply" opacity="0.25">
<path d="M392.101 132.851H220.777C218.599 132.851 216.511 133.721 214.97 135.269C213.43 136.818 212.565 138.918 212.565 141.108V148.341H400.329V141.108C400.329 140.022 400.116 138.947 399.702 137.944C399.289 136.941 398.682 136.03 397.918 135.263C397.154 134.496 396.247 133.888 395.248 133.474C394.25 133.06 393.18 132.848 392.101 132.851Z" fill="#7A7AE5"/>
</g>
<g style="mix-blend-mode:multiply" opacity="0.25">
<path d="M376.185 140.892C376.185 141.366 376.045 141.829 375.784 142.223C375.522 142.616 375.15 142.923 374.715 143.105C374.28 143.286 373.801 143.333 373.339 143.241C372.877 143.148 372.453 142.92 372.12 142.586C371.787 142.251 371.56 141.824 371.468 141.36C371.376 140.895 371.423 140.414 371.603 139.976C371.784 139.539 372.089 139.165 372.481 138.902C372.872 138.638 373.333 138.498 373.804 138.498C374.435 138.498 375.041 138.75 375.488 139.199C375.934 139.648 376.185 140.257 376.185 140.892Z" fill="#CFCFFF"/>
</g>
<g style="mix-blend-mode:multiply" opacity="0.25">
<path d="M383.478 143.254C384.784 143.254 385.843 142.189 385.843 140.876C385.843 139.563 384.784 138.498 383.478 138.498C382.171 138.498 381.113 139.563 381.113 140.876C381.113 142.189 382.171 143.254 383.478 143.254Z" fill="#CFCFFF"/>
</g>
<g style="mix-blend-mode:multiply" opacity="0.25">
<path d="M393.152 143.254C394.458 143.254 395.517 142.189 395.517 140.876C395.517 139.563 394.458 138.498 393.152 138.498C391.845 138.498 390.786 139.563 390.786 140.876C390.786 142.189 391.845 143.254 393.152 143.254Z" fill="#CFCFFF"/>
</g>
</g>
<g style="mix-blend-mode:multiply" opacity="0.55">
<path d="M342.219 160.909H170.88C166.335 160.909 162.651 164.613 162.651 169.182V279.549C162.651 284.118 166.335 287.822 170.88 287.822H342.219C346.764 287.822 350.448 284.118 350.448 279.549V169.182C350.448 164.613 346.764 160.909 342.219 160.909Z" fill="#C4C3FC"/>
</g>
<path d="M346.03 155.971H174.691C170.146 155.971 166.462 159.675 166.462 164.245V274.611C166.462 279.181 170.146 282.885 174.691 282.885H346.03C350.575 282.885 354.259 279.181 354.259 274.611V164.245C354.259 159.675 350.575 155.971 346.03 155.971Z" fill="white"/>
<path d="M192.495 248.683H184.315V269.326H192.495V248.683Z" fill="#FCA70C"/>
<path d="M210.923 230.567H202.743V269.343H210.923V230.567Z" fill="#B1AFFD"/>
<path d="M229.351 234.563H221.172V269.326H229.351V234.563Z" fill="#FCA70C"/>
<path d="M247.795 214.944H239.616V269.343H247.795V214.944Z" fill="#B1AFFD"/>
<g style="mix-blend-mode:multiply" opacity="0.15">
<g style="mix-blend-mode:multiply" opacity="0.26">
<path d="M206.505 230.567H202.743V269.343H206.505V230.567Z" fill="black"/>
</g>
</g>
<g style="mix-blend-mode:multiply" opacity="0.15">
<g style="mix-blend-mode:multiply" opacity="0.26">
<path d="M188.076 248.683H184.315V269.326H188.076V248.683Z" fill="black"/>
</g>
</g>
<g style="mix-blend-mode:multiply" opacity="0.62">
<g style="mix-blend-mode:multiply" opacity="0.26">
<path d="M243.377 214.944H239.616V269.343H243.377V214.944Z" fill="black"/>
</g>
</g>
<g style="mix-blend-mode:multiply" opacity="0.15">
<g style="mix-blend-mode:multiply" opacity="0.26">
<path d="M224.933 234.563H221.172V269.326H224.933V234.563Z" fill="black"/>
</g>
</g>
<path d="M252.115 275.024H178.911V203.632H180.028V273.901H252.115V275.024Z" fill="#D5DBDA"/>
<path d="M186.434 239.023L185.678 238.18L204.829 220.89L222.568 224.77L241.784 203.269L242.622 204.012L222.978 226.009L205.158 222.112L186.434 239.023Z" fill="#D5DBDA"/>
<path d="M244.116 207.198L238.696 201.964L245.693 200.098L244.116 207.198Z" fill="#D5DBDA"/>
<path d="M264.663 247.23H259.046V252.877H264.663V247.23Z" fill="#B1AFFD"/>
<path d="M264.663 257.122H259.046V262.77H264.663V257.122Z" fill="#FCA70C"/>
<path d="M284.028 259.566H266.224V262.77H284.028V259.566Z" fill="#EFEFEF"/>
<path d="M284.028 249.658H266.224V252.861H284.028V249.658Z" fill="#EFEFEF"/>
<path d="M297.709 247.23H292.092V252.877H297.709V247.23Z" fill="#B1AFFD"/>
<path d="M297.709 257.122H292.092V262.77H297.709V257.122Z" fill="#FCA70C"/>
<path d="M317.057 259.566H299.253V262.77H317.057V259.566Z" fill="#EFEFEF"/>
<path d="M317.057 249.658H299.253V252.861H317.057V249.658Z" fill="#EFEFEF"/>
<path d="M327.454 247.23H321.837V252.877H327.454V247.23Z" fill="#B1AFFD"/>
<path d="M327.454 257.122H321.837V262.77H327.454V257.122Z" fill="#FCA70C"/>
<path d="M340.709 259.566H328.998V262.77H340.709V259.566Z" fill="#EFEFEF"/>
<path d="M340.709 249.658H328.998V252.861H340.709V249.658Z" fill="#EFEFEF"/>
<path d="M340.708 193.261H260.097V194.73H340.708V193.261Z" fill="#EFEFEF"/>
<path d="M340.725 175.161H178.911V178.529H340.725V175.161Z" fill="#EFEFEF"/>
<path d="M340.725 197.835H259.868V199.305H340.725V197.835Z" fill="#EFEFEF"/>
<path d="M340.725 188.67H259.868V190.14H340.725V188.67Z" fill="#EFEFEF"/>
<path d="M340.725 202.426H259.868V203.896H340.725V202.426Z" fill="#EFEFEF"/>
<path d="M340.725 207.001H259.868V208.471H340.725V207.001Z" fill="#EFEFEF"/>
<path d="M340.725 211.592H259.868V213.061H340.725V211.592Z" fill="#EFEFEF"/>
<path d="M340.725 216.166H259.868V217.636H340.725V216.166Z" fill="#EFEFEF"/>
<path d="M340.725 220.757H259.868V222.227H340.725V220.757Z" fill="#EFEFEF"/>
<path d="M340.725 225.332H259.868V226.802H340.725V225.332Z" fill="#EFEFEF"/>
<path d="M340.709 229.923H269.755V231.393H340.709V229.923Z" fill="#EFEFEF"/>
<path d="M346.03 155.971H174.69C172.512 155.971 170.424 156.841 168.884 158.389C167.343 159.938 166.478 162.038 166.478 164.228V171.478H354.259V164.228C354.259 163.142 354.046 162.067 353.632 161.064C353.218 160.061 352.612 159.15 351.848 158.383C351.083 157.616 350.176 157.009 349.178 156.595C348.18 156.181 347.11 155.969 346.03 155.971Z" fill="#A4A4F7"/>
<path d="M330.098 164.013C330.098 164.483 329.96 164.943 329.7 165.334C329.44 165.725 329.071 166.03 328.638 166.21C328.206 166.39 327.731 166.437 327.272 166.345C326.813 166.254 326.392 166.027 326.061 165.695C325.73 165.362 325.505 164.938 325.414 164.477C325.322 164.016 325.369 163.538 325.548 163.103C325.727 162.669 326.03 162.297 326.419 162.036C326.808 161.775 327.266 161.635 327.733 161.635C328.361 161.635 328.962 161.886 329.406 162.332C329.849 162.778 330.098 163.382 330.098 164.013Z" fill="#CFCFFF"/>
<path d="M339.772 164.013C339.776 164.488 339.638 164.953 339.378 165.35C339.117 165.746 338.746 166.055 338.31 166.239C337.874 166.422 337.394 166.471 336.93 166.379C336.467 166.287 336.041 166.059 335.707 165.723C335.373 165.387 335.146 164.959 335.054 164.493C334.963 164.027 335.011 163.544 335.194 163.106C335.376 162.668 335.684 162.294 336.078 162.032C336.472 161.77 336.935 161.632 337.407 161.635C337.718 161.635 338.025 161.697 338.312 161.816C338.599 161.936 338.86 162.111 339.08 162.332C339.299 162.553 339.473 162.815 339.592 163.103C339.711 163.392 339.772 163.701 339.772 164.013Z" fill="#CFCFFF"/>
<path d="M349.446 164.013C349.449 164.488 349.312 164.953 349.052 165.35C348.791 165.746 348.42 166.055 347.984 166.239C347.548 166.422 347.068 166.471 346.604 166.379C346.141 166.287 345.715 166.059 345.381 165.723C345.047 165.387 344.82 164.959 344.728 164.493C344.637 164.027 344.685 163.544 344.868 163.106C345.05 162.668 345.358 162.294 345.752 162.032C346.146 161.77 346.609 161.632 347.081 161.635C347.707 161.64 348.306 161.892 348.749 162.337C349.191 162.782 349.442 163.384 349.446 164.013Z" fill="#CFCFFF"/>
<path d="M512.294 235.257H424.243C417.939 235.257 412.828 240.396 412.828 246.735V352.708C412.828 359.047 417.939 364.186 424.243 364.186H512.294C518.599 364.186 523.709 359.047 523.709 352.708V246.735C523.709 240.396 518.599 235.257 512.294 235.257Z" fill="#A2A7F4"/>
<path d="M513.937 248.749H425.984C424.378 248.749 423.077 250.058 423.077 251.672V272.315C423.077 273.93 424.378 275.238 425.984 275.238H513.937C515.542 275.238 516.844 273.93 516.844 272.315V251.672C516.844 250.058 515.542 248.749 513.937 248.749Z" fill="#9090F4"/>
<path d="M444.281 284.619H425.984C424.378 284.619 423.077 285.927 423.077 287.542V298.507C423.077 300.122 424.378 301.43 425.984 301.43H444.281C445.886 301.43 447.188 300.122 447.188 298.507V287.542C447.188 285.927 445.886 284.619 444.281 284.619Z" fill="#9090F4"/>
<path d="M479.117 284.619H460.82C459.215 284.619 457.913 285.927 457.913 287.542V298.507C457.913 300.122 459.215 301.43 460.82 301.43H479.117C480.723 301.43 482.024 300.122 482.024 298.507V287.542C482.024 285.927 480.723 284.619 479.117 284.619Z" fill="#9090F4"/>
<path d="M513.953 284.619H495.656C494.051 284.619 492.749 285.927 492.749 287.542V298.507C492.749 300.122 494.051 301.43 495.656 301.43H513.953C515.559 301.43 516.86 300.122 516.86 298.507V287.542C516.86 285.927 515.559 284.619 513.953 284.619Z" fill="#9090F4"/>
<path d="M444.281 311.636H425.984C424.378 311.636 423.077 312.945 423.077 314.559V325.525C423.077 327.139 424.378 328.448 425.984 328.448H444.281C445.886 328.448 447.188 327.139 447.188 325.525V314.559C447.188 312.945 445.886 311.636 444.281 311.636Z" fill="#9090F4"/>
<path d="M479.117 311.636H460.82C459.215 311.636 457.913 312.945 457.913 314.559V325.525C457.913 327.139 459.215 328.448 460.82 328.448H479.117C480.723 328.448 482.024 327.139 482.024 325.525V314.559C482.024 312.945 480.723 311.636 479.117 311.636Z" fill="#9090F4"/>
<path d="M444.281 338.671H425.984C424.378 338.671 423.077 339.98 423.077 341.594V352.56C423.077 354.174 424.378 355.483 425.984 355.483H444.281C445.886 355.483 447.188 354.174 447.188 352.56V341.594C447.188 339.98 445.886 338.671 444.281 338.671Z" fill="#9090F4"/>
<path d="M479.117 338.671H460.82C459.215 338.671 457.913 339.98 457.913 341.594V352.56C457.913 354.174 459.215 355.483 460.82 355.483H479.117C480.723 355.483 482.024 354.174 482.024 352.56V341.594C482.024 339.98 480.723 338.671 479.117 338.671Z" fill="#9090F4"/>
<path d="M513.953 311.636H495.656C494.051 311.636 492.749 312.945 492.749 314.559V352.543C492.749 354.157 494.051 355.466 495.656 355.466H513.953C515.559 355.466 516.86 354.157 516.86 352.543V314.559C516.86 312.945 515.559 311.636 513.953 311.636Z" fill="#9090F4"/>
<g opacity="0.45">
<path opacity="0.45" d="M421.385 249.955C421.385 249.18 421.691 248.437 422.237 247.888C422.782 247.34 423.521 247.032 424.292 247.032H512.245C513.016 247.032 513.756 247.34 514.301 247.888C514.846 248.437 515.152 249.18 515.152 249.955V270.582C515.152 271.358 514.846 272.104 514.302 272.654C513.757 273.205 513.018 273.517 512.245 273.521H424.292" fill="#E2DEFF"/>
<path opacity="0.45" d="M442.589 282.901H424.293C422.687 282.901 421.385 284.21 421.385 285.824V296.79C421.385 298.405 422.687 299.713 424.293 299.713H442.589C444.195 299.713 445.496 298.405 445.496 296.79V285.824C445.496 284.21 444.195 282.901 442.589 282.901Z" fill="#E2DEFF"/>
<path opacity="0.45" d="M477.409 282.901H459.112C457.507 282.901 456.205 284.21 456.205 285.824V296.79C456.205 298.405 457.507 299.713 459.112 299.713H477.409C479.015 299.713 480.316 298.405 480.316 296.79V285.824C480.316 284.21 479.015 282.901 477.409 282.901Z" fill="#E2DEFF"/>
<path opacity="0.45" d="M512.245 282.901H493.949C492.343 282.901 491.041 284.21 491.041 285.824V296.79C491.041 298.405 492.343 299.713 493.949 299.713H512.245C513.851 299.713 515.152 298.405 515.152 296.79V285.824C515.152 284.21 513.851 282.901 512.245 282.901Z" fill="#E2DEFF"/>
<path opacity="0.45" d="M442.589 309.92H424.293C422.687 309.92 421.385 311.229 421.385 312.843V323.808C421.385 325.423 422.687 326.731 424.293 326.731H442.589C444.195 326.731 445.496 325.423 445.496 323.808V312.843C445.496 311.229 444.195 309.92 442.589 309.92Z" fill="#E2DEFF"/>
<path opacity="0.45" d="M477.409 309.92H459.112C457.507 309.92 456.205 311.229 456.205 312.843V323.808C456.205 325.423 457.507 326.731 459.112 326.731H477.409C479.015 326.731 480.316 325.423 480.316 323.808V312.843C480.316 311.229 479.015 309.92 477.409 309.92Z" fill="#E2DEFF"/>
<path opacity="0.45" d="M442.589 336.954H424.293C422.687 336.954 421.385 338.262 421.385 339.877V350.843C421.385 352.457 422.687 353.766 424.293 353.766H442.589C444.195 353.766 445.496 352.457 445.496 350.843V339.877C445.496 338.262 444.195 336.954 442.589 336.954Z" fill="#E2DEFF"/>
<path opacity="0.45" d="M477.409 336.954H459.112C457.507 336.954 456.205 338.262 456.205 339.877V350.843C456.205 352.457 457.507 353.766 459.112 353.766H477.409C479.015 353.766 480.316 352.457 480.316 350.843V339.877C480.316 338.262 479.015 336.954 477.409 336.954Z" fill="#E2DEFF"/>
</g>
<path d="M512.245 309.919H493.948C492.343 309.919 491.041 311.228 491.041 312.842V350.825C491.041 352.44 492.343 353.748 493.948 353.748H512.245C513.851 353.748 515.152 352.44 515.152 350.825V312.842C515.152 311.228 513.851 309.919 512.245 309.919Z" fill="#F9B253"/>
<path d="M492.799 352.543V314.56C492.799 313.783 493.104 313.038 493.649 312.487C494.194 311.936 494.933 311.624 495.706 311.62H514.003C514.351 311.627 514.695 311.694 515.021 311.818C514.811 311.261 514.438 310.781 513.951 310.442C513.465 310.103 512.887 309.921 512.294 309.919H493.965C493.192 309.919 492.451 310.226 491.903 310.774C491.356 311.322 491.046 312.065 491.041 312.842V350.825C491.043 351.421 491.226 352.002 491.567 352.489C491.908 352.977 492.39 353.347 492.947 353.55C492.832 353.227 492.782 352.885 492.799 352.543Z" fill="#F9C110"/>
<path d="M164.556 293.883L158.775 354.244H215.686L210.184 293.784L164.556 293.883Z" fill="#F9B253"/>
<path d="M174.493 299.416C174.539 298.891 174.789 298.406 175.189 298.066C175.589 297.726 176.106 297.558 176.629 297.599C176.895 297.548 177.169 297.557 177.431 297.624C177.694 297.692 177.938 297.817 178.147 297.99C178.355 298.164 178.524 298.382 178.639 298.628C178.754 298.874 178.814 299.143 178.814 299.416C178.814 299.688 178.754 299.957 178.639 300.204C178.524 300.45 178.355 300.668 178.147 300.841C177.938 301.015 177.694 301.14 177.431 301.207C177.169 301.275 176.895 301.284 176.629 301.232C176.107 301.269 175.592 301.1 175.194 300.761C174.795 300.421 174.544 299.939 174.493 299.416ZM176.629 298.293C176.459 298.251 176.283 298.249 176.113 298.286C175.942 298.323 175.783 298.399 175.646 298.507C175.509 298.615 175.398 298.753 175.322 298.91C175.246 299.068 175.206 299.241 175.206 299.416C175.206 299.591 175.246 299.764 175.322 299.921C175.398 300.079 175.509 300.217 175.646 300.325C175.783 300.433 175.942 300.509 176.113 300.546C176.283 300.583 176.459 300.58 176.629 300.539C177.433 300.539 178.074 300.027 178.074 299.416C178.025 299.077 177.847 298.77 177.577 298.561C177.307 298.351 176.967 298.255 176.629 298.293Z" fill="#5851BC"/>
<path d="M195.697 299.366C195.7 299.146 195.747 298.929 195.834 298.728C195.922 298.527 196.048 298.345 196.206 298.193C196.424 297.981 196.681 297.815 196.963 297.704C197.245 297.594 197.546 297.541 197.849 297.549C198.366 297.513 198.876 297.68 199.272 298.016C199.668 298.353 199.918 298.831 199.968 299.349C199.97 299.604 199.913 299.856 199.802 300.086C199.69 300.315 199.528 300.515 199.327 300.67C198.901 300.995 198.383 301.174 197.849 301.182C197.326 301.219 196.809 301.051 196.408 300.712C196.006 300.373 195.751 299.89 195.697 299.366ZM197.832 298.243C197.414 298.236 197.009 298.389 196.699 298.672C196.604 298.761 196.527 298.868 196.473 298.987C196.419 299.106 196.39 299.235 196.387 299.366C196.444 299.705 196.626 300.009 196.898 300.217C197.169 300.426 197.509 300.523 197.849 300.489C198.225 300.49 198.59 300.362 198.884 300.125C199.007 300.037 199.108 299.92 199.179 299.786C199.25 299.651 199.29 299.502 199.294 299.349C199.238 299.015 199.057 298.715 198.789 298.51C198.52 298.304 198.184 298.209 197.849 298.243H197.832Z" fill="#5851BC"/>
<path d="M186.598 312.611H187.206C188.86 312.663 190.506 312.354 192.031 311.707C193.556 311.06 194.924 310.09 196.042 308.862C198.061 306.108 198.949 302.678 198.522 299.284C198.512 299.193 198.484 299.105 198.439 299.025C198.395 298.946 198.334 298.876 198.262 298.821C198.19 298.765 198.108 298.725 198.02 298.702C197.932 298.68 197.84 298.675 197.75 298.689C197.568 298.718 197.405 298.817 197.294 298.965C197.184 299.113 197.135 299.298 197.159 299.482C197.526 302.485 196.751 305.517 194.991 307.97C194.001 309.058 192.787 309.917 191.434 310.487C190.082 311.057 188.622 311.326 187.156 311.273C185.779 311.43 184.385 311.272 183.077 310.812C181.769 310.352 180.581 309.6 179.601 308.614C176.563 305.212 177.302 299.63 177.318 299.564C177.327 299.39 177.27 299.219 177.16 299.085C177.049 298.951 176.892 298.864 176.72 298.841C176.548 298.819 176.374 298.861 176.232 298.962C176.091 299.062 175.992 299.212 175.955 299.383C175.955 299.63 175.101 305.658 178.567 309.539C179.605 310.604 180.861 311.431 182.247 311.961C183.634 312.491 185.118 312.713 186.598 312.611Z" fill="#5851BC"/>
<path d="M108.598 157.854C110.799 161.685 108.894 166.904 111.128 170.719C112.015 172.238 113.526 173.444 113.953 175.161C114.139 175.889 114.109 176.656 113.868 177.368C113.627 178.079 113.185 178.705 112.596 179.168C112.007 179.63 111.296 179.91 110.551 179.973C109.806 180.036 109.059 179.879 108.401 179.521C108.13 179.352 107.845 179.208 107.547 179.092C106.447 178.778 105.461 179.752 104.509 180.396C103.944 180.817 103.29 181.102 102.598 181.228C101.905 181.354 101.194 181.318 100.518 181.123C99.7045 180.742 98.9871 180.182 98.4184 179.485C97.8498 178.787 97.4446 177.97 97.2328 177.093C95.5903 172.288 96.7728 167.036 98.2346 162.23C98.9737 159.819 100.058 157.127 102.423 156.252" fill="#005C91"/>
<path d="M159.777 198.578C159.777 199.107 160.615 199.569 160.073 200.692C158.874 203.186 155.145 206.654 150.694 205.052C150.497 205.052 126.058 219.32 124.185 219.32C122.313 219.32 109.485 207.133 105.297 192.038C104.295 188.438 104.673 184.194 108.04 182.377C109.045 182.72 109.971 183.262 110.764 183.971C111.556 184.681 112.2 185.543 112.655 186.506C115.431 191.774 123.742 209.23 125.581 209.891C127.881 208.355 139.066 204.936 148.132 201.138C149.637 200.642 150.896 199.584 151.647 198.182C152.66 196.071 153.922 194.092 155.408 192.286C155.884 191.791 161.255 188.901 161.255 189.842C161.255 190.387 159.613 191.84 157.625 193.145C156.804 193.749 156.195 194.599 155.884 195.573C155.539 196.266 159.728 194.995 160.073 196.464C160.138 196.679 159.744 198.297 159.777 198.578Z" fill="#FFE1BD"/>
<path d="M107.055 181.932C108.607 182.292 110.062 182.986 111.321 183.967C112.58 184.948 113.613 186.191 114.347 187.613C114.721 188.359 115.056 189.126 115.349 189.908C116.646 193.211 118.437 196.25 119.734 199.586C117.987 200.819 116.051 201.757 114.002 202.36C112.294 203.003 110.464 203.251 108.648 203.087C108.338 203.072 108.032 203.005 107.744 202.888C107.382 202.684 107.064 202.409 106.808 202.079C106.25 201.435 105.708 200.775 105.166 200.114C104.681 199.567 104.312 198.926 104.082 198.231C103.909 197.252 103.994 196.245 104.328 195.308" fill="#1A82E7"/>
<g style="mix-blend-mode:multiply" opacity="0.35">
<g style="mix-blend-mode:multiply" opacity="0.35">
<path d="M110.257 191.014C110.143 190.864 109.997 190.74 109.83 190.651C109.662 190.612 109.486 190.63 109.329 190.701C109.171 190.773 109.042 190.895 108.96 191.047C108.81 191.366 108.748 191.72 108.779 192.071C108.797 193.427 109.007 194.773 109.403 196.068L108.976 203.088C110.679 203.189 112.385 202.936 113.986 202.345C114.741 202.064 115.546 201.767 116.367 201.436C115.546 197.489 112.869 194.185 110.257 191.014Z" fill="#7762EF"/>
</g>
</g>
<path d="M99.4336 174.962C99.4336 174.962 99.3351 179.355 100.009 179.636C100.921 180.015 101.867 180.308 102.833 180.511V189.611L90.7616 187.778L82.4673 183.137C82.4673 183.137 91.0901 180.264 91.1722 179.405C91.2543 178.546 90.6959 173.674 90.6959 173.674" fill="#FFE1BD"/>
<path d="M80.8904 306.583C77.6055 322.321 79.248 343.922 78.4268 355.78L82.9106 356.358C82.9106 356.358 93.1102 306.451 94.9662 296.905C95.0881 296.295 95.1704 295.677 95.2125 295.056C95.656 287.855 89.2012 287.492 85.5714 293.404C84.9426 294.428 84.3935 295.499 83.929 296.608C83.7154 297.087 83.5184 297.549 83.3213 298.061C82.6833 299.681 82.1349 301.335 81.6788 303.016V303.197C81.531 303.709 81.416 304.221 81.2846 304.733V304.849C81.1204 305.509 81.0054 306.038 80.8904 306.583Z" fill="#FFE1BD"/>
<path d="M100.255 250.12C100.14 251.425 99.4337 257.617 98.6125 264.983C97.9062 271.126 97.1343 278.062 96.5266 283.545C96.0831 287.657 95.7546 290.927 95.6068 292.48C95.5507 293.373 95.43 294.262 95.2455 295.138C93.7016 302.322 88.7578 302.735 85.7522 301.067C85.3473 300.851 84.9672 300.591 84.6189 300.291C83.971 299.748 83.5204 299.005 83.3378 298.177C83.1407 296.691 82.96 294.676 82.7793 292.281V292.166C82.418 287.492 82.1059 281.497 81.8431 275.651C81.5146 268.467 81.3011 261.531 81.2518 257.634C81.2518 257.403 81.2518 257.205 81.2518 256.99C81.2518 245.017 92.1413 237.338 98.941 241.053L99.1873 241.186L99.4337 241.334C100.222 241.863 100.468 243.646 100.485 245.694C100.419 247.131 100.255 248.766 100.255 250.12Z" fill="#FFE1BD"/>
<path d="M83.5676 295.303L82.7299 292.166C82.7847 295.842 82.4378 299.514 81.6953 303.115V303.297C81.5803 303.792 81.4653 304.321 81.301 304.832V304.948C81.1335 305.487 81.0126 306.04 80.9397 306.6C80.9397 308.02 83.9454 301.645 84.6352 300.225L84.7666 299.928L83.9618 296.625L83.5676 295.303Z" fill="#FFB9B0"/>
<path d="M107.137 309.589C106.825 326.103 111.883 345.425 113.23 357.481C113.395 357.481 117.353 356.952 117.353 356.952C117.353 356.952 118.108 306.484 118.174 296.509C118.178 295.875 118.145 295.241 118.076 294.61C117.254 287.344 111.391 288.583 109.124 295.403C108.733 296.588 108.415 297.796 108.172 299.02C108.073 299.532 107.974 300.06 107.892 300.671C107.613 302.323 107.416 304.172 107.285 306.071V306.27C107.285 306.798 107.285 307.343 107.186 307.921V308.053C107.164 308.505 107.148 309.016 107.137 309.589Z" fill="#FFE1BD"/>
<path d="M110.553 302.867C110.149 302.756 109.762 302.589 109.403 302.372C108.7 301.983 108.162 301.349 107.892 300.588C107.465 299.185 106.956 297.203 106.381 294.858V294.759C105.264 290.217 103.967 284.322 102.735 278.591C101.24 271.523 99.877 264.686 99.1708 260.805L98.4645 257.502C96.3622 245.48 105.708 237.685 112.491 239.931L112.754 240.013C114.117 240.575 114.495 245.397 114.807 248.65C115.119 251.904 117.418 285.692 117.993 291.803C118.078 292.714 118.117 293.629 118.108 294.544C117.911 302.124 113.542 303.776 110.553 302.867Z" fill="#FFE1BD"/>
<path d="M107.646 297.699L106.365 294.792C107.032 298.469 107.334 302.203 107.268 305.939V306.138C107.268 306.649 107.268 307.211 107.17 307.789V307.921C107.128 308.471 107.128 309.023 107.17 309.573C107.399 310.993 109.042 303.958 109.42 302.323C109.42 302.108 109.502 301.992 109.502 301.992L108.204 298.921L107.646 297.699Z" fill="#FFB9B0"/>
<path d="M86.8525 227C86.8525 227 78.0655 238.23 78.9689 249.493C79.3302 254.183 79.9215 258.328 80.447 263.051C80.5292 263.728 81.5803 273.637 81.2847 273.653C81.2847 273.653 99.3515 279.268 116.86 271.903C116.86 270.714 118.256 247.626 108.812 225.662C101.534 226.641 94.1949 227.088 86.8525 227Z" fill="#594A5F"/>
<path d="M114.347 201.105C114.347 204.308 112.59 206.274 110.142 208.982C109.431 213.083 108.986 217.226 108.812 221.384C108.681 223.862 109.732 225.43 108.812 225.629C105.314 228.717 92.6505 231.21 86.8526 226.999C87.4603 221.814 85.2102 210.402 83.5678 204.606C83.3378 203.714 83.1243 202.954 82.9272 202.376C81.4819 197.967 78.854 183.831 80.792 183.22L82.4345 182.724C85.473 181.799 89.9569 180.23 89.9569 180.23C89.9569 180.23 92.5848 188.042 99.4173 188.983C103.162 187.447 102.834 182.691 102.784 180.511C104 180.858 104.542 181.188 108.319 182.328C109.387 183.864 108.467 187.067 110.175 191.84C110.652 193.029 114.429 197.191 114.347 201.105Z" fill="#1A82E7"/>
<path d="M108.155 156.995C108.155 156.995 108.845 165.5 107.4 169.959C106.616 171.762 105.348 173.309 103.738 174.427C102.127 175.544 100.238 176.187 98.2841 176.284C88.1995 176.284 86.3929 162.511 86.4421 161.834C86.4914 161.157 101.323 155.393 101.323 155.393L108.155 156.995Z" fill="#FFE1BD"/>
<path d="M127.372 362.203C123.775 362.847 119.948 361.824 118.371 362.104C117.074 362.335 113.723 363.178 112.475 362.104C111.226 361.031 111.424 356.985 112.869 356.457C113.175 356.553 113.488 356.625 113.805 356.672C115.225 356.881 116.675 356.763 118.043 356.325C119.911 357.352 121.912 358.113 123.988 358.587C125.347 358.846 126.674 359.25 127.946 359.792C129.293 360.354 129.392 361.824 127.372 362.203Z" fill="#594A5F"/>
<path d="M88.5935 363.787C84.9966 363.176 82.7136 361.179 81.1532 360.898C79.8557 360.667 76.5708 360.023 76.2259 358.669C75.9795 357.678 76.965 353.501 78.4925 353.501C78.7464 353.698 79.0155 353.875 79.2973 354.029C80.5765 354.691 81.9826 355.069 83.4198 355.136C84.8252 356.741 86.4512 358.136 88.2486 359.28C89.4234 359.993 90.5238 360.822 91.5335 361.756C92.634 362.797 90.6302 364.134 88.5935 363.787Z" fill="#594A5F"/>
<path d="M36.1996 195.044L39.4845 191.08L59.6537 209.247C59.6537 209.247 69.5084 196.035 72.202 191.956C75.1748 187.431 77.8684 183.566 82.2209 182.807C83.2227 183.434 81.876 199.685 81.3668 200.064C75.2733 204.639 63.4313 219.403 59.6701 220.179C55.2848 221.021 36.1996 195.044 36.1996 195.044Z" fill="#FFE1BD"/>
<path d="M83.6826 182.064C83.6826 182.064 79.5601 182.064 77.7863 183.583C76.0124 185.103 67.5538 198.446 67.5538 198.446C67.5532 199.346 67.7536 200.235 68.1402 201.047C68.5268 201.859 69.0898 202.573 69.7876 203.136C71.5405 204.56 73.648 205.474 75.881 205.779C75.881 205.779 80.1185 201.535 82.4508 199.602C83.9454 198.397 84.0932 201.369 84.0932 201.369L91.5828 194.02L83.6826 182.064Z" fill="#1A82E7"/>
<path d="M81.1862 182.213L80.5292 181.849C79.3313 181.279 78.3718 180.302 77.8192 179.091C76.9994 176.966 76.9994 174.61 77.8192 172.485C78.6539 171.347 79.5824 170.28 80.5949 169.298C81.6796 167.654 82.2514 165.722 82.2373 163.749C82.212 161.793 82.3438 159.838 82.6315 157.903C83.3213 154.6 84.274 151.512 86.7705 149.398C90.7781 146.012 98.8424 144.014 103.195 147.747C103.983 148.44 104.147 148.985 105.215 149.084C106.511 149.141 107.774 149.515 108.894 150.174C110.34 151 112.081 152.189 111.867 154.072C111.485 155.703 110.513 157.133 109.141 158.085C108.657 158.329 108.122 158.454 107.58 158.448C105.938 158.448 104.46 157.358 102.784 157.54C102.374 157.587 101.978 157.714 101.617 157.915C101.256 158.117 100.939 158.387 100.682 158.712C100.074 159.455 100.156 160.512 99.4501 161.206C98.3169 162.329 96.5594 162.23 95.2291 162.973C94.991 163.066 94.7894 163.234 94.6542 163.452C94.54 163.67 94.4888 163.916 94.5064 164.162L94.4243 166.292C93.7509 165.995 93.6852 165.054 93.1432 164.641C92.8572 164.439 92.5113 164.34 92.1622 164.361C91.8131 164.382 91.4814 164.521 91.2215 164.757C90.7199 165.256 90.3916 165.905 90.2853 166.606C90.2077 167.472 90.3372 168.344 90.6631 169.149C91.1065 170.603 92.3055 171.907 93.3403 170.95C94.0629 172.023 93.3403 173.807 93.2417 175.012C93.2417 175.97 93.2417 177.869 94.1286 178.497C95.0155 179.124 96.2474 178.629 96.2966 180.148C96.2085 180.799 95.9012 181.4 95.426 181.851C94.9509 182.301 94.3365 182.575 93.6852 182.625C92.3221 182.664 90.9652 182.428 89.694 181.932C88.422 181.424 87.0185 181.354 85.7029 181.734C84.9952 182.147 84.2465 182.484 83.4692 182.741C82.6701 182.84 81.862 182.652 81.1862 182.213Z" fill="#005C91"/>
<path d="M44.5598 195.688C44.5598 195.688 39.8132 191.873 39.4847 190.882C39.1562 189.891 39.0905 188.719 38.7127 187.695C38.4137 186.951 37.9688 186.275 37.4044 185.708C36.84 185.14 36.1678 184.693 35.4278 184.392C34.2453 183.913 34.8201 183.5 33.5555 183.748C31.6338 184.128 30.7305 186.011 29.9585 187.497C26.6736 193.805 35.6413 194.994 35.9698 195.011C36.6104 195.011 39.9445 198.842 39.9445 198.842" fill="#FFE1BD"/>
<path d="M29.63 192.65L32.9149 194.83C33.0168 194.896 33.1308 194.941 33.2502 194.961C33.3696 194.982 33.4919 194.978 33.6099 194.951C33.7279 194.923 33.8392 194.872 33.937 194.8C34.0349 194.728 34.1174 194.637 34.1796 194.532L41.3077 182.526L37.0703 180.131L29.4165 191.395C29.2813 191.59 29.228 191.831 29.2679 192.066C29.3079 192.301 29.4379 192.511 29.63 192.65Z" fill="#005C91"/>
<path d="M17.9849 167.151L19.1017 167.928L23.6184 161.321L22.5016 160.545C21.6435 160.048 20.6257 159.91 19.6673 160.16C18.7089 160.411 17.8866 161.029 17.3772 161.883C16.7669 162.664 16.4883 163.656 16.6021 164.643C16.7159 165.63 17.213 166.531 17.9849 167.151Z" fill="#1A82E7"/>
<path d="M13.8624 175.227L34.6393 178.398L39.3695 171.445L28.8907 153.18L13.8624 175.227Z" fill="#1A82E7"/>
<path d="M15.1765 175.508L34.6395 178.398L36.5283 175.623L20.1531 168.225L15.1765 175.508Z" fill="#1A82E7"/>
<path d="M43.1799 183.451C43.7821 183.801 44.4973 183.899 45.1706 183.723C45.8439 183.546 46.421 183.111 46.7769 182.509L47.6145 181.287C48.0393 180.738 48.2326 180.042 48.1527 179.35C48.0729 178.659 47.7263 178.026 47.1875 177.589C46.5853 177.238 45.8701 177.14 45.1968 177.317C44.5235 177.493 43.9464 177.929 43.5905 178.53L42.7529 179.752C42.3239 180.3 42.1281 180.997 42.2081 181.69C42.2881 182.383 42.6375 183.016 43.1799 183.451Z" fill="#1A82E7"/>
<path d="M43.5907 178.53L42.753 179.752C42.5106 180.013 42.3272 180.323 42.2153 180.662C42.1035 181.001 42.0659 181.361 42.1052 181.716C42.1444 182.071 42.2596 182.413 42.4427 182.719C42.6258 183.025 42.8726 183.288 43.1661 183.489C43.4597 183.69 43.793 183.825 44.1433 183.884C44.4936 183.944 44.8525 183.927 45.1955 183.834C45.5385 183.741 45.8574 183.574 46.1304 183.345C46.4033 183.117 46.6239 182.832 46.777 182.509L47.6147 181.287C47.6808 181.192 47.7411 181.093 47.7953 180.99C47.4095 181.498 46.852 181.845 46.2284 181.967C45.6048 182.088 44.9585 181.976 44.4119 181.651C43.9061 181.263 43.5632 180.698 43.4507 180.069C43.3382 179.439 43.4644 178.79 43.8042 178.249C43.724 178.335 43.6525 178.429 43.5907 178.53Z" fill="#1A82E7"/>
<path d="M13.2054 175.904C13.5566 176.109 13.9743 176.168 14.3679 176.066C14.7615 175.964 15.0992 175.71 15.3077 175.359L29.6299 154.551C29.755 154.39 29.8475 154.206 29.902 154.01C29.9565 153.814 29.9721 153.608 29.9477 153.406C29.9233 153.203 29.8594 153.008 29.7598 152.83C29.6602 152.653 29.5267 152.496 29.3671 152.371C29.0159 152.165 28.5981 152.107 28.2046 152.209C27.811 152.311 27.4733 152.565 27.2647 152.916L13.0083 173.806C12.769 174.115 12.6562 174.505 12.6928 174.894C12.7294 175.284 12.9128 175.645 13.2054 175.904Z" fill="#006EAE"/>
<path d="M29.6299 152.701L17.7715 170.091C17.549 170.43 17.2098 170.675 16.8189 170.779C16.428 170.882 16.0128 170.837 15.6528 170.652C15.5116 170.541 15.3896 170.407 15.2915 170.256L12.91 173.741C12.7815 173.895 12.6865 174.075 12.631 174.269C12.5755 174.463 12.5608 174.666 12.5876 174.866C12.6145 175.066 12.6824 175.258 12.7871 175.43C12.8917 175.602 13.0308 175.75 13.1955 175.865C13.3602 175.98 13.5469 176.059 13.7438 176.098C13.9406 176.136 14.1433 176.133 14.3389 176.089C14.5345 176.044 14.7187 175.959 14.8798 175.839C15.041 175.719 15.1756 175.567 15.2751 175.392L29.6299 154.55C29.8135 154.277 29.9116 153.955 29.9116 153.626C29.9116 153.296 29.8135 152.974 29.6299 152.701Z" fill="#006EAE"/>
<path d="M36.4625 182.046L37.8093 182.971C38.8815 183.597 40.1551 183.774 41.3561 183.465C42.5572 183.157 43.5896 182.386 44.2313 181.32L45.5617 179.355C45.9441 178.871 46.2274 178.315 46.3956 177.721C46.5638 177.127 46.6135 176.504 46.5417 175.891C46.47 175.277 46.2783 174.683 45.9776 174.144C45.6769 173.605 45.2733 173.131 44.7898 172.749L43.4429 171.825C42.3733 171.2 41.1022 171.023 39.9038 171.332C38.7055 171.641 37.676 172.411 37.0374 173.476L35.6905 175.441C34.9268 176.422 34.5794 177.666 34.724 178.903C34.8686 180.141 35.4934 181.27 36.4625 182.046Z" fill="#006EAE"/>
<path d="M35.7727 175.342L33.7689 178.281C33.5283 178.591 33.4192 178.983 33.4653 179.373C33.5115 179.763 33.7092 180.119 34.0153 180.362L40.273 184.656C40.6108 184.855 41.013 184.911 41.3917 184.812C41.7704 184.713 42.0946 184.467 42.2932 184.128L44.297 181.188C44.0984 181.527 43.7742 181.773 43.3955 181.872C43.0168 181.971 42.6145 181.915 42.2768 181.717L36.0191 177.439C35.8652 177.318 35.7366 177.168 35.6408 176.997C35.545 176.826 35.4839 176.637 35.461 176.442C35.438 176.247 35.4538 176.049 35.5073 175.861C35.5608 175.672 35.651 175.495 35.7727 175.342Z" fill="#006EAE"/>
<path d="M30.2703 189.626C30.1268 188.765 30.1544 187.884 30.3518 187.034C30.5491 186.184 30.9122 185.381 31.42 184.673C31.7741 184.224 32.1641 183.804 32.5861 183.418C32.7756 183.199 33.0192 183.034 33.2924 182.939C33.8208 182.876 34.3548 182.998 34.8034 183.286C35.3408 183.561 35.7778 184.001 36.0517 184.541C36.1651 184.927 36.1342 185.342 35.9648 185.706C35.7954 186.071 35.4992 186.361 35.1319 186.522C35.0614 186.566 35.0045 186.629 34.9677 186.704C34.9677 186.819 34.9677 186.951 35.0827 187.084C35.4135 187.568 35.5804 188.147 35.5589 188.735C35.545 188.864 35.505 188.989 35.4414 189.102C35.3778 189.216 35.2919 189.315 35.1889 189.393C35.0859 189.472 34.9681 189.529 34.8425 189.561C34.7169 189.592 34.5863 189.598 34.4585 189.577C34.2122 189.577 33.8837 189.428 33.8016 189.577C33.7848 189.647 33.7848 189.721 33.8016 189.791C33.8464 190.032 33.8372 190.28 33.7747 190.517C33.7121 190.754 33.5979 190.975 33.4402 191.162C33.3607 191.26 33.251 191.33 33.1282 191.36C33.0247 191.376 32.9195 191.376 32.8161 191.36C32.4256 191.24 32.0506 191.074 31.6992 190.864" fill="#FFE1BD"/>
<path d="M39.4845 191.079C39.3093 190.234 39.1831 189.38 39.1067 188.52C39.0807 187.556 38.8164 186.613 38.3375 185.777C37.8587 184.941 37.1804 184.238 36.3638 183.732C36.2375 183.634 36.0794 183.587 35.9204 183.6C35.8228 183.624 35.7353 183.678 35.6704 183.755C35.6055 183.833 35.5665 183.928 35.559 184.029C35.5375 184.231 35.5657 184.435 35.6412 184.623C35.8383 185.234 36.6923 186.374 36.4296 186.985C35.9905 187.914 35.7552 188.928 35.7397 189.957C35.7397 190.865 36.1996 192.334 37.2672 192.483" fill="#FFE1BD"/>
<path d="M15.3571 143.073L19.5453 152.998" stroke="#C4C4F7" stroke-width="0.75" stroke-linecap="round" stroke-linejoin="round"/>
<path d="M6.63562 151.892L15.2092 158.348" stroke="#C4C4F7" stroke-width="0.75" stroke-linecap="round" stroke-linejoin="round"/>
<path d="M1.11707 163.898L11.7601 164.955" stroke="#C4C4F7" stroke-width="0.75" stroke-linecap="round" stroke-linejoin="round"/>
<path d="M342.449 59.6253C342.449 59.6253 338.623 56.9004 338.491 55.7609C337.59 53.3943 336.357 51.1698 334.829 49.1551C332.894 47.9301 330.767 47.0424 328.538 46.5293C327.585 46.3972 322.083 46.8596 322.773 47.6192C323.463 48.3789 327.011 48.0982 327.7 48.511L328.39 48.9239C328.39 48.9239 327.7 49.8487 327.98 50.4102C328.259 50.9717 326.813 51.847 327.355 52.8048C327.897 53.7626 327.125 53.6966 327.618 54.7039C328.423 56.3554 330.493 57.2802 331.051 56.8343C331.462 57.8087 333.022 59.8235 334.5 59.6748C335.978 59.5262 339.542 62.9777 339.542 62.9777" fill="#FFE1BD"/>
<path d="M400.822 40.3032C400.953 42.8795 400.822 47.3879 401.495 48.0485C402.169 48.7091 404.616 48.61 404.616 48.61C404.616 48.61 396.125 59.4105 395.353 58.8159C394.581 58.2214 384.562 49.9972 386.812 49.5678C389.062 49.1384 391.279 49.2376 391.214 48.065L391.017 44.5309" fill="#FFE1BD"/>
<path d="M410.479 97.9558C410.479 97.9558 393.924 99.855 390.097 99.921C386.27 99.9871 386.483 98.0053 386.483 98.0053C386.271 92.1324 385.722 86.2766 384.841 80.4669C384.102 77.3126 383.773 76.1566 383.198 73.1675C381.77 66.5617 381.835 65.2405 380.324 57.0328L390.179 49.0397C390.616 50.0327 391.348 50.8656 392.274 51.4243C393.2 51.983 394.275 52.2403 395.352 52.161C396.804 52.2959 398.263 52.0061 399.554 51.3263C400.844 50.6465 401.912 49.6058 402.628 48.3296L416.129 57.33L417.246 79.2448L415.604 97.2952" fill="#F9B253"/>
<path d="M400.986 37.9579C400.687 39.2609 400.298 40.5412 399.82 41.7892C399.548 42.771 398.942 43.6258 398.108 44.2051C397.273 44.7843 396.264 45.0514 395.254 44.9599L390.179 45.0755C388.801 45.2894 387.394 44.9899 386.221 44.2333C385.378 43.1866 384.92 41.8804 384.923 40.5341C384.627 38.8827 384.381 37.2313 384.2 35.679C383.839 32.4944 383.691 29.2889 383.757 26.0843C383.746 25.6465 383.785 25.2088 383.872 24.7797C383.888 24.6006 383.963 24.4322 384.085 24.3008C384.257 24.1552 384.469 24.0684 384.693 24.0531C387.865 23.5528 391.076 23.3482 394.285 23.4421C396.555 23.3045 398.811 23.8817 400.74 25.0935C402.41 26.677 403.6 28.7039 404.172 30.9394C404.304 31.2862 404.386 31.7486 404.172 31.9633" fill="#FFE1BD"/>
<path d="M363.834 157.374C364.066 158.875 364.395 160.359 364.82 161.816C365.247 162.956 368.959 161.915 369.188 161.172C368.992 159.105 368.607 157.059 368.039 155.062" fill="#ED9C80"/>
<path d="M370.486 162.114C370.798 163.336 371.209 165.681 371.209 165.681L367.513 167.333L366.905 166.755C366.333 167.433 365.636 167.994 364.852 168.406C363.702 168.879 362.5 169.211 361.272 169.397C357.987 169.744 355.688 169.133 355.49 168.687C354.686 166.804 358.972 166.309 359.81 166.078C360.786 165.822 361.677 165.309 362.39 164.592C363.103 163.875 363.613 162.98 363.867 161.998C364.064 161.007 363.867 160.842 364.36 160.875C364.534 160.879 364.706 160.919 364.864 160.993C365.022 161.067 365.164 161.173 365.279 161.305C365.599 161.67 366.024 161.925 366.496 162.035C366.967 162.144 367.461 162.103 367.907 161.916C368.449 161.702 368.909 161.32 369.221 160.826C369.534 160.893 369.82 161.051 370.045 161.28C370.269 161.509 370.423 161.799 370.486 162.114Z" fill="#594A5F"/>
<path d="M380.16 114.074C373.928 115.18 367.565 115.33 361.288 114.52C362.11 116.865 364.113 119.887 364.869 123.206C367.398 134.139 368.269 148.837 368.909 157.887C368.909 157.887 367.694 160.215 363.818 158.448C358.036 144.081 347.935 114.966 348.034 108.641C348.149 100.598 368.104 98.7319 382.739 96.6841" fill="#594A5F"/>
<path d="M405.651 97.9718C410.25 101.275 380.16 114.074 380.16 114.074C376.915 114.719 373.613 115.035 370.305 115.015C369.973 114.427 369.73 113.792 369.583 113.132C369.402 112.257 369.484 111.349 369.336 110.457C369.149 109.605 368.785 108.802 368.267 108.102C367.748 107.401 367.089 106.819 366.331 106.394C364.814 105.52 363.139 104.958 361.403 104.743C357.687 104.359 353.945 104.293 350.218 104.545C359.268 97.8396 377.778 96.9643 386.352 96.4028C388.044 99.1938 404.994 97.4928 405.651 97.9718Z" fill="#2F3349"/>
<path d="M373.377 165.021C373.349 166.543 373.415 168.065 373.574 169.579C373.804 170.768 377.63 170.388 377.992 169.711C378.159 167.632 378.132 165.542 377.91 163.469" fill="#ED9C80"/>
<path d="M379.109 170.85C379.207 172.105 379.207 174.483 379.207 174.483L375.282 175.441L374.789 174.764C374.109 175.328 373.329 175.76 372.49 176.035C371.276 176.298 370.035 176.415 368.794 176.382C365.509 176.167 363.325 175.16 363.21 174.731C362.75 172.733 367.053 172.98 367.924 172.914C368.927 172.83 369.89 172.48 370.715 171.9C371.541 171.32 372.198 170.53 372.621 169.612C372.982 168.67 372.769 168.472 373.294 168.588C373.641 168.667 373.942 168.881 374.132 169.182C374.388 169.593 374.763 169.915 375.206 170.104C375.65 170.293 376.141 170.34 376.612 170.239C377.181 170.123 377.699 169.828 378.09 169.397C378.38 169.516 378.63 169.716 378.811 169.974C378.991 170.231 379.095 170.535 379.109 170.85Z" fill="#594A5F"/>
<path d="M415.686 97.2949C408.909 97.8915 402.104 98.112 395.303 97.9555C392.692 97.9555 372.999 101.671 371.11 105.024C368.022 110.54 373.13 142.809 372.752 165.913C372.752 165.913 375.101 167.894 379.322 166.028C380.357 154.683 387.025 127.913 382.426 115.411C393.283 116.865 402.037 118.301 411.908 115.015C413.134 114.601 414.239 113.89 415.127 112.946C416.015 112.001 416.658 110.852 417 109.598C417.94 105.465 417.478 101.134 415.686 97.2949Z" fill="#594A5F"/>
<path d="M390.097 49.04L387.272 49.2052C385.281 49.3138 383.315 49.6915 381.425 50.3282C378.747 51.319 376.842 53.8292 374.658 55.7944C372.473 57.7597 361.65 68.1307 359.629 68.5106C357.609 68.8904 339.739 56.6037 339.739 56.6037L335.387 60.98C335.387 60.98 354.751 78.9807 360.533 79.0137C363.325 79.0137 378.797 70.8391 383.74 67.6683L390.097 49.04Z" fill="#F9B253"/>
<g style="mix-blend-mode:multiply" opacity="0.25">
<path d="M360.566 75.5616C356.591 75.7763 338.343 61.7721 336.225 60.1372L335.387 60.9794C335.387 60.9794 354.751 78.98 360.533 79.0131C362.865 79.0131 373.984 73.3487 380.488 69.5999L382.131 68.6256L381.113 62.5813C381.113 62.5813 364.803 75.2808 360.566 75.5616Z" fill="#CE4A30"/>
</g>
<path d="M341.989 100.895H386.335L378.386 74.8353C378.173 74.1297 377.737 73.513 377.144 73.0781C376.552 72.6432 375.835 72.4137 375.101 72.4242H336.29C335.945 72.4248 335.604 72.5067 335.295 72.6632C334.987 72.8198 334.719 73.0467 334.513 73.3259C334.307 73.605 334.169 73.9287 334.11 74.2711C334.05 74.6134 334.072 74.965 334.171 75.2977L341.989 100.895Z" fill="#A4A4F7"/>
<path d="M341.431 100.895H385.104L377.154 74.8351C376.936 74.1322 376.499 73.5186 375.908 73.0844C375.316 72.6503 374.602 72.4188 373.869 72.4239H335.124C334.779 72.4236 334.438 72.5051 334.13 72.6617C333.822 72.8184 333.554 73.0458 333.35 73.3256C333.145 73.6053 333.009 73.9296 332.952 74.2722C332.895 74.6147 332.919 74.966 333.022 75.2975L340.626 100.268C340.682 100.442 340.789 100.595 340.932 100.706C341.076 100.818 341.25 100.884 341.431 100.895Z" fill="#006EAE"/>
<g style="mix-blend-mode:multiply" opacity="0.25">
<g style="mix-blend-mode:multiply" opacity="0.25">
<path d="M409.609 61.607C407.915 69.8674 406.817 78.24 406.324 86.6595C398.572 89.6817 395.418 94.1901 387.83 97.5756C387.83 97.5756 381.852 96.5848 381.26 98.8472C380.899 100.152 388.257 101.209 388.257 101.209C395.287 101.209 413.813 96.0728 415.078 95.726C416.343 95.3792 420.005 71.6974 420.12 58.8491C420.343 57.0211 419.931 55.1718 418.954 53.614C418.309 52.9102 417.526 52.348 416.655 51.9626C412.282 49.6809 407.44 48.4539 402.514 48.3789" fill="#CE4A30"/>
</g>
</g>
<path d="M388.947 99.1274C388.46 98.6635 387.874 98.317 387.234 98.1139C386.593 97.9108 385.916 97.8565 385.252 97.955C384.262 97.9801 383.275 98.0628 382.295 98.2027C381.852 98.2027 381.343 98.3678 381.293 98.8467C381.244 99.3256 383.461 98.8467 384.578 99.1935C382.295 99.386 380.003 99.4466 377.713 99.3751C377.453 99.3173 377.184 99.3173 376.924 99.3751C376.797 99.419 376.686 99.5012 376.607 99.6105C376.528 99.7197 376.484 99.8509 376.481 99.9861C376.519 100.189 376.63 100.372 376.793 100.498C377.477 101.033 378.296 101.364 379.158 101.456C382.644 102.181 386.266 101.859 389.571 100.531" fill="#FFE1BD"/>
<path d="M409.133 61.4091C408.935 72.1435 408.18 77.0483 408.393 87.8322C403.039 88.9882 395.632 95.082 388.044 98.484C387.797 99.4145 387.884 100.403 388.29 101.275C388.881 101.473 413.863 95.3627 415.85 93.5131C417.838 91.6635 420.006 71.7637 420.153 58.9154C420.376 57.0874 419.964 55.2382 418.987 53.6804C418.342 52.9766 417.559 52.4144 416.688 52.0289C412.314 49.7473 407.473 48.5203 402.546 48.4453" fill="#F9B253"/>
<path opacity="0.45" d="M363.965 87.1047C364.13 89.3997 361.436 91.2489 357.97 91.2489C354.505 91.2489 351.549 89.3997 351.401 87.1047C351.253 84.8097 353.914 82.9771 357.396 82.9771C360.878 82.9771 363.801 84.8263 363.965 87.1047Z" stroke="#A4A4F7" stroke-miterlimit="10"/>
<path d="M361.612 87.2434C361.661 85.9767 359.916 84.8799 357.713 84.7937C355.51 84.7074 353.685 85.6644 353.636 86.9311C353.587 88.1978 355.333 89.2945 357.535 89.3808C359.738 89.467 361.563 88.5101 361.612 87.2434Z" fill="#A4A4F7"/>
<path d="M393.184 31.1047C393.102 30.7084 392.215 30.6258 391.312 30.7414C390.033 30.8292 388.773 31.096 387.567 31.534C387.091 31.9138 387.107 32.178 386.845 32.211C386.582 32.2441 386.582 31.9799 386.007 31.7322C385.074 31.5512 384.115 31.5512 383.182 31.7322C382.295 31.8478 381.54 32.0459 381.54 32.4422C381.54 32.8813 381.665 33.3111 381.901 33.6807C382.082 33.7963 382.082 33.7798 382.771 35.332C382.825 35.5579 382.925 35.7699 383.066 35.9542C383.206 36.1385 383.384 36.2909 383.587 36.4016C383.79 36.5122 384.014 36.5786 384.244 36.5963C384.474 36.614 384.706 36.5827 384.923 36.5044C386.385 36.1742 386.467 34.5063 386.565 33.7963C386.664 33.0862 386.779 33.0037 387.009 32.9706C387.239 32.9376 387.387 32.9706 387.666 33.6642C387.945 34.3577 388.159 35.8108 389.653 35.8934C391.608 36.009 392.462 35.332 392.741 34.0605C393.102 32.4092 393.02 32.4092 393.168 32.1945C393.658 32.1892 394.147 32.2278 394.63 32.3101V31.7982C394.131 31.6036 393.648 31.3717 393.184 31.1047ZM386.04 34.5559C386.081 34.9864 385.953 35.4162 385.683 35.7528C385.413 36.0894 385.022 36.3059 384.594 36.3558C383.691 36.4714 383.281 35.9925 382.788 34.8366C382.442 34.1958 382.337 33.4515 382.492 32.7395C382.656 32.4587 383.133 32.4752 384.25 32.3927C385.366 32.3101 385.744 32.3101 385.892 32.8055C386.019 33.3797 386.068 33.9684 386.04 34.5559ZM392.429 33.6146C392.248 34.8531 391.788 35.4476 390.557 35.5962C388.816 35.8109 388.471 35.1173 388.224 34.2751C388.031 33.7449 387.92 33.188 387.896 32.6239C387.896 32.0954 388.306 32.0294 389.407 31.8147C390.507 31.6 391.985 31.3523 392.199 31.5835C392.516 32.2103 392.604 32.9296 392.445 33.6146H392.429Z" fill="#005C91"/>
<path d="M405.027 28.3634C404.929 27.4725 404.77 26.5896 404.55 25.7211C404.276 24.5839 403.769 23.5166 403.062 22.5869C402.355 21.6573 401.464 20.8856 400.444 20.3209C397.572 18.8864 394.277 18.5574 391.181 19.3961C389.538 19.8751 388.849 20.7668 387.896 20.7503C387.078 20.5868 386.283 20.3205 385.531 19.9576C378.961 17.5631 380.012 24.0862 380.719 25.8862C381.031 26.6789 382.525 27.2569 382.722 27.5377C382.89 28.4096 382.995 29.2927 383.034 30.18C383.086 30.3975 383.187 30.6001 383.33 30.772C383.472 30.9439 383.652 31.0803 383.856 31.1708C383.856 31.1708 383.856 29.0735 383.856 28.7762C383.875 28.3978 383.972 28.0275 384.142 27.6892C384.312 27.3508 384.55 27.0517 384.841 26.811C385.582 26.4273 386.392 26.1971 387.223 26.134C388.894 26.1815 390.551 26.4537 392.15 26.9431C393.398 28.0166 393.792 30.4607 394.055 31.8974C394.219 32.558 394.4 33.0039 394.663 33.0039C394.876 31.0222 395.55 30.9726 396.716 31.6497C397.072 31.9917 397.346 32.4097 397.52 32.8727C397.693 33.3358 397.761 33.8321 397.718 34.325C397.789 34.9543 397.649 35.5895 397.318 36.1286C396.987 36.6678 396.486 37.0795 395.895 37.2976C395.418 37.3967 396.831 40.0885 397.537 40.7656C397.743 40.9949 397.975 41.1999 398.227 41.3766C398.481 41.5098 398.752 41.6097 399.032 41.6739L399.984 41.9216C400.395 42.0909 400.848 42.1312 401.282 42.0372C401.972 41.839 402.349 41.0959 402.661 40.3857C403.187 39.3123 403.778 38.2554 404.205 37.0829C405.136 34.2773 405.417 31.2948 405.027 28.3634Z" fill="#005C91"/>
<path d="M524.514 127.17H440.585L450.637 119.689V83.1916C450.637 81.7287 451.215 80.3258 452.244 79.2913C453.273 78.2569 454.668 77.6758 456.123 77.6758H524.514C525.968 77.6801 527.361 78.2627 528.389 79.2962C529.416 80.3296 529.996 81.7301 530 83.1916V121.654C529.996 123.115 529.416 124.516 528.389 125.549C527.361 126.583 525.968 127.165 524.514 127.17Z" fill="#D5D2FF"/>
<path opacity="0.45" d="M522.691 84.7935H484.34V88.4758H522.691V84.7935Z" fill="white"/>
<path opacity="0.45" d="M522.691 90.3091H484.34V93.9915H522.691V90.3091Z" fill="white"/>
<path opacity="0.45" d="M522.691 95.8252H484.34V99.5076H522.691V95.8252Z" fill="white"/>
<path opacity="0.45" d="M522.691 101.192H484.34V104.875H522.691V101.192Z" fill="white"/>
<path opacity="0.45" d="M511.095 107.616H484.34V111.299H511.095V107.616Z" fill="white"/>
<path d="M475.766 84.7935H462.808C459.733 84.7935 457.24 87.2999 457.24 90.3919V107.517C457.24 110.609 459.733 113.116 462.808 113.116H475.766C478.842 113.116 481.334 110.609 481.334 107.517V90.3919C481.334 87.2999 478.842 84.7935 475.766 84.7935Z" fill="#A9ADFF"/>
<path opacity="0.45" d="M481.334 116.649H457.24V119.688H481.334V116.649Z" fill="white"/>
<path d="M471.66 103.173H462.923C462.683 103.174 462.45 103.095 462.26 102.949C462.07 102.803 461.933 102.597 461.871 102.364L460.229 96.1224C460.187 95.9598 460.182 95.7897 460.214 95.6248C460.247 95.46 460.317 95.3048 460.418 95.1711C460.519 95.0374 460.65 94.9287 460.799 94.8532C460.948 94.7777 461.113 94.7374 461.28 94.7354H473.401C473.569 94.7374 473.733 94.7777 473.882 94.8532C474.032 94.9287 474.162 95.0374 474.264 95.1711C474.365 95.3048 474.434 95.46 474.467 95.6248C474.5 95.7897 474.495 95.9598 474.453 96.1224L472.81 102.364C472.745 102.614 472.594 102.833 472.383 102.981C472.173 103.129 471.916 103.198 471.66 103.173Z" fill="white"/>
<path d="M473.204 104.576H462.676C462.648 104.579 462.619 104.575 462.592 104.565C462.565 104.555 462.54 104.54 462.52 104.519C462.499 104.499 462.484 104.474 462.474 104.447C462.464 104.42 462.46 104.391 462.463 104.362C462.463 104.305 462.485 104.25 462.525 104.21C462.565 104.17 462.62 104.147 462.676 104.147H473.089L476.752 91.2999C476.766 91.2533 476.794 91.2122 476.832 91.1826C476.871 91.1529 476.917 91.1362 476.966 91.1348H479.249C479.278 91.1347 479.307 91.1407 479.334 91.1525C479.361 91.1643 479.386 91.1816 479.406 91.2034C479.426 91.2251 479.441 91.2507 479.451 91.2787C479.461 91.3067 479.464 91.3364 479.462 91.3659C479.462 91.4229 479.44 91.4775 479.4 91.5177C479.36 91.558 479.305 91.5806 479.249 91.5806H477.13L473.467 104.428C473.452 104.483 473.416 104.529 473.366 104.557C473.317 104.585 473.259 104.592 473.204 104.576Z" fill="white"/>
<path d="M464.286 106.312C464.286 106.567 464.211 106.816 464.07 107.028C463.929 107.239 463.729 107.404 463.495 107.502C463.261 107.599 463.003 107.625 462.755 107.575C462.506 107.526 462.278 107.403 462.099 107.223C461.92 107.043 461.798 106.813 461.748 106.563C461.699 106.313 461.724 106.054 461.821 105.819C461.918 105.584 462.082 105.383 462.293 105.241C462.504 105.099 462.751 105.024 463.005 105.024C463.344 105.024 463.67 105.16 463.911 105.401C464.151 105.643 464.286 105.97 464.286 106.312Z" fill="white"/>
<path d="M472.268 107.6C472.975 107.6 473.549 107.023 473.549 106.312C473.549 105.601 472.975 105.024 472.268 105.024C471.56 105.024 470.987 105.601 470.987 106.312C470.987 107.023 471.56 107.6 472.268 107.6Z" fill="white"/>
<path d="M212.729 76.1895H319.652L306.858 66.6772V7.85255C306.858 5.9867 306.121 4.19729 304.809 2.87794C303.496 1.55859 301.717 0.817383 299.861 0.817383H212.812C211.894 0.81738 210.984 0.999464 210.136 1.35322C209.289 1.70697 208.518 2.22543 207.87 2.87892C207.221 3.53242 206.708 4.30811 206.358 5.16156C206.008 6.01501 205.829 6.92946 205.831 7.85255V69.1709C205.831 71.0181 206.555 72.7909 207.847 74.1048C209.138 75.4187 210.892 76.1678 212.729 76.1895Z" fill="#D5D2FF"/>
<g opacity="0.45">
<path opacity="0.45" d="M215.045 16.4238L263.908 16.4238V11.7176L215.045 11.7176V16.4238Z" fill="white"/>
<path opacity="0.45" d="M215.045 23.4575L263.908 23.4575V18.7513L215.045 18.7513V23.4575Z" fill="white"/>
<path opacity="0.45" d="M215.045 30.4937L263.908 30.4937V25.7875L215.045 25.7875V30.4937Z" fill="white"/>
<path opacity="0.45" d="M215.045 37.3149L263.908 37.3149V32.6087L215.045 32.6087V37.3149Z" fill="white"/>
<path opacity="0.45" d="M215.045 44.1685L263.908 44.1685V39.4623L215.045 39.4623V44.1685Z" fill="white"/>
<path opacity="0.45" d="M215.045 56.6035L263.908 56.6035V51.8973L215.045 51.8973V56.6035Z" fill="white"/>
<path opacity="0.45" d="M215.045 64.002L298.448 64.002V59.2958L215.045 59.2958V64.002Z" fill="white"/>
</g>
<path d="M274.83 47.8174H291.37C295.279 47.8174 298.448 44.6306 298.448 40.6996V18.8508C298.448 14.9198 295.279 11.733 291.37 11.733H274.83C270.921 11.733 267.751 14.9198 267.751 18.8508V40.6996C267.751 44.6306 270.921 47.8174 274.83 47.8174Z" fill="#C4C4F7"/>
<path opacity="0.45" d="M267.751 56.1904L298.448 56.1904V52.3099L267.751 52.3099V56.1904Z" fill="white"/>
<path d="M280.053 35.1512H291.205C291.507 35.1482 291.8 35.0468 292.04 34.8622C292.28 34.6775 292.454 34.4197 292.536 34.1272L294.687 26.167C294.743 25.9591 294.75 25.7413 294.708 25.5302C294.666 25.3192 294.577 25.1206 294.447 24.9498C294.317 24.779 294.149 24.6406 293.957 24.5452C293.765 24.4499 293.554 24.4002 293.34 24.3999H277.918C277.704 24.4002 277.493 24.4499 277.301 24.5452C277.109 24.6406 276.942 24.779 276.811 24.9498C276.681 25.1206 276.592 25.3192 276.55 25.5302C276.508 25.7413 276.516 25.9591 276.571 26.167L278.723 34.1272C278.804 34.4197 278.978 34.6775 279.218 34.8622C279.458 35.0468 279.751 35.1482 280.053 35.1512Z" fill="white"/>
<path d="M278.099 36.9348H291.517C291.589 36.935 291.657 36.9077 291.709 36.8585C291.761 36.8094 291.792 36.7422 291.797 36.6706C291.797 36.5961 291.767 36.5247 291.715 36.4721C291.663 36.4194 291.591 36.3899 291.517 36.3899H278.378L273.713 20.0073C273.693 19.9492 273.655 19.899 273.605 19.8635C273.555 19.828 273.495 19.809 273.434 19.8091H270.527C270.453 19.8091 270.382 19.8387 270.33 19.8913C270.277 19.944 270.248 20.0154 270.248 20.0898C270.248 20.1643 270.277 20.2357 270.33 20.2884C270.382 20.341 270.453 20.3706 270.527 20.3706H273.237L277.902 36.7367C277.913 36.785 277.937 36.8291 277.972 36.8642C278.007 36.8992 278.051 36.9237 278.099 36.9348Z" fill="white"/>
<path d="M289.464 39.1308C289.464 39.4574 289.561 39.7766 289.741 40.0482C289.922 40.3198 290.178 40.5314 290.478 40.6564C290.778 40.7814 291.109 40.8141 291.427 40.7504C291.746 40.6866 292.038 40.5294 292.268 40.2984C292.498 40.0675 292.654 39.7732 292.718 39.4529C292.781 39.1326 292.748 38.8006 292.624 38.4989C292.5 38.1971 292.289 37.9392 292.019 37.7578C291.749 37.5763 291.432 37.4795 291.107 37.4795C290.671 37.4795 290.253 37.6535 289.945 37.9631C289.637 38.2728 289.464 38.6928 289.464 39.1308Z" fill="white"/>
<path d="M277.639 39.1308C277.639 39.4574 277.735 39.7766 277.915 40.0482C278.096 40.3198 278.352 40.5314 278.653 40.6564C278.953 40.7814 279.283 40.8141 279.602 40.7504C279.92 40.6866 280.213 40.5294 280.442 40.2984C280.672 40.0675 280.829 39.7732 280.892 39.4529C280.955 39.1326 280.923 38.8006 280.799 38.4989C280.674 38.1971 280.464 37.9392 280.194 37.7578C279.924 37.5763 279.606 37.4795 279.281 37.4795C278.846 37.4795 278.428 37.6535 278.12 37.9631C277.812 38.2728 277.639 38.6928 277.639 39.1308Z" fill="white"/>
<path d="M434.755 373.748C433.468 375.411 431.769 376.703 429.827 377.496C427.216 378.668 421.615 379.23 424.736 380.254C427.529 380.96 430.449 381 433.26 380.369C435.165 380.112 437.087 379.996 439.009 380.022C441.85 380.022 441.867 379.841 441.489 376.621C440.963 372.179 436.036 371.238 434.755 373.748Z" fill="#9AA3F4"/>
<path d="M486.229 372.146C486.065 373.038 487.329 375.747 485.079 377.729C482.829 379.711 477.688 381.808 481.088 381.891C483.972 381.965 486.837 381.401 489.481 380.239C491.123 379.38 489.826 378.026 491.961 377.349C494.786 376.457 494.211 374.359 492.749 373.071C490.828 368.909 486.705 369.239 486.229 372.146Z" fill="#9AA3F4"/>
<path d="M475.372 281.96C475.372 281.96 482.139 261.944 462.939 245.479C462.939 245.479 452.657 249.592 444.412 250.087C441.157 250.373 437.88 250.301 434.64 249.872C434.64 249.872 434.081 267.642 434.065 277.22L475.372 281.96Z" fill="#594A5F"/>
<path d="M432.505 315.187C432.143 306.236 441.784 307.409 445.332 314.097C452.69 327.903 442.622 359.727 441.292 374.805C439.682 375.5 437.882 375.611 436.2 375.119C435.545 374.741 435.027 374.162 434.722 373.467C434.935 354.987 432.899 324.749 432.505 315.187Z" fill="#594A5F"/>
<path d="M445.004 316.541C443.903 320.191 431.585 324.022 432.587 310.728C433.03 304.832 434.229 272.282 434.426 269.145C434.623 266.007 435.182 261.416 436.693 260.887C444.232 258.014 457.568 267.939 455.597 279.714C454.267 287.558 447.303 308.961 445.004 316.541Z" fill="#594A5F"/>
<path d="M464.384 321.612C461.411 313.173 471.069 311.703 476.555 316.888C489.399 329.06 489.908 357.729 492.979 372.526C491.289 373.575 489.348 374.146 487.362 374.177C487.066 374.171 486.775 374.097 486.511 373.963C486.247 373.829 486.016 373.637 485.835 373.401C480.677 355.632 467.571 330.629 464.384 321.612Z" fill="#594A5F"/>
<path d="M477.08 318.853C477.425 322.668 467.226 330.529 463.12 317.829C461.329 312.198 453.659 278.921 452.69 275.916C451.721 272.91 452 266.75 453.183 265.644C459.096 260.144 472.465 264.983 475.027 276.659C476.752 284.454 476.374 310.976 477.08 318.853Z" fill="#594A5F"/>
<path d="M424.227 173.162C424.572 172.799 424.933 172.419 425.245 172.022C427.676 168.885 428.021 166.11 430.287 162.477C430.767 161.396 431.315 160.348 431.93 159.339C432.958 158.117 434.199 157.093 435.592 156.317C436.644 155.772 435.74 158.101 435.74 158.101C435.74 158.101 436.627 156.796 437.498 156.895C437.826 156.895 437.892 158.91 437.892 159.257C437.936 162 437.304 164.712 436.052 167.151C435.705 167.692 435.491 168.309 435.428 168.951C436.223 168.818 436.961 168.45 437.547 167.894C437.841 167.621 438.195 167.42 438.58 167.308C438.965 167.197 439.37 167.176 439.764 167.25C439.656 167.573 439.512 167.883 439.337 168.174C438.555 170.093 437.193 171.716 435.445 172.815C434.344 173.327 433.079 173.426 431.995 174.004C430.041 175.045 429.105 177.456 427.068 178.43" fill="#FFE1BD"/>
<path d="M441.728 159.517L435.94 157.083C435.396 156.854 434.771 157.112 434.543 157.659L429.396 170.03C429.169 170.577 429.425 171.205 429.969 171.434L435.758 173.869C436.301 174.097 436.927 173.84 437.154 173.293L442.301 160.922C442.529 160.375 442.272 159.746 441.728 159.517Z" fill="#5E5DBB"/>
<path d="M441.968 160.534L435.468 157.8L430.138 170.612L436.638 173.346L441.968 160.534Z" fill="#B4B4DB"/>
<path d="M441.998 185.812C438.818 186.036 435.67 186.59 432.603 187.464C425.918 189.479 423.619 192.583 421.303 193.872C425.787 188.141 430.797 176.003 430.797 176.003C430.797 176.003 424.769 171.048 424.063 172.188C423.356 173.327 398.063 203.153 398.851 207.975C399.18 209.957 402.136 211.922 404.698 211.839C411.876 211.592 420.219 208.966 428.957 206.092C432.8 204.821 433.983 207.546 433.983 207.546" fill="#1A82E7"/>
<path d="M421.303 193.822C421.303 193.822 418.117 200.294 417.246 200.79C416.376 201.285 419.562 199.452 421.369 197.587C423.012 195.491 424.433 193.227 425.606 190.833C424.103 191.725 422.665 192.724 421.303 193.822Z" fill="#006EAE"/>
<path d="M431.306 162.527C431.586 162.795 431.751 163.162 431.765 163.551C432.109 164.962 432.064 166.44 431.634 167.827C431.254 168.672 430.693 169.421 429.992 170.023C429.195 170.72 428.318 171.318 427.38 171.806" fill="#FFE1BD"/>
<path d="M442.146 151.776C440.503 152.272 439.567 154.468 438.992 155.971C438.341 157.794 437.916 159.691 437.728 161.619C437.472 162.942 437.568 164.309 438.007 165.582C438.303 166.177 438.673 166.732 439.107 167.234C439.322 167.557 439.588 167.841 439.896 168.076C440.052 168.192 440.232 168.27 440.423 168.304C440.614 168.339 440.81 168.328 440.996 168.274C441.239 168.126 441.445 167.924 441.599 167.684C441.752 167.443 441.849 167.171 441.883 166.887C442.709 163.276 444.077 159.812 445.94 156.615" fill="#170D54"/>
<path d="M440.24 163.072C440.24 161.933 439.025 161.206 437.99 162.378C437.199 163.623 436.804 165.08 436.857 166.556C436.857 168.208 438.056 168.521 439.107 168.752" fill="#F2A181"/>
<path d="M428.973 191.676C431.059 189.281 437.695 185.301 446.547 185.582C452.641 185.78 469.246 186.788 471.102 190.9C472.054 192.997 473.073 214.466 471.693 221.881C470.642 227.446 467.965 241.236 467.965 244.555C467.965 247.874 469.755 249.311 468.917 250.285C467.062 252.449 454.349 253.357 448.387 253.357C443.065 253.357 434.032 251.937 433.605 250.219C432.932 247.693 434.64 247.775 434.87 245.116C435.1 242.458 435.773 225.184 434.87 222.343C433.112 217.24 432.258 208.917 430.862 205.135C429.696 202.278 426.887 194.087 428.973 191.676Z" fill="#1A82E7"/>
<path d="M467.012 209.048C467.653 210.369 471.94 217.305 471.94 217.305L472.104 218.148C472.027 219.393 471.884 220.633 471.677 221.863C470.626 227.429 467.948 241.218 467.948 244.538C467.948 247.857 469.591 249.244 468.901 250.268C467.439 252.266 443.476 256.758 444.642 251.177C444.757 250.681 464.762 235.323 464.877 234.811C465.797 230.401 466.52 227.231 466.996 224.027C467.998 216.314 466.388 207.727 467.012 209.048Z" fill="#006EAE"/>
<path d="M441.719 177.903C441.742 180.329 441.633 182.755 441.39 185.169C440.868 185.525 440.319 185.84 439.748 186.11C439.748 186.11 440.733 192.171 442.244 191.725C443.755 191.279 453.741 186.209 453.741 186.209C453.741 186.209 452.329 185.631 452.329 185.053C452.329 184.475 453.676 173.493 453.676 173.493" fill="#FFE1BD"/>
<path d="M448.65 152.536C447.204 152.932 443.361 152.14 442.31 153.725C441.308 155.817 440.51 158.001 439.928 160.248C439.14 162.362 438.614 164.641 438.04 166.854C437.3 169.695 436.069 174.913 438.828 177.291C439.398 177.885 440.15 178.269 440.963 178.381L444.889 179.141C446.95 179.696 449.113 179.742 451.196 179.273C453.906 178.381 455.384 174.666 456.123 172.122L460.098 157.623L448.65 152.536Z" fill="#FFE1BD"/>
<path d="M441.472 194.45C441.472 194.45 440.881 221.715 439.83 238.296L443.821 243.828L446.564 236.892C447.107 222.759 446.238 208.606 443.969 194.648L441.472 194.45Z" fill="#3B2E7A"/>
<path d="M440.553 192.055L440.651 192.435C440.825 193.143 441.101 193.822 441.472 194.449L443.92 194.647C443.92 194.647 445.562 193.772 445.809 192.831C446.055 191.89 443.066 190.337 443.066 190.337L442.721 190.486C441.891 190.807 441.156 191.335 440.586 192.022L440.553 192.055Z" fill="#3B2E7A"/>
<path d="M452.477 183.369C453.582 184.124 454.53 185.089 455.269 186.209C454.004 189.099 451.163 194.235 448.042 196.581C447.026 194.07 445.316 191.903 443.115 190.338C443.115 190.338 451.606 188.819 452.477 183.369Z" fill="white"/>
<path d="M443.066 190.337C440.961 191.306 439.231 192.941 438.138 194.993C437.829 192.098 438.052 189.171 438.795 186.357C438.795 186.357 440.799 183.781 441.505 183.732C441.455 186.031 441.992 188.306 443.066 190.337Z" fill="white"/>
<path d="M443.525 251.193C441.223 251.499 439.124 252.681 437.662 254.495C437.53 254.644 437.383 254.809 437.416 255.007C437.448 255.206 437.728 255.354 437.974 255.404C439.386 255.618 439.616 254.727 440.93 254.165C441.817 253.802 442.704 253.406 443.575 253.026" fill="#F2A181"/>
<path d="M433.162 228.998L443.903 263.547C443.985 263.735 444.019 263.942 444.002 264.147C443.984 264.352 443.916 264.55 443.804 264.722C443.691 264.894 443.538 265.036 443.357 265.133C443.177 265.231 442.975 265.281 442.77 265.281L420.367 267.262C419.943 267.24 419.536 267.089 419.199 266.83C418.861 266.571 418.61 266.215 418.478 265.809L406.981 231.723C406.702 230.798 408.032 229.477 408.936 229.46L431.339 227.495C431.76 227.525 432.162 227.685 432.488 227.954C432.815 228.224 433.05 228.588 433.162 228.998Z" fill="#E9E6FF"/>
<path d="M432.439 229.906L443.016 263.976C443.098 264.165 443.132 264.371 443.115 264.576C443.097 264.782 443.029 264.979 442.917 265.152C442.804 265.324 442.651 265.465 442.47 265.562C442.29 265.66 442.088 265.711 441.883 265.71L419.48 267.675C419.056 267.659 418.648 267.51 418.313 267.25C417.977 266.989 417.73 266.63 417.608 266.222L407.014 232.169C406.932 231.98 406.898 231.774 406.915 231.568C406.933 231.363 407.001 231.165 407.113 230.993C407.226 230.821 407.379 230.68 407.56 230.582C407.74 230.485 407.942 230.434 408.147 230.435L430.55 228.453C430.974 228.475 431.381 228.626 431.719 228.885C432.056 229.145 432.307 229.501 432.439 229.906Z" fill="#E0D9FF"/>
<path d="M414.536 228.783L415.324 231.772L425.803 230.847L424.949 227.875L414.536 228.783Z" fill="white"/>
<path d="M416.524 226.009C416.737 226.719 417.575 229.394 417.575 229.394L422.502 228.931L421.517 225.563C421.3 224.86 420.863 224.247 420.271 223.816C419.679 223.384 418.963 223.157 418.232 223.168C417.909 223.191 417.597 223.292 417.321 223.462C417.045 223.631 416.813 223.865 416.646 224.144C416.478 224.422 416.38 224.737 416.359 225.061C416.337 225.386 416.394 225.711 416.524 226.009ZM417.624 226.009C417.543 225.839 417.505 225.652 417.513 225.464C417.52 225.276 417.573 225.093 417.667 224.93C417.761 224.767 417.893 224.63 418.051 224.53C418.21 224.431 418.39 224.371 418.577 224.357C418.992 224.344 419.399 224.47 419.735 224.715C420.071 224.96 420.316 225.311 420.433 225.711C420.513 225.88 420.552 226.065 420.545 226.252C420.538 226.439 420.487 226.621 420.395 226.784C420.303 226.946 420.173 227.083 420.017 227.184C419.86 227.285 419.682 227.346 419.497 227.363C419.072 227.367 418.659 227.23 418.32 226.973C417.981 226.716 417.737 226.354 417.624 225.943V226.009Z" fill="white"/>
<path d="M452 248.782C449.635 249.278 443.378 251.16 442.721 251.458C441.306 252.328 439.97 253.323 438.73 254.43C436.364 256.808 437.58 257.915 436.644 261.152C436.619 261.316 436.619 261.483 436.644 261.647C436.644 261.994 437.087 262.275 437.547 261.961C437.793 262.39 438.516 262.126 438.877 261.68C438.877 261.994 439.321 262.192 440.027 261.796C440.421 261.581 440.356 261.597 441.259 260.788C442.019 260.137 442.879 259.613 443.805 259.236C444.655 258.91 445.483 258.529 446.285 258.096C447.237 257.452 448.946 257.304 449.783 254.579C450.046 254.001 450.506 253.538 451.081 253.274L454.908 250.847" fill="#FFE1BD"/>
<path d="M466.52 204.457C467.522 208.025 471.66 232.796 471.66 232.796L448.305 249.79L450.243 254.926C450.243 254.926 478.165 245.496 480.398 239.055C482.632 232.615 482.501 203.467 474.732 193.261C472.717 191.001 470.162 189.296 467.308 188.306" fill="#1A82E7"/>
<path d="M442.491 257.701L441.899 258.229C441.458 258.592 441.051 258.996 440.684 259.435C440.335 259.894 439.962 260.335 439.567 260.756C439.384 260.952 439.186 261.134 438.976 261.301C439.366 260.545 439.84 259.836 440.388 259.187C440.789 258.743 441.261 258.369 441.784 258.08L442.491 257.701Z" fill="#F2A181"/>
<path d="M441.193 256.147C440.945 256.363 440.73 256.613 440.553 256.891C440.342 257.155 440.144 257.431 439.961 257.716L439.649 258.195C439.554 258.353 439.472 258.519 439.403 258.69C438.979 259.684 438.427 260.616 437.76 261.465C437.76 261.465 437.892 261.068 438.138 260.523C438.384 259.979 438.729 259.252 439.058 258.542C439.409 257.874 439.863 257.266 440.405 256.742C440.636 256.505 440.902 256.305 441.193 256.147Z" fill="#F2A181"/>
<path d="M439.715 254.876C439.547 255.158 439.36 255.429 439.156 255.686C438.992 255.917 438.746 256.164 438.565 256.462C438.384 256.759 438.27 257.139 438.122 257.469C437.826 258.179 437.563 258.906 437.35 259.451C437.136 259.995 437.005 260.359 437.005 260.359C437.013 260.032 437.046 259.706 437.103 259.385C437.236 258.672 437.457 257.978 437.76 257.32C437.92 256.962 438.112 256.619 438.335 256.297C438.549 256.039 438.779 255.797 439.025 255.57C439.27 255.355 439.501 255.123 439.715 254.876Z" fill="#F2A181"/>
<path d="M457.552 169.579C456.648 169.034 455.909 168.473 455.351 169.348C455.039 169.827 454.842 170.471 454.3 170.619C454.023 170.668 453.739 170.605 453.509 170.444C453.278 170.283 453.12 170.038 453.068 169.761C452.998 169.201 453.071 168.632 453.281 168.109C453.643 166.92 454.004 165.731 454.382 164.542C454.87 163.417 454.957 162.157 454.628 160.975C454.378 160.407 453.995 159.908 453.511 159.522C451.926 158.293 450.054 157.492 448.075 157.193C446.095 156.888 444.133 156.48 442.195 155.971C441.384 155.749 440.625 155.367 439.961 154.848C439.452 154.39 439.043 153.831 438.76 153.205C438.477 152.58 438.327 151.902 438.319 151.215C438.333 149.844 438.732 148.504 439.469 147.35C439.619 147.813 439.812 148.261 440.043 148.688C440.29 148.074 440.653 147.513 441.111 147.037C441.686 150.224 455.072 149.167 458.192 150.571C460.36 151.545 462.151 152.222 462.085 155.723C462.178 155.944 462.325 156.137 462.512 156.285C463.468 157.206 464.226 158.314 464.74 159.541C465.254 160.768 465.513 162.088 465.501 163.419C465.797 167.333 463.53 171.577 461.313 174.814C460.89 175.569 460.333 176.241 459.671 176.796C458.759 177.411 457.653 177.664 456.566 177.506C455.597 177.324 453.692 177.407 453.676 176.416C453.676 175.706 455.17 174.451 455.581 173.873" fill="#005C91"/>
<path d="M454.053 173.277C454.014 173.48 454.016 173.687 454.058 173.889C454.1 174.09 454.183 174.281 454.3 174.45C454.519 174.649 454.793 174.778 455.086 174.819C455.378 174.86 455.677 174.812 455.942 174.681C456.635 174.414 457.246 173.969 457.713 173.389C458.181 172.809 458.487 172.116 458.603 171.379C458.931 169.727 458.012 167.993 456.468 168.439C456.025 168.612 455.647 168.92 455.388 169.32C455.128 169.72 455.001 170.191 455.022 170.668" fill="#FFE1BD"/>
<path d="M441.719 178.497L446.022 179.29C445.444 179.844 444.76 180.276 444.013 180.56C443.265 180.843 442.468 180.973 441.669 180.941" fill="#F2A181"/>
<g opacity="0.75">
<path d="M104.722 104.512L110.471 107.418L107.596 100.317" fill="#3939D3"/>
<path d="M86.8853 95.4286C86.7506 97.8739 87.3487 100.304 88.6022 102.403C89.8557 104.503 91.7069 106.177 93.9166 107.207C96.1262 108.237 98.5925 108.578 100.996 108.183C103.4 107.789 105.631 106.679 107.401 104.996C109.17 103.313 110.397 101.135 110.922 98.7431C111.447 96.3516 111.246 93.8567 110.345 91.5812C109.445 89.3057 107.886 87.3542 105.87 85.9792C103.855 84.6042 101.475 83.8689 99.0395 83.8685C97.4864 83.8245 95.9398 84.0887 94.4883 84.6459C93.0368 85.2032 91.7087 86.0426 90.58 87.1162C89.4513 88.1898 88.544 89.4765 87.9101 90.9028C87.2761 92.329 86.9279 93.8669 86.8853 95.4286Z" fill="#3939D3"/>
<path d="M96.0668 91.6464V99.9029C96.064 100.055 96.1014 100.205 96.1752 100.338C96.249 100.471 96.3565 100.581 96.4868 100.659C96.6171 100.736 96.7655 100.777 96.9168 100.778C97.0681 100.778 97.2169 100.739 97.3479 100.662L104.46 96.5342C104.589 96.4566 104.696 96.3465 104.77 96.2148C104.845 96.0831 104.884 95.9343 104.884 95.7829C104.884 95.6315 104.845 95.4826 104.77 95.351C104.696 95.2193 104.589 95.1092 104.46 95.0316L97.3479 90.9198C97.2193 90.8451 97.0736 90.8055 96.9251 90.8047C96.7766 90.8039 96.6304 90.8421 96.5011 90.9155C96.3717 90.9888 96.2636 91.0948 96.1874 91.223C96.1113 91.3512 96.0697 91.4971 96.0668 91.6464Z" fill="#FEFEFE"/>
</g>
<g opacity="0.75">
<path d="M502.522 192.204L496.773 195.11L499.648 188.009" fill="#3939D3"/>
<path d="M520.359 183.138C520.494 185.583 519.895 188.013 518.642 190.112C517.388 192.212 515.537 193.886 513.328 194.916C511.118 195.946 508.652 196.287 506.248 195.892C503.844 195.498 501.613 194.388 499.843 192.705C498.074 191.022 496.847 188.844 496.322 186.452C495.797 184.061 495.998 181.566 496.899 179.29C497.799 177.015 499.358 175.063 501.374 173.688C503.389 172.313 505.769 171.578 508.205 171.577C509.758 171.533 511.304 171.798 512.756 172.355C514.207 172.912 515.535 173.752 516.664 174.825C517.793 175.899 518.7 177.185 519.334 178.612C519.968 180.038 520.316 181.576 520.359 183.138Z" fill="#3939D3"/>
<path d="M506.036 188.65C508.681 188.65 511.374 188.733 513.805 188.65C514.577 188.65 515.234 187.445 514.298 186.999C514.712 186.874 515.06 186.589 515.267 186.207C515.309 186.108 515.33 186.003 515.33 185.896C515.329 185.789 515.306 185.683 515.263 185.586C515.22 185.488 515.157 185.4 515.079 185.328C515 185.256 514.908 185.201 514.807 185.166C515.727 185.381 516.088 184.011 515.366 183.515C515.756 183.224 516.03 182.803 516.138 182.327C516.183 182.09 516.153 181.845 516.053 181.626C515.953 181.406 515.787 181.224 515.579 181.105C515.278 180.979 514.951 180.928 514.626 180.956H511.342C511.771 179.332 511.596 177.606 510.849 176.102C510.586 175.656 509.88 175.144 509.321 175.475C508.763 175.805 508.927 176.564 508.96 177.126C508.988 178.166 508.72 179.192 508.187 180.084C507.655 180.976 506.88 181.697 505.954 182.161C505.954 182.161 506.069 186.438 506.036 188.65Z" fill="#FEFEFE"/>
<path d="M505.084 182.112H501.076V188.651H505.084V182.112Z" fill="#FEFEFE"/>
</g>
<g opacity="0.75">
<path d="M318.568 92.1084L322.757 87.5508L317.008 88.6902" fill="#3939D3"/>
<path d="M303.031 93.1665C302.929 94.9394 303.359 96.7022 304.264 98.2267C305.17 99.7512 306.511 100.967 308.111 101.717C309.712 102.467 311.5 102.716 313.244 102.433C314.988 102.149 316.606 101.346 317.891 100.127C319.175 98.908 320.066 97.3293 320.447 95.5954C320.829 93.8616 320.685 92.0524 320.032 90.4022C319.38 88.752 318.249 87.3368 316.788 86.3398C315.326 85.3428 313.601 84.81 311.834 84.8103C309.566 84.7481 307.365 85.5927 305.715 87.1591C304.065 88.7254 303.1 90.8858 303.031 93.1665Z" fill="#3939D3"/>
<path d="M310.159 97.1784C311.883 97.1784 313.641 97.1784 315.234 97.1784C315.743 97.1784 316.187 96.3033 315.563 96.0391C315.839 95.9314 316.067 95.7259 316.203 95.4611C316.233 95.3907 316.248 95.315 316.248 95.2386C316.249 95.1622 316.234 95.0865 316.205 95.0158C316.176 94.9452 316.133 94.881 316.079 94.8271C316.025 94.7731 315.961 94.7304 315.891 94.7015C316.499 94.8666 316.729 93.8593 316.269 93.5291C316.525 93.3114 316.704 93.0158 316.778 92.6869C316.809 92.5174 316.79 92.3423 316.723 92.1837C316.656 92.0251 316.544 91.8899 316.4 91.7952C316.205 91.7066 315.99 91.667 315.776 91.6796H313.608C313.897 90.505 313.787 89.2671 313.296 88.1624C313.115 87.8486 312.655 87.4688 312.294 87.7165C311.933 87.9642 312.048 88.5091 312.064 88.8559C312.091 89.5859 311.922 90.3097 311.575 90.9517C311.229 91.5936 310.717 92.1302 310.093 92.5053C310.093 92.5053 310.175 95.5767 310.159 97.1784Z" fill="#FEFEFE"/>
<path d="M309.519 92.4229H306.891V97.1621H309.519V92.4229Z" fill="#FEFEFE"/>
</g>
<g opacity="0.75">
<path d="M359.613 30.9723C361.639 28.4013 362.626 25.1565 362.377 21.8859C362.128 18.6152 360.661 15.5593 358.269 13.3284C355.878 11.0974 352.737 9.85549 349.475 9.8506C346.213 9.84571 343.069 11.0782 340.67 13.302C338.272 15.5258 336.796 18.5773 336.538 21.8472C336.279 25.117 337.256 28.3647 339.275 30.9418C341.293 33.5189 344.204 35.2358 347.426 35.7496C350.648 36.2634 353.944 35.5364 356.656 33.7137L361.682 36.4056L359.613 30.9723Z" fill="#3939D3"/>
<path d="M343.96 19.2639C344.255 18.9654 344.606 18.7284 344.992 18.5667C345.378 18.405 345.792 18.3218 346.211 18.3218C346.629 18.3218 347.043 18.405 347.429 18.5667C347.816 18.7284 348.166 18.9654 348.461 19.2639L349.265 20.0894L350.087 19.2639C350.686 18.6683 351.495 18.3364 352.338 18.341C353.18 18.3456 353.986 18.6865 354.579 19.2886C355.171 19.8908 355.501 20.7048 355.497 21.5517C355.492 22.3985 355.153 23.2089 354.554 23.8044L351.548 26.925C351.069 27.3869 350.462 27.6919 349.807 27.8001C349.308 27.8693 348.799 27.8219 348.321 27.6616C347.842 27.5012 347.407 27.2322 347.048 26.8755L344.01 23.7549C343.417 23.1624 343.08 22.3596 343.071 21.5195C343.062 20.6795 343.381 19.8694 343.96 19.2639Z" fill="white"/>
</g>
</svg>
