<svg width="497" height="327" viewBox="0 0 497 327" fill="none" xmlns="http://www.w3.org/2000/svg">
<path d="M83.0618 135.203C83.5377 134.121 84.2188 134.374 85.3321 134.372L95.6372 134.31L116.135 134.633C116.339 132.717 117.03 130.886 118.141 129.313C119.833 127.238 121.697 125.962 121.745 127.163C121.711 128.514 121.22 129.813 120.351 130.848C123.301 129.708 125.724 127.515 127.151 124.694C128.262 123.678 130.028 125.52 128.327 130.072C127.225 133.146 125.06 135.725 122.222 137.341C120.485 138.365 118.592 139.098 116.619 139.513L96.5892 143.604L89.5026 144.977C88.7093 145.173 87.0109 145.814 86.2193 145.514C84.2867 144.802 83.1061 140.811 82.8266 139.073C82.5786 137.784 82.6595 136.453 83.0618 135.203Z" fill="#FFAF98"/>
<path d="M45.0202 113.486C50.0453 111.58 55.6001 111.524 68.3866 125.057C77.5017 136.746 91.6607 133.037 91.6607 133.037C91.6607 133.037 94.6368 141.907 92.9702 145.089C92.9702 145.089 78.8902 149.521 71.6229 147.648C64.3555 145.774 44.6923 130.346 40.6069 126.922C36.5216 123.498 39.995 115.391 45.0202 113.486Z" fill="#EDAA51"/>
<path d="M101.489 104.666H370.981C374.042 104.666 376.978 105.885 379.143 108.055C381.308 110.224 382.524 113.167 382.524 116.235V299.514H89.9456V116.235C89.9456 113.167 91.1617 110.224 93.3265 108.055C95.4912 105.885 98.4273 104.666 101.489 104.666Z" fill="#595959"/>
<path d="M374.49 286.752V117.427C374.49 114.826 372.386 112.718 369.791 112.718L102.678 112.718C100.083 112.718 97.9792 114.826 97.9792 117.427V286.752C97.9792 289.353 100.083 291.461 102.678 291.461H369.791C372.386 291.461 374.49 289.353 374.49 286.752Z" fill="white"/>
<path d="M214.973 164.487H118.332C115.396 164.487 112.579 163.318 110.503 161.236C108.426 159.155 107.26 156.333 107.26 153.39C107.26 151.932 107.546 150.489 108.103 149.143C108.659 147.796 109.475 146.573 110.503 145.542C111.531 144.512 112.752 143.694 114.095 143.137C115.438 142.579 116.878 142.292 118.332 142.292H214.973C216.427 142.292 217.867 142.579 219.21 143.137C220.553 143.694 221.774 144.512 222.802 145.542C223.83 146.573 224.646 147.796 225.202 149.143C225.759 150.489 226.045 151.932 226.045 153.39C226.045 154.847 225.759 156.29 225.202 157.636C224.646 158.983 223.83 160.206 222.802 161.237C221.774 162.267 220.553 163.084 219.21 163.642C217.866 164.2 216.427 164.487 214.973 164.487Z" fill="#C2C2C2"/>
<path d="M369.791 112.718H102.678C102.061 112.718 101.45 112.84 100.88 113.076C100.31 113.313 99.7919 113.66 99.3556 114.097C98.9193 114.534 98.5732 115.054 98.337 115.625C98.1009 116.196 97.9794 116.809 97.9794 117.427V124.862H374.49V117.427C374.49 116.809 374.368 116.196 374.132 115.625C373.896 115.054 373.55 114.534 373.114 114.097C372.677 113.66 372.159 113.313 371.589 113.076C371.019 112.84 370.408 112.718 369.791 112.718Z" fill="#6582DB"/>
<path d="M108.803 118.79C108.803 119.299 108.652 119.796 108.37 120.219C108.088 120.642 107.687 120.972 107.218 121.166C106.749 121.361 106.233 121.412 105.735 121.313C105.238 121.214 104.78 120.969 104.421 120.609C104.062 120.249 103.818 119.791 103.719 119.292C103.62 118.793 103.671 118.276 103.865 117.806C104.059 117.336 104.388 116.934 104.81 116.651C105.232 116.369 105.728 116.218 106.236 116.218C106.573 116.218 106.907 116.284 107.218 116.414C107.53 116.543 107.813 116.732 108.051 116.971C108.289 117.21 108.478 117.494 108.607 117.806C108.736 118.118 108.803 118.452 108.803 118.79Z" fill="#3C57AB"/>
<path d="M120.742 118.79C120.742 119.299 120.592 119.796 120.31 120.219C120.028 120.642 119.627 120.972 119.158 121.166C118.689 121.361 118.173 121.412 117.675 121.313C117.177 121.214 116.72 120.969 116.361 120.609C116.002 120.249 115.758 119.791 115.659 119.292C115.56 118.793 115.61 118.276 115.805 117.806C115.999 117.336 116.328 116.934 116.75 116.651C117.172 116.369 117.668 116.218 118.176 116.218C118.513 116.218 118.847 116.284 119.158 116.414C119.469 116.543 119.752 116.732 119.991 116.971C120.229 117.21 120.418 117.494 120.547 117.806C120.676 118.118 120.742 118.452 120.742 118.79Z" fill="#3C57AB"/>
<path d="M132.682 118.79C132.682 119.299 132.531 119.796 132.249 120.219C131.967 120.642 131.566 120.972 131.097 121.166C130.628 121.361 130.112 121.412 129.615 121.313C129.117 121.214 128.659 120.969 128.3 120.609C127.942 120.249 127.697 119.791 127.598 119.292C127.499 118.793 127.55 118.276 127.744 117.806C127.938 117.336 128.267 116.934 128.69 116.651C129.112 116.369 129.608 116.218 130.115 116.218C130.452 116.218 130.786 116.284 131.098 116.414C131.409 116.543 131.692 116.732 131.93 116.971C132.168 117.21 132.358 117.494 132.486 117.806C132.615 118.118 132.682 118.452 132.682 118.79Z" fill="#3C57AB"/>
<path d="M193.2 183.521H109.231C108.972 183.521 108.716 183.47 108.476 183.371C108.237 183.271 108.02 183.126 107.837 182.943C107.654 182.759 107.509 182.541 107.41 182.302C107.311 182.062 107.26 181.805 107.26 181.546C107.26 181.022 107.467 180.519 107.837 180.149C108.207 179.778 108.708 179.57 109.231 179.57H193.2C193.723 179.57 194.224 179.778 194.594 180.149C194.964 180.519 195.171 181.022 195.171 181.546C195.171 181.805 195.12 182.062 195.021 182.302C194.922 182.541 194.777 182.759 194.594 182.943C194.411 183.126 194.194 183.271 193.955 183.371C193.716 183.47 193.459 183.521 193.2 183.521Z" fill="#535373"/>
<path d="M193.2 195.012H109.231C108.972 195.012 108.716 194.961 108.476 194.862C108.237 194.763 108.02 194.617 107.837 194.434C107.654 194.25 107.509 194.033 107.41 193.793C107.311 193.553 107.26 193.296 107.26 193.037C107.26 192.513 107.467 192.011 107.837 191.64C108.207 191.27 108.708 191.062 109.231 191.062H193.2C193.723 191.062 194.224 191.27 194.594 191.64C194.964 192.011 195.171 192.513 195.171 193.037C195.171 193.296 195.12 193.553 195.021 193.793C194.922 194.033 194.777 194.25 194.594 194.434C194.411 194.617 194.194 194.763 193.955 194.862C193.716 194.961 193.459 195.012 193.2 195.012Z" fill="#535373"/>
<path d="M193.2 206.504H109.231C108.708 206.504 108.207 206.295 107.837 205.925C107.467 205.554 107.26 205.052 107.26 204.528C107.26 204.269 107.311 204.012 107.41 203.772C107.509 203.532 107.654 203.315 107.837 203.131C108.02 202.948 108.237 202.802 108.476 202.703C108.716 202.604 108.972 202.553 109.231 202.553H193.2C193.459 202.553 193.716 202.604 193.955 202.703C194.194 202.802 194.411 202.948 194.594 203.131C194.777 203.315 194.922 203.532 195.021 203.772C195.12 204.012 195.171 204.269 195.171 204.528C195.171 205.052 194.964 205.554 194.594 205.925C194.224 206.295 193.723 206.504 193.2 206.504Z" fill="#535373"/>
<path d="M141.833 217.995H109.231C108.972 217.995 108.716 217.943 108.476 217.844C108.237 217.745 108.02 217.599 107.837 217.416C107.654 217.233 107.509 217.015 107.41 216.775C107.311 216.536 107.26 216.279 107.26 216.019C107.26 215.76 107.311 215.503 107.41 215.263C107.509 215.024 107.654 214.806 107.837 214.622C108.02 214.439 108.237 214.294 108.476 214.194C108.716 214.095 108.972 214.044 109.231 214.044H141.833C142.092 214.044 142.349 214.095 142.588 214.194C142.827 214.294 143.044 214.439 143.227 214.622C143.41 214.806 143.555 215.024 143.654 215.263C143.753 215.503 143.804 215.76 143.804 216.019C143.804 216.279 143.753 216.536 143.654 216.775C143.555 217.015 143.41 217.233 143.227 217.416C143.044 217.599 142.827 217.745 142.588 217.844C142.349 217.943 142.092 217.995 141.833 217.995Z" fill="#535373"/>
<path d="M71.7471 299.515H400.722V304.983C400.722 307.428 399.753 309.773 398.028 311.502C396.304 313.23 393.964 314.202 391.525 314.202H80.9448C78.5054 314.202 76.1659 313.23 74.441 311.502C72.7161 309.773 71.7471 307.428 71.7471 304.983V299.515Z" fill="#C2C2C2"/>
<path d="M289.039 142.292H239.194V192.249H289.039V142.292Z" fill="#C2C2C2"/>
<path d="M289.039 207.471H239.194V257.428H289.039V207.471Z" fill="#C2C2C2"/>
<path d="M174.818 153.385H78.1776C76.7235 153.385 75.2837 153.098 73.9403 152.541C72.5969 151.983 71.3763 151.165 70.3481 150.135C69.3199 149.104 68.5044 147.881 67.9479 146.535C67.3915 145.188 67.1051 143.745 67.1051 142.288C67.1051 139.345 68.2717 136.522 70.3482 134.441C72.4247 132.36 75.241 131.19 78.1776 131.19H174.818C176.272 131.19 177.712 131.477 179.055 132.035C180.399 132.593 181.619 133.41 182.647 134.441C183.676 135.471 184.491 136.695 185.048 138.041C185.604 139.387 185.891 140.83 185.891 142.288C185.891 143.745 185.604 145.188 185.048 146.535C184.491 147.881 183.676 149.104 182.647 150.135C181.619 151.165 180.399 151.983 179.055 152.541C177.712 153.098 176.272 153.385 174.818 153.385Z" fill="#005C91"/>
<path d="M174.317 138.087C174.875 138.646 175.254 139.358 175.408 140.133C175.562 140.908 175.483 141.711 175.181 142.441C174.88 143.172 174.369 143.795 173.713 144.235C173.058 144.674 172.287 144.908 171.498 144.908C170.71 144.908 169.939 144.674 169.284 144.235C168.628 143.795 168.117 143.172 167.816 142.441C167.514 141.711 167.435 140.908 167.589 140.133C167.743 139.358 168.122 138.646 168.68 138.087C169.05 137.716 169.489 137.422 169.973 137.221C170.457 137.02 170.975 136.917 171.498 136.917C172.022 136.917 172.54 137.02 173.024 137.221C173.508 137.422 173.947 137.716 174.317 138.087Z" stroke="white" stroke-width="0.94204" stroke-miterlimit="10"/>
<path d="M174.317 143.737L178.229 147.658" stroke="white" stroke-width="0.94204" stroke-miterlimit="10"/>
<path d="M107.607 244.677H156.514C157.794 244.677 159.022 245.187 159.927 246.094C160.833 247.001 161.342 248.232 161.342 249.516V271.056H102.779V249.515C102.779 248.88 102.904 248.251 103.147 247.664C103.389 247.077 103.745 246.543 104.193 246.094C104.642 245.645 105.174 245.288 105.759 245.045C106.345 244.802 106.973 244.677 107.607 244.677Z" fill="#3C57AB"/>
<path opacity="0.3" d="M109.547 249.146H154.574C154.827 249.146 155.078 249.197 155.312 249.294C155.547 249.391 155.759 249.533 155.939 249.713C156.118 249.893 156.26 250.106 156.357 250.341C156.454 250.575 156.504 250.827 156.504 251.081V271.056H107.617V251.081C107.617 250.568 107.82 250.076 108.182 249.713C108.544 249.35 109.035 249.146 109.547 249.146Z" fill="black"/>
<path d="M136.034 274.129H139.013V267.982H136.034C135.58 267.982 135.137 267.847 134.759 267.595C134.382 267.342 134.088 266.983 133.914 266.563C133.74 266.142 133.695 265.68 133.783 265.234C133.872 264.788 134.091 264.378 134.411 264.056L136.518 261.945L132.181 257.598L130.075 259.71C129.754 260.031 129.345 260.25 128.9 260.339C128.455 260.428 127.993 260.382 127.574 260.208C127.155 260.034 126.796 259.739 126.544 259.361C126.292 258.983 126.157 258.538 126.157 258.083V255.098H120.024V258.083C120.024 258.538 119.89 258.983 119.638 259.361C119.385 259.739 119.027 260.034 118.608 260.208C118.188 260.382 117.727 260.428 117.282 260.339C116.837 260.25 116.428 260.031 116.107 259.71L114 257.598L109.664 261.945L111.77 264.056C112.091 264.378 112.31 264.788 112.398 265.234C112.487 265.68 112.441 266.142 112.268 266.563C112.094 266.983 111.8 267.342 111.422 267.595C111.045 267.847 110.601 267.982 110.147 267.982H107.169V274.129H110.148C110.601 274.129 111.045 274.264 111.422 274.517C111.8 274.769 112.094 275.129 112.268 275.549C112.441 275.969 112.487 276.432 112.398 276.878C112.31 277.324 112.091 277.734 111.77 278.055L109.664 280.167L114 284.513L116.107 282.402C116.428 282.08 116.837 281.861 117.282 281.772C117.727 281.683 118.188 281.729 118.608 281.903C119.027 282.077 119.385 282.372 119.638 282.75C119.89 283.128 120.024 283.573 120.024 284.028V287.014H126.157V284.028C126.157 283.573 126.292 283.128 126.544 282.75C126.796 282.372 127.155 282.077 127.574 281.903C127.993 281.729 128.455 281.683 128.9 281.772C129.345 281.861 129.754 282.08 130.075 282.402L132.181 284.513L136.518 280.167L134.411 278.055C134.09 277.734 133.872 277.324 133.783 276.878C133.695 276.432 133.74 275.969 133.914 275.549C134.088 275.129 134.382 274.769 134.759 274.517C135.136 274.264 135.58 274.129 136.034 274.129ZM123.091 276.05C122.105 276.05 121.142 275.757 120.322 275.208C119.503 274.659 118.864 273.879 118.487 272.967C118.11 272.054 118.011 271.05 118.204 270.081C118.396 269.113 118.87 268.223 119.567 267.524C120.264 266.826 121.152 266.35 122.119 266.157C123.085 265.965 124.087 266.064 124.998 266.442C125.908 266.82 126.686 267.46 127.234 268.281C127.782 269.102 128.074 270.068 128.074 271.056C128.074 272.38 127.549 273.65 126.614 274.587C125.68 275.524 124.412 276.05 123.091 276.05Z" fill="#F9B253"/>
<path d="M140.171 281.706L154.975 266.868C155.427 266.403 155.97 266.038 156.571 265.796C157.171 265.554 157.816 265.44 158.463 265.462C159.343 265.506 160.223 265.357 161.04 265.025C161.858 264.694 162.593 264.187 163.194 263.541C163.796 262.894 164.249 262.124 164.522 261.284C164.796 260.444 164.883 259.554 164.778 258.676C164.765 258.581 164.725 258.49 164.664 258.416C164.603 258.341 164.522 258.285 164.43 258.254C164.339 258.223 164.241 258.218 164.147 258.24C164.053 258.262 163.966 258.31 163.898 258.378L160.625 261.658C160.377 261.907 160.068 262.085 159.73 262.176C159.391 262.267 159.035 262.267 158.696 262.176L157.673 261.902C157.335 261.811 157.026 261.632 156.778 261.384C156.53 261.135 156.352 260.826 156.261 260.486L155.987 259.461C155.896 259.122 155.896 258.764 155.987 258.425C156.078 258.086 156.256 257.776 156.504 257.528L159.78 254.245C159.847 254.177 159.895 254.091 159.917 253.998C159.939 253.904 159.935 253.806 159.904 253.715C159.874 253.624 159.819 253.543 159.745 253.481C159.671 253.42 159.582 253.38 159.487 253.367C158.609 253.258 157.719 253.344 156.878 253.618C156.037 253.893 155.267 254.348 154.621 254.953C153.975 255.558 153.469 256.298 153.139 257.12C152.809 257.942 152.663 258.827 152.712 259.711C152.729 260.366 152.61 261.017 152.361 261.623C152.112 262.228 151.74 262.775 151.268 263.228L136.539 277.991C136.087 278.464 135.541 278.837 134.937 279.086C134.333 279.335 133.683 279.454 133.03 279.437C132.147 279.389 131.265 279.535 130.444 279.865C129.624 280.196 128.886 280.703 128.283 281.35C127.679 281.998 127.224 282.77 126.951 283.613C126.677 284.455 126.592 285.348 126.7 286.227C126.713 286.323 126.753 286.412 126.814 286.486C126.875 286.56 126.956 286.615 127.047 286.646C127.138 286.676 127.236 286.681 127.329 286.659C127.423 286.636 127.508 286.589 127.576 286.521L130.851 283.238C131.099 282.99 131.408 282.811 131.747 282.72C132.085 282.629 132.442 282.629 132.78 282.72L133.803 282.994C134.142 283.085 134.451 283.264 134.699 283.512C134.947 283.761 135.125 284.07 135.215 284.41L135.489 285.435C135.58 285.774 135.58 286.132 135.49 286.471C135.399 286.81 135.22 287.12 134.973 287.368L131.7 290.649C131.631 290.717 131.584 290.804 131.562 290.898C131.54 290.992 131.545 291.09 131.576 291.182C131.607 291.274 131.663 291.355 131.737 291.416C131.812 291.478 131.902 291.517 131.997 291.53C132.873 291.636 133.761 291.549 134.599 291.274C135.437 291 136.206 290.546 136.851 289.943C137.496 289.34 138.001 288.604 138.332 287.784C138.664 286.965 138.812 286.084 138.768 285.201C138.746 284.553 138.859 283.907 139.101 283.305C139.342 282.703 139.707 282.158 140.171 281.706Z" fill="#F9B253"/>
<path d="M101.435 271.056H162.686V294.954C162.686 296.126 162.221 297.25 161.394 298.079C160.568 298.908 159.446 299.373 158.277 299.373H105.844C104.675 299.373 103.553 298.908 102.726 298.079C101.9 297.25 101.435 296.126 101.435 294.954V271.056Z" fill="#6582DB"/>
<g opacity="0.3">
<path opacity="0.3" d="M114.178 284.353C113.49 284.353 112.83 284.079 112.344 283.592C111.857 283.104 111.584 282.443 111.584 281.754V271.056H116.771V281.754C116.771 282.095 116.704 282.433 116.574 282.748C116.444 283.064 116.253 283.35 116.012 283.592C115.771 283.833 115.485 284.025 115.17 284.155C114.856 284.286 114.518 284.353 114.178 284.353Z" fill="black"/>
<path opacity="0.3" d="M149.943 284.353C149.603 284.353 149.265 284.286 148.951 284.155C148.636 284.025 148.35 283.833 148.109 283.592C147.868 283.35 147.677 283.064 147.547 282.748C147.417 282.433 147.349 282.095 147.349 281.754V271.056H152.537V281.754C152.537 282.095 152.47 282.433 152.339 282.748C152.209 283.064 152.018 283.35 151.777 283.592C151.536 283.833 151.25 284.025 150.936 284.155C150.621 284.286 150.284 284.353 149.943 284.353Z" fill="black"/>
</g>
<path d="M271.94 27.125H381.591C388.703 27.125 395.523 29.9564 400.552 34.9964C405.581 40.0364 408.406 46.8721 408.406 53.9998V287.748C408.406 294.876 405.581 301.711 400.552 306.751C395.523 311.791 388.703 314.623 381.591 314.623H271.94C264.828 314.623 258.008 311.791 252.979 306.751C247.95 301.711 245.125 294.875 245.125 287.748V53.9999C245.125 46.8723 247.95 40.0365 252.979 34.9965C258.008 29.9565 264.828 27.125 271.94 27.125Z" fill="#005C91"/>
<path d="M381.59 33.498H357.681C356.551 33.498 355.452 33.8725 354.556 34.5633C353.66 35.2541 353.017 36.2225 352.727 37.3176L351.965 40.191C351.654 41.3684 350.962 42.4094 349.999 43.1521C349.035 43.8948 347.854 44.2975 346.639 44.2975H306.892C305.677 44.2975 304.496 43.8948 303.532 43.1521C302.569 42.4094 301.877 41.3684 301.565 40.191L300.804 37.3176C300.514 36.2225 299.871 35.2542 298.975 34.5634C298.079 33.8726 296.98 33.4981 295.849 33.498H271.939C269.253 33.4981 266.593 34.0283 264.112 35.0586C261.63 36.0889 259.375 37.599 257.476 39.5026C255.576 41.4063 254.07 43.6663 253.042 46.1536C252.014 48.6409 251.485 51.3067 251.485 53.9989V287.748C251.485 290.44 252.014 293.106 253.042 295.593C254.07 298.081 255.576 300.341 257.476 302.244C259.375 304.148 261.63 305.658 264.112 306.688C266.593 307.719 269.253 308.249 271.939 308.249H381.591C384.278 308.249 386.938 307.719 389.419 306.688C391.901 305.658 394.156 304.148 396.055 302.244C397.955 300.341 399.461 298.081 400.489 295.593C401.517 293.106 402.046 290.44 402.046 287.748V54.0003C402.046 48.5628 399.891 43.348 396.055 39.503C392.218 35.6581 387.015 33.4981 381.59 33.498Z" fill="white"/>
<path opacity="0.2" d="M338.005 39.5683H315.526C315.245 39.5682 314.975 39.4561 314.776 39.2566C314.577 39.057 314.465 38.7864 314.465 38.5043C314.465 38.2221 314.577 37.9515 314.776 37.752C314.975 37.5525 315.245 37.4404 315.526 37.4404H338.005C338.286 37.4404 338.556 37.5525 338.755 37.752C338.954 37.9515 339.066 38.2221 339.066 38.5043C339.066 38.7864 338.954 39.057 338.755 39.2566C338.556 39.4561 338.286 39.5682 338.005 39.5683Z" fill="black"/>
<path opacity="0.2" d="M310.893 38.5045C310.893 38.836 310.795 39.1601 310.611 39.4358C310.427 39.7115 310.166 39.9264 309.86 40.0532C309.555 40.1801 309.218 40.2133 308.894 40.1486C308.569 40.0839 308.271 39.9243 308.037 39.6898C307.804 39.4554 307.644 39.1567 307.58 38.8315C307.515 38.5063 307.548 38.1693 307.675 37.863C307.802 37.5566 308.016 37.2948 308.291 37.1106C308.566 36.9264 308.889 36.8281 309.22 36.8281C309.664 36.8281 310.089 37.0048 310.403 37.3191C310.717 37.6335 310.893 38.0599 310.893 38.5045Z" fill="black"/>
<path d="M370.809 37.2363H360.773V41.9002H370.809V37.2363Z" fill="#52586E"/>
<path d="M379.652 41.9003L375.595 37.2373H383.71L379.652 41.9003Z" fill="#52586E"/>
<path d="M293.764 64.4805H268.319C265.111 64.4805 262.51 67.0871 262.51 70.3026V95.804C262.51 99.0195 265.111 101.626 268.319 101.626H293.764C296.972 101.626 299.573 99.0195 299.573 95.804V70.3026C299.573 67.0871 296.972 64.4805 293.764 64.4805Z" fill="#C2C2C2"/>
<path d="M339.488 64.4805H314.043C310.835 64.4805 308.234 67.0871 308.234 70.3026V95.804C308.234 99.0195 310.835 101.626 314.043 101.626H339.488C342.696 101.626 345.297 99.0195 345.297 95.804V70.3026C345.297 67.0871 342.696 64.4805 339.488 64.4805Z" fill="#C2C2C2"/>
<path d="M385.212 64.4805H359.767C356.559 64.4805 353.958 67.0871 353.958 70.3026V95.804C353.958 99.0195 356.559 101.626 359.767 101.626H385.212C388.42 101.626 391.021 99.0195 391.021 95.804V70.3026C391.021 67.0871 388.42 64.4805 385.212 64.4805Z" fill="#C2C2C2"/>
<path d="M386.82 116H266.711C264.391 116 262.51 117.885 262.51 120.21V137.7C262.51 140.025 264.391 141.91 266.711 141.91H386.82C389.14 141.91 391.021 140.025 391.021 137.7V120.21C391.021 117.885 389.14 116 386.82 116Z" fill="#FF595F" fill-opacity="0.65"/>
<path d="M386.82 116H365.791V141.91H386.82C387.934 141.91 389.003 141.466 389.791 140.677C390.578 139.887 391.021 138.816 391.021 137.7V120.21C391.021 119.093 390.578 118.023 389.79 117.233C389.003 116.444 387.934 116 386.82 116Z" fill="#FF595F"/>
<path d="M342.987 124.131H271.807C271.62 124.131 271.436 124.095 271.263 124.023C271.091 123.951 270.934 123.847 270.802 123.714C270.67 123.582 270.565 123.425 270.494 123.252C270.423 123.08 270.386 122.894 270.386 122.707C270.386 122.52 270.423 122.335 270.494 122.162C270.565 121.989 270.67 121.833 270.802 121.7C270.934 121.568 271.091 121.463 271.263 121.392C271.436 121.32 271.62 121.283 271.807 121.283H342.987C343.174 121.283 343.359 121.32 343.531 121.392C343.704 121.463 343.86 121.568 343.992 121.7C344.124 121.833 344.229 121.99 344.3 122.162C344.372 122.335 344.408 122.52 344.408 122.707C344.408 122.894 344.372 123.079 344.3 123.252C344.229 123.425 344.124 123.582 343.992 123.714C343.86 123.847 343.704 123.951 343.531 124.023C343.359 124.095 343.174 124.131 342.987 124.131Z" fill="#FF6344"/>
<path d="M342.987 130.378H271.807C271.62 130.378 271.436 130.342 271.263 130.27C271.091 130.199 270.934 130.094 270.802 129.961C270.67 129.829 270.565 129.672 270.494 129.499C270.423 129.327 270.386 129.141 270.386 128.954C270.386 128.767 270.423 128.582 270.494 128.409C270.565 128.237 270.67 128.08 270.802 127.947C270.934 127.815 271.091 127.71 271.263 127.639C271.436 127.567 271.62 127.53 271.807 127.53H342.987C343.174 127.53 343.359 127.567 343.531 127.639C343.704 127.71 343.86 127.815 343.992 127.947C344.124 128.08 344.229 128.237 344.3 128.409C344.372 128.582 344.408 128.767 344.408 128.954C344.408 129.141 344.372 129.327 344.3 129.499C344.229 129.672 344.124 129.829 343.992 129.961C343.86 130.094 343.704 130.199 343.531 130.27C343.359 130.342 343.174 130.378 342.987 130.378Z" fill="#FF6344"/>
<path d="M301.14 136.626H271.807C271.62 136.626 271.436 136.589 271.263 136.517C271.091 136.446 270.934 136.341 270.802 136.209C270.67 136.076 270.565 135.919 270.494 135.747C270.423 135.574 270.386 135.389 270.386 135.202C270.386 134.824 270.536 134.462 270.802 134.195C271.069 133.927 271.43 133.777 271.807 133.777H301.14C301.327 133.777 301.512 133.814 301.684 133.886C301.857 133.957 302.013 134.062 302.145 134.195C302.277 134.327 302.382 134.484 302.453 134.657C302.525 134.829 302.561 135.015 302.561 135.202C302.561 135.389 302.525 135.574 302.453 135.747C302.382 135.919 302.277 136.076 302.145 136.209C302.013 136.341 301.857 136.446 301.684 136.517C301.512 136.589 301.327 136.626 301.14 136.626Z" fill="#FF6344"/>
<path d="M378.406 133.735C381.04 133.735 383.175 131.595 383.175 128.955C383.175 126.315 381.04 124.175 378.406 124.175C375.772 124.175 373.637 126.315 373.637 128.955C373.637 131.595 375.772 133.735 378.406 133.735Z" fill="white"/>
<path d="M386.82 160.584H266.711C264.391 160.584 262.51 162.469 262.51 164.794V182.284C262.51 184.609 264.391 186.494 266.711 186.494H386.82C389.14 186.494 391.021 184.609 391.021 182.284V164.794C391.021 162.469 389.14 160.584 386.82 160.584Z" fill="#C2C2C2"/>
<path d="M386.82 205.168H266.711C264.391 205.168 262.51 207.053 262.51 209.378V226.868C262.51 229.193 264.391 231.078 266.711 231.078H386.82C389.14 231.078 391.021 229.193 391.021 226.868V209.378C391.021 207.053 389.14 205.168 386.82 205.168Z" fill="#A1B8FF"/>
<path d="M386.82 205.168H365.791V231.078H386.82C387.934 231.078 389.003 230.634 389.79 229.845C390.578 229.055 391.021 227.985 391.021 226.868V209.378C391.021 208.261 390.578 207.191 389.791 206.401C389.003 205.612 387.934 205.168 386.82 205.168Z" fill="#006EAE"/>
<path d="M342.987 213.3H271.807C271.43 213.3 271.069 213.149 270.802 212.882C270.536 212.615 270.386 212.253 270.386 211.875C270.386 211.688 270.423 211.503 270.494 211.33C270.565 211.157 270.67 211 270.802 210.868C270.934 210.736 271.091 210.631 271.263 210.56C271.436 210.488 271.62 210.451 271.807 210.451H342.987C343.174 210.451 343.359 210.488 343.531 210.56C343.704 210.631 343.86 210.736 343.992 210.868C344.124 211 344.229 211.158 344.3 211.33C344.372 211.503 344.408 211.688 344.408 211.875C344.408 212.062 344.372 212.248 344.3 212.42C344.229 212.593 344.124 212.75 343.992 212.882C343.86 213.015 343.704 213.12 343.531 213.191C343.359 213.263 343.174 213.3 342.987 213.3Z" fill="#7697FF"/>
<path d="M342.987 219.547H271.807C271.43 219.547 271.069 219.397 270.802 219.129C270.536 218.862 270.386 218.5 270.386 218.122C270.386 217.935 270.423 217.75 270.494 217.577C270.565 217.405 270.67 217.248 270.802 217.115C270.934 216.983 271.091 216.878 271.263 216.807C271.436 216.735 271.62 216.698 271.807 216.698H342.987C343.174 216.698 343.359 216.735 343.531 216.807C343.704 216.878 343.86 216.983 343.992 217.115C344.124 217.248 344.229 217.405 344.3 217.577C344.372 217.75 344.408 217.935 344.408 218.122C344.408 218.309 344.372 218.495 344.3 218.667C344.229 218.84 344.124 218.997 343.992 219.129C343.86 219.262 343.704 219.367 343.531 219.438C343.359 219.51 343.174 219.547 342.987 219.547Z" fill="#7697FF"/>
<path d="M301.14 225.795H271.807C271.43 225.795 271.069 225.645 270.802 225.377C270.536 225.11 270.386 224.748 270.386 224.37C270.386 224.183 270.423 223.998 270.494 223.825C270.565 223.653 270.67 223.496 270.802 223.363C270.934 223.231 271.091 223.126 271.263 223.055C271.436 222.983 271.62 222.946 271.807 222.946H301.14C301.327 222.946 301.512 222.983 301.684 223.055C301.857 223.126 302.013 223.231 302.145 223.363C302.277 223.496 302.382 223.653 302.453 223.825C302.525 223.998 302.561 224.183 302.561 224.37C302.561 224.557 302.525 224.743 302.453 224.915C302.382 225.088 302.277 225.245 302.145 225.377C302.013 225.51 301.857 225.615 301.684 225.686C301.512 225.758 301.327 225.795 301.14 225.795Z" fill="#7697FF"/>
<path d="M378.406 222.903C381.04 222.903 383.175 220.763 383.175 218.123C383.175 215.483 381.04 213.343 378.406 213.343C375.772 213.343 373.637 215.483 373.637 218.123C373.637 220.763 375.772 222.903 378.406 222.903Z" fill="white"/>
<path d="M279.163 244.139H167.977V326.894H279.163V244.139Z" fill="#6582DB"/>
<path d="M279.163 244.139H167.977V255.94H279.163V244.139Z" fill="#3C57AB"/>
<path d="M227.691 296.257H232.614V286.099H227.691C226.941 286.099 226.208 285.876 225.584 285.458C224.96 285.04 224.474 284.447 224.187 283.752C223.9 283.058 223.825 282.294 223.972 281.556C224.118 280.819 224.479 280.142 225.009 279.61L228.49 276.121L221.324 268.938L217.843 272.427C217.312 272.959 216.636 273.321 215.901 273.468C215.165 273.614 214.403 273.539 213.71 273.251C213.017 272.964 212.424 272.476 212.008 271.851C211.591 271.226 211.369 270.492 211.369 269.74V264.806H201.233V269.74C201.233 270.492 201.011 271.226 200.594 271.851C200.177 272.476 199.585 272.964 198.892 273.251C198.199 273.539 197.437 273.614 196.701 273.468C195.965 273.321 195.29 272.959 194.759 272.427L191.278 268.938L184.112 276.121L187.592 279.61C188.123 280.142 188.484 280.819 188.63 281.556C188.777 282.294 188.702 283.058 188.415 283.752C188.128 284.447 187.641 285.04 187.018 285.458C186.394 285.876 185.661 286.099 184.911 286.099H179.988V296.257H184.911C185.661 296.257 186.394 296.48 187.018 296.897C187.642 297.315 188.128 297.909 188.415 298.603C188.702 299.298 188.777 300.062 188.631 300.799C188.484 301.536 188.123 302.214 187.593 302.745L184.112 306.234L191.278 313.417L194.759 309.928C195.29 309.396 195.965 309.034 196.701 308.888C197.437 308.741 198.199 308.816 198.892 309.104C199.585 309.392 200.177 309.879 200.594 310.504C201.011 311.129 201.233 311.864 201.233 312.616V317.55H211.369V312.616C211.369 311.864 211.591 311.129 212.008 310.504C212.424 309.879 213.017 309.392 213.71 309.104C214.403 308.816 215.165 308.741 215.901 308.888C216.636 309.034 217.312 309.396 217.843 309.928L221.324 313.417L228.49 306.234L225.009 302.745C224.479 302.214 224.118 301.536 223.971 300.799C223.825 300.062 223.9 299.298 224.187 298.603C224.474 297.909 224.96 297.315 225.584 296.897C226.208 296.48 226.941 296.257 227.691 296.257ZM206.301 299.431C204.672 299.431 203.08 298.947 201.726 298.04C200.372 297.133 199.316 295.844 198.693 294.336C198.07 292.828 197.907 291.168 198.224 289.567C198.542 287.966 199.326 286.496 200.478 285.341C201.63 284.187 203.097 283.401 204.695 283.083C206.292 282.764 207.948 282.928 209.453 283.552C210.957 284.177 212.243 285.235 213.148 286.592C214.053 287.95 214.536 289.545 214.536 291.178C214.536 292.262 214.323 293.335 213.909 294.336C213.495 295.337 212.889 296.247 212.124 297.014C211.359 297.78 210.451 298.388 209.452 298.803C208.453 299.218 207.382 299.431 206.301 299.431Z" fill="white"/>
<path d="M248.551 303.032V279.325C248.542 278.592 248.685 277.865 248.971 277.191C249.258 276.516 249.682 275.91 250.217 275.409C250.956 274.74 251.54 273.916 251.928 272.997C252.316 272.077 252.5 271.084 252.465 270.086C252.43 269.088 252.179 268.11 251.727 267.22C251.276 266.33 250.637 265.549 249.853 264.932C249.766 264.866 249.663 264.825 249.554 264.815C249.446 264.805 249.336 264.825 249.239 264.873C249.141 264.922 249.058 264.996 249.001 265.089C248.943 265.182 248.912 265.289 248.912 265.398V270.64C248.912 271.036 248.808 271.426 248.61 271.77C248.412 272.114 248.127 272.399 247.784 272.598L246.748 273.197C246.405 273.396 246.016 273.5 245.62 273.5C245.224 273.5 244.835 273.396 244.492 273.197L243.456 272.598C243.113 272.399 242.828 272.114 242.63 271.77C242.432 271.426 242.328 271.036 242.328 270.639V265.394C242.328 265.285 242.298 265.179 242.241 265.086C242.183 264.994 242.102 264.919 242.005 264.871C241.908 264.823 241.799 264.802 241.691 264.812C241.583 264.822 241.48 264.862 241.394 264.927C240.607 265.543 239.964 266.325 239.511 267.217C239.057 268.109 238.805 269.09 238.771 270.091C238.737 271.091 238.923 272.087 239.315 273.008C239.707 273.928 240.295 274.752 241.039 275.42C241.574 275.929 241.998 276.545 242.282 277.228C242.566 277.91 242.705 278.645 242.689 279.385V302.971C242.705 303.711 242.566 304.446 242.282 305.129C241.998 305.811 241.574 306.427 241.039 306.936C240.295 307.604 239.707 308.428 239.315 309.349C238.923 310.269 238.737 311.265 238.771 312.266C238.805 313.266 239.057 314.247 239.511 315.139C239.964 316.031 240.607 316.813 241.394 317.429C241.48 317.494 241.583 317.534 241.691 317.544C241.799 317.554 241.908 317.534 242.005 317.485C242.102 317.437 242.183 317.362 242.241 317.27C242.298 317.177 242.328 317.071 242.328 316.962V311.717C242.328 311.32 242.432 310.93 242.63 310.586C242.828 310.243 243.113 309.957 243.456 309.759L244.492 309.159C244.835 308.961 245.224 308.856 245.62 308.856C246.016 308.856 246.405 308.961 246.748 309.159L247.784 309.759C248.127 309.957 248.412 310.243 248.61 310.586C248.808 310.93 248.912 311.32 248.912 311.717V316.958C248.912 317.068 248.943 317.175 249.001 317.267C249.058 317.36 249.141 317.435 249.239 317.483C249.336 317.532 249.446 317.552 249.554 317.541C249.663 317.531 249.766 317.49 249.853 317.424C250.637 316.807 251.276 316.027 251.727 315.137C252.179 314.246 252.43 313.268 252.465 312.27C252.5 311.272 252.316 310.279 251.928 309.359C251.54 308.44 250.956 307.617 250.217 306.947C249.682 306.447 249.258 305.84 248.971 305.166C248.685 304.491 248.542 303.765 248.551 303.032Z" fill="#C2C2C2"/>
<path d="M264.101 264.805H262.433L260.506 271.472L261.868 272.288V293.248H264.667V272.288L266.029 271.472L264.101 264.805Z" fill="#C2C2C2"/>
<path d="M265.394 297.179C265.396 296.827 265.531 296.488 265.771 296.231C266.011 295.974 266.34 295.818 266.69 295.793L266.637 293.249H259.896L259.843 295.792C260.2 295.817 260.534 295.978 260.775 296.243C261.016 296.507 261.146 296.855 261.139 297.213C261.132 297.571 260.987 297.913 260.735 298.167C260.483 298.421 260.143 298.568 259.785 298.578L259.382 317.907H267.152L266.748 298.578C266.386 298.566 266.042 298.414 265.789 298.153C265.537 297.892 265.395 297.543 265.394 297.179Z" fill="#333745"/>
<path d="M245.62 304.842C245.505 304.842 245.39 304.82 245.283 304.775C245.177 304.731 245.08 304.666 244.998 304.584C244.916 304.502 244.852 304.405 244.807 304.298C244.763 304.191 244.74 304.077 244.74 303.961V278.394C244.74 278.161 244.833 277.936 244.998 277.771C245.163 277.606 245.387 277.513 245.62 277.513C245.736 277.513 245.85 277.536 245.957 277.58C246.063 277.624 246.16 277.689 246.242 277.771C246.324 277.853 246.389 277.95 246.433 278.057C246.477 278.164 246.5 278.279 246.5 278.394V303.961C246.5 304.077 246.477 304.191 246.433 304.298C246.389 304.405 246.324 304.502 246.242 304.584C246.16 304.666 246.063 304.731 245.957 304.775C245.85 304.82 245.736 304.842 245.62 304.842Z" fill="white"/>
<path d="M180.727 252.303C181.974 252.303 182.984 251.29 182.984 250.04C182.984 248.791 181.974 247.778 180.727 247.778C179.481 247.778 178.47 248.791 178.47 250.04C178.47 251.29 179.481 252.303 180.727 252.303Z" fill="white"/>
<path d="M191.66 252.303C192.906 252.303 193.917 251.29 193.917 250.04C193.917 248.791 192.906 247.778 191.66 247.778C190.413 247.778 189.403 248.791 189.403 250.04C189.403 251.29 190.413 252.303 191.66 252.303Z" fill="white"/>
<path d="M204.849 250.04C204.849 250.488 204.717 250.925 204.469 251.297C204.221 251.669 203.868 251.959 203.456 252.13C203.044 252.302 202.59 252.346 202.152 252.259C201.714 252.172 201.312 251.956 200.996 251.64C200.68 251.324 200.466 250.921 200.378 250.482C200.291 250.043 200.336 249.588 200.507 249.175C200.678 248.761 200.967 248.408 201.338 248.16C201.709 247.911 202.146 247.778 202.592 247.778C203.191 247.778 203.765 248.017 204.188 248.441C204.612 248.865 204.849 249.44 204.849 250.04Z" fill="white"/>
<path d="M400.089 326.894H304.548L298.571 261.813C298.508 261.127 298.588 260.435 298.807 259.782C299.026 259.129 299.378 258.529 299.841 258.02C300.304 257.511 300.868 257.104 301.497 256.826C302.126 256.548 302.806 256.404 303.493 256.404H389.105C390.338 256.404 391.526 256.866 392.437 257.698C393.347 258.531 393.915 259.674 394.028 260.904L400.089 326.894Z" fill="#F9B253"/>
<path d="M320.795 262.794C321.212 266.686 323.031 270.292 325.911 272.935C328.792 275.579 332.535 277.078 336.44 277.152C338.273 277.187 340.091 276.828 341.774 276.101C343.457 275.373 344.965 274.293 346.196 272.933C347.428 271.573 348.356 269.965 348.917 268.216C349.477 266.467 349.658 264.618 349.448 262.794C349.229 260.535 348.512 258.352 347.35 256.404H321.719C320.903 258.429 320.586 260.621 320.795 262.794Z" fill="#FFDB82"/>
<path d="M314.491 288.115L302.23 301.649L304.549 326.895H368.832L325.997 287.583C325.208 286.858 324.284 286.297 323.277 285.932C322.271 285.566 321.203 285.404 320.134 285.453C319.065 285.502 318.016 285.763 317.047 286.22C316.079 286.677 315.21 287.32 314.491 288.115Z" fill="#006EAE"/>
<path d="M326.683 326.894H400.089L395.699 279.098L387.56 271.628C386.786 270.918 385.879 270.368 384.893 270.009C383.906 269.651 382.858 269.491 381.81 269.54C380.762 269.588 379.733 269.844 378.784 270.291C377.834 270.739 376.982 271.371 376.277 272.149L326.683 326.894Z" fill="#0074E4"/>
<path d="M223.909 121.509C240.939 121.509 254.744 107.672 254.744 90.6044C254.744 73.5365 240.939 59.7002 223.909 59.7002C206.88 59.7002 193.074 73.5365 193.074 90.6044C193.074 107.672 206.88 121.509 223.909 121.509Z" fill="#FF595F"/>
<path d="M204.163 90.0358C204.155 89.7955 204.23 89.5599 204.376 89.3687C204.55 89.1617 204.755 88.9842 204.986 88.843L214.342 82.5065C214.4 82.4747 214.462 82.4509 214.526 82.4357C214.568 82.4262 214.611 82.4213 214.654 82.421C214.732 82.4193 214.81 82.4336 214.883 82.463C214.956 82.4923 215.023 82.5362 215.078 82.5919C215.134 82.6476 215.178 82.714 215.207 82.7872C215.236 82.8603 215.25 82.9386 215.249 83.0173V84.2956C215.251 84.4325 215.225 84.5684 215.174 84.6954C215.123 84.8224 215.047 84.9378 214.95 85.0349C214.769 85.2297 214.565 85.4013 214.342 85.5458L206.856 90.6323L214.342 95.7186C214.564 95.8646 214.769 96.0366 214.95 96.2311C215.047 96.3279 215.123 96.4431 215.174 96.5698C215.225 96.6965 215.251 96.8322 215.249 96.9689V98.2485C215.25 98.3273 215.236 98.4056 215.207 98.4787C215.178 98.5519 215.134 98.6183 215.078 98.674C215.023 98.7298 214.956 98.7737 214.883 98.803C214.81 98.8324 214.732 98.8467 214.654 98.845C214.611 98.8447 214.568 98.8397 214.526 98.8302C214.462 98.815 214.4 98.7913 214.342 98.7595L204.986 92.423C204.755 92.2818 204.55 92.1042 204.376 91.8971C204.23 91.706 204.155 91.4704 204.163 91.2302V90.0358Z" fill="white"/>
<path d="M230.049 102.085C230.083 102.166 230.102 102.253 230.105 102.34C230.104 102.506 230.037 102.664 229.921 102.781C229.804 102.898 229.647 102.964 229.482 102.966H228.631C228.478 102.977 228.323 102.958 228.177 102.909C228.031 102.861 227.896 102.783 227.78 102.682C227.611 102.521 227.476 102.328 227.384 102.113L217.801 79.1261C217.766 79.045 217.746 78.9581 217.744 78.8698C217.746 78.7044 217.812 78.5465 217.929 78.4296C218.045 78.3126 218.203 78.246 218.368 78.2439H219.304C219.603 78.2235 219.897 78.3207 220.125 78.5148C220.303 78.6795 220.448 78.877 220.551 79.0965L230.049 102.085Z" fill="white"/>
<path d="M243.656 91.2302C243.664 91.4706 243.589 91.7063 243.443 91.8972C243.27 92.1043 243.065 92.2819 242.835 92.423L233.478 98.7596C233.42 98.7911 233.358 98.8149 233.293 98.8302C233.252 98.8397 233.209 98.8447 233.167 98.845C233.088 98.847 233.01 98.8329 232.937 98.8036C232.863 98.7743 232.797 98.7305 232.741 98.6747C232.685 98.619 232.642 98.5525 232.612 98.4792C232.583 98.4059 232.569 98.3275 232.57 98.2485V96.9689C232.569 96.8323 232.594 96.6967 232.646 96.57C232.697 96.4434 232.773 96.3282 232.869 96.2311C233.051 96.0363 233.255 95.8642 233.478 95.7187L240.963 90.6323L233.478 85.5458C233.255 85.4018 233.05 85.2301 232.869 85.035C232.773 84.9376 232.697 84.8222 232.646 84.6952C232.594 84.5683 232.569 84.4325 232.57 84.2956V83.0174C232.569 82.9385 232.583 82.86 232.612 82.7868C232.642 82.7135 232.686 82.647 232.741 82.5913C232.797 82.5356 232.864 82.4917 232.937 82.4625C233.01 82.4332 233.088 82.4191 233.167 82.4211C233.209 82.4215 233.252 82.4264 233.293 82.4357C233.358 82.4511 233.42 82.4749 233.478 82.5065L242.835 88.8431C243.065 88.9842 243.27 89.1617 243.443 89.3687C243.589 89.5596 243.664 89.7955 243.656 90.0359V91.2302Z" fill="white"/>
<path d="M160.11 91.7347C174.519 91.7347 186.2 80.0278 186.2 65.5866C186.2 51.1454 174.519 39.4385 160.11 39.4385C145.701 39.4385 134.021 51.1454 134.021 65.5866C134.021 80.0278 145.701 91.7347 160.11 91.7347Z" fill="#FF595F"/>
<path d="M171.601 61.2826C170.604 61.2864 169.64 61.6413 168.877 62.2853L157.355 55.6188C157.533 54.6139 157.352 53.5784 156.844 52.6939C156.336 51.8093 155.534 51.1323 154.578 50.7814C153.621 50.4305 152.572 50.4283 151.615 50.775C150.657 51.1218 149.852 51.7954 149.34 52.6778C148.829 53.5601 148.643 54.5948 148.817 55.6004C148.99 56.606 149.511 57.5183 150.289 58.1773C151.066 58.8363 152.051 59.1998 153.069 59.2042C154.087 59.2086 155.074 58.8535 155.857 58.2013L167.379 64.8678C167.283 65.3422 167.283 65.8311 167.379 66.3055L155.858 72.9723C155.062 72.3008 154.056 71.9321 153.016 71.9313C151.976 71.9304 150.97 72.2974 150.173 72.9677C149.377 73.6379 148.842 74.5683 148.663 75.5949C148.484 76.6216 148.673 77.6786 149.195 78.5797C149.718 79.4808 150.541 80.1682 151.519 80.5208C152.498 80.8733 153.569 80.8684 154.544 80.5069C155.52 80.1454 156.336 79.4505 156.85 78.5446C157.365 77.6387 157.543 76.58 157.355 75.555L168.877 68.888C169.407 69.3278 170.035 69.6331 170.708 69.7783C171.38 69.9234 172.078 69.9041 172.742 69.7218C173.406 69.5396 174.016 69.1999 174.521 68.7314C175.026 68.2629 175.411 67.6794 175.644 67.0303C175.876 66.3811 175.95 65.6854 175.857 65.0019C175.765 64.3184 175.51 63.6672 175.113 63.1035C174.717 62.5397 174.191 62.0799 173.579 61.763C172.968 61.446 172.29 61.2812 171.601 61.2826Z" fill="white"/>
<path d="M427.387 303.351H420.805V326.894H427.387V303.351Z" fill="#3C57AB"/>
<path d="M474.716 303.351H468.133V326.894H474.716V303.351Z" fill="#3C57AB"/>
<g opacity="0.3">
<path opacity="0.3" d="M427.387 303.351H420.805V313.547H427.387V303.351Z" fill="url(#paint0_linear)"/>
<path opacity="0.3" d="M474.716 303.351H468.133V313.547H474.716V303.351Z" fill="url(#paint1_linear)"/>
</g>
<path d="M477.885 305.005H417.636C417.182 305.006 416.732 304.916 416.312 304.742C415.893 304.567 415.511 304.312 415.19 303.99C414.869 303.668 414.614 303.286 414.441 302.865C414.267 302.445 414.177 301.994 414.177 301.539C414.177 301.084 414.267 300.633 414.441 300.212C414.614 299.792 414.869 299.409 415.19 299.088C415.512 298.766 415.893 298.51 416.312 298.336C416.732 298.162 417.182 298.072 417.636 298.072H477.885C478.339 298.072 478.789 298.162 479.208 298.336C479.628 298.51 480.009 298.766 480.33 299.088C480.652 299.409 480.906 299.792 481.08 300.212C481.254 300.633 481.343 301.084 481.343 301.539C481.343 301.994 481.254 302.445 481.08 302.865C480.906 303.286 480.652 303.668 480.33 303.99C480.009 304.312 479.628 304.567 479.208 304.742C478.789 304.916 478.339 305.005 477.885 305.005Z" fill="#3C57AB"/>
<path d="M439.448 281.197L437.717 293.558C437.717 293.558 440.022 297.467 439.313 299.066C438.604 300.665 418.432 300.871 418.085 299.481C417.521 297.219 430.449 293.025 430.449 293.025L430.42 281.197H439.448Z" fill="#FFE1BD"/>
<path d="M439.313 299.065C439.504 297.646 439.201 296.203 438.456 294.981C432.161 296.121 429.565 294.713 428.506 293.691C424.922 294.965 417.66 297.773 418.086 299.481C418.432 300.871 438.604 300.664 439.313 299.065Z" fill="#FF595F"/>
<path d="M471.76 277.091L475.419 289.365C475.419 289.365 478.662 292.534 478.395 294.263C478.127 295.993 458.71 301.473 458.013 300.222C456.879 298.187 468.264 290.753 468.264 290.753L463.045 279.455L471.76 277.091Z" fill="#FFE1BD"/>
<path d="M478.395 294.263C478.558 293.21 477.419 291.625 476.503 290.545C470.723 293.294 467.851 292.614 466.562 291.905C463.434 294.073 457.156 298.685 458.013 300.222C458.71 301.473 478.127 295.993 478.395 294.263Z" fill="#FF595F"/>
<path d="M438.397 157.2C438.397 157.2 420.752 227.274 425.608 282.707H440.923C440.923 282.707 447.238 254.108 444.573 225.807L455.215 157.385L438.397 157.2Z" fill="#006EAE"/>
<path d="M446.043 157.2C446.043 157.2 437.619 224.07 461.103 282.707H476.163C476.163 282.707 476.071 240.494 466.321 224.106C466.321 224.106 470.889 171.058 461.103 157.504L446.043 157.2Z" fill="#0074E4"/>
<path d="M461.103 282.708H476.163C476.163 282.708 476.157 280.205 476.009 276.201H458.642C459.422 278.378 460.243 280.547 461.103 282.708Z" fill="#0074E4"/>
<path d="M425.147 276.201C425.27 278.388 425.424 280.557 425.609 282.708H440.923C440.923 282.708 441.454 280.297 442.142 276.201H425.147Z" fill="#006EAE"/>
<path d="M442.912 90.2159C440.805 95.9984 440.37 102.26 441.657 108.279C443.483 115.592 444.782 123.028 445.544 130.528C446.171 138.319 448.258 154.261 464.592 157.386C470.965 158.606 474.449 153.259 476.547 149.308C478.645 145.357 465.961 116.378 465.961 116.378L456.076 86.7979L442.912 90.2159Z" fill="#1C1C1C"/>
<path d="M457.403 117.722L428.687 120.615L405.77 104.947C405.77 104.947 403.47 97.9237 398.282 97.3525L397.509 105.443L421.155 126.348C422.66 127.678 424.421 128.683 426.33 129.3C428.24 129.918 430.255 130.134 432.251 129.936L457.98 127.381L457.403 117.722Z" fill="#FFE1BD"/>
<path opacity="0.3" d="M430.088 129.97C430.809 130.012 431.532 130 432.251 129.935L457.98 127.38L457.403 117.722L435.325 119.946L430.088 129.97Z" fill="url(#paint2_linear)"/>
<path d="M373.101 73.9341L398.183 78.222C399.701 78.4817 401.055 79.3353 401.946 80.5952C402.836 81.8551 403.191 83.418 402.932 84.9401L398.654 110.079C398.395 111.601 397.543 112.957 396.286 113.85C395.029 114.743 393.469 115.098 391.951 114.839L366.869 110.551C365.35 110.291 363.996 109.438 363.106 108.178C362.215 106.918 361.86 105.355 362.119 103.833L366.397 78.6945C366.656 77.1724 367.508 75.8157 368.765 74.923C370.022 74.0302 371.582 73.6746 373.101 73.9342L373.101 73.9341Z" fill="#1A82E7"/>
<path d="M384.453 85.9919L385.846 91.6002C385.869 91.6928 385.916 91.7777 385.983 91.846C386.049 91.9144 386.133 91.9637 386.225 91.9889L391.786 93.5177C391.886 93.5453 391.977 93.6017 392.046 93.68C392.115 93.7583 392.16 93.855 392.175 93.9584C392.19 94.0619 392.175 94.1674 392.131 94.2623C392.087 94.3571 392.016 94.4371 391.928 94.4924L387.036 97.5532C386.956 97.6038 386.89 97.675 386.845 97.7595C386.801 97.8441 386.78 97.9389 386.785 98.0343L387.052 103.808C387.057 103.912 387.032 104.016 386.979 104.106C386.926 104.196 386.848 104.268 386.754 104.315C386.661 104.361 386.556 104.379 386.453 104.366C386.349 104.354 386.251 104.312 386.172 104.244L381.756 100.528C381.683 100.466 381.595 100.425 381.501 100.409C381.407 100.393 381.31 100.403 381.221 100.436L375.826 102.476C375.728 102.513 375.622 102.52 375.52 102.498C375.418 102.475 375.325 102.423 375.252 102.348C375.179 102.274 375.13 102.179 375.11 102.077C375.09 101.974 375.1 101.868 375.139 101.771L377.301 96.4131C377.337 96.3245 377.348 96.2281 377.334 96.1336C377.321 96.0391 377.282 95.95 377.223 95.8754L373.62 91.3625C373.555 91.2809 373.515 91.182 373.505 91.078C373.495 90.974 373.515 90.8693 373.564 90.7768C373.612 90.6842 373.687 90.6079 373.778 90.557C373.869 90.506 373.973 90.4828 374.077 90.4902L379.829 90.8955C379.924 90.9022 380.019 90.8835 380.104 90.8412C380.19 90.7988 380.262 90.7345 380.315 90.6547L383.484 85.8263C383.541 85.7389 383.623 85.6702 383.718 85.6286C383.814 85.5869 383.92 85.5741 384.022 85.5916C384.125 85.6092 384.221 85.6564 384.297 85.7275C384.374 85.7986 384.428 85.8904 384.453 85.9919Z" fill="white"/>
<path d="M401.257 98.5039C401.257 98.5039 394.075 98.7354 394.138 99.4893C394.2 100.243 398.589 100.369 398.589 100.369C399.068 101.85 400.047 103.117 401.357 103.953C402.668 104.789 404.228 105.14 405.77 104.947C405.77 104.947 404.427 100.283 401.257 98.5039Z" fill="#FFE1BD"/>
<path d="M303.674 169.554L416.22 153.575C417.263 153.427 418.323 153.701 419.166 154.336C420.009 154.971 420.565 155.915 420.713 156.961L423.029 173.35C423.177 174.396 422.905 175.458 422.271 176.303C421.637 177.147 420.695 177.705 419.651 177.853L307.106 193.832C306.062 193.981 305.002 193.707 304.159 193.072C303.317 192.437 302.76 191.493 302.612 190.446L300.296 174.058C300.148 173.012 300.421 171.95 301.054 171.105C301.688 170.26 302.63 169.703 303.674 169.554Z" fill="#A1B8FF"/>
<path d="M303.674 169.554L416.22 153.575C417.263 153.427 418.323 153.701 419.166 154.336C420.009 154.971 420.565 155.915 420.713 156.961L423.029 173.35C423.177 174.396 422.905 175.458 422.271 176.303C421.637 177.147 420.695 177.705 419.651 177.853L307.106 193.832C306.062 193.981 305.002 193.707 304.159 193.072C303.317 192.437 302.76 191.493 302.612 190.446L300.296 174.058C300.148 173.012 300.421 171.95 301.054 171.105C301.688 170.26 302.63 169.703 303.674 169.554Z" fill="#A1B8FF"/>
<path d="M416.222 153.575L396.517 156.372L399.949 180.651L419.654 177.853C420.698 177.704 421.64 177.147 422.274 176.302C422.907 175.458 423.18 174.395 423.032 173.349L420.716 156.961C420.643 156.443 420.468 155.944 420.203 155.493C419.937 155.043 419.586 154.649 419.169 154.335C418.751 154.02 418.276 153.791 417.771 153.661C417.265 153.531 416.739 153.501 416.222 153.575Z" fill="#006EAE"/>
<path d="M376.227 167.026L309.529 176.496C309.354 176.521 309.176 176.511 309.005 176.467C308.834 176.423 308.673 176.345 308.532 176.239C308.391 176.132 308.272 175.999 308.182 175.847C308.092 175.694 308.033 175.526 308.009 175.351C307.984 175.175 307.994 174.997 308.038 174.825C308.082 174.654 308.159 174.493 308.265 174.352C308.371 174.21 308.504 174.091 308.656 174.001C308.808 173.911 308.977 173.852 309.151 173.827L375.849 164.357C376.024 164.332 376.202 164.342 376.373 164.386C376.544 164.43 376.705 164.508 376.846 164.614C376.987 164.721 377.106 164.854 377.196 165.006C377.286 165.159 377.345 165.327 377.369 165.502C377.419 165.856 377.327 166.216 377.113 166.502C376.898 166.787 376.58 166.976 376.227 167.026Z" fill="#6582DB"/>
<path d="M377.054 172.88L310.356 182.35C310.181 182.375 310.003 182.365 309.832 182.321C309.661 182.277 309.5 182.2 309.359 182.093C309.218 181.987 309.099 181.854 309.009 181.701C308.92 181.549 308.861 181.38 308.836 181.205C308.811 181.03 308.821 180.851 308.865 180.68C308.909 180.508 308.986 180.347 309.092 180.206C309.198 180.065 309.331 179.945 309.483 179.855C309.636 179.765 309.804 179.706 309.979 179.682L376.677 170.212C376.851 170.187 377.03 170.197 377.201 170.241C377.372 170.285 377.532 170.362 377.673 170.469C377.815 170.575 377.933 170.708 378.023 170.861C378.113 171.013 378.172 171.182 378.197 171.357C378.221 171.532 378.212 171.711 378.168 171.882C378.124 172.053 378.046 172.215 377.94 172.356C377.834 172.497 377.701 172.617 377.549 172.707C377.397 172.797 377.229 172.856 377.054 172.88Z" fill="#6582DB"/>
<path d="M338.67 184.302L311.183 188.204C310.83 188.254 310.472 188.162 310.187 187.947C309.902 187.732 309.713 187.413 309.663 187.059C309.613 186.705 309.706 186.345 309.92 186.06C310.134 185.774 310.453 185.585 310.806 185.535L338.292 181.632C338.467 181.608 338.645 181.618 338.816 181.662C338.987 181.706 339.148 181.783 339.289 181.89C339.43 181.996 339.549 182.129 339.639 182.282C339.729 182.434 339.788 182.603 339.813 182.778C339.863 183.132 339.77 183.491 339.556 183.777C339.342 184.063 339.023 184.251 338.67 184.302Z" fill="#6582DB"/>
<path d="M414.523 166.199C414.648 167.085 414.508 167.988 414.121 168.794C413.734 169.601 413.117 170.274 412.349 170.729C411.58 171.184 410.694 171.4 409.803 171.35C408.911 171.301 408.055 170.987 407.341 170.449C406.628 169.912 406.089 169.174 405.794 168.33C405.499 167.485 405.46 166.572 405.682 165.706C405.905 164.839 406.379 164.058 407.044 163.462C407.71 162.865 408.537 162.48 409.42 162.354C410.007 162.271 410.605 162.304 411.179 162.452C411.753 162.6 412.292 162.86 412.766 163.217C413.24 163.574 413.639 164.022 413.94 164.533C414.242 165.045 414.44 165.611 414.523 166.199Z" fill="white"/>
<path d="M447.352 88.6074C446.264 91.2412 444.765 93.6849 442.912 95.847L444.549 96.4953L443.527 101.418C443.447 101.801 443.446 102.197 443.523 102.581C443.6 102.964 443.754 103.328 443.975 103.651C444.196 103.974 444.48 104.248 444.81 104.458C445.139 104.668 445.508 104.808 445.893 104.871L448.458 105.292C449.013 105.382 449.526 105.64 449.93 106.031C450.334 106.421 450.61 106.926 450.721 107.478L452.51 116.377H464.062L462.736 89.2557L447.352 88.6074Z" fill="#FFE1BD"/>
<path d="M454.109 113.254C452.303 113.349 450.539 113.84 448.942 114.693C447.345 115.545 445.954 116.738 444.867 118.188C443.036 120.633 440.655 123.825 438.605 126.619C437.395 128.269 436.798 130.29 436.917 132.333C437.035 134.377 437.862 136.315 439.254 137.813C439.82 138.414 440.23 139.146 440.447 139.943C440.665 140.741 440.683 141.58 440.5 142.386L435.493 163.851C440.125 165.012 444.872 165.644 449.646 165.735C450.287 165.744 450.914 165.547 451.435 165.172C451.955 164.797 452.342 164.264 452.537 163.652L453.89 165.735L454.865 163.24C455.118 163.88 455.584 164.413 456.185 164.748C456.785 165.082 457.483 165.199 458.159 165.076C460.588 164.598 462.985 163.964 465.334 163.179C463.082 146.922 463.293 130.417 465.961 114.223C462.068 113.39 458.085 113.064 454.109 113.254Z" fill="#FF595F"/>
<path d="M458.069 120.485C456.849 119.67 455.363 119.356 453.919 119.608C452.475 119.861 451.182 120.659 450.309 121.839L430.868 147.042L399.151 153.739L393.376 152.826C391.067 152.461 388.706 153.011 386.794 154.36L381.136 158.352L382.544 160.767C382.97 161.498 383.622 162.07 384.402 162.395C385.182 162.721 386.046 162.783 386.864 162.572L393.098 160.961L399.363 159.378L431.693 156.663C433.214 156.536 434.693 156.102 436.043 155.389C437.394 154.676 438.587 153.698 439.551 152.512L459.127 128.465C459.603 127.88 459.954 127.205 460.159 126.479C460.364 125.753 460.419 124.993 460.32 124.245C460.221 123.498 459.97 122.778 459.583 122.131C459.195 121.485 458.68 120.924 458.069 120.485Z" fill="#FFE1BD"/>
<path d="M442.912 90.2158L452.604 92.1968C453.731 92.425 454.737 93.0528 455.439 93.9649C456.141 94.877 456.491 96.0123 456.425 97.1623C455.751 108.33 455.89 139.071 476.547 149.308C476.547 149.308 479.838 144.01 478.433 133.415C476.677 120.177 468.094 120.307 469.264 107.664C470.252 96.9935 471.98 84.0362 460.161 81.075C451.838 78.9894 444.992 83.1776 442.912 90.2158Z" fill="#2F3349"/>
<path d="M190.083 21.819C190.083 22.5438 189.869 23.2524 189.467 23.8551C189.065 24.4578 188.494 24.9275 187.826 25.2049C187.158 25.4823 186.422 25.5549 185.713 25.4135C185.004 25.2721 184.352 24.923 183.841 24.4105C183.33 23.8979 182.981 23.2449 182.84 22.534C182.699 21.8231 182.771 21.0862 183.048 20.4166C183.325 19.7469 183.794 19.1746 184.395 18.7719C184.996 18.3692 185.703 18.1543 186.427 18.1543C186.907 18.1543 187.382 18.2491 187.826 18.4332C188.269 18.6174 188.673 18.8873 189.012 19.2276C189.352 19.5679 189.621 19.9719 189.805 20.4166C189.989 20.8612 190.083 21.3377 190.083 21.819Z" fill="white"/>
<path d="M205.602 21.819C205.602 22.5438 205.388 23.2524 204.986 23.8551C204.584 24.4578 204.013 24.9275 203.345 25.2049C202.677 25.4823 201.942 25.5549 201.233 25.4135C200.523 25.2721 199.872 24.923 199.36 24.4105C198.849 23.8979 198.501 23.2449 198.36 22.534C198.218 21.8231 198.291 21.0862 198.568 20.4166C198.844 19.7469 199.313 19.1746 199.914 18.7719C200.516 18.3692 201.223 18.1543 201.946 18.1543C202.426 18.1543 202.902 18.2491 203.345 18.4332C203.789 18.6174 204.192 18.8873 204.532 19.2276C204.871 19.5679 205.14 19.9719 205.324 20.4166C205.508 20.8612 205.602 21.3377 205.602 21.819Z" fill="white"/>
<path d="M217.465 25.4837C219.485 25.4837 221.122 23.843 221.122 21.819C221.122 19.795 219.485 18.1543 217.465 18.1543C215.446 18.1543 213.809 19.795 213.809 21.819C213.809 23.843 215.446 25.4837 217.465 25.4837Z" fill="white"/>
<path d="M236.642 21.819C236.642 22.5438 236.427 23.2524 236.025 23.8551C235.624 24.4578 235.053 24.9275 234.384 25.2049C233.716 25.4823 232.981 25.5549 232.272 25.4135C231.562 25.2721 230.911 24.9231 230.399 24.4106C229.888 23.8981 229.54 23.2451 229.399 22.5342C229.258 21.8233 229.33 21.0864 229.607 20.4167C229.883 19.7471 230.352 19.1747 230.953 18.772C231.555 18.3693 232.262 18.1543 232.985 18.1543C233.465 18.1543 233.941 18.249 234.384 18.4332C234.828 18.6174 235.231 18.8873 235.571 19.2276C235.91 19.5679 236.179 19.9719 236.363 20.4165C236.547 20.8612 236.642 21.3377 236.642 21.819Z" fill="white"/>
<path d="M260.506 1.55371V18.1538" stroke="white" stroke-width="1.88407" stroke-linecap="round" stroke-linejoin="round"/>
<path d="M268.787 9.854H252.224" stroke="white" stroke-width="1.88407" stroke-linecap="round" stroke-linejoin="round"/>
<path d="M487.063 246.798V263.398" stroke="white" stroke-width="1.88407" stroke-linecap="round" stroke-linejoin="round"/>
<path d="M495.345 255.098H478.782" stroke="white" stroke-width="1.88407" stroke-linecap="round" stroke-linejoin="round"/>
<path d="M430.103 39.5703L430.411 56.1674" stroke="white" stroke-width="1.88407" stroke-linecap="round" stroke-linejoin="round"/>
<path d="M438.537 47.7139L421.977 48.023" stroke="white" stroke-width="1.88407" stroke-linecap="round" stroke-linejoin="round"/>
<path d="M9.57971 152.285L9.88817 168.882" stroke="white" stroke-width="1.88407" stroke-linecap="round" stroke-linejoin="round"/>
<path d="M18.0139 160.429L1.45374 160.738" stroke="white" stroke-width="1.88407" stroke-linecap="round" stroke-linejoin="round"/>
<path d="M80.7779 306.253C79.0024 306.318 77.2324 306.017 75.5786 305.368C73.9247 304.718 72.4223 303.735 71.1653 302.48L71.7661 296.88L66.7675 296.448L66.1908 302.047C65.1733 304.489 64.5487 307.076 64.3403 309.713C64.124 313.774 67.2241 313.51 67.2241 313.51C74.2549 313.728 81.2821 312.976 88.1075 311.275L87.9393 309.857C87.699 308.463 86.93 305.988 80.7779 306.253Z" fill="#FFAF98"/>
<path d="M65.638 302.961C66.3771 303.881 67.2945 304.643 68.3351 305.201C69.3757 305.758 70.5181 306.1 71.6939 306.205C73.0439 306.254 74.3862 305.982 75.611 305.412C77.2197 306.028 78.9361 306.314 80.6577 306.253C86.8097 305.989 87.5788 308.464 87.747 309.858L87.9152 311.276C81.0897 312.976 74.0625 313.728 67.0317 313.511C67.0317 313.511 63.9317 313.775 64.148 309.714C64.3165 307.403 64.8183 305.128 65.638 302.961Z" fill="#594A5F"/>
<path d="M43.4087 172.685C42.5888 180.446 43.2991 188.292 45.4995 195.78C49.1042 206.305 63.5712 239.805 63.5712 239.805V241.776L63.8115 249.995L64.2921 266.456L65.2774 299.38L73.2559 299.644L76.38 266.865L77.942 250.451L78.7111 242.257L78.9033 240.142C78.9994 239.031 78.9994 237.913 78.9033 236.801C78.8586 236.244 78.7784 235.69 78.663 235.143L78.4948 234.086L78.1343 232.067L67.1519 167.182L43.4087 172.685Z" fill="#005C91"/>
<path d="M35.1899 305.148C33.4582 304.693 31.841 303.88 30.4421 302.763C29.0432 301.645 27.8936 300.247 27.0673 298.659L29.3022 293.492L24.6641 291.57L22.4291 296.761C20.7287 298.789 19.3656 301.077 18.3918 303.538C16.974 307.335 20.002 308.007 20.002 308.007C26.6542 310.312 33.5927 311.687 40.621 312.093L40.8613 310.699C41.1257 309.305 41.1256 306.734 35.1899 305.148Z" fill="#FFAF98"/>
<path d="M34.8295 166.534C31.9434 173.787 30.4986 181.533 30.5759 189.34C31.2007 200.442 36.031 236.61 36.031 236.61L35.5504 238.532L33.5558 246.535L29.5426 262.492L21.5641 294.454L29.158 296.857L41.0536 266.144L47.0135 250.812L49.9933 243.122L50.7624 241.128C51.133 240.082 51.4065 239.004 51.5794 237.907C51.5794 237.355 51.7477 236.802 51.8198 236.249V235.168L52.036 233.125L59.1013 167.639L34.8295 166.534Z" fill="#006EAE"/>
<path d="M21.8283 297.65C22.446 299.421 23.6628 300.921 25.2687 301.891C26.8746 302.861 28.7687 303.239 30.6239 302.961C31.9656 304.066 33.5196 304.883 35.1899 305.364C41.1256 306.95 41.1257 309.521 40.8613 310.915L40.621 312.309C33.5927 311.903 26.6542 310.528 20.002 308.224C20.002 308.224 16.974 307.551 18.3918 303.754C19.2398 301.566 20.3971 299.51 21.8283 297.65Z" fill="#594A5F"/>
<path d="M85.8458 150.014C86.5577 149.064 87.1646 149.48 88.2693 149.716L98.3269 151.806L117.947 154.993C118.573 153.167 120.207 153.532 121.632 152.23C123.643 150.6 125.632 149.23 125.383 150.54C124.834 152.008 123.923 152.747 123.203 153.732L123.875 153.374L131.841 153.374C130.093 156.136 126.735 159.526 123.614 160.498C121.705 161.113 119.71 161.417 117.704 161.399L97.2489 161.072L90.0873 160.776C89.2816 160.774 87.4818 161.055 86.7617 160.599C85.0598 159.491 84.7525 155.335 84.8798 153.635C84.9107 152.368 85.2418 151.127 85.8458 150.014Z" fill="#FFAF98"/>
<path d="M65.4695 90.6897C65.5897 91.2665 67.8727 102.177 65.4695 106.046C63.0664 109.915 56.0011 109.098 48.6475 103.643C41.2938 98.1875 46.0761 86.8206 52.0359 84.6578C57.9957 82.4949 64.6525 85.8594 65.4695 90.6897Z" fill="#FFAF98"/>
<path d="M47.9748 114.217C50.2803 109.773 51.3744 104.8 51.147 99.7983C53.4059 100.784 58.1161 102.201 58.1161 102.201C58.1161 102.201 56.7463 111.069 56.0974 114.217C55.4486 117.365 47.9748 114.217 47.9748 114.217Z" fill="#FFAF98"/>
<path d="M46.4125 105.397C48.0226 105.565 50.57 103.354 49.8731 101.552C49.1761 99.7496 48.5513 96.4093 50.5459 95.2558C52.5406 94.1022 54.6553 95.7604 55.184 98.3318C55.7127 100.903 58.6926 96.6496 57.9717 92.7325C61.063 92.583 64.0652 91.6485 66.6951 90.0169C67.7908 89.1649 68.5606 87.9623 68.8756 86.6105C69.1905 85.2587 69.0316 83.8398 68.4254 82.5912C67.8847 81.3848 67.2414 80.227 66.5028 79.1306C66.0943 78.5298 65.2052 76.8476 64.34 77.0879C63.4749 77.3282 63.6671 78.6019 62.6818 78.5298C61.6965 78.4577 60.3989 76.7755 59.5818 76.1267C58.7647 75.4778 57.7073 74.108 56.6019 74.084C55.0638 74.084 55.5445 76.2228 54.3189 76.4871C53.5259 76.7515 52.2281 75.7662 51.411 75.5259C50.0718 75.1138 48.6788 74.9032 47.2776 74.901C45.7636 74.901 46.8451 77.5686 46.028 78.0732C45.2109 78.5779 43.2163 77.3283 42.1829 77.7128C41.1496 78.0973 41.3659 79.5151 41.462 80.3322C41.5581 81.1493 42.1349 82.2307 41.8946 82.9757C41.6543 83.7207 40.9573 83.6005 40.0682 83.5284C40.2604 87.6378 39.6597 91.9154 40.1884 96.0007C40.7411 99.6055 42.3031 104.916 46.4125 105.397Z" fill="#3852A3"/>
<path d="M36.1752 125.993C36.1752 125.993 36.2954 109.435 53.5741 111.574C61.6487 114.217 69.9155 120.177 68.6899 135.606C67.6407 145.599 67.3755 155.659 67.8969 165.693C68.3535 177.204 74.073 191.046 74.073 191.046C74.073 191.046 55.5928 196.525 29.9271 190.638C30.7442 181.986 35.6465 148.919 36.1752 125.993Z" fill="#F9B253"/>
<path d="M47.5422 109.315C47.661 108.884 47.9358 108.512 48.3133 108.272C48.6909 108.032 49.1441 107.942 49.5849 108.017C52.2764 108.45 57.4672 109.411 58.116 110.252C58.7649 111.093 58.116 114.41 58.116 114.41C58.116 114.41 46.4848 113.785 46.629 112.896C46.7732 112.006 47.1817 110.637 47.5422 109.315Z" fill="#003ABC"/>
<path d="M53.4045 120.595C58.7264 119.826 64.1599 120.96 73.718 136.943C80.0851 150.342 94.7222 149.755 94.7222 149.755C94.7222 149.755 95.7185 159.057 93.4326 161.828C93.4326 161.828 78.7351 163.113 72.0424 159.703C65.3496 156.293 49.4842 137.007 46.2369 132.78C42.9895 128.554 48.1055 121.357 53.4045 120.595Z" fill="#EDAA51"/>
<defs>
<linearGradient id="paint0_linear" x1="2031.51" y1="2042.79" x2="2031.51" y2="2172.71" gradientUnits="userSpaceOnUse">
<stop/>
<stop offset="1" stop-opacity="0"/>
</linearGradient>
<linearGradient id="paint1_linear" x1="2256.09" y1="2042.79" x2="2256.09" y2="2172.71" gradientUnits="userSpaceOnUse">
<stop/>
<stop offset="1" stop-opacity="0"/>
</linearGradient>
<linearGradient id="paint2_linear" x1="8344.7" y1="1211.97" x2="8219.59" y2="1452.7" gradientUnits="userSpaceOnUse">
<stop/>
<stop offset="1" stop-opacity="0"/>
</linearGradient>
</defs>
</svg>
