<svg width="530" height="413" viewBox="0 0 530 413" fill="none" xmlns="http://www.w3.org/2000/svg">
<path d="M294.46 399.104H210.936L220.009 363.233L222.051 355.098L226.059 339.344H279.337L283.344 355.098L285.386 363.233L294.46 399.104Z" fill="#1C1C1C"/>
<path d="M457.984 107.226V345.031C457.984 347.749 456.91 350.356 454.999 352.278C453.087 354.2 450.495 355.28 447.792 355.28H57.6187C54.9153 355.28 52.3227 354.2 50.4112 352.278C48.4997 350.356 47.4258 347.749 47.4258 345.031V107.226C47.4258 104.508 48.4997 101.901 50.4112 99.9789C52.3227 98.0568 54.9153 96.9771 57.6187 96.9771H447.792C450.495 96.9771 453.087 98.0568 454.999 99.9789C456.91 101.901 457.984 104.508 457.984 107.226Z" fill="#333333"/>
<g opacity="0.2">
<path d="M63.8948 234.743C60.2718 230.577 55.356 227.762 49.9434 226.755C44.5308 225.747 38.9386 226.607 34.0725 229.194C29.2064 231.781 25.3514 235.944 23.132 241.009C20.9126 246.074 20.4587 251.744 21.8438 257.1C23.2289 262.457 26.3719 267.186 30.7637 270.523C35.1556 273.859 40.5391 275.607 46.0422 275.483C51.5452 275.36 56.8457 273.372 61.0849 269.841C65.3242 266.311 68.2539 261.445 69.3996 256.032C69.7531 254.342 69.9305 252.619 69.9289 250.892C69.9384 244.95 67.793 239.209 63.8948 234.743ZM65.3315 255.18C64.6877 258.18 63.3817 260.996 61.5102 263.42C59.6386 265.844 57.2492 267.814 54.5186 269.185C51.705 270.612 48.5962 271.352 45.4448 271.344C41.4242 271.347 37.493 270.151 34.1485 267.907C30.8041 265.663 28.1966 262.473 26.6559 258.739C25.1152 255.004 24.7105 250.895 25.4931 246.93C26.2756 242.964 28.2102 239.321 31.0522 236.462C33.8941 233.602 37.5157 231.654 41.4588 230.864C45.402 230.075 49.4895 230.478 53.2043 232.025C56.9192 233.571 60.0944 236.191 62.3285 239.552C64.5625 242.913 65.755 246.865 65.755 250.907C65.7601 252.342 65.6182 253.774 65.3315 255.18Z" fill="#18BDF7"/>
</g>
<path d="M458 133.218H54V314.205H458V133.218Z" fill="white"/>
<path opacity="0.2" d="M69.3995 256.046C68.6252 259.661 67.0531 263.054 64.7993 265.976C62.5456 268.897 59.6678 271.272 56.3786 272.925L54.458 269.184C57.1886 267.814 59.578 265.843 61.4496 263.419C63.3211 260.995 64.6271 258.179 65.2709 255.18L69.3995 256.046Z" fill="#18BDF7"/>
<path opacity="0.26" d="M63.8946 234.742L60.7641 237.479C58.924 235.359 56.6679 233.645 54.1375 232.443C51.6071 231.241 48.857 230.578 46.0596 230.495C43.2623 230.412 40.478 230.911 37.8817 231.961C35.2853 233.012 32.9329 234.59 30.9719 236.597L27.9473 233.663C30.3098 231.244 33.1441 229.343 36.2724 228.079C39.4007 226.814 42.7553 226.214 46.1254 226.315C49.4955 226.417 52.8084 227.218 55.8559 228.668C58.9034 230.118 61.6197 232.186 63.8341 234.742H63.8946Z" fill="#4A63FE"/>
<g opacity="0.8">
<g opacity="0.2">
<path d="M207.2 26.0109C204.79 23.2395 201.521 21.3672 197.92 20.697C194.32 20.0268 190.601 20.5981 187.364 22.3183C184.127 24.0385 181.562 26.8069 180.085 30.1753C178.608 33.5436 178.305 37.3146 179.225 40.8776C180.146 44.4406 182.235 47.587 185.155 49.8073C188.076 52.0276 191.656 53.1918 195.316 53.1113C198.977 53.0309 202.503 51.7105 205.324 49.364C208.145 47.0175 210.095 43.7822 210.86 40.1822C211.091 39.0567 211.208 37.9103 211.208 36.761C211.214 32.8073 209.789 28.9863 207.2 26.0109ZM208.153 39.6044C207.721 41.5996 206.85 43.4723 205.604 45.0851C204.359 46.6979 202.77 48.01 200.954 48.9252C198.232 50.2734 195.136 50.654 192.171 50.0047C189.207 49.3555 186.549 47.7148 184.631 45.3505C182.713 42.9863 181.649 40.0382 181.613 36.9877C181.577 33.9371 182.57 30.9643 184.431 28.5547C186.292 26.1451 188.911 24.4411 191.859 23.7208C194.808 23.0005 197.912 23.3066 200.665 24.589C203.418 25.8714 205.658 28.0545 207.018 30.7816C208.377 33.5088 208.778 36.619 208.153 39.6044Z" fill="#18BDF7"/>
</g>
<path d="M210.875 40.1831C210.361 42.5872 209.316 44.8441 207.816 46.7863C206.315 48.7284 204.399 50.306 202.21 51.4019L200.969 48.924C202.785 48.009 204.374 46.6972 205.619 45.0848C206.865 43.4724 207.736 41.6002 208.168 39.6055L210.875 40.1831Z" fill="#18BDF7"/>
<path opacity="0.26" d="M207.2 26.0103L205.113 27.8346C203.891 26.4202 202.391 25.2756 200.707 24.4731C199.023 23.6705 197.192 23.2274 195.329 23.1717C193.466 23.116 191.612 23.4489 189.884 24.1494C188.156 24.8499 186.59 25.9028 185.287 27.2417L183.321 25.2958C184.89 23.6825 186.775 22.4137 188.857 21.5696C190.939 20.7255 193.172 20.3244 195.416 20.3915C197.66 20.4586 199.866 20.9926 201.894 21.9597C203.922 22.9268 205.729 24.306 207.2 26.0103Z" fill="#4A63FE"/>
</g>
<path d="M25.7243 314.803L28.2045 312.948C26.9937 311.031 25.3776 309.405 23.471 308.188L21.626 310.682C20.5589 310.022 19.3954 309.535 18.178 309.237L18.6316 306.196C17.5297 305.946 16.4039 305.819 15.2743 305.816C14.1497 305.817 13.0287 305.945 11.9322 306.196L12.3858 309.237C11.1638 309.535 9.99543 310.022 8.92272 310.682L7.07771 308.188C5.17117 309.405 3.55498 311.031 2.34421 312.948L4.82436 314.803C4.17513 315.877 3.69558 317.047 3.40279 318.27L0.3782 317.829C-0.126067 320.04 -0.126067 322.338 0.3782 324.55L3.40279 324.109C3.69558 325.331 4.17513 326.501 4.82436 327.576L2.34421 329.431C3.55498 331.348 5.17117 332.973 7.07771 334.19L8.92272 331.696C9.99076 332.383 11.1594 332.896 12.3858 333.217L11.9322 336.258C13.0287 336.51 14.1497 336.637 15.2743 336.638C16.4039 336.636 17.5297 336.508 18.6316 336.258L18.178 333.217C19.3999 332.896 20.5636 332.383 21.626 331.696L23.471 334.19C25.3776 332.973 26.9937 331.348 28.2045 329.431L25.7243 327.576C26.3788 326.502 26.8635 325.332 27.161 324.109L30.1856 324.55C30.6899 322.338 30.6899 320.04 30.1856 317.829L27.161 318.27C26.8635 317.046 26.3788 315.877 25.7243 314.803ZM15.1382 329.37C13.5291 329.37 11.956 328.89 10.6181 327.991C9.28007 327.092 8.23723 325.815 7.62142 324.32C7.00562 322.825 6.8445 321.18 7.15843 319.593C7.47237 318.006 8.24725 316.549 9.38511 315.404C10.523 314.26 11.9727 313.481 13.5509 313.166C15.1292 312.85 16.7651 313.012 18.2518 313.631C19.7385 314.25 21.0092 315.299 21.9032 316.644C22.7972 317.989 23.2744 319.571 23.2744 321.189C23.2744 323.359 22.4172 325.44 20.8914 326.974C19.3655 328.508 17.2961 329.37 15.1382 329.37Z" fill="#00A4D6"/>
<path d="M500.798 80.7986L504.518 78.0159C502.704 75.1431 500.282 72.708 497.425 70.8843L494.658 74.625C493.05 73.6406 491.3 72.9122 489.471 72.4657L490.151 67.9039C486.845 67.1538 483.415 67.1538 480.11 67.9039L480.775 72.4657C478.951 72.9149 477.207 73.6431 475.603 74.625L472.835 70.8843C469.978 72.708 467.556 75.1431 465.743 78.0159L469.463 80.7986C468.486 82.4113 467.762 84.1652 467.315 85.9991L462.779 85.33C462.032 88.6538 462.032 92.103 462.779 95.4268L467.315 94.7425C467.759 96.582 468.484 98.3414 469.463 99.9582L465.803 102.741C467.617 105.614 470.039 108.049 472.896 109.873L475.663 106.132C477.267 107.114 479.012 107.842 480.835 108.291L480.17 112.853C483.476 113.603 486.906 113.603 490.212 112.853L489.531 108.291C491.361 107.845 493.11 107.116 494.718 106.132L497.486 109.873C500.343 108.049 502.765 105.614 504.578 102.741L500.798 99.9582C501.777 98.3414 502.501 96.582 502.945 94.7425L507.482 95.4268C508.228 92.103 508.228 88.6538 507.482 85.33L502.945 85.9991C502.499 84.1652 501.774 82.4113 500.798 80.7986ZM485.13 102.634C482.72 102.634 480.363 101.916 478.358 100.569C476.354 99.2222 474.792 97.3081 473.869 95.0686C472.947 92.8291 472.705 90.3648 473.175 87.9874C473.646 85.6099 474.807 83.4261 476.511 81.7121C478.216 79.998 480.388 78.8308 482.752 78.3579C485.117 77.885 487.568 78.1277 489.795 79.0553C492.022 79.9829 493.926 81.5538 495.265 83.5693C496.605 85.5848 497.319 87.9544 497.319 90.3784C497.319 93.6289 496.035 96.7463 493.749 99.0447C491.463 101.343 488.363 102.634 485.13 102.634Z" fill="#00A4D6"/>
<path d="M150.383 7.46004C150.383 8.7148 150.013 9.94134 149.319 10.9844C148.626 12.0275 147.64 12.8402 146.487 13.3197C145.333 13.7992 144.065 13.9238 142.841 13.6779C141.617 13.4321 140.494 12.8266 139.612 11.9383C138.731 11.05 138.131 9.91875 137.89 8.68774C137.648 7.45673 137.775 6.18131 138.255 5.02294C138.735 3.86456 139.545 2.87531 140.584 2.18039C141.623 1.48548 142.844 1.11615 144.092 1.11916C144.919 1.11916 145.739 1.28327 146.503 1.60212C147.267 1.92096 147.961 2.38828 148.546 2.97728C149.13 3.56629 149.593 4.26542 149.909 5.03464C150.224 5.80386 150.385 6.62806 150.383 7.46004V7.46004Z" stroke="#00A4D6" stroke-width="2" stroke-miterlimit="10"/>
<path d="M394.377 30.4517C394.377 31.7058 394.007 32.9318 393.314 33.9745C392.621 35.0173 391.636 35.83 390.484 36.3099C389.332 36.7899 388.064 36.9154 386.841 36.6708C385.617 36.4261 384.494 35.8222 383.612 34.9354C382.73 34.0486 382.129 32.9188 381.886 31.6888C381.642 30.4588 381.767 29.1838 382.245 28.0252C382.722 26.8666 383.53 25.8762 384.567 25.1795C385.604 24.4827 386.824 24.1109 388.071 24.1109C388.899 24.1089 389.72 24.2715 390.486 24.5895C391.252 24.9074 391.948 25.3744 392.534 25.9636C393.12 26.5528 393.585 27.2526 393.901 28.0228C394.217 28.793 394.379 29.6185 394.377 30.4517V30.4517Z" stroke="#00A4D6" stroke-width="0.5" stroke-miterlimit="10"/>
<path d="M227.178 87.0936C232.623 87.0936 237.038 82.6549 237.038 77.1794C237.038 71.7039 232.623 67.2651 227.178 67.2651C221.732 67.2651 217.317 71.7039 217.317 77.1794C217.317 82.6549 221.732 87.0936 227.178 87.0936Z" stroke="#00A4D6" stroke-width="3.13" stroke-miterlimit="10"/>
<path d="M517.962 225.042C517.965 227.003 517.389 228.922 516.308 230.554C515.226 232.186 513.687 233.46 511.886 234.212C510.084 234.965 508.101 235.163 506.188 234.783C504.274 234.402 502.516 233.459 501.135 232.073C499.755 230.687 498.814 228.92 498.432 226.997C498.051 225.073 498.245 223.079 498.991 221.266C499.737 219.454 501 217.905 502.622 216.815C504.244 215.724 506.151 215.143 508.102 215.143C510.714 215.143 513.22 216.185 515.069 218.041C516.917 219.897 517.958 222.415 517.962 225.042V225.042Z" stroke="#00A4D6" stroke-width="3.13" stroke-miterlimit="10"/>
<path d="M326.52 409.003H178.86C178.015 409.007 177.178 408.843 176.397 408.521C175.615 408.199 174.905 407.724 174.306 407.125C173.707 406.526 173.232 405.814 172.908 405.03C172.584 404.246 172.417 403.405 172.417 402.556C172.417 400.846 173.093 399.206 174.295 397.997C175.498 396.788 177.129 396.108 178.829 396.108H326.52C327.364 396.106 328.199 396.272 328.979 396.595C329.759 396.918 330.467 397.392 331.064 397.991C331.661 398.59 332.135 399.302 332.458 400.085C332.781 400.868 332.948 401.708 332.948 402.556C332.948 403.404 332.781 404.243 332.458 405.026C332.135 405.81 331.661 406.521 331.064 407.12C330.467 407.719 329.759 408.193 328.979 408.517C328.199 408.84 327.364 409.005 326.52 409.003Z" fill="#333333"/>
<path d="M252.675 343.556C250.166 343.548 247.763 342.543 245.989 340.759C244.216 338.976 243.216 336.559 243.208 334.037C243.216 331.515 244.216 329.099 245.989 327.315C247.763 325.532 250.166 324.527 252.675 324.519C255.183 324.527 257.586 325.532 259.36 327.315C261.134 329.099 262.134 331.515 262.142 334.037C262.134 336.559 261.134 338.976 259.36 340.759C257.586 342.543 255.183 343.548 252.675 343.556Z" fill="#1C1C1C"/>
<path d="M443.844 138.505H193.892C191.152 138.505 188.931 140.738 188.931 143.492V245.099C188.931 247.853 191.152 250.086 193.892 250.086H443.844C446.584 250.086 448.805 247.853 448.805 245.099V143.492C448.805 140.738 446.584 138.505 443.844 138.505Z" fill="#4A9EEF" fill-opacity="0.5"/>
<path opacity="0.39" d="M441.833 198.249V240.658C441.829 241.567 441.467 242.437 440.827 243.078C440.186 243.719 439.319 244.079 438.416 244.079H198.368C197.465 244.079 196.598 243.719 195.957 243.078C195.317 242.437 194.955 241.567 194.951 240.658V147.506C217.121 147.506 228.221 155.839 234.633 166.787C235.057 167.487 235.45 168.202 235.813 168.932C246.762 189.764 243.465 218.32 267.571 218.32C268.428 218.325 269.282 218.218 270.112 218.001C270.633 217.896 271.14 217.733 271.624 217.515C287.821 210.657 285.235 161.982 314.105 162.332C316.801 162.311 319.472 162.855 321.948 163.928C324.424 165.001 326.651 166.581 328.487 168.567C328.834 168.947 329.182 169.327 329.515 169.737C342.415 184.943 342.596 218.883 362.407 225.041C369.545 227.262 375.852 224.251 382.067 219.278C382.46 218.959 382.869 218.64 383.262 218.29C396.434 207.296 409.531 188.502 429.856 193.109L431.64 193.565C435.229 194.667 438.656 196.242 441.833 198.249Z" fill="#1A82E7"/>
<path opacity="0.8" d="M441.848 189.673C438.069 189.631 434.411 191.015 431.595 193.55C426.695 197.914 424.034 205.365 421.493 212.649C417.637 223.551 413.659 234.804 402.03 234.804C401.41 234.804 400.759 234.804 400.094 234.712C392.532 233.967 386.937 227.763 382.022 219.263C378.997 214.002 376.169 207.844 373.326 201.533C365.281 183.788 356.948 165.434 341.568 165.039H341.054C336.709 165.036 332.533 166.732 329.409 169.768C322.921 175.714 318.823 186.495 314.755 196.926C308.781 212.451 302.657 228.508 288.683 228.858C278.671 229.071 274.119 225.269 270.036 218.062C268.524 215.264 267.012 211.98 265.227 208.163C261.372 199.283 256.821 190.726 251.616 182.571C247.794 176.549 242.263 171.819 235.737 168.993C219.677 161.952 200.773 167.107 194.905 168.993V167.472C201.227 165.465 218.89 160.918 234.588 166.879C242.142 169.711 248.571 174.943 252.902 181.781C258.146 189.99 262.728 198.609 266.603 207.555C268.388 211.478 269.915 214.838 271.518 217.606C275.36 224.281 279.579 227.581 288.653 227.368C301.568 227.064 307.284 212.162 313.348 196.439C317.462 185.795 321.651 174.832 328.381 168.658C330.135 166.967 332.208 165.648 334.479 164.778C336.749 163.908 339.17 163.506 341.598 163.595C357.901 164.035 366.415 182.83 374.657 201.016C377.47 207.19 380.192 213.181 383.171 218.381C387.89 226.623 393.183 232.599 400.2 233.298C412.177 234.484 415.988 223.688 420.026 212.238C422.536 205.106 425.107 197.838 429.765 193.2C431.332 191.605 433.203 190.345 435.267 189.495C437.33 188.646 439.543 188.225 441.773 188.258L441.848 189.673Z" fill="white"/>
<path opacity="0.5" d="M444.586 254.8H315.617C313.287 254.8 311.397 256.699 311.397 259.042V275.009C311.397 277.352 313.287 279.251 315.617 279.251H444.586C446.916 279.251 448.805 277.352 448.805 275.009V259.042C448.805 256.699 446.916 254.8 444.586 254.8Z" fill="#9CD7FF"/>
<path opacity="0.2" d="M444.586 284.36H315.617C313.287 284.36 311.397 286.259 311.397 288.602V304.569C311.397 306.912 313.287 308.811 315.617 308.811H444.586C446.916 308.811 448.805 306.912 448.805 304.569V288.602C448.805 286.259 446.916 284.36 444.586 284.36Z" fill="white"/>
<path opacity="0.2" d="M179.767 138.505H62.1556C59.4161 138.505 57.1953 140.738 57.1953 143.492V187.514C57.1953 190.268 59.4161 192.501 62.1556 192.501H179.767C182.507 192.501 184.727 190.268 184.727 187.514V143.492C184.727 140.738 182.507 138.505 179.767 138.505Z" fill="#005C91"/>
<path opacity="0.3" d="M166.761 152.068H160.455C159.762 152.068 159.2 152.633 159.2 153.33V186.661C159.2 187.358 159.762 187.923 160.455 187.923H166.761C167.454 187.923 168.016 187.358 168.016 186.661V153.33C168.016 152.633 167.454 152.068 166.761 152.068Z" fill="#1A82E7"/>
<path opacity="0.3" d="M178.739 143.675H172.705C171.936 143.675 171.313 144.302 171.313 145.074V186.525C171.313 187.298 171.936 187.924 172.705 187.924H178.739C179.507 187.924 180.13 187.298 180.13 186.525V145.074C180.13 144.302 179.507 143.675 178.739 143.675Z" fill="#1A82E7"/>
<path opacity="0.3" d="M69.6717 143.675H63.6376C62.8692 143.675 62.2463 144.302 62.2463 145.074V186.525C62.2463 187.298 62.8692 187.924 63.6376 187.924H69.6717C70.4401 187.924 71.063 187.298 71.063 186.525V145.074C71.063 144.302 70.4401 143.675 69.6717 143.675Z" fill="#1A82E7"/>
<path opacity="0.3" d="M81.9667 154.148H75.5697C74.9015 154.148 74.3599 154.693 74.3599 155.365V186.705C74.3599 187.376 74.9015 187.921 75.5697 187.921H81.9667C82.6349 187.921 83.1765 187.376 83.1765 186.705V155.365C83.1765 154.693 82.6349 154.148 81.9667 154.148Z" fill="#1A82E7"/>
<path opacity="0.3" d="M93.8988 143.675H87.8647C87.0963 143.675 86.4734 144.302 86.4734 145.074V186.525C86.4734 187.298 87.0963 187.924 87.8647 187.924H93.8988C94.6672 187.924 95.2901 187.298 95.2901 186.525V145.074C95.2901 144.302 94.6672 143.675 93.8988 143.675Z" fill="#1A82E7"/>
<path opacity="0.3" d="M106.39 163.488H99.6304C99.0625 163.488 98.6021 163.951 98.6021 164.522V186.89C98.6021 187.461 99.0625 187.924 99.6304 187.924H106.39C106.958 187.924 107.419 187.461 107.419 186.89V164.522C107.419 163.951 106.958 163.488 106.39 163.488Z" fill="#1A82E7"/>
<path opacity="0.3" d="M118.141 143.675H112.107C111.338 143.675 110.716 144.302 110.716 145.074V186.525C110.716 187.298 111.338 187.924 112.107 187.924H118.141C118.909 187.924 119.532 187.298 119.532 186.525V145.074C119.532 144.302 118.909 143.675 118.141 143.675Z" fill="#1A82E7"/>
<path opacity="0.3" d="M130.391 152.068H124.084C123.391 152.068 122.829 152.633 122.829 153.33V186.661C122.829 187.358 123.391 187.923 124.084 187.923H130.391C131.084 187.923 131.646 187.358 131.646 186.661V153.33C131.646 152.633 131.084 152.068 130.391 152.068Z" fill="#1A82E7"/>
<path opacity="0.3" d="M142.383 143.675H136.349C135.58 143.675 134.958 144.302 134.958 145.074V186.525C134.958 187.298 135.58 187.924 136.349 187.924H142.383C143.151 187.924 143.774 187.298 143.774 186.525V145.074C143.774 144.302 143.151 143.675 142.383 143.675Z" fill="#1A82E7"/>
<path opacity="0.3" d="M154.678 154.148H148.281C147.613 154.148 147.071 154.693 147.071 155.365V186.705C147.071 187.376 147.613 187.921 148.281 187.921H154.678C155.346 187.921 155.888 187.376 155.888 186.705V155.365C155.888 154.693 155.346 154.148 154.678 154.148Z" fill="#1A82E7"/>
<path opacity="0.2" d="M179.767 196.652H62.1556C59.4161 196.652 57.1953 198.885 57.1953 201.639V245.66C57.1953 248.415 59.4161 250.648 62.1556 250.648H179.767C182.507 250.648 184.727 248.415 184.727 245.66V201.639C184.727 198.885 182.507 196.652 179.767 196.652Z" fill="#005C91"/>
<path opacity="0.2" d="M179.767 254.8H62.1556C59.4161 254.8 57.1953 257.033 57.1953 259.787V303.808C57.1953 306.563 59.4161 308.796 62.1556 308.796H179.767C182.507 308.796 184.727 306.563 184.727 303.808V259.787C184.727 257.033 182.507 254.8 179.767 254.8Z" fill="#005C91"/>
<path opacity="0.5" d="M178.315 203.662C177.68 203.662 177.071 203.914 176.621 204.365C176.17 204.815 175.915 205.426 175.911 206.064C175.917 206.487 176.031 206.901 176.244 207.266L156.75 229.405C156.454 229.276 156.135 229.209 155.812 229.209C155.49 229.209 155.171 229.276 154.875 229.405L133.884 208.665C134.032 208.356 134.109 208.018 134.111 207.676C134.063 207.07 133.79 206.504 133.346 206.092C132.901 205.679 132.319 205.45 131.714 205.45C131.109 205.45 130.527 205.679 130.082 206.092C129.638 206.504 129.365 207.07 129.317 207.676C129.32 208.028 129.398 208.375 129.544 208.695L102.564 237.982C102.162 237.696 101.681 237.542 101.188 237.541C100.784 237.544 100.387 237.654 100.039 237.86L85.2789 218.564C85.5675 218.154 85.7257 217.666 85.7326 217.165C85.7589 216.832 85.7164 216.498 85.6079 216.182C85.4994 215.867 85.3271 215.578 85.102 215.333C84.8768 215.088 84.6037 214.892 84.2997 214.758C83.9957 214.624 83.6674 214.555 83.3356 214.555C83.0038 214.555 82.6755 214.624 82.3715 214.758C82.0676 214.892 81.7944 215.088 81.5693 215.333C81.3441 215.578 81.1718 215.867 81.0633 216.182C80.9548 216.498 80.9123 216.832 80.9386 217.165C80.9417 217.576 81.0512 217.98 81.2562 218.336L64.7117 239.852C64.4478 239.743 64.1653 239.686 63.8799 239.685C63.4037 239.682 62.9373 239.821 62.5399 240.085C62.1425 240.349 61.8319 240.725 61.6476 241.167C61.4633 241.608 61.4135 242.095 61.5046 242.565C61.5956 243.035 61.8235 243.467 62.1592 243.807C62.4948 244.146 62.9232 244.378 63.3901 244.473C63.8569 244.567 64.3412 244.52 64.7814 244.338C65.2217 244.155 65.5981 243.845 65.863 243.447C66.1279 243.049 66.2693 242.581 66.2693 242.102C66.2737 241.643 66.1421 241.193 65.8913 240.81L82.3753 219.324C82.6769 219.452 83.0006 219.519 83.328 219.522C83.57 219.521 83.8102 219.48 84.0388 219.4L98.9955 238.985C98.8665 239.288 98.7996 239.614 98.7989 239.943C98.8468 240.549 99.1201 241.115 99.5643 241.528C100.009 241.94 100.591 242.169 101.196 242.169C101.801 242.169 102.383 241.94 102.827 241.528C103.272 241.115 103.545 240.549 103.593 239.943C103.592 239.7 103.551 239.458 103.472 239.228L130.602 209.79C130.943 209.971 131.321 210.069 131.706 210.079C132.109 210.074 132.503 209.969 132.856 209.775L153.756 230.424C153.547 230.795 153.44 231.215 153.445 231.641C153.451 232.067 153.567 232.485 153.785 232.851C154.002 233.217 154.311 233.518 154.681 233.726C155.052 233.933 155.47 234.038 155.894 234.03C156.317 234.022 156.732 233.902 157.094 233.681C157.457 233.461 157.755 233.148 157.959 232.774C158.162 232.4 158.264 231.979 158.254 231.553C158.243 231.127 158.121 230.711 157.899 230.348L177.363 208.239C177.665 208.363 177.989 208.425 178.315 208.421C178.949 208.421 179.557 208.168 180.005 207.718C180.453 207.267 180.705 206.656 180.705 206.019C180.705 205.382 180.453 204.77 180.005 204.32C179.557 203.869 178.949 203.616 178.315 203.616V203.662Z" fill="#005C91"/>
<path opacity="0.3" d="M167.578 258.89H64.031C62.8366 258.89 61.8684 259.863 61.8684 261.064V261.277C61.8684 262.478 62.8366 263.451 64.031 263.451H167.578C168.772 263.451 169.741 262.478 169.741 261.277V261.064C169.741 259.863 168.772 258.89 167.578 258.89Z" fill="#1A82E7"/>
<path opacity="0.3" d="M156.856 267.025H63.9251C62.7892 267.025 61.8684 267.951 61.8684 269.093V269.518C61.8684 270.66 62.7892 271.586 63.9251 271.586H156.856C157.992 271.586 158.913 270.66 158.913 269.518V269.093C158.913 267.951 157.992 267.025 156.856 267.025Z" fill="#1A82E7"/>
<path opacity="0.3" d="M178.467 279.737H64.1369C63.5352 279.737 62.9582 279.496 62.5328 279.069C62.1074 278.641 61.8684 278.061 61.8684 277.456C61.8684 276.851 62.1074 276.271 62.5328 275.843C62.9582 275.416 63.5352 275.175 64.1369 275.175H178.467C179.068 275.175 179.645 275.416 180.071 275.843C180.496 276.271 180.735 276.851 180.735 277.456C180.735 278.061 180.496 278.641 180.071 279.069C179.645 279.496 179.068 279.737 178.467 279.737Z" fill="#1A82E7"/>
<path opacity="0.3" d="M146.255 283.311H63.8041C62.7351 283.311 61.8684 284.182 61.8684 285.257V285.926C61.8684 287.001 62.7351 287.872 63.8041 287.872H146.255C147.324 287.872 148.19 287.001 148.19 285.926V285.257C148.19 284.182 147.324 283.311 146.255 283.311Z" fill="#1A82E7"/>
<path opacity="0.3" d="M168.697 291.461H64.0461C62.8434 291.461 61.8684 292.441 61.8684 293.65V293.833C61.8684 295.042 62.8434 296.022 64.0461 296.022H168.697C169.9 296.022 170.875 295.042 170.875 293.833V293.65C170.875 292.441 169.9 291.461 168.697 291.461Z" fill="#1A82E7"/>
<path opacity="0.3" d="M178.467 304.158H64.1369C63.5352 304.158 62.9582 303.917 62.5328 303.49C62.1074 303.062 61.8684 302.482 61.8684 301.877C61.8684 301.272 62.1074 300.692 62.5328 300.264C62.9582 299.836 63.5352 299.596 64.1369 299.596H178.467C179.068 299.596 179.645 299.836 180.071 300.264C180.496 300.692 180.735 301.272 180.735 301.877C180.735 302.482 180.496 303.062 180.071 303.49C179.645 303.917 179.068 304.158 178.467 304.158Z" fill="#1A82E7"/>
<path opacity="0.5" d="M242.951 281.805C242.954 287.148 241.381 292.371 238.431 296.814C235.48 301.258 231.286 304.722 226.378 306.767C221.469 308.813 216.068 309.349 210.856 308.308C205.645 307.266 200.858 304.694 197.101 300.916C193.343 297.138 190.785 292.325 189.749 287.085C188.713 281.845 189.247 276.414 191.281 271.479C193.316 266.543 196.761 262.326 201.18 259.359C205.599 256.393 210.794 254.812 216.107 254.815C218.196 254.809 220.277 255.054 222.308 255.544C227.829 256.864 232.792 259.909 236.485 264.242C240.178 268.575 242.409 273.973 242.86 279.661C242.92 280.381 242.951 281.095 242.951 281.805Z" fill="#9CD7FF"/>
<path d="M242.86 279.661L216.108 281.805L222.308 255.545C227.829 256.864 232.793 259.909 236.485 264.242C240.178 268.575 242.41 273.973 242.86 279.661Z" fill="#9CD7FF"/>
<path opacity="0.5" d="M302.717 259.103H251.057C250.589 259.099 250.141 258.91 249.81 258.577C249.479 258.245 249.291 257.794 249.287 257.324C249.287 256.852 249.474 256.4 249.806 256.066C250.137 255.732 250.587 255.545 251.057 255.545H302.717C303.186 255.545 303.636 255.732 303.968 256.066C304.3 256.4 304.486 256.852 304.486 257.324C304.486 257.796 304.3 258.248 303.968 258.582C303.636 258.915 303.186 259.103 302.717 259.103Z" fill="#9CD7FF"/>
<path opacity="0.5" d="M295.095 262.615H250.921C250.019 262.615 249.287 263.35 249.287 264.257V264.531C249.287 265.438 250.019 266.173 250.921 266.173H295.095C295.997 266.173 296.728 265.438 296.728 264.531V264.257C296.728 263.35 295.997 262.615 295.095 262.615Z" fill="#9CD7FF"/>
<path opacity="0.5" d="M284.524 269.686H250.724C249.931 269.686 249.287 270.333 249.287 271.13V271.799C249.287 272.597 249.931 273.244 250.724 273.244H284.524C285.317 273.244 285.961 272.597 285.961 271.799V271.13C285.961 270.333 285.317 269.686 284.524 269.686Z" fill="#9CD7FF"/>
<path opacity="0.5" d="M302.717 280.315H251.057C250.587 280.315 250.137 280.127 249.806 279.794C249.474 279.46 249.287 279.008 249.287 278.536C249.287 278.064 249.474 277.611 249.806 277.278C250.137 276.944 250.587 276.757 251.057 276.757H302.717C303.186 276.757 303.636 276.944 303.968 277.278C304.3 277.611 304.486 278.064 304.486 278.536C304.486 279.008 304.3 279.46 303.968 279.794C303.636 280.127 303.186 280.315 302.717 280.315Z" fill="#9CD7FF"/>
<path opacity="0.5" d="M296.774 283.828H250.951C250.032 283.828 249.287 284.576 249.287 285.5V285.713C249.287 286.637 250.032 287.385 250.951 287.385H296.774C297.692 287.385 298.437 286.637 298.437 285.713V285.5C298.437 284.576 297.692 283.828 296.774 283.828Z" fill="#9CD7FF"/>
<path opacity="0.5" d="M302.717 294.457H251.057C250.587 294.457 250.137 294.269 249.806 293.936C249.474 293.602 249.287 293.15 249.287 292.678C249.291 292.207 249.479 291.757 249.81 291.424C250.141 291.092 250.589 290.903 251.057 290.899H302.717C303.186 290.899 303.636 291.086 303.968 291.42C304.3 291.754 304.486 292.206 304.486 292.678C304.486 293.15 304.3 293.602 303.968 293.936C303.636 294.269 303.186 294.457 302.717 294.457Z" fill="#9CD7FF"/>
<path opacity="0.5" d="M292.312 297.984H250.875C249.998 297.984 249.287 298.699 249.287 299.581V299.946C249.287 300.827 249.998 301.542 250.875 301.542H292.312C293.189 301.542 293.9 300.827 293.9 299.946V299.581C293.9 298.699 293.189 297.984 292.312 297.984Z" fill="#9CD7FF"/>
<path opacity="0.5" d="M302.717 308.614H251.057C250.589 308.61 250.141 308.421 249.81 308.088C249.479 307.755 249.291 307.305 249.287 306.835C249.287 306.363 249.474 305.91 249.806 305.577C250.137 305.243 250.587 305.056 251.057 305.056H302.717C303.186 305.056 303.636 305.243 303.968 305.577C304.3 305.91 304.486 306.363 304.486 306.835C304.486 307.306 304.3 307.759 303.968 308.092C303.636 308.426 303.186 308.614 302.717 308.614Z" fill="#9CD7FF"/>
<g style="mix-blend-mode:multiply" opacity="0.3">
<g style="mix-blend-mode:multiply" opacity="0.3">
<path d="M182.368 222.107C182.504 221.529 181.839 221.362 181.143 222.502C180.661 223.268 180.024 223.924 179.274 224.427C178.523 224.93 177.677 225.269 176.788 225.422C176.667 225.118 177.09 225.011 177.393 224.342C177.695 223.673 177.514 223.08 177.196 222.958C176.879 222.837 176.38 223.719 176.183 223.871L173.93 225.756C173.197 226.316 172.64 227.076 172.327 227.946C172.327 227.946 172.327 228.22 172.221 228.493C167.306 232.264 151.049 236.978 148.871 238.316C146.194 238.725 143.482 238.848 140.78 238.681C140.78 238.164 140.78 237.845 140.78 237.845C140.78 237.845 134.065 236.72 130.859 234.804C129.487 234.01 127.893 233.69 126.322 233.891C126.179 233.632 126.017 233.383 125.839 233.146L125.748 233.025C124.931 232.067 123.721 231.504 122.98 230.561C122.797 228.811 122.972 227.041 123.494 225.361C124.768 223.723 126.264 222.274 127.941 221.058C128.566 220.449 129.004 219.672 129.202 218.82C129.401 217.968 129.351 217.077 129.06 216.253C128.701 214.077 128.144 211.939 127.396 209.866C127.018 209.091 126.353 208.558 126.005 207.874C125.93 207.758 125.865 207.636 125.808 207.509C126.761 206.43 123.978 198.583 115.404 198.796C113.23 198.718 111.067 199.123 109.067 199.982C107.147 200.955 104.999 202.704 105.135 204.438C102.111 205.031 101.672 208.133 101.43 209.303C101.098 210.96 101.036 212.66 101.249 214.337C101.566 216.815 102.489 219.187 102.973 221.635C103.473 223.646 103.378 225.76 102.7 227.718C101.944 229.542 100.145 230.531 99.2221 232.279C98.6646 233.423 98.3836 234.683 98.402 235.957C98.4204 237.23 98.7377 238.482 99.328 239.609C99.8724 240.628 100.447 241.494 100.84 242.376C99.8457 245.406 99.0127 248.487 98.3449 251.606L75.9327 255.514C75.6145 255.57 75.3311 255.75 75.1442 256.015C74.9573 256.279 74.882 256.608 74.9346 256.928L80.515 289.925C80.5424 290.083 80.6005 290.234 80.6861 290.369C80.7717 290.504 80.8831 290.621 81.0138 290.713C81.1445 290.805 81.2919 290.87 81.4477 290.904C81.6035 290.939 81.7645 290.942 81.9214 290.913L100.916 287.675C100.591 290.27 100.591 292.895 100.916 295.49C101.218 297.726 103.457 303.869 103.804 306.134C104.591 311.228 106.209 318.694 106.118 324.488C106.598 324.858 107.103 325.194 107.63 325.492C108.583 330.22 109.279 334.996 109.717 339.8C109.415 341.975 107.026 348.087 106.209 354.489C106.209 354.748 106.209 355.021 106.118 355.325H118.579C119.442 350.764 120.092 346.688 120.591 343.602C120.697 342.826 120.787 342.081 120.863 341.503C120.863 341.503 120.863 341.366 120.863 341.321C120.863 340.971 120.863 340.652 120.954 340.348C120.954 339.815 121.029 339.253 121.075 338.675C121.075 338.508 121.075 338.325 121.075 338.158C121.075 337.687 121.075 337.2 121.075 336.637C121.075 336.501 121.075 336.364 121.075 336.212C121.075 335.588 121.075 334.95 121.075 334.265C121.075 334.068 121.075 333.855 121.075 333.657C121.075 333.14 121.075 332.623 121.075 332.136C121.075 331.893 121.075 331.65 121.075 331.407V330.798L124.78 341.579C123.581 346.079 122.841 350.69 122.572 355.341H134.504C134.882 348.407 135.2 342.644 135.306 339.891C135.469 335.063 135.343 330.229 134.927 325.415C135.598 318.006 135.623 310.552 135.003 303.139C134.489 296.131 133.071 289.22 130.784 282.581L142.504 280.573C142.661 280.548 142.81 280.491 142.945 280.406C143.079 280.322 143.196 280.211 143.287 280.081C143.379 279.951 143.443 279.804 143.478 279.648C143.512 279.492 143.515 279.331 143.487 279.174L138.315 248.504C138.921 248.5 139.527 248.531 140.13 248.595C140.249 248.131 140.335 247.658 140.387 247.181C144.621 246.816 148.145 246.436 149.022 246.269C155.888 244.916 172.962 233.298 174.459 232.264C175.4 232.271 176.332 232.082 177.197 231.708C178.061 231.333 178.838 230.782 179.48 230.09C179.766 229.666 179.899 229.156 179.858 228.645C180.342 228.067 181.189 226.03 179.722 226.456C180.442 225.958 181.05 225.314 181.506 224.565C181.962 223.816 182.256 222.978 182.368 222.107Z" fill="#5FB0E7"/>
</g>
</g>
<path d="M116.145 290.031L100.16 277.122C97.9501 283.087 97.68 289.604 99.3883 295.734C100.901 300.417 99.2976 303.747 100.084 305.967C100.87 308.187 106.239 337.535 105.937 339.709C105.634 341.884 103.26 347.996 102.443 354.398C101.46 362.077 102.246 387.03 101.505 393.675C100.764 400.32 106.859 401.278 107.146 399.043C109.551 379.838 116.386 349.836 117.203 340.241C118.02 330.646 117.188 313.19 116.145 290.031Z" fill="#FFE1BD"/>
<path d="M116.644 308.933L110.201 324.823C113.233 329.766 115 335.387 115.343 341.184C115.54 344.225 115.343 347.267 115.494 350.308C115.508 350.529 115.543 350.748 115.6 350.962C116.402 346.4 117.007 342.72 117.203 340.318C117.793 333.551 117.551 322.8 116.977 308.933H116.644Z" fill="#FCCB95"/>
<path d="M108.054 392.915C108.054 392.915 106.753 399.894 107.177 400.761C107.947 402.439 109.091 403.916 110.519 405.079C112.031 406.007 115.449 407.086 115.736 407.512C115.89 407.726 115.959 407.99 115.928 408.252C115.897 408.514 115.769 408.755 115.57 408.926C114.198 409.943 112.503 410.419 110.806 410.264C106.269 409.626 105.725 407.603 103.063 407.345C102.594 407.345 101.763 407.999 100.477 407.345C99.916 407.106 99.4396 406.703 99.1104 406.187C98.7811 405.672 98.6145 405.068 98.6321 404.456C98.9289 402.691 99.577 401.005 100.538 399.499C101.264 398.069 101.642 391.577 101.642 391.577" fill="#FFE1BD"/>
<path d="M115.933 409.259C116.251 408.682 116.311 407.739 116.009 407.602C115.085 406.997 114.125 406.449 113.135 405.96C112.228 405.565 110.822 405.246 111.321 405.504C111.82 405.763 110.942 406.781 110.111 406.751C107.252 406.645 105.105 404.79 103.472 404.41C102.628 404.118 101.867 403.626 101.253 402.974C100.64 402.323 100.192 401.533 99.9481 400.67C99.2304 401.661 98.6835 402.766 98.3299 403.938C98.0553 404.733 97.9572 405.579 98.0426 406.416C98.3117 407.166 98.4199 407.963 98.3602 408.758C98.8798 409.064 99.4561 409.261 100.054 409.335C100.661 409.415 101.276 409.415 101.884 409.335L102.05 407.815C102.557 407.79 103.064 407.825 103.562 407.922C104.355 408.132 105.11 408.465 105.801 408.91C106.133 409.29 106.421 410.004 106.859 410.217C108.04 410.764 109.325 411.049 110.625 411.053C113.619 411.175 115.389 410.248 115.933 409.259Z" fill="#594A5F"/>
<path d="M139.147 407.771C138.799 407.406 135.169 406.843 133.46 406.159C131.791 405.311 130.396 404.003 129.438 402.388C129.105 399.868 128.999 397.324 129.12 394.785C129.332 381.1 131.494 347.829 131.782 339.846C132.266 325.978 130.269 311.685 124.81 289.499L104.908 274.445C104.908 274.445 99.479 284.846 101.43 294.715C102.564 300.432 107.298 301.269 108.114 303.489C108.931 305.709 121.256 341.503 121.256 341.503C119.83 346.822 119.058 352.297 118.957 357.804C118.957 365.073 122.421 386.969 123.101 395.317C123.192 396.944 123.509 400.852 123.101 402.099C122.542 403.62 121.06 405.429 121.15 407.345C121.221 407.959 121.476 408.537 121.881 409.001C122.286 409.466 122.823 409.795 123.419 409.945C124.825 410.356 125.596 409.535 126.08 409.52C128.863 409.367 129.649 411.283 134.458 411.238C136.233 411.132 137.916 410.412 139.222 409.2C139.392 408.997 139.478 408.736 139.464 408.471C139.45 408.205 139.337 407.955 139.147 407.771Z" fill="#FFE1BD"/>
<path d="M139.57 409.474C139.827 408.851 139.782 407.953 139.434 407.832C138.399 407.371 137.339 406.97 136.258 406.631C135.275 406.387 133.778 406.281 134.338 406.448C134.897 406.615 134.096 407.786 133.234 407.877C130.209 408.197 127.804 406.692 126.08 406.57C125.238 406.435 124.451 406.063 123.809 405.498C123.167 404.934 122.696 404.198 122.451 403.377C121.675 404.433 121.087 405.616 120.712 406.874C120.515 407.693 120.515 408.548 120.712 409.368C121.08 410.074 121.292 410.852 121.332 411.648C121.915 411.872 122.538 411.976 123.162 411.952C123.797 411.941 124.428 411.844 125.037 411.663V410.143C125.536 410.052 126.042 410.011 126.549 410.021C127.431 410.085 128.28 410.378 129.014 410.873C129.423 411.177 129.861 411.694 130.345 411.815C131.617 412.157 132.943 412.24 134.247 412.059C137.423 411.679 139.147 410.538 139.57 409.474Z" fill="#594A5F"/>
<path d="M170.905 232.248C171.851 232.262 172.79 232.075 173.66 231.701C174.53 231.326 175.312 230.772 175.956 230.074C176.234 229.647 176.367 229.14 176.334 228.63C176.818 228.052 177.65 226.015 176.198 226.44C176.843 225.918 177.378 225.27 177.77 224.536C178.162 223.803 178.404 222.997 178.482 222.168C178.618 221.59 177.967 221.423 177.272 222.563C176.789 223.329 176.152 223.985 175.402 224.488C174.652 224.99 173.805 225.329 172.916 225.482C172.795 225.178 173.204 225.072 173.521 224.403C173.839 223.734 173.642 223.141 173.309 223.019C172.977 222.898 172.493 223.779 172.296 223.932L170.103 225.817C169.36 226.366 168.801 227.13 168.5 228.006C168.5 228.174 168.047 229.877 168.773 229.633" fill="#FFE1BD"/>
<path d="M122.98 247.912C130.406 247.82 143.684 246.558 145.498 246.193C152.697 244.779 171.071 232.112 171.071 232.112C171.167 231.295 170.974 230.469 170.527 229.78C170.079 229.091 169.405 228.582 168.621 228.341C163.963 232.143 147.268 236.948 145.045 238.317C143.608 239.198 120.288 238.225 120.288 238.225" fill="#FFE1BD"/>
<path d="M98.3148 238.757C96.5032 243.726 95.107 248.837 94.1409 254.039L101.702 255.256V244.414" fill="#F9B253"/>
<path d="M132.984 245.152L72.0487 255.559C71.39 255.671 70.9467 256.3 71.0586 256.962L76.6325 289.958C76.7444 290.62 77.3691 291.066 78.0278 290.953L138.963 280.546C139.621 280.434 140.065 279.806 139.953 279.143L134.379 246.148C134.267 245.485 133.642 245.04 132.984 245.152Z" fill="#2C1E56"/>
<path d="M136.909 278.399L79.4413 288.481C79.1651 288.525 78.8825 288.459 78.6537 288.298C78.4249 288.136 78.268 287.89 78.2164 287.614L73.3619 258.844C73.3177 258.567 73.383 258.282 73.544 258.052C73.705 257.822 73.949 257.665 74.2239 257.613L131.767 247.546C132.043 247.502 132.326 247.568 132.554 247.729C132.783 247.891 132.94 248.137 132.992 248.413L137.846 277.183C137.87 277.325 137.864 277.471 137.828 277.611C137.793 277.751 137.73 277.883 137.642 277.997C137.554 278.111 137.443 278.206 137.317 278.275C137.191 278.344 137.052 278.386 136.909 278.399Z" fill="#39297F"/>
<path d="M82.3751 285.789L81.4223 285.956C81.184 285.996 80.9396 285.941 80.7416 285.801C80.5437 285.662 80.408 285.45 80.3637 285.211L76.1746 260.426C76.1396 260.186 76.199 259.942 76.3403 259.746C76.4816 259.55 76.6935 259.418 76.9308 259.377L77.8835 259.209C78.1235 259.174 78.3679 259.233 78.5653 259.375C78.7627 259.517 78.8978 259.73 78.9422 259.97L83.1917 284.74C83.2108 284.863 83.2046 284.989 83.1733 285.11C83.142 285.231 83.0863 285.344 83.0097 285.443C82.9331 285.541 82.8373 285.622 82.7282 285.682C82.619 285.742 82.4988 285.778 82.3751 285.789Z" fill="#4C4199"/>
<path d="M87.5473 284.801L86.5794 284.968C86.3412 285.003 86.0987 284.943 85.9037 284.801C85.7088 284.659 85.5767 284.446 85.5359 284.208L81.3468 259.437C81.3074 259.2 81.3632 258.956 81.502 258.759C81.6409 258.562 81.8515 258.429 82.0879 258.388L83.0557 258.221C83.1731 258.199 83.2936 258.201 83.4101 258.227C83.5266 258.253 83.6368 258.302 83.7341 258.372C83.8314 258.441 83.9138 258.53 83.9765 258.632C84.0392 258.734 84.081 258.847 84.0992 258.966L88.2883 283.736C88.31 283.855 88.308 283.977 88.2824 284.095C88.2568 284.213 88.2082 284.325 88.1392 284.424C88.0703 284.523 87.9824 284.608 87.8808 284.672C87.7792 284.737 87.6658 284.78 87.5473 284.801Z" fill="#4C4199"/>
<path d="M92.7192 283.797L91.7514 283.964C91.634 283.986 91.5135 283.984 91.397 283.958C91.2805 283.932 91.1703 283.883 91.073 283.813C90.9758 283.744 90.8933 283.655 90.8306 283.553C90.7678 283.451 90.7261 283.338 90.7079 283.219L86.5188 258.449C86.4971 258.33 86.4991 258.208 86.5247 258.09C86.5503 257.971 86.599 257.86 86.6679 257.761C86.7369 257.661 86.8247 257.577 86.9263 257.513C87.0279 257.448 87.1413 257.404 87.2599 257.384L88.2277 257.217C88.4659 257.182 88.7084 257.241 88.9034 257.383C89.0983 257.526 89.2303 257.739 89.2712 257.977L93.4603 282.748C93.4997 282.985 93.4439 283.229 93.3051 283.426C93.1662 283.623 92.9556 283.756 92.7192 283.797Z" fill="#4C4199"/>
<path d="M97.8762 282.808L96.9235 282.976C96.6835 283.011 96.4391 282.952 96.2417 282.81C96.0443 282.668 95.9092 282.455 95.8649 282.215L91.6758 257.445C91.6564 257.326 91.6606 257.205 91.6882 257.088C91.7158 256.97 91.7662 256.86 91.8365 256.762C91.9068 256.665 91.9956 256.582 92.0978 256.519C92.2 256.457 92.3135 256.415 92.4319 256.396L93.3847 256.229C93.5029 256.207 93.6243 256.209 93.7418 256.235C93.8593 256.261 93.9705 256.309 94.069 256.379C94.1675 256.448 94.2513 256.536 94.3156 256.639C94.3798 256.741 94.4232 256.855 94.4433 256.974L98.6324 281.759C98.6674 281.999 98.608 282.243 98.4667 282.439C98.3254 282.635 98.1135 282.767 97.8762 282.808Z" fill="#4C4199"/>
<path d="M103.048 281.821L102.08 281.973C101.844 282.013 101.601 281.957 101.406 281.817C101.21 281.677 101.078 281.466 101.037 281.228L96.8025 256.457C96.7666 256.218 96.8236 255.974 96.9615 255.776C97.0994 255.578 97.3077 255.441 97.5435 255.393L98.5114 255.241C98.6287 255.219 98.7492 255.221 98.8657 255.247C98.9822 255.273 99.0924 255.322 99.1897 255.392C99.287 255.461 99.3694 255.55 99.4321 255.652C99.4948 255.754 99.5366 255.867 99.5548 255.986L103.744 280.757C103.789 280.99 103.741 281.232 103.611 281.431C103.481 281.63 103.279 281.77 103.048 281.821Z" fill="#4C4199"/>
<path d="M108.22 280.817L107.252 280.984C107.134 281.004 107.013 280.999 106.897 280.972C106.78 280.944 106.67 280.893 106.573 280.822C106.476 280.752 106.394 280.663 106.332 280.56C106.269 280.457 106.227 280.343 106.209 280.224L102.02 255.453C101.998 255.335 102 255.214 102.026 255.097C102.052 254.98 102.101 254.869 102.17 254.771C102.239 254.673 102.327 254.591 102.428 254.527C102.53 254.464 102.643 254.422 102.761 254.404L103.729 254.237C103.965 254.201 104.205 254.259 104.4 254.398C104.595 254.537 104.728 254.746 104.772 254.982L108.961 279.768C108.997 280.005 108.939 280.247 108.801 280.442C108.663 280.638 108.455 280.772 108.22 280.817Z" fill="#4C4199"/>
<path d="M113.438 279.828L112.485 279.98C112.367 280.002 112.245 280 112.128 279.974C112.01 279.949 111.899 279.9 111.801 279.83C111.702 279.761 111.618 279.673 111.554 279.571C111.49 279.468 111.446 279.354 111.426 279.235L107.237 254.465C107.202 254.224 107.261 253.978 107.402 253.779C107.543 253.581 107.755 253.445 107.993 253.4L108.946 253.248C109.064 253.227 109.186 253.229 109.303 253.254C109.421 253.28 109.532 253.329 109.631 253.398C109.729 253.468 109.813 253.556 109.877 253.658C109.941 253.76 109.985 253.874 110.005 253.993L114.194 278.764C114.229 279.005 114.17 279.251 114.029 279.449C113.888 279.648 113.676 279.784 113.438 279.828Z" fill="#4C4199"/>
<path d="M118.549 278.825L117.581 278.992C117.345 279.028 117.105 278.97 116.91 278.831C116.715 278.692 116.582 278.483 116.538 278.247L112.349 253.537C112.313 253.3 112.371 253.058 112.509 252.863C112.647 252.667 112.855 252.533 113.09 252.488L114.058 252.321C114.294 252.281 114.537 252.337 114.732 252.477C114.928 252.617 115.06 252.828 115.101 253.066L119.29 277.852C119.312 278.078 119.248 278.305 119.111 278.485C118.973 278.666 118.772 278.787 118.549 278.825Z" fill="#4C4199"/>
<path d="M123.721 277.867L122.753 278.019C122.636 278.041 122.515 278.039 122.399 278.013C122.282 277.987 122.172 277.938 122.075 277.869C121.978 277.799 121.895 277.711 121.833 277.609C121.77 277.507 121.728 277.393 121.71 277.274L117.521 252.474C117.499 252.355 117.501 252.233 117.527 252.114C117.552 251.996 117.601 251.885 117.67 251.785C117.739 251.686 117.827 251.602 117.928 251.538C118.03 251.473 118.143 251.429 118.262 251.409L119.23 251.257C119.466 251.217 119.709 251.274 119.904 251.413C120.1 251.553 120.232 251.764 120.273 252.002L124.462 276.773C124.507 277.016 124.454 277.268 124.315 277.473C124.176 277.678 123.963 277.819 123.721 277.867Z" fill="#4C4199"/>
<path d="M128.878 276.833L127.925 277.001C127.687 277.04 127.443 276.985 127.245 276.845C127.047 276.706 126.911 276.494 126.867 276.255L122.678 251.47C122.643 251.23 122.702 250.986 122.843 250.79C122.985 250.594 123.197 250.462 123.434 250.421L124.387 250.253C124.627 250.218 124.871 250.277 125.068 250.419C125.266 250.561 125.401 250.774 125.445 251.014L129.634 275.784C129.654 275.903 129.65 276.024 129.622 276.142C129.594 276.259 129.544 276.37 129.474 276.467C129.403 276.565 129.315 276.647 129.212 276.71C129.11 276.773 128.997 276.815 128.878 276.833Z" fill="#4C4199"/>
<path d="M134.05 275.845L133.083 276.012C132.844 276.047 132.602 275.987 132.407 275.845C132.212 275.703 132.08 275.49 132.039 275.252L127.85 250.496C127.811 250.259 127.866 250.015 128.005 249.818C128.144 249.622 128.355 249.488 128.591 249.447L129.559 249.28C129.676 249.258 129.797 249.26 129.913 249.286C130.03 249.312 130.14 249.361 130.237 249.431C130.335 249.5 130.417 249.589 130.48 249.691C130.542 249.793 130.584 249.907 130.602 250.025L134.791 274.826C134.822 275.059 134.763 275.295 134.624 275.485C134.486 275.675 134.281 275.804 134.05 275.845Z" fill="#4C4199"/>
<path d="M103.592 274.369C98.0876 279.144 96.0309 287.051 97.0895 295.49C97.3768 297.726 99.6301 303.869 99.978 306.134C100.764 311.228 102.383 318.695 102.277 324.488C109.657 329.871 124.628 329.4 131.404 325.385C132.089 317.977 132.114 310.521 131.479 303.108C130.678 288.465 124.19 274.81 124.054 273.594" fill="#594A5F"/>
<path d="M123.857 260.396C123.679 264.1 123.8 267.812 124.22 271.496C124.401 272.461 124.522 273.436 124.583 274.416C124.544 274.859 124.332 275.269 123.993 275.556C122.826 276.42 121.445 276.946 120.001 277.077C114.542 278.065 105.906 277.396 103.472 277.883C101.037 278.369 98.8288 277.563 98.8288 276.164C98.8288 275.191 99.7211 274.644 99.7967 272.728C100.03 266.707 99.787 260.676 99.0708 254.694C97.3732 246.698 97.0561 238.468 98.1331 230.364L114.768 225.589C116.054 225.817 115.494 229.756 116.78 229.969C117.717 230.106 122.995 235.154 124.492 241.115C125.255 242.339 125.903 243.632 126.428 244.977C126.776 245.818 126.956 246.72 126.956 247.63C126.956 248.541 126.776 249.443 126.428 250.284C125.102 253.516 124.236 256.92 123.857 260.396Z" fill="#F9B253"/>
<path d="M123.857 260.395C123.679 264.099 123.8 267.811 124.22 271.495C124.401 272.46 124.522 273.435 124.583 274.415C124.544 274.858 124.332 275.268 123.994 275.555C124.493 274.445 123.313 268.941 122.799 265.854C122.242 261.548 122.489 257.175 123.525 252.959C124.614 249.173 125.037 247.379 125.037 247.379C125.037 247.379 125.899 246.086 126.549 245.098C126.897 245.938 127.077 246.84 127.077 247.751C127.077 248.662 126.897 249.564 126.549 250.405C125.192 253.592 124.286 256.955 123.857 260.395Z" fill="#F29127"/>
<path d="M122.073 233.968C123.76 233.664 125.499 233.965 126.988 234.819C130.209 236.72 136.924 237.86 136.924 237.86C136.924 237.86 137.438 245.57 136.606 248.504C133.658 248.303 130.696 248.426 127.774 248.869C120.924 249.614 111.804 254.176 111.804 254.176" fill="#F9B253"/>
<path d="M122.118 207.92C120.485 204.772 117.899 200.317 111.698 200.94C105.498 201.564 100.19 205.502 100.265 210.155C100.341 214.808 103.487 220.45 104.696 223.689C105.435 226.296 105.671 229.021 105.392 231.717L119.139 231.216C119.139 231.216 118.776 227.003 119.623 225.407C120.889 223.768 122.381 222.319 124.054 221.104C124.682 220.497 125.122 219.721 125.324 218.869C125.525 218.017 125.478 217.124 125.188 216.298C124.829 214.123 124.272 211.985 123.525 209.912C123.131 209.106 122.511 208.574 122.118 207.92Z" fill="#FFE1BD"/>
<path d="M121.876 233.04C121.045 232.052 119.759 231.519 119.018 230.485C118.276 229.387 117.929 228.068 118.035 226.745C118.2 226 118.48 225.287 118.867 224.631C120.379 221.59 120.455 219.643 118.322 217.195C117.582 216.428 116.988 215.532 116.568 214.549C116.251 213.637 116.009 212.649 116.871 212.101C117.088 211.903 117.371 211.792 117.665 211.792C117.958 211.792 118.241 211.903 118.459 212.101C118.806 212.405 119.774 215.295 119.971 213.318C120.167 211.341 120.848 210.93 119.2 207.524C119.003 207.114 118.081 205.532 118.217 205.167C118.984 205.215 119.727 205.454 120.379 205.863C121.031 206.272 121.572 206.838 121.952 207.509C122.905 206.43 120.122 198.583 111.547 198.796C109.374 198.718 107.21 199.123 105.211 199.982C103.29 200.955 101.143 202.704 101.264 204.438C98.2392 205.031 97.8006 208.133 97.5738 209.303C97.2259 210.963 97.1645 212.671 97.3923 214.352C97.7099 216.815 98.6323 219.187 99.1163 221.635C99.6072 223.648 99.5074 225.761 98.8289 227.718C98.0879 229.543 96.2883 230.531 95.3658 232.28C94.8011 233.421 94.5161 234.682 94.5345 235.957C94.5529 237.232 94.8743 238.484 95.4716 239.609C96.6512 241.859 98.1333 243.35 97.7401 246.117C97.4369 247.659 97.5459 249.253 98.056 250.739C98.5661 252.224 99.4591 253.547 100.644 254.571C102.52 255.997 104.873 256.635 107.207 256.351C109.086 256.123 110.907 255.545 112.576 254.648C115.767 252.899 118.625 251.774 120.697 247.121C121.876 244.49 120.152 244.079 121.196 241.434C121.786 239.913 123.041 238.666 123.192 236.993C123.294 235.584 122.862 234.188 121.982 233.086L121.876 233.04Z" fill="#00215B"/>
<path d="M377.243 394.603C377.097 397.41 377.127 400.223 377.334 403.025C377.606 404.257 381.432 404.378 381.871 403.725C382.309 403.071 382.929 395.12 382.929 395.12" fill="#FFE1BD"/>
<path d="M382.944 404.851C382.897 406.013 382.775 407.171 382.581 408.317H377.969L377.742 407.542C376.913 407.97 376.009 408.233 375.08 408.317H371.179C368.32 408.317 366.642 407.952 366.642 407.435C366.339 405.337 369.742 405.429 370.634 405.429C373.175 405.429 375.927 404.228 376.532 402.935C376.971 401.993 376.774 401.75 377.303 401.932C377.475 401.984 377.634 402.072 377.769 402.19C377.905 402.308 378.014 402.453 378.09 402.616C378.302 403.062 378.648 403.43 379.08 403.668C379.511 403.905 380.006 404 380.494 403.939C381.063 403.845 381.59 403.58 382.007 403.179C382.314 403.329 382.568 403.569 382.735 403.868C382.903 404.167 382.976 404.509 382.944 404.851Z" fill="#3A3A3A"/>
<path d="M425.213 395.454C425.213 395.454 426.483 398.86 427.028 400.016C427.572 401.171 431.338 399.757 431.565 398.982C431.791 398.206 428.706 392.322 428.706 392.322" fill="#FFE1BD"/>
<path d="M432.926 399.606C433.41 400.822 434.121 403.195 434.121 403.195L430.627 405.293L429.947 404.776C429.466 405.537 428.838 406.193 428.102 406.707C427.013 407.334 425.849 407.82 424.639 408.152C421.448 408.882 418.983 408.532 418.725 408.152C417.667 406.297 421.901 405.293 422.733 404.958C423.686 404.57 424.516 403.929 425.137 403.105C425.757 402.28 426.144 401.303 426.257 400.275C426.257 399.241 426.045 399.089 426.605 399.059C426.605 399.059 427.678 398.876 428.313 400.488C428.313 400.488 430.839 400.032 431.474 398.435C431.803 398.466 432.116 398.594 432.374 398.802C432.632 399.01 432.824 399.29 432.926 399.606Z" fill="#3A3A3A"/>
<path d="M405.704 307.199C405.704 307.199 406.067 304.842 406.37 303.306C407.307 298.441 408.774 288.678 400.865 280.984C400.865 280.984 391.519 285.181 384.048 285.698C378.165 286.093 376.819 285.698 376.819 285.698C376.819 285.698 376.441 293.696 378.816 313.707L405.704 307.199Z" fill="#594A5F"/>
<path d="M430.733 393.919C428.826 395.11 426.798 396.094 424.684 396.853L424.124 395.88C423.746 395.15 423.338 394.36 422.914 393.675C422.92 393.635 422.92 393.594 422.914 393.554C421.584 391.212 420.117 388.733 418.574 386.179C410.272 372.494 399.686 357.09 395.89 351.023C395.89 351.023 395.89 351.023 395.89 350.947C395.6 350.491 395.357 350.007 395.164 349.502C395.164 349.411 395.164 349.32 395.058 349.244C394.951 348.999 394.87 348.745 394.816 348.483L394.725 348.012C394.724 347.987 394.724 347.961 394.725 347.936C394.636 347.457 394.658 346.963 394.789 346.494C394.921 346.025 395.157 345.592 395.481 345.229C395.624 345.063 395.787 344.915 395.965 344.788C397.992 343.268 402.014 343.648 405.432 346.035L405.962 346.431L406.219 346.613C409.367 348.83 412.101 351.59 414.294 354.764C421.947 366.32 426.483 383.944 430.733 393.919Z" fill="#594A5F"/>
<path d="M406.158 347.708C406.294 354.125 403.95 355.6 401.364 354.946C400.904 354.833 400.458 354.67 400.033 354.459C398.282 353.553 396.788 352.213 395.693 350.567C395.693 350.567 395.693 350.567 395.693 350.491C395.468 350.15 395.276 349.788 395.118 349.411C395.118 349.32 395.118 349.229 395.013 349.153C394.906 348.908 394.825 348.653 394.771 348.392L394.68 347.921C394.678 347.896 394.678 347.87 394.68 347.845C394.045 344.652 392.563 339.162 390.748 332.776L387.481 321.311C384.079 309.496 380.857 297.894 380.948 294.503C381.281 282.338 395.36 292.009 402.12 296.784C404.948 298.821 405.689 302.303 405.735 305.512C405.78 308.72 406.052 338.25 406.173 346.568C406.173 346.78 406.173 346.978 406.173 347.161C406.173 347.343 406.158 347.541 406.158 347.708Z" fill="#594A5F"/>
<path d="M406.052 339.299C406.052 339.299 406.339 345.625 412.767 352.741C412.767 352.741 403.481 349.913 402.967 349.381C401.758 347.1 400.814 344.686 400.154 342.188C400.245 341.519 406.052 339.299 406.052 339.299Z" fill="#594A5F"/>
<path d="M422.899 393.539C421.568 391.197 420.101 388.719 418.559 386.164C410.256 372.479 399.67 357.075 395.874 351.008C395.874 351.008 395.874 351.008 395.874 350.932C395.585 350.476 395.342 349.992 395.148 349.487C395.148 349.396 395.148 349.305 395.043 349.229C394.936 348.984 394.855 348.73 394.801 348.468L394.71 347.997C394.708 347.972 394.708 347.946 394.71 347.921C394.075 344.728 392.593 339.239 390.778 332.852L401.364 304.204H405.235C405.235 304.204 400.88 317.433 399.095 323.394C397.311 329.355 396.827 338.6 396.676 342.082C396.328 349.563 405.477 362.275 408.094 366.898C410.861 371.81 421.946 391.638 422.899 393.539Z" fill="#4C4051"/>
<path d="M383.035 400.138H382.475C380.449 400.178 378.424 400.026 376.426 399.682V398.557C376.744 381.268 374.823 353.015 374.46 344.089C374.46 343.451 374.46 338.098 374.46 337.566C374.294 329.963 382.022 336.73 384.744 342.751C385.401 344.242 385.907 345.796 386.256 347.389C386.74 349.396 386.755 351.631 387.254 353.912C390.188 367.4 384.245 389.007 383.035 400.138Z" fill="#594A5F"/>
<path d="M401.243 307.139C401.243 307.322 388.585 338.828 386.12 345.671C385.815 346.235 385.382 346.719 384.857 347.083C384.331 347.448 383.728 347.683 383.096 347.769C379.693 348.621 374.687 347.222 374.43 340.44C374.395 339.623 374.425 338.804 374.521 337.992C375.096 332.503 377.046 302.136 377.364 299.202C377.682 296.267 378.302 292.009 379.844 291.508C387.602 289.044 403.527 296.191 401.243 307.139Z" fill="#594A5F"/>
<path d="M388.071 340.211C386.362 348.27 386.362 346.293 387.073 352.376C387.784 358.458 385.198 347.251 385.198 347.251L386.816 343.146L388.071 340.211Z" fill="#594A5F"/>
<path d="M352.925 257.156C352.297 257.037 351.658 256.991 351.02 257.019C350.805 257.172 350.583 257.314 350.354 257.445V257.78H350.233L348.842 258.677C348.721 258.783 347.33 260.44 347.33 260.44C347.451 260.503 347.586 260.536 347.723 260.536C347.86 260.536 347.994 260.503 348.116 260.44C348.676 260.273 349.522 259.224 349.931 258.92C350.112 258.783 350.566 258.494 350.989 258.22C351.297 258.128 351.622 258.108 351.939 258.16C352.256 258.213 352.557 258.338 352.819 258.525C353.424 259.33 352.925 257.156 352.925 257.156Z" fill="#F4D4B3"/>
<path d="M360.789 254.571C360.789 254.571 357.764 255.575 356.736 255.757C355.708 255.94 353.122 255.605 351.7 255.757C350.974 255.757 349.462 257.278 348.04 258.388C346.891 259.71 345.848 260.896 346.165 261.094C346.8 261.489 348.434 259.437 349.764 258.479C350.778 257.749 351.625 257.779 352.078 258.099C352.532 258.418 352.335 258.889 351.942 259.148C351.549 259.406 350.672 259.498 350.596 259.756C350.521 260.015 350.596 260.486 351.882 260.243C352.836 260.071 353.743 259.698 354.543 259.148C355.078 258.778 355.709 258.577 356.358 258.57C357.311 258.464 362.029 257.627 362.029 257.627" fill="#FFE1BD"/>
<path d="M380.903 249.782L379.935 257.978L379.829 258.814H379.042L375.277 258.936C366.203 259.149 356.434 259.058 356.434 259.058L355.889 255.423C363.038 253.353 370.286 251.648 377.606 250.314L380.903 249.782Z" fill="#F9B253"/>
<path d="M330.324 232.58L329.925 232.724C329.43 232.903 329.173 233.451 329.351 233.949L339.366 261.951C339.544 262.449 340.09 262.708 340.585 262.529L340.984 262.385C341.479 262.205 341.736 261.657 341.558 261.159L331.543 233.157C331.364 232.659 330.819 232.401 330.324 232.58Z" fill="#1C44B5"/>
<path d="M372.268 261.141H340.63C340.021 261.141 339.526 261.638 339.526 262.251V262.448C339.526 263.061 340.021 263.558 340.63 263.558H372.268C372.877 263.558 373.371 263.061 373.371 262.448V262.251C373.371 261.638 372.877 261.141 372.268 261.141Z" fill="#1C44B5"/>
<path d="M380.903 249.782L379.935 257.977C379.663 258.235 379.375 258.54 379.043 258.828L375.277 258.95C375.874 256.03 376.652 253.151 377.606 250.329L380.903 249.782Z" fill="#F29127"/>
<path d="M409.53 292.966C405.387 291.278 399.186 293.149 387.526 296.007C375.867 298.866 373.356 296.251 373.356 296.251C373.78 295.354 373.674 284.907 374.974 271.921C375.247 269.139 375.61 266.234 376.018 263.3C377.772 251.333 380.903 238.605 386.755 229.847C389.659 225.513 397.886 223.399 397.886 223.399C402.423 228.919 406.823 235.564 406.808 245.418C406.793 255.271 404.192 265.063 404.57 270.796C404.948 276.529 409.53 292.966 409.53 292.966Z" fill="#F9B253"/>
<path d="M385.001 271.875C381.668 272.19 378.314 272.23 374.974 271.997C375.247 269.214 375.61 266.31 376.018 263.375H376.411C377.458 263.34 378.465 262.966 379.282 262.308C380.1 261.651 380.684 260.745 380.948 259.726C381.734 256.776 383.035 252.123 385.016 245.919C388.525 234.895 392.184 234.469 392.184 234.469C392.184 234.469 397.538 231.701 397.765 237.51C397.992 243.319 391.852 271.024 385.001 271.875Z" fill="#F29127"/>
<path d="M400.593 308.811C400.593 308.811 404.57 307.29 406.838 300.508L404.373 296.114L399.156 298.562C398.813 300.202 398.576 301.863 398.445 303.534C398.642 303.793 400.593 308.811 400.593 308.811Z" fill="#594A5F"/>
<path d="M352.093 265.261L351.73 262.327C350.452 262.498 349.163 262.564 347.874 262.524C346.634 262.372 345.152 261.703 343.337 261.369C341.522 261.034 341.129 261.749 341.416 262.19C341.704 262.631 343.791 262.95 343.791 262.95C343.791 262.95 344.078 263.208 342.974 263.208H341.794C341.317 263.076 340.863 262.871 340.448 262.6L339.813 261.946C338.634 260.684 337.878 260.289 338.014 261.141C338.29 262.032 338.747 262.855 339.356 263.559C339.965 264.263 340.713 264.832 341.553 265.231C342.838 265.738 344.17 266.115 345.53 266.356C346.028 266.461 346.543 266.461 347.042 266.356C348.154 266.099 349.289 265.962 350.43 265.945C351.428 265.945 352.048 265.945 352.048 265.945C354.392 266.128 353.227 265.702 352.093 265.261Z" fill="#FFE1BD"/>
<path d="M391.7 232.249C391.7 232.249 388.041 232.675 384.517 243.699C382.566 249.873 381.25 254.556 380.464 257.506C380.2 258.525 379.616 259.431 378.799 260.089C377.981 260.746 376.974 261.121 375.927 261.156L350.218 261.84L350.052 266.979C350.052 266.979 360.078 268.059 367.02 269.063C372.795 269.939 378.651 270.138 384.472 269.656C391.337 268.819 398.082 238.529 397.734 235.443C397.145 230.562 391.7 232.249 391.7 232.249Z" fill="#F9B253"/>
<path d="M374.702 206.202C374.702 206.202 374.037 207.509 375.504 209.79C375.64 210.003 376.199 210.307 376.26 210.566C376.404 211.472 376.404 212.396 376.26 213.303C377.17 217.049 378.942 220.528 381.432 223.461C383.912 224.555 388.766 222.822 392.865 220.647C393.742 220.571 398.581 218.184 397.871 211.265C397.08 206.263 394.845 201.605 391.443 197.869C391.065 197.717 380.449 199.678 380.025 199.77C379.602 199.861 374.702 206.202 374.702 206.202Z" fill="#FFD1AB"/>
<path d="M389.977 208.832C389.078 208.553 388.3 207.975 387.769 207.193C387.239 206.412 386.988 205.472 387.058 204.529C386.937 200.849 386.468 200.727 384.23 202.78C381.992 204.833 366.899 212.847 365.613 195.862C367.277 196.409 371.526 195.542 375.504 193.611C377.561 192.623 386.483 184.7 392.381 191.938C395.285 191.421 399.292 194.022 400.381 200.636C401.47 207.251 399.065 216.405 396.737 217.363C395.224 218.001 394.513 216.466 393.954 213.333C393.727 211.706 397.946 208.543 393.5 204.453C392.915 204.147 392.243 204.053 391.598 204.188C390.952 204.324 390.373 204.679 389.958 205.194C389.543 205.71 389.319 206.354 389.322 207.017C389.325 207.68 389.557 208.321 389.977 208.832Z" fill="#2C1E56"/>
<path d="M396.736 217.378C396.736 217.378 396.313 222.138 398.067 223.628C395.375 226.913 389.311 227.4 389.311 227.4C389.311 227.4 390.687 225.164 387.587 219.37C384.487 213.576 396.736 217.378 396.736 217.378Z" fill="#FFD1AB"/>
<path d="M388.479 228.022C388.407 226.888 388.407 225.75 388.479 224.616C391.318 223.619 394.205 222.767 397.13 222.062C397.851 222.657 398.378 223.457 398.642 224.357C395.412 225.983 392 227.213 388.479 228.022Z" fill="#F9B253"/>
<path d="M376.441 212.284C376.441 212.284 375.459 216.663 375.852 217.712C376.245 218.761 378.876 218.092 378.876 218.092L376.441 212.284Z" fill="#FFD1AB"/>
<path d="M472.835 118.677V176.337C472.835 177.462 472.391 178.542 471.599 179.337C470.808 180.133 469.735 180.58 468.616 180.58H339.693C339.137 180.582 338.587 180.473 338.073 180.261C337.56 180.049 337.093 179.737 336.699 179.343C336.306 178.948 335.994 178.48 335.781 177.964C335.568 177.449 335.458 176.896 335.458 176.337V118.677C335.458 118.118 335.568 117.565 335.781 117.05C335.994 116.534 336.306 116.065 336.699 115.671C337.093 115.277 337.56 114.965 338.073 114.753C338.587 114.54 339.137 114.432 339.693 114.434H468.616C469.735 114.434 470.808 114.881 471.599 115.677C472.391 116.472 472.835 117.551 472.835 118.677Z" fill="white"/>
<path d="M472.835 118.677V126.979H335.458V118.677C335.458 118.118 335.568 117.565 335.781 117.05C335.994 116.534 336.306 116.065 336.699 115.671C337.093 115.277 337.56 114.965 338.073 114.753C338.587 114.54 339.137 114.432 339.693 114.434H468.616C469.735 114.434 470.808 114.881 471.599 115.677C472.391 116.472 472.835 117.551 472.835 118.677Z" fill="#005C91"/>
<path d="M467.421 133.944V173.737H340.63V161.025C345.742 153.97 352.729 149.271 368.729 158.775C384.109 167.898 384.063 138.505 401.621 140.026C419.179 141.546 423.867 167.913 437.478 147.766C451.088 127.618 467.421 133.944 467.421 133.944Z" fill="#1A82E7"/>
<path opacity="0.5" d="M365.613 133.685H340.63V135.403H365.613V133.685Z" fill="#AEC1FF"/>
<path opacity="0.5" d="M382.853 136.726H340.63V138.444H382.853V136.726Z" fill="#AEC1FF"/>
<path opacity="0.5" d="M372.328 139.767H340.63V141.485H372.328V139.767Z" fill="#AEC1FF"/>
<path opacity="0.5" d="M378.876 142.808H340.63V144.526H378.876V142.808Z" fill="#AEC1FF"/>
<path opacity="0.5" d="M365.613 145.849H340.63V147.567H365.613V145.849Z" fill="#AEC1FF"/>
<path d="M78.6548 56.1797C74.9878 61.4756 72.614 67.566 71.7259 73.9569C70.8378 80.3478 71.4604 86.8592 73.5432 92.9629L112.198 79.6273L78.6548 56.1797Z" fill="#1A82E7"/>
<path d="M118.05 34.7399V75.7957L148.099 103.622C153.489 97.7559 157.059 90.4364 158.374 82.5604C159.688 74.6844 158.69 66.5938 155.501 59.2798C152.311 51.9657 147.07 45.7457 140.418 41.3816C133.766 37.0175 125.993 34.6988 118.05 34.7095V34.7399Z" fill="#006EAE"/>
<path d="M112.198 38.541C105.606 38.5404 99.112 40.1444 93.2708 43.2161C87.4295 46.2878 82.4148 50.7358 78.655 56.1799L112.198 79.6275V38.541Z" fill="#F9B253"/>
<path d="M104.606 119.984C111.422 121.282 118.455 120.813 125.041 118.621C131.626 116.429 137.548 112.586 142.247 107.454L112.198 79.6274L104.606 119.984Z" fill="#FF595F"/>
<path d="M73.5435 92.9629C75.8852 99.8247 79.9933 105.94 85.4497 110.686C90.9061 115.433 97.5158 118.641 104.606 119.984L112.168 79.6274L73.5435 92.9629Z" fill="#005C91"/>
<path d="M91.1766 185.203H36.7339C36.0159 185.203 35.3274 185.489 34.8197 186C34.3121 186.51 34.0269 187.203 34.0269 187.924V205.213C34.0269 205.935 34.3121 206.628 34.8197 207.138C35.3274 207.648 36.0159 207.935 36.7339 207.935H81.8911C82.118 209.76 83.4034 213.364 89.9516 213.364C89.9516 213.364 87.2446 212.877 86.6851 207.935H91.222C91.9399 207.935 92.6284 207.648 93.1361 207.138C93.6438 206.628 93.929 205.935 93.929 205.213V187.924C93.929 187.563 93.8575 187.205 93.7187 186.872C93.5798 186.539 93.3763 186.237 93.1201 185.983C92.8639 185.73 92.5601 185.531 92.2264 185.396C91.8928 185.262 91.5359 185.196 91.1766 185.203Z" fill="#EBFAFF"/>
<path d="M90.8438 187.315H36.643C36.1837 187.315 35.8113 187.69 35.8113 188.152V188.821C35.8113 189.283 36.1837 189.657 36.643 189.657H90.8438C91.3032 189.657 91.6756 189.283 91.6756 188.821V188.152C91.6756 187.69 91.3032 187.315 90.8438 187.315Z" fill="#B2EBF9"/>
<path d="M90.8438 191.269H36.643C36.1837 191.269 35.8113 191.643 35.8113 192.105V192.774C35.8113 193.236 36.1837 193.611 36.643 193.611H90.8438C91.3032 193.611 91.6756 193.236 91.6756 192.774V192.105C91.6756 191.643 91.3032 191.269 90.8438 191.269Z" fill="#B2EBF9"/>
<path d="M90.8438 195.222H36.643C36.1837 195.222 35.8113 195.597 35.8113 196.058V196.727C35.8113 197.189 36.1837 197.564 36.643 197.564H90.8438C91.3032 197.564 91.6756 197.189 91.6756 196.727V196.058C91.6756 195.597 91.3032 195.222 90.8438 195.222Z" fill="#B2EBF9"/>
<path d="M90.8438 199.177H36.643C36.1837 199.177 35.8113 199.551 35.8113 200.013V200.682C35.8113 201.144 36.1837 201.518 36.643 201.518H90.8438C91.3032 201.518 91.6756 201.144 91.6756 200.682V200.013C91.6756 199.551 91.3032 199.177 90.8438 199.177Z" fill="#B2EBF9"/>
<path d="M90.8438 203.13H36.643C36.1837 203.13 35.8113 203.505 35.8113 203.967V204.636C35.8113 205.097 36.1837 205.472 36.643 205.472H90.8438C91.3032 205.472 91.6756 205.097 91.6756 204.636V203.967C91.6756 203.505 91.3032 203.13 90.8438 203.13Z" fill="#B2EBF9"/>
<path d="M409.848 193.778H464.291C465.011 193.782 465.701 194.072 466.211 194.584C466.721 195.097 467.009 195.791 467.013 196.515V213.805C467.009 214.528 466.72 215.22 466.21 215.73C465.7 216.24 465.01 216.526 464.291 216.526H419.194C418.967 218.351 417.682 221.955 411.133 221.955C411.133 221.955 413.825 221.453 414.385 216.526H409.848C409.129 216.526 408.438 216.24 407.928 215.73C407.418 215.22 407.13 214.528 407.126 213.805V196.515C407.13 195.791 407.418 195.097 407.928 194.584C408.437 194.072 409.127 193.782 409.848 193.778Z" fill="#EBFAFF"/>
<path d="M449.334 214.063H463.989C464.69 214.063 465.259 213.492 465.259 212.786V197.474C465.259 196.768 464.69 196.196 463.989 196.196H449.334C448.633 196.196 448.064 196.768 448.064 197.474V212.786C448.064 213.492 448.633 214.063 449.334 214.063Z" fill="#80D4DD"/>
<path d="M410.166 198.431H445.054C445.413 198.431 445.705 198.138 445.705 197.777V196.835C445.705 196.474 445.413 196.181 445.054 196.181H410.166C409.806 196.181 409.515 196.474 409.515 196.835V197.777C409.515 198.138 409.806 198.431 410.166 198.431Z" fill="#80D4DD"/>
<path d="M418.014 202.339H445.145C445.462 202.339 445.72 202.081 445.72 201.762V200.667C445.72 200.348 445.462 200.089 445.145 200.089H418.014C417.697 200.089 417.44 200.348 417.44 200.667V201.762C417.44 202.081 417.697 202.339 418.014 202.339Z" fill="#80D4DD"/>
<path d="M410.166 206.263H445.054C445.413 206.263 445.705 205.97 445.705 205.609V204.666C445.705 204.305 445.413 204.012 445.054 204.012H410.166C409.806 204.012 409.515 204.305 409.515 204.666V205.609C409.515 205.97 409.806 206.263 410.166 206.263Z" fill="#80D4DD"/>
<path d="M413.099 210.155H445.084C445.435 210.155 445.72 209.869 445.72 209.516V208.543C445.72 208.19 445.435 207.905 445.084 207.905H413.099C412.749 207.905 412.464 208.19 412.464 208.543V209.516C412.464 209.869 412.749 210.155 413.099 210.155Z" fill="#80D4DD"/>
<path d="M432.275 214.063H445.311C445.537 214.063 445.72 213.88 445.72 213.653V212.224C445.72 211.997 445.537 211.813 445.311 211.813H432.275C432.05 211.813 431.867 211.997 431.867 212.224V213.653C431.867 213.88 432.05 214.063 432.275 214.063Z" fill="#80D4DD"/>
<path d="M307.556 96.9168H252.569C252.638 96.2481 252.817 95.5956 253.099 94.9857C254.505 91.6708 259.586 84.965 277.946 81.9694L287.019 80.0991C287.019 80.0991 308.01 80.1904 307.556 96.9168Z" fill="#F9B253"/>
<path d="M289.333 96.9164H252.569C252.638 96.2478 252.817 95.5953 253.099 94.9854C254.525 94.598 256.028 94.598 257.454 94.9854L259.707 95.5784H283.602C288.29 95.6088 289.333 96.9164 289.333 96.9164Z" fill="#F29127"/>
<path d="M275.843 80.9659C276.461 81.9194 276.892 82.9826 277.114 84.0984C277.273 84.8003 277.676 85.4224 278.249 85.854C278.822 86.2856 279.529 86.4986 280.244 86.4553C288.274 85.9991 287.805 80.9659 287.805 80.9659C286.157 78.4113 285.144 70.8691 285.144 70.8691" fill="#FFE1BD"/>
<path d="M257.106 57.7466C257.106 57.7466 256.773 67.8893 261.28 67.7372C265.786 67.5851 261.28 56.5605 261.28 56.5605L257.106 57.7466Z" fill="#2C1E56"/>
<path d="M283.995 68.9374C284.137 70.2097 284.162 71.4924 284.07 72.7693C284.078 72.9061 284.078 73.0431 284.07 73.1799C284.07 73.3167 284.07 73.4536 283.979 73.6056C282.891 77.9393 277.416 84.0674 273.575 84.5691C273.072 84.6086 272.566 84.6086 272.063 84.5691C266.724 84.3259 263.594 80.0074 261.794 75.2327L261.613 74.7461C260.433 71.3924 259.676 67.9033 259.359 64.3604C259.359 63.9802 259.072 59.9963 259.858 58.8102C260.645 57.6242 271.276 56.2708 271.488 56.2556C271.7 56.2404 281.862 56.9703 281.862 56.9703C282.792 60.9167 283.504 64.9119 283.995 68.9374Z" fill="#FFE1BD"/>
<path d="M285.628 68.7708C285.726 70.0234 285.686 71.2831 285.507 72.5266C285.507 72.6635 285.507 72.8003 285.507 72.9524C284.811 77.2861 279.458 84.0223 273.59 84.5697C273.137 84.5697 272.683 84.6609 272.275 84.6761C265.847 84.9499 263.609 80.1144 261.84 75.2485L261.658 74.7619C261.658 74.7619 263.881 78.3505 265 78.4569C266.119 78.5634 264.668 77.1492 267.692 75.9784C269.705 75.3683 271.823 75.1922 273.908 75.4614C275.163 75.6286 277.431 76.2825 278.233 76.3889C278.382 76.4229 278.537 76.4229 278.687 76.3889C280.652 74.491 282.05 72.0789 282.724 69.4246C282.815 68.4819 284.796 68.6187 285.628 68.7708Z" fill="#2C1E56"/>
<path d="M254.959 54.6288C254.959 54.6288 255.292 62.4143 268.01 59.2971C271.503 58.4455 274.588 57.6396 276.312 58.5824C278.914 66.8088 279.004 70.7472 279.927 70.443C281.076 70.0325 277.961 63.1898 281.938 63.9349C284.963 64.4975 281.802 72.0397 281.802 72.0397C281.802 72.0397 285.507 72.5263 285.613 70.808C285.613 69.774 285.795 55.0242 283.269 51.5268C282.682 50.5637 281.872 49.7577 280.909 49.1778C279.945 48.5978 278.855 48.2612 277.734 48.1967C277.734 48.1967 274.558 45.4901 267.057 47.6949C259.556 49.8998 255.594 47.1171 255.624 47.3452C254.806 49.6802 254.577 52.183 254.959 54.6288Z" fill="#2C1E56"/>
<g style="mix-blend-mode:multiply">
<path d="M307.556 96.9165C307.556 96.9165 306.906 110.222 301.507 118.707L301.356 118.92C301.302 118.979 301.256 119.046 301.22 119.117C299.586 121.596 290.528 135.083 284.675 140.406C278.263 146.321 270.868 153.011 270.868 153.011L270.596 152.783C269.827 153.482 269.119 154.245 268.478 155.064C267.979 155.976 267.48 159.307 266.527 159.626C265.879 159.748 265.258 159.991 264.698 160.341C263.679 160.418 262.656 160.315 261.673 160.036C261.272 160.455 260.814 160.813 260.312 161.101C259.161 161.82 257.964 162.46 256.728 163.017C255.669 163.351 255.488 163.017 255.714 162.348C255.941 161.679 257.968 160.538 258.739 159.96C259.726 159.057 260.541 157.98 261.144 156.782C261.597 155.779 261.597 155.262 261.144 155.262C260.69 155.262 259.314 156.098 258.255 156.326C257.197 156.554 256.743 156.326 257.197 155.657C258.133 154.353 259.425 153.349 260.917 152.768C262.176 152.606 263.373 152.125 264.395 151.369C265.151 150.667 265.808 149.864 266.346 148.982L265.922 148.602C265.922 148.602 277.461 132.407 286.112 119.893L286.686 119.117C290.023 112.73 291.84 105.651 291.995 98.4371C291.674 97.7962 291.138 97.2899 290.482 97.0077L307.556 96.9165Z" fill="#5FB0E7"/>
</g>
<path d="M266.256 147.339C265.425 148.855 264.409 150.259 263.231 151.52C262.215 152.289 261.015 152.771 259.753 152.919C258.266 153.502 256.975 154.499 256.032 155.793C255.518 156.417 256.032 156.706 257.091 156.478C258.15 156.249 259.526 155.398 259.98 155.398C260.433 155.398 260.433 155.945 259.98 156.919C259.373 158.118 258.559 159.199 257.575 160.112C256.834 160.674 254.823 161.8 254.55 162.469C254.278 163.138 254.55 163.487 255.564 163.153C256.801 162.599 257.999 161.958 259.148 161.237C259.647 160.946 260.105 160.588 260.509 160.173C261.491 160.452 262.515 160.555 263.533 160.477C264.044 160.391 264.526 160.182 264.94 159.868C265.089 159.849 265.237 159.813 265.378 159.762C266.331 159.382 266.891 156.052 267.329 155.2C268.625 153.685 270.025 152.262 271.518 150.943L266.256 147.339Z" fill="#FFE1BD"/>
<path d="M300.267 118.767C305.711 110.282 307.556 96.9773 307.556 96.9773L300.615 92.2178L297.061 93.8753C294.823 92.9021 291.012 91.4575 291.012 91.4575L289.333 96.9317C289.987 97.21 290.522 97.7106 290.845 98.3458C290.685 105.627 288.852 112.772 285.492 119.224L284.917 119.999C276.282 132.514 264.728 148.708 264.728 148.708L269.658 153.072C269.658 153.072 277.068 146.381 283.496 140.466C289.318 135.114 298.377 121.611 300.01 119.178L300.161 118.98L300.267 118.767Z" fill="#F9B253"/>
<g style="mix-blend-mode:multiply">
<path d="M261.794 100.277H261.597C261.745 100.429 261.882 100.591 262.006 100.764C262.202 100.976 262.081 101.113 262.081 101.113C261.809 101.402 261.582 101.372 261.234 101.357C261.007 101.305 260.795 101.201 260.614 101.053C260.505 101.139 260.377 101.199 260.241 101.228C260.104 101.257 259.963 101.254 259.828 101.22C259.495 101.22 259.102 100.87 258.588 100.338C258.61 100.377 258.622 100.422 258.622 100.467C258.622 100.513 258.61 100.557 258.588 100.596C258.475 100.704 258.337 100.782 258.186 100.822C258.035 100.862 257.877 100.863 257.726 100.824C257.196 100.641 256.732 100.302 256.395 99.8513C256.214 99.6689 255.972 99.3648 255.699 99.0455L255.019 98.5742C254.712 98.3607 254.349 98.2443 253.975 98.2397C251.374 98.2397 250.195 97.0537 247.004 97.0537H261.476H261.401C261.107 97.1238 260.809 97.1746 260.508 97.2058C260.705 97.4186 260.887 97.6467 261.053 97.8444C261.628 98.5438 262.399 99.456 262.565 99.6081C262.732 99.7601 262.641 99.9882 262.641 99.9882C262.536 100.105 262.403 100.192 262.255 100.243C262.106 100.293 261.948 100.305 261.794 100.277Z" fill="#5FB0E7"/>
</g>
<path d="M261.189 100.277H260.993C261.141 100.429 261.277 100.591 261.401 100.764C261.598 100.976 261.477 101.113 261.477 101.113C261.204 101.402 260.977 101.372 260.63 101.357C260.401 101.31 260.187 101.205 260.01 101.052C259.897 101.139 259.767 101.2 259.628 101.229C259.489 101.258 259.346 101.255 259.208 101.22C258.891 101.22 258.497 100.87 257.983 100.338C258.002 100.378 258.012 100.422 258.012 100.467C258.012 100.512 258.002 100.556 257.983 100.596C257.87 100.704 257.732 100.782 257.581 100.822C257.431 100.862 257.272 100.863 257.121 100.824C256.788 100.824 256.35 100.444 255.79 99.8513C255.609 99.6688 255.352 99.3647 255.095 99.0454L254.414 98.5741C254.106 98.3623 253.744 98.246 253.371 98.2396C250.769 98.2396 249.605 97.0537 246.414 97.0537C246.414 97.0537 253.87 93.4502 258.376 96.0045C259.006 96.1127 259.643 96.1787 260.282 96.2022C261.582 96.2022 261.204 96.8864 260.796 97.1145C260.508 97.1863 260.215 97.2371 259.919 97.2665H259.995C260.191 97.4794 260.373 97.7074 260.524 97.9051C261.098 98.6045 261.87 99.5168 262.036 99.6688C262.202 99.8209 262.112 100.049 262.112 100.049C261.992 100.166 261.843 100.249 261.681 100.289C261.519 100.329 261.349 100.325 261.189 100.277Z" fill="#FFE1BD"/>
<path style="mix-blend-mode:multiply" opacity="0.47" d="M260.736 97.0381C260.447 97.11 260.154 97.1608 259.858 97.1902C259.387 96.7315 258.881 96.3096 258.346 95.9282C258.976 96.0363 259.613 96.1024 260.252 96.1259C261.522 96.1563 261.144 96.8101 260.736 97.0381Z" fill="url(#paint0_linear)"/>
<path d="M466.393 374.82C466.393 374.82 465.546 365.879 453.871 361.499C442.196 357.12 433.924 362.32 433.924 362.32C433.924 362.32 435.058 351.57 444.298 352.057C453.538 352.543 455.383 358.519 455.383 358.519C455.383 358.519 460.389 353.288 464.775 357.166C468.404 360.389 467.799 366.791 467.799 366.791C467.799 366.791 471.247 367.217 470.748 372.752C470.693 373.392 470.592 374.027 470.446 374.652" fill="#61C5F2"/>
<path opacity="0.58" d="M466.393 374.82C466.393 374.82 465.546 365.879 453.871 361.499C442.196 357.12 433.924 362.32 433.924 362.32C433.924 362.32 435.058 351.57 444.298 352.057C453.538 352.543 455.383 358.519 455.383 358.519C455.383 358.519 460.389 353.288 464.775 357.166C468.404 360.389 467.799 366.791 467.799 366.791C467.799 366.791 471.247 367.217 470.748 372.752C470.693 373.392 470.592 374.027 470.446 374.652" fill="#389EEC"/>
<path d="M472.881 374.729C472.76 346.856 458.831 334.448 458.68 334.327L459.104 333.825C459.24 333.946 473.395 346.537 473.531 374.729H472.881Z" fill="#39A7D8"/>
<path d="M459.482 334.6C457.855 334.761 456.221 334.387 454.824 333.536C454.613 333.368 454.438 333.16 454.307 332.924C454.176 332.688 454.093 332.429 454.062 332.161C454.032 331.892 454.053 331.621 454.127 331.361C454.201 331.101 454.324 330.859 454.491 330.647C454.658 330.435 454.865 330.259 455.099 330.127C455.334 329.996 455.592 329.912 455.859 329.881C456.126 329.85 456.396 329.872 456.654 329.946C456.913 330.02 457.154 330.145 457.364 330.312C458.535 331.458 459.281 332.97 459.482 334.6Z" fill="#39A7D8"/>
<path d="M460.616 335.741C460.481 337.402 459.806 338.973 458.695 340.211C458.282 340.562 457.748 340.736 457.208 340.696C456.668 340.656 456.165 340.406 455.807 339.998C455.63 339.794 455.496 339.556 455.411 339.299C455.326 339.043 455.292 338.771 455.312 338.502C455.332 338.232 455.404 337.968 455.525 337.727C455.647 337.485 455.814 337.27 456.019 337.094C457.35 336.123 458.974 335.645 460.616 335.741Z" fill="#39A7D8"/>
<path d="M460.51 335.801C460.776 334.183 461.556 332.695 462.733 331.559C463.172 331.237 463.719 331.101 464.256 331.181C464.794 331.261 465.279 331.549 465.606 331.985C465.768 332.201 465.886 332.447 465.953 332.709C466.019 332.971 466.033 333.243 465.994 333.511C465.954 333.778 465.862 334.035 465.723 334.267C465.584 334.498 465.4 334.699 465.183 334.858C463.778 335.699 462.129 336.032 460.51 335.801Z" fill="#39A7D8"/>
<path d="M464.805 341.413C464.467 343.015 463.617 344.461 462.385 345.533C462.163 345.685 461.913 345.791 461.65 345.846C461.386 345.9 461.115 345.902 460.851 345.851C460.587 345.8 460.335 345.698 460.111 345.549C459.886 345.401 459.693 345.209 459.542 344.986C459.391 344.762 459.286 344.511 459.231 344.246C459.177 343.981 459.175 343.708 459.225 343.443C459.276 343.178 459.378 342.925 459.526 342.699C459.674 342.473 459.864 342.279 460.086 342.127C461.533 341.357 463.197 341.105 464.805 341.413Z" fill="#39A7D8"/>
<path d="M464.684 341.458C465.138 339.881 466.088 338.494 467.391 337.505C467.86 337.268 468.4 337.221 468.902 337.372C469.405 337.523 469.831 337.861 470.093 338.317C470.356 338.773 470.435 339.313 470.315 339.826C470.195 340.339 469.885 340.787 469.448 341.078C467.949 341.745 466.269 341.879 464.684 341.458Z" fill="#39A7D8"/>
<path d="M477.417 374.653C474.211 337.657 491.179 319.501 491.361 319.319L490.741 318.726C490.559 318.908 473.334 337.323 476.571 374.729L477.417 374.653Z" fill="#258BAF"/>
<path d="M490.333 319.79C490.333 319.79 494.264 319.79 496.382 317.813C496.862 317.301 497.128 316.623 497.127 315.92C497.125 315.216 496.856 314.54 496.374 314.03C495.891 313.52 495.233 313.215 494.535 313.178C493.836 313.14 493.149 313.374 492.616 313.829C491.203 315.498 490.398 317.6 490.333 319.79Z" fill="#258BAF"/>
<path d="M488.956 321.432C488.956 321.432 489.682 325.324 491.981 327.027C492.271 327.264 492.606 327.439 492.966 327.541C493.326 327.643 493.703 327.669 494.073 327.619C494.444 327.569 494.8 327.443 495.12 327.249C495.44 327.055 495.718 326.797 495.935 326.491C496.152 326.185 496.305 325.838 496.383 325.471C496.462 325.103 496.465 324.724 496.392 324.355C496.319 323.986 496.172 323.637 495.96 323.327C495.747 323.018 495.474 322.756 495.157 322.557C493.274 321.494 491.09 321.098 488.956 321.432Z" fill="#258BAF"/>
<path d="M489.108 321.508C488.56 319.394 487.345 317.516 485.644 316.156C485.029 315.825 484.311 315.743 483.637 315.926C482.964 316.11 482.385 316.545 482.02 317.143C481.655 317.741 481.531 318.457 481.674 319.144C481.816 319.831 482.214 320.437 482.786 320.839C484.755 321.784 486.986 322.02 489.108 321.508Z" fill="#258BAF"/>
<path d="M484.102 329.476C484.102 329.476 485.251 333.247 487.807 334.646C488.12 334.831 488.468 334.952 488.828 335C489.189 335.049 489.556 335.024 489.906 334.927C490.257 334.831 490.586 334.665 490.872 334.439C491.157 334.212 491.395 333.931 491.571 333.611C491.747 333.291 491.857 332.938 491.896 332.574C491.934 332.211 491.899 331.843 491.793 331.493C491.688 331.143 491.513 330.818 491.281 330.537C491.048 330.255 490.762 330.024 490.438 329.856C488.432 329.004 486.195 328.87 484.102 329.476Z" fill="#258BAF"/>
<path d="M484.253 329.567C484.253 329.567 482.832 325.887 480.185 324.671C479.562 324.489 478.895 324.536 478.304 324.805C477.713 325.074 477.236 325.546 476.961 326.137C476.685 326.727 476.629 327.398 476.801 328.026C476.974 328.655 477.364 329.201 477.902 329.567C479.957 330.296 482.198 330.296 484.253 329.567Z" fill="#258BAF"/>
<path d="M480.563 338.463C480.563 338.463 482.075 342.112 484.722 343.283C485.05 343.427 485.402 343.506 485.76 343.514C486.118 343.521 486.474 343.458 486.808 343.327C487.141 343.197 487.446 343.001 487.704 342.752C487.962 342.503 488.17 342.206 488.314 341.876C488.458 341.547 488.536 341.192 488.543 340.832C488.551 340.473 488.488 340.115 488.358 339.779C488.228 339.444 488.034 339.138 487.786 338.878C487.539 338.618 487.242 338.41 486.915 338.265C484.838 337.596 482.595 337.666 480.563 338.463Z" fill="#258BAF"/>
<path d="M480.73 338.493C479.752 336.516 478.159 334.914 476.193 333.931C475.511 333.687 474.76 333.726 474.107 334.038C473.453 334.35 472.949 334.911 472.707 335.596C472.464 336.282 472.502 337.036 472.813 337.693C473.123 338.351 473.681 338.857 474.363 339.101C476.492 339.638 478.739 339.423 480.73 338.493Z" fill="#258BAF"/>
<path d="M478.113 347.191C479.271 349.043 480.996 350.468 483.028 351.251C483.73 351.426 484.472 351.314 485.092 350.939C485.712 350.564 486.158 349.957 486.332 349.251C486.507 348.546 486.395 347.799 486.023 347.176C485.65 346.553 485.046 346.104 484.344 345.929C482.185 345.63 479.989 346.075 478.113 347.191Z" fill="#258BAF"/>
<path d="M478.28 347.206C477.004 345.438 475.187 344.14 473.107 343.511C472.396 343.384 471.663 343.546 471.07 343.963C470.477 344.379 470.073 345.015 469.947 345.731C469.82 346.447 469.982 347.183 470.396 347.779C470.81 348.375 471.443 348.781 472.155 348.909C474.329 349.056 476.489 348.456 478.28 347.206Z" fill="#258BAF"/>
<path d="M476.918 356.223C478.238 357.959 480.086 359.214 482.181 359.796C482.895 359.905 483.623 359.724 484.204 359.293C484.786 358.863 485.173 358.218 485.281 357.5C485.39 356.782 485.21 356.051 484.782 355.466C484.353 354.881 483.712 354.492 482.998 354.383C480.822 354.283 478.678 354.932 476.918 356.223Z" fill="#258BAF"/>
<path d="M477.085 356.223C477.085 356.223 474.484 353.258 471.58 353.03C470.886 353.021 470.215 353.278 469.702 353.748C469.189 354.217 468.873 354.866 468.817 355.561C468.762 356.256 468.971 356.947 469.402 357.493C469.834 358.039 470.455 358.401 471.142 358.504C473.322 358.441 475.417 357.637 477.085 356.223Z" fill="#258BAF"/>
<path d="M476.525 367.14C477.845 368.876 479.693 370.131 481.788 370.713C482.502 370.822 483.23 370.642 483.811 370.211C484.392 369.78 484.78 369.135 484.888 368.417C484.996 367.7 484.817 366.968 484.388 366.384C483.96 365.799 483.318 365.409 482.605 365.301C480.429 365.201 478.284 365.85 476.525 367.14Z" fill="#258BAF"/>
<path d="M476.692 367.141C476.692 367.141 474.09 364.176 471.187 363.948C470.83 363.919 470.472 363.961 470.131 364.071C469.791 364.182 469.476 364.358 469.203 364.591C468.931 364.824 468.707 365.109 468.544 365.429C468.381 365.749 468.282 366.098 468.253 366.457C468.224 366.815 468.266 367.176 468.376 367.518C468.486 367.86 468.661 368.177 468.893 368.451C469.125 368.725 469.408 368.95 469.726 369.114C470.044 369.278 470.392 369.377 470.748 369.406C472.928 369.353 475.024 368.553 476.692 367.141Z" fill="#258BAF"/>
<path d="M480.049 374.82C480.049 374.82 474.877 358.321 485.463 355.767C485.463 355.767 485.992 333.642 501.644 339.253C501.644 339.253 503.913 330.616 513.017 331.027C522.121 331.437 521.682 340.15 521.682 340.15C521.682 340.15 530 341.458 530 348.453C530 348.453 489.304 336.912 485.811 374.759" fill="#61C5F2"/>
<path opacity="0.58" d="M480.049 374.82C480.049 374.82 474.877 358.321 485.463 355.767C485.463 355.767 485.992 333.642 501.644 339.253C501.644 339.253 503.913 330.616 513.017 331.027C522.121 331.437 521.682 340.15 521.682 340.15C521.682 340.15 530 341.458 530 348.453C530 348.453 489.304 336.912 485.811 374.759" fill="#1A82E7"/>
<path d="M457.44 378.226L465.001 406.965C465.093 407.268 465.276 407.535 465.525 407.729C465.775 407.923 466.078 408.033 466.393 408.045H484.631C484.949 408.036 485.255 407.927 485.508 407.733C485.76 407.54 485.946 407.271 486.037 406.965L493.599 378.226C493.71 377.807 493.724 377.367 493.64 376.942C493.555 376.516 493.374 376.116 493.111 375.772C492.848 375.428 492.509 375.149 492.122 374.958C491.735 374.766 491.309 374.667 490.877 374.668H460.177C459.745 374.668 459.319 374.767 458.931 374.959C458.544 375.15 458.205 375.428 457.94 375.772C457.676 376.115 457.493 376.515 457.407 376.941C457.32 377.366 457.331 377.806 457.44 378.226Z" fill="#49AFEF" fill-opacity="0.25" stroke="#00BFD8" stroke-miterlimit="10"/>
<path d="M486.189 378.226L481.123 405.171" stroke="#00BFD8" stroke-width="0.53" stroke-miterlimit="10" stroke-linecap="round"/>
<defs>
<linearGradient id="paint0_linear" x1="258.316" y1="96.5668" x2="261.129" y2="96.5668" gradientUnits="userSpaceOnUse">
<stop stop-color="#F7941E"/>
<stop offset="1" stop-color="#F7941E" stop-opacity="0"/>
</linearGradient>
</defs>
</svg>
