<svg width="53" height="53" viewBox="0 0 53 53" fill="none" xmlns="http://www.w3.org/2000/svg">
<path d="M26.6926 52.8002C21.55 52.8002 16.5229 51.2752 12.247 48.4181C7.97107 45.5611 4.6384 41.5002 2.67041 36.749C0.702421 31.9979 0.187515 26.7699 1.19079 21.7261C2.19406 16.6823 4.67046 12.0492 8.30683 8.41286C11.9432 4.77648 16.5762 2.30009 21.62 1.29681C26.6638 0.293541 31.8918 0.808473 36.643 2.77646C41.3941 4.74445 45.455 8.07712 48.3121 12.353C51.1691 16.629 52.6941 21.6561 52.6941 26.7987C52.6851 33.6919 49.9428 40.3003 45.0685 45.1745C40.1942 50.0488 33.5859 52.7911 26.6926 52.8002ZM26.6926 10.1188C23.4038 10.1188 20.1888 11.0941 17.4543 12.9213C14.7197 14.7484 12.5883 17.3455 11.3297 20.384C10.0712 23.4224 9.74186 26.7659 10.3835 29.9916C11.0251 33.2172 12.6089 36.1802 14.9344 38.5057C17.26 40.8313 20.2229 42.415 23.4486 43.0566C26.6742 43.6982 30.0176 43.3689 33.0561 42.1103C36.0946 40.8518 38.6917 38.7204 40.5189 35.9859C42.346 33.2513 43.3213 30.0363 43.3213 26.7475C43.3032 22.3476 41.5439 18.1338 38.4278 15.0273C35.3118 11.9209 31.0926 10.1233 26.6926 10.1188Z" fill="#F9B253"/>
</svg>
