<svg width="52" height="54" viewBox="0 0 52 54" fill="none" xmlns="http://www.w3.org/2000/svg">
<path d="M43.6333 16.2094L47.8409 13.0622C45.7896 9.81288 43.0505 7.05873 39.819 4.99617L36.6889 9.22693C34.8703 8.11355 32.8913 7.28976 30.8221 6.78478L31.5918 1.62529C27.853 0.776839 23.9733 0.776839 20.2345 1.62529L20.9871 6.78478C18.9243 7.29274 16.9513 8.1164 15.1374 9.22693L12.0073 4.99617C8.77577 7.05873 6.03667 9.81288 3.98537 13.0622L8.19298 16.2094C7.08851 18.0334 6.26937 20.0171 5.76418 22.0913L0.632868 21.3345C-0.210956 25.0938 -0.210956 28.9949 0.632868 32.7542L5.76418 31.9803C6.26641 34.0608 7.08568 36.0506 8.19298 37.8793L4.05375 41.0266C6.10505 44.2759 8.84415 47.03 12.0757 49.0926L15.2058 44.8618C17.0198 45.9723 18.9927 46.796 21.0555 47.3039L20.3029 52.4634C24.0417 53.3119 27.9215 53.3119 31.6602 52.4634L30.8905 47.3039C32.9597 46.7989 34.9387 45.9752 36.7573 44.8618L39.8875 49.0926C43.119 47.03 45.8581 44.2759 47.9094 41.0266L43.6333 37.8793C44.7406 36.0506 45.5599 34.0608 46.0621 31.9803L51.1934 32.7542C52.0372 28.9949 52.0372 25.0938 51.1934 21.3345L46.0621 22.0913C45.5569 20.0171 44.7378 18.0334 43.6333 16.2094ZM25.9132 40.9062C23.1866 40.9062 20.5211 40.0932 18.254 38.57C15.9869 37.0469 14.2199 34.882 13.1765 32.349C12.133 29.8161 11.86 27.029 12.3919 24.3401C12.9239 21.6511 14.2369 19.1812 16.1649 17.2426C18.093 15.304 20.5494 13.9838 23.2236 13.4489C25.8979 12.914 28.6698 13.1885 31.1889 14.2377C33.708 15.2869 35.861 17.0636 37.3759 19.3432C38.8907 21.6227 39.6993 24.3027 39.6993 27.0444C39.6993 30.7207 38.2469 34.2465 35.6615 36.8461C33.0761 39.4457 29.5695 40.9062 25.9132 40.9062Z" fill="#00A4D6"/>
</svg>
