<svg width="53" height="53" viewBox="0 0 53 53" fill="none" xmlns="http://www.w3.org/2000/svg">
<path d="M26.7092 52.5726C21.5666 52.5726 16.5395 51.0476 12.2636 48.1905C7.98768 45.3335 4.65501 41.2726 2.68702 36.5214C0.719032 31.7703 0.204113 26.5422 1.20739 21.4984C2.21066 16.4546 4.68706 11.8216 8.32343 8.18526C11.9598 4.54889 16.5928 2.07249 21.6366 1.06922C26.6804 0.0659445 31.9084 0.580864 36.6596 2.54885C41.4107 4.51684 45.4716 7.84951 48.3287 12.1254C51.1858 16.4014 52.7107 21.4285 52.7107 26.5711C52.7062 33.4657 49.9653 40.0767 45.0901 44.9519C40.2148 49.8272 33.6039 52.568 26.7092 52.5726ZM26.7092 9.94243C23.4204 9.94243 20.2054 10.8665 17.4709 12.6936C14.7363 14.5208 12.605 17.1179 11.3464 20.1564C10.0878 23.1948 9.75849 26.5383 10.4001 29.764C11.0417 32.9896 12.6255 35.9525 14.951 38.2781C17.2766 40.6036 20.2395 42.1874 23.4652 42.829C26.6908 43.4706 30.0343 43.1413 33.0728 41.8827C36.1112 40.6242 38.7083 38.4928 40.5355 35.7583C42.3627 33.0237 43.3379 29.8087 43.3379 26.5199C43.3198 22.12 41.5605 17.9061 38.4445 14.7997C35.3284 11.6933 31.1092 9.9469 26.7092 9.94243Z" fill="#6EE0FF"/>
</svg>
