
<svg width="130" height="35" xmlns="http://www.w3.org/2000/svg">
 <!-- Generator: sketchtool 41 (35326) - http://www.bohemiancoding.com/sketch -->
 <title>ACD45AF0-37E8-4CFB-950D-05A0186FDC1D</title>
 <desc>Created with sketchtool.</desc>
 <defs>
  <linearGradient id="linearGradient-1" y2="100%" x2="100%" y1="0%" x1="0%">
   <stop offset="0%" stop-color="#4854A2"/>
   <stop offset="100%" stop-color="#772088"/>
  </linearGradient>
 </defs>
 <g>
  <title>background</title>
  <rect fill="none" id="canvas_background" height="402" width="582" y="-1" x="-1"/>
 </g>
 <g>
  <title>Layer 1</title>
  <g fill-rule="evenodd" fill="none" id="logo">
   <g id="logo-classic">
    <g id="deal">
     <g fill="#000000" id="Group-10">
      <path id="Fill-1" d="m56.243811,26.529526c1.1823,-1.1375 1.7745,-2.5025 1.7745,-4.0964c0,-1.5911 -0.5922,-2.9561 -1.7745,-4.0495c-1.1375,-1.1375 -2.5487,-1.6821 -4.2315,-1.6821c-1.6387,0 -3.003,0.5446 -4.1405,1.6821c-1.1382,1.0934 -1.6835,2.4584 -1.6835,4.0495c0,1.5939 0.5453,2.9589 1.6835,4.0964c1.1375,1.0927 2.5018,1.638 4.1405,1.638c1.6828,0 3.094,-0.5453 4.2315,-1.638zm1.365,-12.558l0,-11.7852l6.7802,0l0,31.7135l-6.7802,0l0,-3.003c-0.6825,2.0034 -3.367,3.4125 -6.825,3.4125c-3.2305,0 -5.9605,-1.1375 -8.1459,-3.4125c-2.1378,-2.3198 -3.2298,-5.1401 -3.2298,-8.4637c0,-3.3215 1.092,-6.1411 3.2298,-8.4168c2.1854,-2.3198 4.9154,-3.4573 8.1459,-3.4573c3.458,0 6.1425,1.4091 6.825,3.4125z"/>
      <path id="Fill-3" d="m84.467321,19.840606c0,-2.0482 -2.093,-3.7772 -4.7775,-3.7772c-1.4105,0 -2.6404,0.3647 -3.6855,1.0927c-1.0465,0.7273 -1.5925,1.638 -1.6394,2.6845l10.1024,0zm-16.9274,2.5487c0,-3.5952 1.1375,-6.4624 3.4125,-8.6457c2.3219,-2.2302 5.2339,-3.3215 8.7374,-3.3215c3.4125,0 6.2335,1.1375 8.3727,3.3663c2.1371,2.2302 3.2305,4.9595 3.2305,8.2355c0,0.7749 -0.0455,1.5484 -0.1365,2.2309l-16.8357,0c0.1358,2.73 2.457,4.459 6.0508,4.459c3.2767,0 6.006,-0.728 8.1452,-2.2302l0,5.915c-2.184,1.4112 -5.005,2.0944 -8.5085,2.0944c-3.731,0 -6.734,-1.0934 -9.0559,-3.2319c-2.275,-2.184 -3.4125,-5.0498 -3.4125,-8.6443l0,-0.2275z"/>
      <path id="Fill-6" d="m110.097961,26.529526c1.1816,-1.1375 1.7745,-2.5025 1.7745,-4.0964c0,-1.5911 -0.5929,-2.9561 -1.7745,-4.0495c-1.1375,-1.1375 -2.5494,-1.6821 -4.2322,-1.6821c-1.638,0 -3.003,0.5446 -4.1405,1.6821c-1.1375,1.0934 -1.6835,2.4584 -1.6835,4.0495c0,1.5939 0.546,2.9589 1.6835,4.0964c1.1375,1.0927 2.5025,1.638 4.1405,1.638c1.6828,0 3.0947,-0.5453 4.2322,-1.638m1.365,-12.558l0,-3.003l6.7795,0l0,22.9313l-6.7795,0l0,-3.003c-0.6825,2.0034 -3.367,3.4125 -6.8257,3.4125c-3.2305,0 -5.9598,-1.1375 -8.1452,-3.4125c-2.1378,-2.3198 -3.2298,-5.1401 -3.2298,-8.4637c0,-3.3215 1.092,-6.1411 3.2298,-8.4168c2.1854,-2.3198 4.9147,-3.4573 8.1452,-3.4573c3.4587,0 6.1432,1.4091 6.8257,3.4125"/>
      <polygon points="122.74568557739258,33.901127338409424 129.52589797973633,33.901127338409424 129.52589797973633,2.186283588409424 122.74568557739258,2.186283588409424 " id="Fill-8"/>
     </g>
     <path fill="url(#linearGradient-1)" id="Fill-11" d="m0,34.250456l33.6,0l0,-33.6l-33.6,0l0,33.6zm7.7,-7.7l18.2,0l0,-18.2l-18.2,0l0,18.2z"/>
    </g>
   </g>
  </g>
 </g>
</svg>
