<svg xmlns="http://www.w3.org/2000/svg" width="138" height="16"><path d="M5.87 15.47c-.17.3-.58.53-.91.53H1.1c-.34 0-.46-.23-.28-.5l4.88-7.4a1 1 0 0 0 0-1.02L1.38.51C1.19.23 1.31 0 1.65 0h4.08c.34 0 .74.24.9.54L8.2 3.57c.16.3.41.3.57 0L10.35.54c.15-.3.55-.54.89-.54h3.8c.34 0 .46.23.28.51l-4.08 6.34c-.18.28-.18.74 0 1.02l4.88 7.62c.18.28.06.51-.28.51h-4c-.33 0-.74-.24-.9-.54l-2.17-4.02c-.16-.3-.42-.3-.59-.01l-2.32 4.04zM40.07.61a.61.61 0 0 1 .6-.61h6c1.06 0 2.82.36 3.63 1.1a5.46 5.46 0 0 1 1.89 4.25 6.46 6.46 0 0 1-.28 1.83c-.26.88-.8 1.7-1.6 2.43-.81.74-2.02 1.1-3.64 1.1h-1.54a.6.6 0 0 0-.6.61v4.07a.6.6 0 0 1-.61.6h-3.25a.61.61 0 0 1-.6-.6V.61zm4.46 5.98c0 .34.22.6.5.6.27 0 .76-.02 1.1-.05 0 0 .47-.05.76-.26.28-.22.48-.44.58-.69.05-.17.1-.33.1-.48a3.57 3.57 0 0 0 .02-.64 5.03 5.03 0 0 0-.03-.27 1.72 1.72 0 0 0-.54-.88c-.3-.27-.8-.4-1.5-.4h-.39a.61.61 0 0 0-.6.6V6.6zM78 .6c0-.33.27-.6.6-.6h3.2c.34 0 .61.27.61.6v10.95c0 .34.27.6.6.6h2.18a.6.6 0 0 0 .6-.6V.6a.61.61 0 0 1 .61-.6h3.2c.33 0 .6.27.6.6v10.95c0 .34.28.6.6.6h2.18a.6.6 0 0 0 .6-.6V.6a.6.6 0 0 1 .61-.6h3.2c.34 0 .61.27.61.6v14.8a.6.6 0 0 1-.6.6H78.6a.6.6 0 0 1-.6-.6V.6zm26.83 13a8.28 8.28 0 0 1-2.08-5.6c0-2.12.68-3.98 2.05-5.59C106.16.81 108.2 0 110.9 0h.2c2.7 0 4.74.8 6.1 2.41A8.39 8.39 0 0 1 119.25 8c0 2.13-.68 4-2.05 5.58-1.36 1.58-3.4 2.38-6.1 2.4l-.2.02c-2.66 0-4.69-.8-6.07-2.4zm6.6-1.26a3.85 3.85 0 0 0 2.37-1.38c.57-.67.86-1.65.86-2.96s-.29-2.3-.87-2.95a3.94 3.94 0 0 0-1.88-1.27 6.43 6.43 0 0 0-.47-.1 2.28 2.28 0 0 0-.94 0 3.93 3.93 0 0 0-2.33 1.42c-.55.65-.83 1.62-.83 2.9 0 1.28.28 2.25.83 2.9a3.92 3.92 0 0 0 1.83 1.3 2.85 2.85 0 0 0 .98.17l.45-.03zM124 .6c0-.33.28-.61.61-.61h12.78c.33 0 .61.28.61.61V15.4a.61.61 0 0 1-.61.6h-3.32a.62.62 0 0 1-.62-.6V4.44a.61.61 0 0 0-.61-.61h-3.68a.62.62 0 0 0-.61.61V15.4c0 .33-.05.61-.11.61h-3.83a.62.62 0 0 1-.61-.61V.6zM58.83 13.6A8.28 8.28 0 0 1 56.75 8c0-2.12.68-3.98 2.05-5.59C60.16.81 62.2 0 64.9 0h.2c2.7 0 4.74.8 6.1 2.41A8.39 8.39 0 0 1 73.25 8c0 2.13-.68 4-2.05 5.58-1.36 1.58-3.4 2.38-6.1 2.4l-.2.02c-2.66 0-4.69-.8-6.07-2.4zm6.6-1.26a3.85 3.85 0 0 0 2.37-1.38c.57-.66.86-1.65.86-2.96s-.29-2.3-.87-2.95a3.94 3.94 0 0 0-1.88-1.27 6.43 6.43 0 0 0-.47-.1 2.28 2.28 0 0 0-.94 0 3.93 3.93 0 0 0-2.33 1.42c-.55.65-.83 1.62-.83 2.9 0 1.28.28 2.25.83 2.9A3.92 3.92 0 0 0 64 12.2a2.85 2.85 0 0 0 .98.17l.45-.03zm-44.6 1.26A8.28 8.28 0 0 1 18.75 8c0-2.12.68-3.98 2.05-5.59C22.16.81 24.2 0 26.9 0h.2c2.7 0 4.74.8 6.1 2.41A8.39 8.39 0 0 1 35.25 8c0 2.13-.68 4-2.05 5.58-1.36 1.58-3.4 2.38-6.1 2.4l-.2.02c-2.66 0-4.68-.8-6.07-2.4zm6.6-1.26a3.85 3.85 0 0 0 2.37-1.38c.57-.66.86-1.65.86-2.96s-.29-2.3-.87-2.95a3.94 3.94 0 0 0-1.88-1.27 6.43 6.43 0 0 0-.47-.1 2.28 2.28 0 0 0-.94 0 3.93 3.93 0 0 0-2.33 1.42c-.55.65-.83 1.62-.83 2.9 0 1.28.28 2.25.83 2.9A3.92 3.92 0 0 0 26 12.2a2.85 2.85 0 0 0 .98.17l.45-.03z"/></svg>