
<svg width="142" height="35" xmlns="http://www.w3.org/2000/svg">
 <!-- Generator: sketchtool 41 (35326) - http://www.bohemiancoding.com/sketch -->
 <title>8956260C-9082-4D06-91D7-B27FBEA86629</title>
 <desc>Created with sketchtool.</desc>
 <defs>
  <linearGradient id="linearGradient-1" y2="100%" x2="100%" y1="0%" x1="0%">
   <stop offset="0%" stop-color="#4854A2"/>
   <stop offset="100%" stop-color="#772088"/>
  </linearGradient>
 </defs>
 <g>
  <title>background</title>
  <rect fill="none" id="canvas_background" height="402" width="582" y="-1" x="-1"/>
 </g>
 <g>
  <title>Layer 1</title>
  <g fill-rule="evenodd" fill="none" id="logo">
   <g id="logo-classic">
    <g id="tiu">
     <g fill="#000000" id="Group-9">
      <path id="Fill-1" d="m43.20113,17.16008l-3.0037,0l0,-6.1418l3.0037,0l0,-8.7822l6.5975,0l0,8.7822l5.096,0l0,6.1418l-5.096,0l0,8.19c0,2.184 0.8645,3.0499 2.912,3.0499c0.364,0 0.9555,-0.0469 1.7304,-0.1827l0,6.0067c-0.9114,0.2261 -2.0034,0.3178 -3.3222,0.3178c-5.278,0 -7.9177,-2.7293 -7.9177,-8.19l0,-9.1917z"/>
      <path id="Fill-3" d="m59.4622,33.95021l6.7802,0l0,-22.9327l-6.7802,0l0,22.9327zm3.3663,-32.5801c2.1392,0 3.8682,1.6842 3.8682,3.8689c0,2.1385 -1.729,3.8227 -3.8682,3.8227c-2.1385,0 -3.8668,-1.6842 -3.8668,-3.8227c0,-2.1847 1.7283,-3.8689 3.8668,-3.8689l0,0z"/>
      <path id="Fill-5" d="m70.59549,11.0173l6.8705,0l0,13.1054c0,2.912 1.6849,4.2315 4.1867,4.2315c2.5025,0 4.1853,-1.3195 4.1853,-4.2315l0,-13.1054l6.8712,0l0,13.6955c0,3.185 -1.0458,5.6434 -3.185,7.3262c-2.093,1.6842 -4.7327,2.5487 -7.8715,2.5487c-3.1388,0 -5.7792,-0.8645 -7.9177,-2.5487c-2.093,-1.6828 -3.1395,-4.1412 -3.1395,-7.3262l0,-13.6955z"/>
      <path id="Fill-6" d="m100.78978,33.95532l0,-22.9327l6.7802,0l0,3.1402c1.0465,-2.3212 3.5035,-3.6407 6.643,-3.6407c0.455,0 1.0465,0.0462 1.7745,0.1372l0,6.37c-0.6825,-0.1365 -1.456,-0.2275 -2.275,-0.2275c-3.8675,0 -6.1425,2.1833 -6.1425,5.9605l0,11.193l-6.7802,0z"/>
      <path id="Fill-7" d="m119.17234,11.02276l6.8705,0l0,13.1047c0,2.912 1.6835,4.2315 4.186,4.2315c2.5025,0 4.186,-1.3195 4.186,-4.2315l0,-13.1047l6.8712,0l0,13.6955c0,3.185 -1.0465,5.6427 -3.185,7.3255c-2.093,1.6842 -4.7327,2.5487 -7.8722,2.5487c-3.1395,0 -5.7785,-0.8645 -7.9177,-2.5487c-2.0923,-1.6828 -3.1388,-4.1405 -3.1388,-7.3255l0,-13.6955z"/>
      <path id="Fill-8" d="m94.09127,29.82707c1.1284,-1.106 2.8385,-1.106 3.9326,0c1.1284,1.1067 1.1284,2.835 0,3.941c-1.0941,1.106 -2.8042,1.106 -3.9326,0c-1.0941,-1.106 -1.0941,-2.8343 0,-3.941"/>
     </g>
     <path fill="url(#linearGradient-1)" id="Fill-10" d="m0,34.29951l33.6,0l0,-33.6l-33.6,0l0,33.6zm7.7,-7.7l18.2,0l0,-18.2l-18.2,0l0,18.2z"/>
    </g>
   </g>
  </g>
 </g>
</svg>
