<?xml version="1.0" encoding="utf-8"?>
<!-- Generator: Adobe Illustrator 14.0.0, SVG Export Plug-In . SVG Version: 6.00 Build 43363)  -->
<!DOCTYPE svg PUBLIC "-//W3C//DTD SVG 1.1//EN" "http://www.w3.org/Graphics/SVG/1.1/DTD/svg11.dtd">
<svg version="1.1" id="Слой_1" xmlns="http://www.w3.org/2000/svg" xmlns:xlink="http://www.w3.org/1999/xlink" x="0px" y="0px"
	 width="269.275px" height="46.148px" viewBox="14.334 26.926 269.275 46.148"
	 enable-background="new 14.334 26.926 269.275 46.148" xml:space="preserve">
<path fill="#18171B" d="M90.398,57.717c1.49,0,2.555,0.801,2.555,2.299c0,1.323-1.277,2.299-2.555,2.299H76.449
	c-1.881,0-2.98-1.045-2.98-2.508c0-0.697,0.248-1.394,0.709-2.021L85.606,42.11h-9.334c-1.42,0-2.484-0.801-2.484-2.229
	c0-1.324,1.136-2.369,2.484-2.369h12.99c2.058,0,2.98,1.289,2.98,2.508c0,0.767-0.319,1.637-0.78,2.229L80.105,57.717H90.398z"/>
<path fill="#18171B" d="M102.499,62.732c-4.117,0-7.063-2.056-7.063-5.992c0-5.782,6.921-6.514,11.642-6.514v-1.359
	c0-0.975-0.816-1.324-2.236-1.324c-2.981,0-3.514,1.707-4.862,1.707c-1.598,0-2.236-1.115-2.236-2.125
	c0-2.021,4.082-3.762,7.099-3.762c4.721,0,7.347,1.986,7.347,5.608v10.87c0,1.464-0.993,2.683-2.484,2.683
	c-1.101,0-2.022-0.279-2.413-1.847C106.403,62.035,104.203,62.732,102.499,62.732z M103.422,58.553c2.662,0,3.869-1.359,3.869-3.763
	v-0.802c-3.088,0-6.957-0.313-6.957,2.752C100.334,58.1,101.896,58.553,103.422,58.553z"/>
<path fill="#18171B" d="M115.809,38.278c0-1.672,1.064-2.787,2.556-2.787c1.49,0,2.556,1.115,2.556,2.787v11.705l5.607-5.33
	c0.816-0.767,1.633-1.08,2.307-1.08c1.278,0,2.165,1.149,2.165,2.264c0,0.732-0.248,1.324-0.993,1.986l-4.543,3.971l5.998,6.897
	c0.461,0.521,0.639,1.115,0.639,1.672c0,1.324-1.064,2.369-2.414,2.369c-0.922,0-1.632-0.558-2.448-1.533l-6.247-7.559h-0.07v6.096
	c0,1.672-1.065,2.787-2.556,2.787c-1.491,0-2.556-1.115-2.556-2.787L115.809,38.278L115.809,38.278z"/>
<path fill="#18171B" d="M148.709,62.523c-1.313,0-2.165-0.697-2.342-1.847c-0.994,1.357-2.521,2.056-4.934,2.056
	c-4.011,0-6.992-2.508-6.992-6.758V46.36c0-1.672,1.064-2.787,2.556-2.787c1.49,0,2.556,1.115,2.556,2.787v8.744
	c0,2.334,1.49,3.449,3.336,3.449c2.094,0,3.266-1.498,3.266-3.449V46.36c0-1.672,1.064-2.787,2.555-2.787s2.556,1.115,2.556,2.787
	v13.376C151.266,61.408,150.2,62.523,148.709,62.523z"/>
<path fill="#18171B" d="M155.063,46.36c0-1.672,1.063-2.787,2.556-2.787c1.42,0,2.235,0.767,2.556,2.09
	c0.958-1.533,2.945-2.299,4.862-2.299c5.501,0,8.233,5.051,8.233,9.928c0,4.737-3.266,9.44-8.412,9.44
	c-1.598,0-3.336-0.592-4.685-1.742v6.131c0,1.673-1.065,2.787-2.556,2.787c-1.491,0-2.557-1.114-2.557-2.787V46.36H155.063z
	 M164.184,58.135c2.662,0,3.976-2.718,3.976-5.052c0-2.369-1.313-5.121-3.976-5.121c-2.732,0-4.011,2.508-4.011,4.946
	C160.173,55.348,161.379,58.135,164.184,58.135z"/>
<path fill="#18171B" d="M176.32,38.278c0-1.672,1.063-2.787,2.556-2.787c1.49,0,2.556,1.115,2.556,2.787v11.705l5.607-5.33
	c0.816-0.767,1.633-1.08,2.307-1.08c1.278,0,2.166,1.149,2.166,2.264c0,0.732-0.248,1.324-0.994,1.986l-4.543,3.971l5.998,6.897
	c0.461,0.521,0.639,1.115,0.639,1.672c0,1.324-1.063,2.369-2.413,2.369c-0.923,0-1.632-0.558-2.448-1.533l-6.247-7.559h-0.069v6.096
	c0,1.672-1.065,2.787-2.557,2.787c-1.49,0-2.557-1.115-2.557-2.787V38.278L176.32,38.278z"/>
<path fill="#18171B" d="M201.377,62.732c-4.117,0-7.063-2.056-7.063-5.992c0-5.782,6.92-6.514,11.642-6.514v-1.359
	c0-0.975-0.815-1.324-2.235-1.324c-2.982,0-3.515,1.707-4.863,1.707c-1.598,0-2.235-1.115-2.235-2.125
	c0-2.021,4.082-3.762,7.099-3.762c4.721,0,7.348,1.986,7.348,5.608v10.87c0,1.464-0.993,2.683-2.484,2.683
	c-1.102,0-2.023-0.279-2.413-1.847C205.281,62.035,203.081,62.732,201.377,62.732z M202.3,58.553c2.662,0,3.869-1.359,3.869-3.763
	v-0.802c-3.088,0-6.957-0.313-6.957,2.752C199.212,58.1,200.773,58.553,202.3,58.553z"/>
<path fill="#E1001A" d="M216.779,58.971c0.994,0,1.811,0.801,1.811,1.776s-0.816,1.776-1.811,1.776
	c-0.995,0-1.812-0.801-1.812-1.776S215.785,58.971,216.779,58.971z"/>
<path fill="#E1001A" d="M230.977,43.573c3.193,0,5.075,1.08,5.075,2.334c0,0.627-0.532,1.289-1.278,1.289
	c-1.205,0-1.668-0.976-3.797-0.976c-3.869,0-5.396,3.693-5.396,6.829c0,3.135,1.526,6.827,5.396,6.827
	c2.2,0,2.769-1.045,3.762-1.045c0.711,0,1.207,0.452,1.207,1.288c0,1.15-1.738,2.404-4.969,2.404c-5.75,0-8.519-4.563-8.519-9.476
	S225.227,43.573,230.977,43.573z"/>
<path fill="#E1001A" d="M246.521,43.573c5.324,0,8.306,4.563,8.306,9.476c0,4.911-2.981,9.475-8.306,9.475
	c-5.323,0-8.306-4.563-8.306-9.475C238.216,48.136,241.197,43.573,246.521,43.573z M246.521,59.876c3.834,0,5.183-3.692,5.183-6.827
	c0-3.136-1.349-6.829-5.183-6.829s-5.183,3.693-5.183,6.829C241.339,56.184,242.688,59.876,246.521,59.876z"/>
<path fill="#E1001A" d="M269.307,50.505c0-2.647-1.49-4.285-4.047-4.285c-2.52,0-4.011,1.637-4.011,4.285v10.382
	c0,1.01-0.604,1.637-1.562,1.637c-0.959,0-1.563-0.627-1.563-1.637V45.21c0-1.01,0.604-1.637,1.563-1.637
	c0.957,0,1.562,0.627,1.562,1.637v0.558l0.071,0.069c0.744-0.94,1.916-2.264,4.756-2.264c1.846,0,3.762,0.767,5.182,3.135
	c1.385-1.951,3.053-3.135,5.785-3.135c2.91,0,6.566,1.812,6.566,7.036v10.277c0,1.01-0.604,1.637-1.563,1.637
	c-0.959,0-1.563-0.627-1.563-1.637V50.505c0-2.647-1.49-4.285-4.047-4.285c-2.52,0-4.01,1.637-4.01,4.285v10.382
	c0,1.01-0.604,1.637-1.563,1.637c-0.958,0-1.563-0.627-1.563-1.637V50.505H269.307z"/>
<g>
	<g>
		<path fill="#E1001A" d="M57.78,26.926c2.103,0,3.822,1.72,3.822,3.822v38.504c0,2.104-1.72,3.822-3.822,3.822h-2.936
			c-2.103,0-3.822-1.721-3.822-3.822V30.748c0-2.103,1.72-3.822,3.822-3.822H57.78z"/>
	</g>
	<g>
		<path fill="#E1001A" d="M39.407,32.693c2.118,0,3.852,1.733,3.852,3.852v26.907c0,2.118-1.733,3.853-3.852,3.853h-2.876
			c-2.118,0-3.852-1.734-3.852-3.853V36.545c0-2.118,1.733-3.852,3.852-3.852H39.407z"/>
	</g>
	<g>
		<path fill="#E1001A" d="M21.194,38.462c2.045,0,3.719,1.674,3.719,3.719v15.637c0,2.046-1.674,3.72-3.719,3.72h-3.141
			c-2.045,0-3.719-1.674-3.719-3.72V42.181c0-2.045,1.674-3.719,3.719-3.719H21.194z"/>
	</g>
</g>
</svg>
