<svg width="515" height="435" viewBox="0 0 515 435" fill="none" xmlns="http://www.w3.org/2000/svg">
<path d="M452.288 326.887C457.003 331.146 458.098 339.232 458.412 345.402C458.879 354.532 455.838 362.44 453.404 371.023C453.354 371.348 453.241 371.66 453.072 371.94C452.904 372.22 452.682 372.464 452.42 372.656C452.064 372.796 451.671 372.801 451.311 372.671C450.952 372.54 450.65 372.284 450.46 371.946C450.097 371.266 449.953 370.486 450.049 369.717C450.188 367.197 451.151 364.812 451.848 362.384C454.157 354.354 453.243 345.487 448.752 338.494C446.987 335.747 443.925 332.886 445.857 326.659C447.112 322.62 449.268 324.196 452.288 326.887Z" fill="#3B455A"/>
<path d="M436.21 350.783C429.633 349.363 422.658 349.96 415.878 350.627C408.477 351.337 400.749 352.267 394.645 355.831C391.514 357.656 388.521 360.637 387.377 364.478C386.85 366.14 386.816 367.923 387.28 369.604C387.503 370.364 387.789 371.244 388.068 371.954C388.486 373.012 389.205 373.118 390.16 373.423C391.334 373.909 392.431 374.567 393.418 375.376C398.335 378.791 403.881 378.805 409.461 379.522C415.028 380.296 420.633 380.77 426.25 380.942C435.401 381.133 451.549 380.31 454.394 370.797C457.045 361.887 444.922 352.665 436.21 350.783Z" fill="#3B455A"/>
<path d="M399.123 368.198C398.156 368.977 397.028 369.523 395.824 369.795C392.058 370.902 389.275 373.117 385.362 373.096C372.109 373.004 371.767 354.567 383.478 349.888C392.406 346.324 409.021 359.082 399.123 368.198Z" fill="#3B455A"/>
<path d="M440.235 366.572C442.294 364.811 444.554 363.309 446.966 362.099C447.463 361.805 448.009 361.608 448.577 361.517C449.165 361.489 449.75 361.611 450.279 361.872C451.879 362.65 453.136 364.007 453.805 365.678C454.474 367.349 454.508 369.214 453.899 370.909C453.432 371.966 452.814 372.947 452.065 373.82C450.042 376.362 447.67 378.641 445.975 381.424C442.864 386.528 444.531 390.653 445.913 395.921C446.063 396.419 446.152 396.934 446.178 397.455C446.178 399.954 445.522 402.318 442.606 402.587C442.205 402.645 441.796 402.555 441.454 402.334C441.111 402.113 440.857 401.775 440.737 401.381C440.493 399.961 442.132 399.712 442.439 398.647C442.746 397.582 441.707 396.454 441.204 395.594C439.856 393.316 438.641 390.96 437.563 388.538C435.575 384.029 433.943 378.598 435.436 373.685C436.345 370.901 438.008 368.435 440.235 366.572Z" fill="#3B455A"/>
<path d="M421.897 392.166C421.532 392.811 421.371 393.554 421.437 394.296C421.619 394.9 421.956 395.444 422.413 395.872L425.148 398.939C425.999 399.883 426.926 400.884 428.154 401.154C429.382 401.424 430.944 400.565 430.839 399.287C430.742 397.654 428.545 397.256 427.449 396.064C426.131 394.644 426.689 392.251 427.652 390.533C429.395 387.445 432.129 385.061 435.394 383.781C436.49 383.45 437.539 382.972 438.512 382.361C438.996 382.052 439.377 381.602 439.605 381.068C439.833 380.535 439.897 379.944 439.788 379.372C438.393 374.623 431.725 374.325 429.263 377.59C426.25 381.666 423.99 387.551 421.897 392.166Z" fill="#3B455A"/>
<path d="M404.578 395.773C404.823 396.45 405.272 397.032 405.861 397.434C406.39 397.653 406.97 397.707 407.528 397.59L411.218 397.207C412.355 397.086 413.576 396.93 414.441 396.092C415.306 395.254 415.515 393.487 414.552 392.784C413.332 391.889 411.853 393.437 410.367 393.607C405.792 394.14 404.787 386.174 406.74 383.1C407.152 382.468 407.654 381.907 408.135 381.318C409.147 380.018 409.933 378.55 410.458 376.98C411.1 374.999 410.911 375.61 409.76 374.893C407.333 373.402 404.606 372.415 401.893 373.53C399.333 374.58 397.345 377.981 398.133 381.055C399.375 385.947 402.395 391.3 404.578 395.773Z" fill="#3B455A"/>
<path d="M401.635 383.909C401.838 385.674 401.926 387.45 401.9 389.226C401.83 391.214 401.467 393.209 401.746 395.176C402.025 397.142 402.96 399.024 403.329 401.019C403.516 401.724 403.472 402.471 403.204 403.149C403.144 403.304 403.053 403.444 402.936 403.561C402.82 403.678 402.681 403.769 402.528 403.829C402.375 403.888 402.212 403.915 402.048 403.906C401.885 403.898 401.725 403.855 401.579 403.78C399.668 400.635 397.701 397.341 397.226 393.586C396.829 390.476 397.477 387.196 396.424 384.257C395.727 382.368 394.443 380.877 393.634 379.053C392.936 377.384 392.044 375.354 392.567 373.494C392.86 372.457 393.697 372.024 393.885 371.002C393.885 370.832 393.969 370.633 394.115 370.59C394.208 370.574 394.302 370.595 394.38 370.647C396.075 371.485 399.856 372.415 400.658 374.31C401.153 375.439 400.965 377.484 401.083 378.748L401.635 383.909Z" fill="#3B455A"/>
<path d="M400.658 354.531C400.658 354.531 399.193 368.311 391.367 372.904H388.94C388.94 372.904 397.47 364.534 398.942 353.246L400.658 354.531Z" fill="white"/>
<path d="M389.414 372.904C390.809 373.38 390.398 373.48 391.011 374.758C391.222 375.137 391.333 375.565 391.333 376C391.333 376.436 391.222 376.864 391.011 377.243C390.798 377.517 390.527 377.739 390.218 377.891C389.908 378.043 389.569 378.123 389.226 378.123C388.461 378.166 387.707 377.925 387.104 377.444C386.501 376.964 386.09 376.276 385.947 375.51C385.766 373.962 387.266 372.393 388.737 372.727L389.414 372.904Z" fill="#96BFEE"/>
<path d="M377.57 345.274C377.54 345.258 377.505 345.252 377.47 345.257C377.436 345.261 377.404 345.277 377.379 345.301C377.353 345.325 377.336 345.357 377.329 345.391C377.322 345.426 377.326 345.462 377.34 345.494C377.631 346.573 377.735 347.695 377.647 348.81C377.591 351.494 377.531 354.173 377.466 356.848C377.508 355.037 388.919 360.824 387.74 354.469C387.056 350.784 380.814 346.907 377.57 345.274Z" fill="#3B455A"/>
<path d="M383.004 344.025C382.973 344.011 382.94 344.006 382.907 344.012C382.874 344.018 382.843 344.034 382.819 344.058C382.795 344.081 382.779 344.112 382.772 344.145C382.765 344.179 382.768 344.213 382.781 344.245C383.069 345.324 383.173 346.445 383.088 347.56C383.023 350.234 382.962 352.911 382.906 355.59C382.948 353.786 394.359 359.573 393.181 353.219C392.511 349.52 386.275 345.65 383.004 344.025Z" fill="#3B455A"/>
<path d="M113.757 229.169L116.024 223.958L114.176 219.286L114.95 218.385L116.08 219.308L115.634 214.991L117.552 212.052L122.155 211.896L126.013 214.742L125.678 219.414L122.609 224.029L119.798 231.306L113.757 229.169Z" fill="#EACFC1"/>
<path d="M114.629 224.618L97.4702 254.961L65.6357 260.62L69.4302 279.518L105.178 283.189L125.468 226.081L114.629 224.618Z" fill="#1A82E7"/>
<path d="M98.9351 419.229C98.9351 419.229 106.656 421.477 108.379 425.633C109.631 428.651 106.79 431.628 103.525 431.761C102.341 431.81 101.139 431.792 100.114 431.646C94.5312 430.851 87.1262 425.235 87.1262 425.235L88.312 419.229H98.9351Z" fill="#305399"/>
<path d="M64.9732 259.334L55.5149 260.505C54.936 257.992 54.5523 251.887 54.371 249.317C51.5809 248.983 48.3235 248.273 47.2773 245.639C46.9944 244.791 46.853 243.901 46.8588 243.005L46.3286 231.916C46.1905 230.641 46.2971 229.351 46.6425 228.118C47.3889 225.988 49.4326 224.689 51.4902 223.858C56.6937 221.679 62.8527 221.53 67.8469 224.185C69.2081 224.842 70.3767 225.851 71.2368 227.11C72.4645 229.098 72.4226 231.611 72.332 233.961C72.2552 236.091 72.1785 238.298 72.0948 240.464C72.0041 242.963 71.7112 245.838 69.6744 247.23C68.5933 247.939 67.1704 248.145 66.2496 249.082C64.6244 250.68 65.5033 257.069 64.9732 259.334Z" fill="#FFE1BD"/>
<path d="M88.4377 213.209C88.7688 212.201 89.1673 211.216 89.6304 210.263C90.6348 208.204 92.0159 206.323 92.7134 204.136C93.4109 201.949 93.2226 199.237 91.4928 197.747C90.2948 196.883 88.8595 196.426 87.3914 196.44C82.5712 196.117 77.754 197.115 73.4412 199.33C69.3607 201.46 65.8941 204.164 61.1789 203.504C56.7427 202.872 53.9317 204.179 50.0187 206.699C45.7639 209.432 39.6397 211.243 35.9708 214.565C34.4701 216.001 33.3353 217.787 32.6646 219.769C31.4753 223.191 31.252 226.884 32.0201 230.429C32.7881 233.974 34.5168 237.229 37.0101 239.825C38.1576 240.952 39.3992 241.976 40.7208 242.885C43.4272 244.795 46.6915 247.144 49.8931 247.393C49.363 244.638 45.0106 236.573 46.6009 233.869C49.098 229.566 56.7706 229.126 61.0254 229.083C65.6639 229.027 70.3093 231.327 74.8501 231.015C78.1215 230.787 81.8252 228.288 84.134 226.045C86.9799 223.226 87.2101 216.894 88.4377 213.209Z" fill="#0F576F"/>
<path d="M10.7905 416.361L14.5431 423.049C14.5431 423.049 15.0755 425.998 14.0758 427.344C12.732 429.154 8.44685 428.302 8.44685 428.302L0 423.049L2.81794 404.903L10.7905 402.518V416.361Z" fill="#305399"/>
<path d="M14.5432 355.753C14.5432 355.753 5.62898 372.465 17.8284 382.972C30.0279 393.48 51.1416 410.192 51.1416 410.192L11.2649 401.119L8.43994 415.389C8.43994 415.389 68.963 435.92 70.372 434.486C71.781 433.052 86.7914 419.684 86.7914 419.684L54.4269 347.596L18.7701 351.898L14.5432 355.753Z" fill="#3B455A"/>
<path d="M109.307 345.209C106.376 342.053 103.701 338.66 101.307 335.064C96.2146 327.357 93.0667 318.491 92.1414 309.25C91.7196 304.62 91.6357 299.964 91.8903 295.321C92.0019 292.815 92.1832 290.316 92.3924 287.81C92.511 286.39 93.8572 281.264 93.09 280.149C85.4871 268.84 84.5664 260.484 72.1228 259.121C43.727 255.997 45.3383 257.758 35.6847 269.699C31.8066 274.505 24.6361 288.286 22.153 293.908C19.1537 300.717 16.2311 307.568 13.5387 314.497C10.5325 322.243 7.79821 330.116 5.55222 338.103C5.30809 338.99 4.51292 341.454 3.66196 344.436C2.05071 350.066 0.244149 357.534 1.56942 359.692C2.26693 361.496 4.05955 363.413 8.41899 364.3C17.8005 366.217 25.3058 366.217 35.622 360.963C45.9382 355.71 63.0412 359.437 63.0412 359.437C65.7545 360.197 68.6212 360.942 71.6205 361.631C93.6201 366.6 104.99 352.905 108.589 350.421C111.721 348.248 109.307 345.209 109.307 345.209Z" fill="#1A82E7"/>
<path d="M60.523 358.102L111.197 334.227L124.331 351.414L101.809 421.614L86.7983 419.705L91.0182 377.683C91.0182 377.683 78.3514 388.666 55.8706 387.7C45.5474 377.2 45.5474 377.676 45.5474 377.676L60.523 358.102Z" fill="#3B455A"/>
<path d="M346.182 71.1904L81.002 160.495L240.942 199.982L346.182 71.1904Z" fill="#305399"/>
<path d="M74.0828 168.964L130.581 342.781L379.161 259.071C397.994 252.738 407.815 231.021 401.167 210.567L356.701 73.7881L244.541 211.057L74.0828 168.964Z" fill="#305399"/>
<path d="M389.251 104.065C407.995 84.9871 407.995 54.0559 389.251 34.9782C370.508 15.9004 340.118 15.9004 321.375 34.9782C302.631 54.0559 302.631 84.9871 321.375 104.065C340.118 123.143 370.508 123.143 389.251 104.065Z" fill="#FF595F"/>
<path d="M358.438 91.4028L348.463 60.7329L341.851 62.9621L338.97 54.109L355.271 48.6211L368.112 88.1371L358.438 91.4028Z" fill="white"/>
<path d="M387.412 141.937L384.901 138.621L381.121 131.671L375.917 129.839L370.386 133.112C370.386 133.112 371.683 135.462 373.636 135.199L376.566 134.809L378.617 141.305C378.657 141.425 378.703 141.544 378.756 141.66L379.558 144.102C379.558 144.102 382.348 146.076 382.844 145.6C383.066 145.391 383.299 145.195 383.541 145.011L384.357 145.373L387.412 141.937Z" fill="#FFE1BD"/>
<path d="M512.985 406.308L514.22 411.768L504.713 419.733L498.115 415.523L502.251 408.807L511.758 400.842L512.985 406.308Z" fill="#3B455A"/>
<path d="M498.117 415.521C496.592 419.027 495.78 424.778 504.722 419.729L498.117 415.521Z" fill="#3B455A"/>
<path d="M433.68 403.794C431.645 407.047 429.969 412.646 439.542 409.014L433.68 403.794Z" fill="#3B455A"/>
<path d="M492.778 237.468L496.51 254.059L490.937 331.018L513.153 404.413L502.997 409.063L457.945 324.153L452.741 297.111L450.467 240.017L492.778 237.468Z" fill="#594A5F"/>
<path d="M416.659 236.438L420.523 307.874L439.768 399.003L449.93 398.314L450.781 312.964L459.124 227.103L416.659 236.438Z" fill="#594A5F"/>
<path d="M450.16 402.674L439.537 409.015L433.678 403.796L438.805 397.832L449.791 397.086L450.16 402.674Z" fill="#3B455A"/>
<path d="M468.317 133.879C474.908 135.604 480.746 139.267 484.694 146.793C488.126 153.346 489.396 160.885 490.616 168.269C494.104 189.397 495.576 212.612 503.367 232.69C506.757 241.422 509.916 246.576 509.358 256.629C509.212 259.37 502.92 284.892 502.969 284.921C494.194 279.219 483.826 276.601 473.45 277.466C464.229 278.262 403.427 297.409 396.55 287.754C395.05 285.624 405.094 255.806 406.001 251.411C408.972 237.037 411.96 222.663 414.964 208.289C418.291 192.336 421.66 176.341 427.324 161.07C429.242 155.909 431.417 150.85 433.839 145.913C435.373 142.803 438.407 133.843 441.595 132.345C444.225 131.089 450.363 132.466 453.355 132.459C458.37 132.438 463.434 132.601 468.317 133.879Z" fill="#F9B253"/>
<path d="M471.121 103.997C464.892 90.508 444.169 88.0729 441.407 104.977C440.584 110.053 440.346 115.363 441.895 120.269C443.443 125.175 447.029 129.619 451.869 131.11H451.953C451.953 132.43 451.897 133.758 451.876 135.078C451.838 135.364 451.902 135.654 452.058 135.895C452.178 135.999 452.318 136.078 452.469 136.127C452.62 136.175 452.779 136.193 452.937 136.179L457.638 136.377C458.408 136.458 459.185 136.358 459.912 136.086C461.446 135.376 461.879 133.346 461.753 131.635C461.718 131.223 461.669 130.811 461.614 130.4C470.249 126.105 475.194 112.814 471.121 103.997Z" fill="#FFE1BD"/>
<path d="M448.103 81.314C444.399 80.6892 441.17 84.2958 437.71 86.1629C434.829 87.7106 431.586 88.0727 428.642 89.3506C425.699 90.6285 422.713 93.3405 422.588 96.8122C419.623 95.1722 416.408 93.4825 413.039 94.086C409.67 94.6894 406.482 98.7006 407.759 102.087C408.91 105.119 412.753 105.9 413.987 108.888C415.934 113.61 410.319 120.794 413.987 123.968C414.88 124.734 416.08 124.933 416.973 125.721C418.054 126.694 418.368 128.341 418.842 129.811C420.935 136.463 427.422 140.907 433.908 140.14C435.985 139.121 437.838 137.686 439.359 135.923C440.879 134.159 442.036 132.102 442.76 129.875C444.587 124.436 441.741 122.477 441.365 117.33C440.967 111.602 442.745 105.937 446.331 101.505C448.64 98.7077 451.911 96.3223 455.336 96.0525C456.731 95.946 456.271 97.1175 457.854 96.0525C458.709 95.2049 459.338 94.1493 459.682 92.9856C455.971 89.8618 452.978 82.1446 448.103 81.314Z" fill="#0F576F"/>
<path d="M448.905 132.707L414.294 166.309L414.05 166.43L386.101 138.742L379.781 145.032L408.812 190.022L409.279 190.966L445.382 174.218L460.923 140.261L448.905 132.707Z" fill="#F9B253"/>
<path d="M393.955 95.5849L390.265 85.9295L394.248 84.1475L398.21 90.1892L399.709 88.4569L401.879 97.1042L397.987 99.5323L393.955 95.5849Z" fill="#FFE1BD"/>
<path d="M468.1 134.127C463.469 131.997 457.275 132.523 450.997 132.324L428.872 131.614L402.116 93.9229L394.625 99.141L416.485 150.782L445.466 158.386C450.795 159.806 456.975 162.482 462.479 162.809C470.57 163.292 476.575 153.423 475.41 145.628C474.441 139.068 471.748 135.788 468.1 134.127Z" fill="#F9B253"/>
<path d="M488.154 89.3143C490.065 89.8894 492.144 89.8468 493.957 90.6987C496.677 91.9695 496.461 94.8661 497.194 97.3936C498.01 100.198 499.188 103.961 500.96 106.161C502.237 107.745 504.036 108.668 505.606 109.903C507.175 111.138 508.591 112.942 508.521 115.114C508.451 117.166 507.063 118.99 506.826 121.042C506.533 124.102 507.029 125.685 506.045 128.795C505.536 130.406 504.971 132.11 503.757 133.189C502.167 134.609 499.928 134.545 497.968 134.176C496.008 133.807 493.992 133.211 492.039 133.843C487.812 135.206 488.551 139.522 487.345 143.15C485.545 148.631 479.205 151.74 474.434 149.689C470.381 147.956 468.107 143.093 468.372 138.329C468.512 135.951 469.481 133.75 469.586 131.365C469.691 128.979 468.477 125.863 470.556 124.074C471.112 123.722 471.647 123.338 472.16 122.923C472.512 122.491 472.752 121.976 472.857 121.425C473.092 120.5 473.127 119.534 472.958 118.593C472.79 117.653 472.422 116.761 471.881 115.98C471.107 114.922 469.991 114.141 469.523 112.871C468.993 111.451 469.461 109.733 469.586 108.135C469.879 104.28 467.87 100.461 464.738 98.9058C462.646 97.8834 460.811 97.2729 459.012 95.7465C458.74 95.5122 454.666 91.714 454.548 92.5162C454.855 91.1398 455.495 89.8634 456.41 88.8032C457.679 86.9311 459.31 85.3416 461.202 84.1317C467.361 80.66 467.48 88.9806 472.418 87.9796C473.604 87.7382 474.511 86.652 475.585 86.013C477.614 84.8061 480.07 85.3031 482.106 86.2615C484.143 87.22 486.006 88.6612 488.154 89.3143Z" fill="#0F576F"/>
<path d="M117.601 317.322L122.985 318.92L127.282 316.428L128.265 317.088L127.512 318.345L131.662 317.322L134.78 318.863L135.547 323.485L133.288 327.752L128.691 328.05L123.794 325.565L116.331 323.705L117.601 317.322Z" fill="#FFE1BD"/>
<path d="M122.993 316.5L90.5093 300.81L86.7148 274.925L62.1484 265.589L67.0659 310.351L123.013 327.632L122.993 316.5Z" fill="#1A82E7"/>
</svg>
