<svg width="226" height="56" viewBox="0 0 226 56" fill="none" xmlns="http://www.w3.org/2000/svg">
<path d="M92.8777 31.5043C92.8823 33.2949 92.3573 35.0474 91.3678 36.5446C90.3783 38.0417 88.9678 39.2176 87.3112 39.9264L91.858 45.9163C92.0676 46.1719 92.2197 46.4692 92.3041 46.7881C92.3884 47.107 92.403 47.4401 92.3468 47.765C92.3102 48.0912 92.206 48.4063 92.0409 48.6907C91.8757 48.975 91.6531 49.2224 91.3871 49.4173C91.1227 49.6197 90.8199 49.7673 90.4968 49.8511C90.1738 49.935 89.837 49.9535 89.5066 49.9055C88.844 49.8119 88.2456 49.462 87.842 48.932L81.5857 40.6855H78.2866V47.4137C78.2928 47.7443 78.2296 48.0725 78.101 48.3774C77.9725 48.6824 77.7813 48.9574 77.5398 49.1851C77.3086 49.4189 77.0328 49.6047 76.7285 49.7315C76.4241 49.8583 76.0974 49.9236 75.7673 49.9236C75.4372 49.9236 75.1105 49.8583 74.8061 49.7315C74.5018 49.6047 74.226 49.4189 73.9948 49.1851C73.7533 48.9574 73.5621 48.6824 73.4336 48.3774C73.305 48.0725 73.2418 47.7443 73.248 47.4137V24.8118C73.2495 24.1532 73.5134 23.522 73.982 23.0558C74.4506 22.5895 75.0858 22.3261 75.7493 22.323H75.8663L76.0042 22.3438L76.1212 22.323H83.7062C86.1443 22.348 88.4742 23.3258 90.191 25.0444C91.9078 26.763 92.8731 29.084 92.8777 31.5043ZM83.6672 35.6722C84.7848 35.6745 85.8575 35.2361 86.6495 34.4534C87.4414 33.6706 87.8876 32.6076 87.89 31.4983C87.8924 30.389 87.4507 29.3241 86.6622 28.538C85.8736 27.7519 84.8028 27.309 83.6852 27.3066H78.2596V35.6722H83.6672Z" fill="#1A82E7"/>
<path d="M107.079 29.5007C108.428 29.4995 109.764 29.7625 111.011 30.2745C112.257 30.7866 113.39 31.5376 114.344 32.4847C115.298 33.4318 116.054 34.5564 116.57 35.794C117.085 37.0316 117.35 38.358 117.348 39.6972C117.35 41.376 116.934 43.0293 116.138 44.5104C115.342 45.9916 114.19 47.2549 112.784 48.1882C111.378 49.1215 109.762 49.696 108.079 49.8608C106.395 50.0255 104.697 49.7755 103.135 49.1328C101.572 48.4901 100.194 47.4746 99.1216 46.1764C98.0492 44.8781 97.3162 43.3373 96.9875 41.6905C96.6588 40.0437 96.7446 38.3418 97.2372 36.7358C97.7299 35.1298 98.6142 33.6692 99.8117 32.4837C100.753 31.52 101.884 30.7581 103.134 30.245C104.384 29.732 105.726 29.4787 107.079 29.5007ZM107.079 46.3063C108.394 46.3038 109.678 45.9149 110.771 45.1884C111.863 44.462 112.714 43.4307 113.216 42.2246C113.719 41.0185 113.85 39.6917 113.594 38.4116C113.337 37.1316 112.705 35.9556 111.775 35.0321C110.519 33.8347 108.84 33.1739 107.098 33.1917C105.356 33.2094 103.691 33.9042 102.46 35.1269C101.228 36.3497 100.529 38.0029 100.511 39.7318C100.494 41.4606 101.16 43.1273 102.367 44.3741C102.979 44.9976 103.712 45.4905 104.522 45.8228C105.332 46.155 106.202 46.3195 107.079 46.3063Z" fill="#1A82E7"/>
<path d="M138.078 29.7954C138.475 29.8943 138.828 30.1216 139.08 30.4414C139.336 30.7553 139.474 31.148 139.47 31.5519V47.8097C139.468 48.2884 139.276 48.7472 138.935 49.0857C138.594 49.4243 138.132 49.6152 137.65 49.6167C137.411 49.6167 137.176 49.5699 136.956 49.4788C136.736 49.3877 136.537 49.2543 136.37 49.0862C136.202 48.9181 136.07 48.7187 135.981 48.4996C135.892 48.2805 135.847 48.046 135.85 47.8097V39.1642L131.504 47.7769C131.456 47.8722 131.408 47.9615 131.363 48.0448C131.2 48.3058 130.973 48.5211 130.702 48.6704C130.432 48.8197 130.128 48.8981 129.819 48.8981C129.509 48.8981 129.205 48.8197 128.935 48.6704C128.664 48.5211 128.437 48.3058 128.274 48.0448C128.21 47.9384 128.158 47.8256 128.118 47.7084L123.799 39.1642V47.8186C123.799 48.2959 123.608 48.7536 123.268 49.0911C122.928 49.4286 122.467 49.6182 121.986 49.6182C121.505 49.6182 121.044 49.4286 120.704 49.0911C120.364 48.7536 120.173 48.2959 120.173 47.8186V31.5519C120.169 31.1442 120.309 30.7479 120.569 30.4325C120.818 30.109 121.172 29.8807 121.571 29.7865C121.969 29.6934 122.386 29.7375 122.756 29.9115C123.13 30.08 123.435 30.3726 123.616 30.7391L129.825 43.0493L136.033 30.7391C136.218 30.3767 136.52 30.086 136.891 29.9134C137.261 29.7408 137.679 29.6961 138.078 29.7865V29.7954Z" fill="#1A82E7"/>
<path d="M163.694 22.3438C164.029 22.3372 164.362 22.3994 164.672 22.5264C164.982 22.6535 165.261 22.8427 165.494 23.0821C165.735 23.3097 165.925 23.5844 166.053 23.8888C166.181 24.1932 166.244 24.5207 166.238 24.8505V38.3992C166.188 41.5158 164.906 44.4881 162.668 46.6746C160.43 48.8612 157.416 50.0867 154.275 50.0867C151.135 50.0867 148.121 48.8612 145.883 46.6746C143.645 44.4881 142.363 41.5158 142.313 38.3992V24.8505C142.317 24.1869 142.584 23.5516 143.057 23.0823C143.53 22.6131 144.17 22.3477 144.839 22.3438C145.17 22.3434 145.497 22.4081 145.803 22.5341C146.109 22.6601 146.386 22.845 146.62 23.078C146.853 23.3111 147.038 23.5877 147.163 23.8919C147.288 24.1961 147.351 24.5219 147.349 24.8505V38.3307C147.363 39.6794 147.776 40.9944 148.537 42.1118C149.298 43.2292 150.373 44.0997 151.629 44.6147C152.885 45.1298 154.266 45.2668 155.599 45.0085C156.933 44.7503 158.161 44.1083 159.13 43.1625C159.78 42.5395 160.297 41.793 160.65 40.9675C161.004 40.1421 161.186 39.2544 161.187 38.3575V24.8505C161.185 24.5222 161.248 24.1966 161.373 23.8926C161.498 23.5886 161.682 23.3121 161.915 23.0791C162.148 22.8461 162.425 22.6612 162.731 22.535C163.036 22.4088 163.364 22.3438 163.694 22.3438Z" fill="#1A82E7"/>
<path d="M187.622 29.9204C187.843 30.0104 188.043 30.1454 188.208 30.3166C188.373 30.4879 188.501 30.6917 188.582 30.9148C188.671 31.1366 188.713 31.3741 188.706 31.6128C188.698 31.8514 188.642 32.086 188.54 32.3021L181.159 48.5777L181.132 48.6194L181.102 48.6611L181.003 48.8278L180.904 48.9677L180.793 49.0958L180.652 49.2208L180.511 49.319L180.34 49.4173L180.298 49.4441L180.256 49.4738H180.199L180.016 49.5304L179.86 49.587H179.677H179.509H179.338H179.155L178.999 49.5304L178.816 49.4738H178.759L178.717 49.4441L178.66 49.4173L178.492 49.319L178.366 49.2208L178.225 49.0958L178.112 48.9677L177.998 48.8278L177.914 48.6611L177.887 48.6194L177.857 48.5777L170.452 32.3021C170.35 32.0858 170.294 31.8513 170.287 31.6127C170.279 31.3742 170.321 31.1367 170.41 30.9148C170.49 30.6936 170.615 30.4912 170.778 30.3201C170.94 30.1491 171.137 30.013 171.354 29.9204C171.57 29.82 171.804 29.7635 172.042 29.7543C172.28 29.7451 172.517 29.7834 172.74 29.8669C172.966 29.9483 173.172 30.0749 173.346 30.2388C173.521 30.4027 173.659 30.6003 173.754 30.8195L179.497 43.4602L185.226 30.8284C185.319 30.609 185.458 30.4111 185.632 30.2471C185.807 30.0832 186.013 29.9568 186.239 29.8758C186.461 29.7907 186.698 29.7508 186.935 29.7584C187.173 29.7661 187.406 29.8212 187.622 29.9204Z" fill="#1A82E7"/>
<path d="M195.297 33.353V37.8484H201.139C201.379 37.8438 201.617 37.8889 201.838 37.9806C202.059 38.0724 202.258 38.2088 202.423 38.3813C202.591 38.5473 202.725 38.7447 202.816 38.9621C202.907 39.1795 202.954 39.4126 202.954 39.648C202.954 39.8835 202.907 40.1166 202.816 40.334C202.725 40.5514 202.591 40.7488 202.423 40.9148C202.258 41.0872 202.059 41.2237 201.838 41.3154C201.617 41.4072 201.379 41.4522 201.139 41.4477H195.297V46.0264H202.987C203.225 46.0236 203.461 46.0678 203.682 46.1563C203.903 46.2449 204.104 46.376 204.273 46.5422C204.442 46.7083 204.577 46.9061 204.668 47.1242C204.76 47.3423 204.807 47.5763 204.807 47.8126C204.806 48.2914 204.613 48.7502 204.272 49.0887C203.931 49.4273 203.469 49.6182 202.987 49.6197H193.491C193.009 49.6182 192.547 49.4273 192.206 49.0887C191.865 48.7502 191.672 48.2914 191.671 47.8126V31.5519C191.674 31.0736 191.867 30.6158 192.208 30.2775C192.548 29.9393 193.01 29.7479 193.491 29.7448H202.987C203.469 29.7479 203.93 29.9393 204.271 30.2775C204.611 30.6158 204.804 31.0736 204.807 31.5519C204.812 31.7874 204.766 32.0212 204.674 32.2381C204.581 32.4551 204.444 32.6503 204.27 32.8112C204.106 32.9838 203.906 33.1203 203.685 33.2121C203.464 33.3039 203.226 33.3488 202.987 33.3441L195.297 33.353Z" fill="#1A82E7"/>
<path d="M217.749 46.0264C217.986 46.024 218.221 46.0686 218.44 46.1575C218.66 46.2464 218.859 46.3779 219.027 46.5443C219.194 46.7106 219.327 46.9085 219.416 47.1263C219.506 47.3441 219.551 47.5774 219.548 47.8126C219.551 48.049 219.507 48.2835 219.418 48.5026C219.328 48.7217 219.196 48.9211 219.029 49.0892C218.861 49.2573 218.662 49.3907 218.442 49.4818C218.223 49.5729 217.987 49.6197 217.749 49.6197H209.45C208.968 49.6182 208.506 49.4273 208.165 49.0887C207.824 48.7502 207.631 48.2914 207.63 47.8126V31.5519C207.633 31.0736 207.826 30.6157 208.166 30.2775C208.507 29.9393 208.968 29.7479 209.45 29.7448C209.687 29.7412 209.923 29.7868 210.141 29.8785C210.359 29.9703 210.556 30.1062 210.719 30.2777C210.893 30.4414 211.03 30.6393 211.122 30.8587C211.215 31.078 211.26 31.3141 211.256 31.5519V46.0175L217.749 46.0264Z" fill="#1A82E7"/>
<path d="M224.194 29.7656C224.431 29.7621 224.667 29.8076 224.885 29.8994C225.104 29.9911 225.3 30.1271 225.463 30.2985C225.637 30.4623 225.774 30.6601 225.866 30.8795C225.959 31.0989 226.004 31.335 226 31.5727V47.8305C226.005 48.0687 225.959 48.3053 225.867 48.5252C225.774 48.7451 225.637 48.9435 225.463 49.1077C225.296 49.2746 225.097 49.4071 224.878 49.4976C224.659 49.588 224.424 49.6345 224.187 49.6345C223.949 49.6345 223.715 49.588 223.496 49.4976C223.277 49.4071 223.078 49.2746 222.911 49.1077C222.737 48.9435 222.599 48.7451 222.507 48.5252C222.414 48.3053 222.369 48.0687 222.374 47.8305V31.5519C222.377 31.0736 222.57 30.6158 222.91 30.2775C223.251 29.9393 223.712 29.7479 224.194 29.7448V29.7656Z" fill="#1A82E7"/>
<path d="M88.6937 5.97066C88.999 6.07041 89.2529 6.28486 89.4009 6.56809C89.5488 6.85131 89.5792 7.1808 89.4855 7.48599L86.0334 18.3344C85.9761 18.5836 85.831 18.8043 85.6242 18.9566C85.4174 19.1089 85.1626 19.1828 84.9057 19.165C84.6449 19.1749 84.388 19.0988 84.1753 18.9486C83.9626 18.7983 83.8061 18.5823 83.7301 18.3344L81.4327 11.1061L79.1293 18.3344C79.0566 18.5818 78.9051 18.7991 78.6974 18.9537C78.4898 19.1083 78.2372 19.1918 77.9776 19.1918C77.718 19.1918 77.4655 19.1083 77.2578 18.9537C77.0501 18.7991 76.8986 18.5818 76.8259 18.3344L73.3738 7.48599C73.2962 7.25908 73.2893 7.01418 73.3541 6.78331C73.4188 6.55245 73.5523 6.34635 73.737 6.19198C73.9217 6.03761 74.149 5.94215 74.3892 5.91806C74.6294 5.89398 74.8713 5.9424 75.0834 6.057C75.2251 6.12837 75.351 6.22697 75.454 6.34707C75.557 6.46717 75.6349 6.60638 75.6832 6.75661L77.9866 13.9879L80.284 6.76256C80.3575 6.52208 80.5094 6.31265 80.7159 6.16715C80.9257 6.01521 81.179 5.93384 81.4387 5.93494C81.6965 5.93386 81.9479 6.01528 82.1555 6.16715C82.3619 6.31265 82.5138 6.52208 82.5874 6.76256L84.8847 13.9879L87.1791 6.76256C87.2785 6.46008 87.494 6.2087 87.779 6.06295C87.9168 5.98586 88.0692 5.93787 88.2266 5.92199C88.384 5.90611 88.5431 5.92268 88.6937 5.97066Z" fill="#1A82E7"/>
<path d="M93.9331 8.33149V11.3086H97.8321C98.0726 11.3053 98.3086 11.3739 98.5093 11.5055C98.7101 11.637 98.8664 11.8254 98.9579 12.0463C99.0494 12.2671 99.0719 12.5101 99.0225 12.7438C98.9731 12.9775 98.854 13.1911 98.6808 13.3568C98.5714 13.4721 98.4387 13.5632 98.2914 13.6243C98.1442 13.6853 97.9856 13.7149 97.8261 13.7111H93.9271V16.7655H99.0527C99.2115 16.7636 99.3691 16.7929 99.5164 16.8519C99.6637 16.9108 99.7977 16.9982 99.9107 17.109C100.024 17.2198 100.113 17.3517 100.175 17.4972C100.236 17.6426 100.267 17.7987 100.267 17.9564C100.263 18.2733 100.133 18.5757 99.9055 18.7985C99.6783 19.0212 99.3721 19.1464 99.0527 19.1472H92.7244C92.4051 19.1464 92.0988 19.0212 91.8716 18.7985C91.6444 18.5757 91.5145 18.2733 91.5098 17.9564V7.11982C91.5145 6.80288 91.6444 6.50046 91.8716 6.27772C92.0988 6.05497 92.4051 5.92974 92.7244 5.92899H99.0527C99.3721 5.92974 99.6783 6.05497 99.9055 6.27772C100.133 6.50046 100.263 6.80288 100.267 7.11982C100.27 7.2767 100.24 7.43239 100.178 7.57694C100.117 7.7215 100.026 7.85174 99.9105 7.95935C99.8004 8.07484 99.6673 8.16625 99.5196 8.22777C99.3719 8.28928 99.2129 8.31954 99.0527 8.3166L93.9331 8.33149Z" fill="#1A82E7"/>
<path d="M110.873 12.2285C111.317 12.5878 111.673 13.0424 111.914 13.5581C112.156 14.0737 112.277 14.637 112.267 15.2055C112.267 16.2418 111.856 17.2364 111.124 17.9753C110.392 18.7141 109.397 19.1382 108.353 19.1561H103.555H103.501H103.435H103.378C103.058 19.1554 102.752 19.0301 102.525 18.8074C102.298 18.5846 102.168 18.2822 102.163 17.9653V7.11981C102.168 6.80287 102.298 6.50045 102.525 6.27771C102.752 6.05497 103.058 5.92973 103.378 5.92898H103.435H103.501H103.555H107.931C108.438 5.9249 108.942 6.02454 109.409 6.22171C109.877 6.41889 110.298 6.70939 110.648 7.07516C111.328 7.75267 111.728 8.65756 111.772 9.61283C111.815 10.5681 111.498 11.505 110.882 12.2404L110.873 12.2285ZM109.349 9.77238C109.347 9.39147 109.194 9.02677 108.922 8.75714C108.651 8.48751 108.284 8.3346 107.901 8.33148H104.571V11.2431H107.901C108.092 11.246 108.282 11.2095 108.459 11.1357C108.635 11.0619 108.795 10.9525 108.926 10.8144C109.065 10.6785 109.173 10.5159 109.246 10.3367C109.319 10.1576 109.354 9.9655 109.349 9.77238ZM108.305 16.7655C108.717 16.7608 109.11 16.5953 109.399 16.305C109.688 16.0146 109.85 15.6228 109.85 15.2145C109.852 15.0128 109.814 14.8128 109.736 14.6265C109.658 14.4402 109.543 14.2716 109.397 14.1308C109.257 13.9873 109.089 13.874 108.902 13.7982C108.716 13.7224 108.516 13.6856 108.314 13.6902H104.571V16.7655H108.305Z" fill="#1A82E7"/>
<path opacity="0.9" d="M57.3761 36.9467C57.1298 35.8403 56.5129 34.8495 55.626 34.1362C54.7391 33.4229 53.6348 33.0293 52.4935 33.0196H52.3525L28.8298 33.0404V43.0592L52.4185 43.0264C52.7914 43.0323 53.1638 42.9953 53.5282 42.9163C54.1757 42.7752 54.7889 42.5089 55.3328 42.1325C55.8766 41.7561 56.3404 41.2771 56.6977 40.7227C57.0551 40.1684 57.2989 39.5496 57.4153 38.9017C57.5317 38.2538 57.5184 37.5895 57.3761 36.9467Z" fill="#1A82E7"/>
<path opacity="0.9" d="M52.0585 6.10705C52.1437 5.74692 52.1879 5.37844 52.1904 5.00851C52.19 3.77674 51.7324 2.58831 50.9051 1.67019C50.0779 0.752078 48.9389 0.168622 47.7057 0.0312627C46.4725 -0.106097 45.2316 0.212266 44.2199 0.925546C43.2082 1.63883 42.4966 2.69704 42.2211 3.89807V3.95463L42.2031 4.03203L32.1229 49.8015C32.0271 50.1793 31.9767 50.567 31.9729 50.9566C31.9808 52.1645 32.4288 53.3288 33.2342 54.2344C34.0395 55.14 35.1479 55.7256 36.3544 55.8831C37.561 56.0406 38.7842 55.7594 39.7981 55.0913C40.8119 54.4232 41.548 53.4135 41.8702 52.2487L41.9062 52.0819C41.9242 52.0105 41.9392 51.939 41.9542 51.8676L52.0585 6.10705Z" fill="#006EAE"/>
<path opacity="0.9" d="M57.628 26.069C57.9998 26.0719 58.3708 26.035 58.7347 25.9589C59.95 25.698 61.0255 25.0008 61.7547 24.0009C62.4839 23.0011 62.8155 21.7691 62.6857 20.5415C62.5559 19.3138 61.974 18.177 61.0516 17.3492C60.1292 16.5214 58.9314 16.061 57.688 16.0562H57.55L10.3547 16.1217C9.02038 16.0822 7.72489 16.5706 6.75325 17.4793C5.7816 18.3881 5.2134 19.6427 5.17362 20.9674C5.13385 22.292 5.62577 23.578 6.54117 24.5426C7.45657 25.5072 8.72046 26.0712 10.0548 26.1107H10.2048C10.2797 26.1107 10.3517 26.1107 10.4267 26.1107L57.628 26.069Z" fill="#1A82E7"/>
<path opacity="0.9" d="M29.6336 6.10706C29.7178 5.74681 29.761 5.37834 29.7626 5.00852C29.759 3.77975 29.3004 2.59517 28.474 1.68026C27.6476 0.765359 26.5112 0.184005 25.281 0.0468562C24.0508 -0.090293 22.8128 0.226338 21.8025 0.936482C20.7923 1.64663 20.0804 2.7007 19.8023 3.89808V3.95464C19.7958 3.98015 19.7908 4.00599 19.7873 4.03205L9.69799 49.8015C9.60468 50.1797 9.55538 50.5673 9.55103 50.9566C9.55888 52.1646 10.0069 53.3289 10.8123 54.2344C11.6177 55.14 12.726 55.7256 13.9326 55.8831C15.1391 56.0406 16.3623 55.7594 17.3762 55.0913C18.3901 54.4232 19.1261 53.4135 19.4484 52.2487H19.4634L19.4993 52.082C19.4993 52.0105 19.5323 51.9391 19.5443 51.8676L29.6336 6.10706Z" fill="#006EAE"/>
<path opacity="0.9" d="M28.7519 33.0404L5.14823 33.0791C4.75561 33.0697 4.36319 33.1047 3.97854 33.1833C2.77965 33.4395 1.71601 34.1209 0.986984 35.0998C0.25796 36.0788 -0.0863956 37.288 0.0184609 38.501C0.123317 39.7139 0.670187 40.8473 1.55657 41.6886C2.44295 42.5299 3.60799 43.0215 4.83331 43.0711H5.22321L28.8298 43.0413V33.0404H28.7519Z" fill="#1A82E7"/>
</svg>
